<?xml version="1.0" encoding="utf-8"?>
<!-- Generator: Adobe Illustrator 23.0.5, SVG Export Plug-In . SVG Version: 6.00 Build 0)  -->
<svg version="1.1" xmlns="http://www.w3.org/2000/svg" xmlns:xlink="http://www.w3.org/1999/xlink" x="0px" y="0px"
	 viewBox="0 0 2000 2000" style="enable-background:new 0 0 2000 2000;" xml:space="preserve">
<style type="text/css">
	.st0{fill:#252734;}
	.st1{fill:#F1BAA4;}
	.st2{fill:#EFDDBF;}
	.st3{fill:#445E77;}
	.st4{fill:#E66F55;}
</style>
<g id="Layer_1">
</g>
<g id="Layer_2">
</g>
<g id="Layer_3">
</g>
<g id="Layer_4">
</g>
<g id="Layer_5">
</g>
<g id="Layer_6">
</g>
<g id="Layer_7">
</g>
<g id="Layer_8">
	<g>
		<rect x="228.4" y="251.6" class="st2" width="845" height="521.2"/>
		<path class="st0" d="M698.3,238v-1.2c0-26.2-21.2-47.4-47.4-47.4l0,0c-26.2,0-47.4,21.2-47.4,47.4v1.2H429.4
			c-19.1,0-34.6,15.5-34.6,34.6v0h512.1v0c0-19.1-15.5-34.6-34.6-34.6H698.3z"/>
		<rect x="369.9" y="762" class="st0" width="562.1" height="26.4"/>
		<rect x="693.9" y="428.8" class="st4" width="42.6" height="238.1"/>
		<rect x="549.7" y="522.1" class="st4" width="42.6" height="144.8"/>
		<rect x="621.8" y="476.8" class="st4" width="42.6" height="190.2"/>
		<rect x="477.6" y="562.3" class="st4" width="42.6" height="104.6"/>
		<polygon class="st0" points="896.3,342.7 894.5,432.2 873.9,414.8 802.1,500.2 802.1,609 723.5,666.9 631.2,666.9 747.4,581.3 
			747.4,480.2 831.9,379.6 808.4,359.8 		"/>
		<path class="st0" d="M1330.9,666.3c0,0,11.2,57.5,16.4,133.1s30.9,487.9,30.9,487.9s-57.5,21.2-79.8-2.5
			c0,0-18.3-462.2-52.5-468.9s-55,474.3-55,474.3s-42,19.8-78.6-5.1c0,0,29.9-593.2,48.3-615.5s106.1-33.2,109.6-31.5
			C1273.7,639.8,1330.9,666.3,1330.9,666.3z"/>
		<path class="st0" d="M1196.5,316.6c0,0-14.5-37.1,0.3-63.8c14.8-26.7,35.7-10.9,35.7-10.9s52.9-15.3,76.6-5.4
			c23.8,9.9,13.5,33.8,13.5,33.8l-119.5,55.5L1196.5,316.6z"/>
		
			<rect x="1238.5" y="377.9" transform="matrix(-0.9994 3.472257e-02 -3.472257e-02 -0.9994 2529.0071 784.8764)" class="st1" width="38.4" height="73.1"/>
		<path class="st2" d="M1142.7,537c1.4,26.2,3.7,54.1,6.4,77.4c3.6,30.7,7.8,53.7,11.5,55.3c3.8,1.6,22.3,3.1,46.1,3.9
			c27.4,0.8,61.9,0.7,88.8-1.5c19.6-1.6,35.1-4.3,41-8.4c5.1-3.6,7.7-5.4,8.7-7.5c1.5-2.8-0.1-6.1-1.6-15.1l0-0.2
			c-0.7-4.2-1.4-9.7-1.7-17.1c-0.6-11.7-0.3-28,2-51.2c0.1-0.7,0.1-1.4,0.2-2.1c0,0,0,0,0,0c3-29.5,7-52.6,10.5-70.6l0-0.2
			c4.3-22.1,7.9-36.4,8-45.3c0.1-2.4-0.1-4.3-0.6-6l0,0c-0.7-2.3-1.9-4-3.9-5.1c-4.2-2.3-10.8-4.2-18.1-5.7
			c-8.3-1.6-17.6-2.8-26.1-3.5c-4.9-0.4-9.5-0.7-13.5-0.8c-0.2,0-0.5,0-0.7,0c-1.7-0.1-3.2-0.1-4.6-0.1c-0.4,0-7.1,0-17.6,0.2
			c-4.4,0.1-9.4,0.2-14.8,0.3c-1,0-2,0-3,0.1c-6.4,0.2-13.4,0.4-20.6,0.7c-4.7,0.2-9.5,0.4-14.4,0.6c-3.8,0.2-7.7,0.4-11.5,0.6
			c-5.8,0.3-11.6,0.7-17.2,1.2c-10.4,0.8-20.1,1.8-28.2,3c-10.8,1.6-18.6,3.6-21.4,6.1C1140.6,451.4,1140.2,491.9,1142.7,537z"/>
		<path class="st1" d="M1323,303c-0.9,2.4,9.8,92.8-51,88.3c0,0-41.2,6-59.7-41c0,0-17.4,0.9-22.2-17.3c-4.9-18.2,8-26.1,18.2-17.1
			c0,0,4.4-56.1,54.6-56.9S1323,303,1323,303z"/>
		<path class="st2" d="M1292.7,414.4c-3.8-4.3-10.1-5.4-15.3-2.9c-4.3,2-9.4,4.8-11.6,7.2c-4.1,4.4-4.4,31.9,1.1,32
			c5.6,0.1,35.1-6.6,32.6-18.1C1298.7,428.7,1294.6,416.6,1292.7,414.4z"/>
		<path class="st2" d="M1228.5,416.6c3.5-4.6,9.7-6,15-3.9c4.4,1.7,9.8,4.1,12.1,6.3c4.4,4.1,6.7,31.5,1.1,32
			c-5.5,0.5-33.6-5.1-31.9-16.8C1225.4,430.3,1226.8,419,1228.5,416.6z"/>
		<path class="st0" d="M1208.2,316l3.7,18.7c0,0,14.9-36.2,16.4-52.8c0,0,62.8,31.5,66.3,5.3c0,0,16,30.8,33.1,27.9
			s8-49.7-33.1-63.1c-41.1-13.4-75.8-3.3-88.1,17.1C1194.2,289.4,1210.1,317.5,1208.2,316z"/>
		<path class="st0" d="M1232.4,319.2c0.3,0,0.6-0.1,0.8-0.3c6.3-5.8,12.3-3.3,14.8-2.2c1,0.4,1.8,0.8,2.5,0.1
			c0.5-0.5,0.5-1.3,0.1-1.8c-0.3-0.3-0.6-0.4-1-0.4c0,0,0,0,0,0c-0.1-0.1-0.3-0.1-0.6-0.2c-2.7-1.2-10-4.3-17.5,2.7
			c-0.5,0.5-0.5,1.3-0.1,1.8C1231.7,319.1,1232.1,319.3,1232.4,319.2z"/>
		<path class="st0" d="M1310.9,323.3c0.3,0,0.5-0.1,0.7-0.3c0.5-0.4,0.6-1.2,0.2-1.7c-0.1-0.1-7.2-8.9-18.9-5.3
			c-0.7,0.2-1,0.9-0.8,1.6c0.2,0.7,0.9,1,1.6,0.8c10.1-3.1,16.1,4.4,16.2,4.4C1310.2,323.2,1310.6,323.4,1310.9,323.3z"/>
		<path class="st0" d="M1269.6,363.7c-0.1,0.7,0.4,1.3,1.1,1.4c0,0,0.2,0,0.5,0c1.4,0,5.2-0.7,7.7-6.3c2.5-5.4-2.6-12.9-4.8-16.1
			c-0.3-0.5-0.5-0.8-0.7-1c-0.1-0.5-0.6-0.9-1.1-0.9c-0.7,0-1.3,0.5-1.3,1.2c0,0.6,0.2,0.8,1,2.1c1.8,2.6,6.4,9.6,4.6,13.7
			c-2.3,5-5.6,4.8-5.7,4.8C1270.3,362.6,1269.7,363.1,1269.6,363.7z"/>
		<path class="st0" d="M1268.5,379.5c4.7-0.2,9.3-2.7,9.7-3.7c0.3-0.6,0-1.4-0.7-1.6c-0.5-0.2-1.1,0-1.4,0.4
			c-0.7,0.5-5.5,3.3-10.4,2.2c-3.5-0.8-6.3-3.4-8.2-7.8c-0.3-0.6-1-0.9-1.6-0.6c-0.6,0.3-0.9,1-0.6,1.6c3.5,8,9,9.6,13,9.6
			C1268.3,379.5,1268.4,379.5,1268.5,379.5z"/>
		
			<ellipse transform="matrix(6.843802e-02 -0.9977 0.9977 6.843802e-02 824.4893 1551.0453)" class="st0" cx="1242.8" cy="334" rx="8" ry="6.9"/>
		<circle class="st2" cx="1241" cy="331.8" r="3.2"/>
		
			<ellipse transform="matrix(6.843802e-02 -0.9977 0.9977 6.843802e-02 873.5627 1611.4009)" class="st0" cx="1299.6" cy="337.9" rx="8" ry="6.9"/>
		<circle class="st2" cx="1297.9" cy="335.7" r="3.2"/>
		<path class="st2" d="M1250.3,754.5c1.4,0,2.8-0.2,4.3-0.5c0.7-0.1,1.1-0.8,1-1.5c-0.1-0.7-0.8-1.1-1.5-1
			c-6.6,1.3-12.2-0.2-16.6-4.4c-13.4-13-11.4-46.6-11.4-46.9c0.1-0.7-0.3-1.3-1-1.4c-0.7-0.1-1.3,0.3-1.4,1
			c-0.1,0.3-2.4,35.1,12.1,49.1C1239.8,752.9,1244.6,754.7,1250.3,754.5z"/>
		<path class="st2" d="M1255.9,797.6C1255.9,797.6,1255.9,797.6,1255.9,797.6c0.7,0,1.2-0.6,1.2-1.3c-1.2-32.7-3.5-95-3.4-97.1
			c0-0.7-0.5-1.3-1.2-1.3c-0.7,0-1.3,0.5-1.3,1.2c-0.2,2.7,3.2,93.5,3.4,97.3C1254.6,797.1,1255.2,797.6,1255.9,797.6z"/>
		<path class="st2" d="M1236.9,693c32.5-1.1,64.8-4.9,79.7-6.6c3.7-0.4,6.4-0.7,7-0.8c0.7,0,1.2-0.6,1.2-1.3c0-0.7-0.6-1.2-1.3-1.2
			c-0.7,0-3.2,0.3-7.2,0.8c-69.6,8-118.4,9-145.2,2.9c-0.7-0.2-1.3,0.3-1.5,0.9c-0.2,0.7,0.3,1.3,0.9,1.5
			C1188,693.3,1212.5,693.9,1236.9,693z"/>
		<path class="st0" d="M1281.8,452.1c-3.7-1.8-49.1-1.8-49-0.2c0.1,1.6,21.9,32.8,21.9,32.8L1281.8,452.1z"/>
		<path class="st0" d="M1243.4,466c0,2.4-18.3,155.2-18.3,155.2s30,39.5,31.7,40.1s36.7-40.4,36.7-40.4l-25.6-157.8L1243.4,466z"/>
		<path class="st1" d="M1056.6,512.3c0,0-12.8,25.5-33.7,28.2c-20.9,2.7-31-18.3-38.5-51.7c-7.5-33.4-8.2-70.1-8.2-70.1
			s-34.6-9.3-40.4-16.8c-5.8-7.5-11.5-20.9-8-22.4c0,0-2.4-6.8,3.3-7.6c0,0,0-8,7-6.3c0,0,2-7.2,11.7,3.7
			c9.8,11,24.5,22.7,29.3,17.5c4.8-5.2-7.2-16.3,0.5-18.8c7.6-2.5,17.9,22,19.2,36.1c1.3,14,17.6,75.2,17.6,75.2s28.2,5.2,29.3,5.6
			S1056.6,512.3,1056.6,512.3z"/>
		<path class="st3" d="M955,435.5c0,0,20.2,98.6,60.8,105.4c30.9,5.2,92.6-0.2,120-3.1c2.6-0.3,5-0.5,6.9-0.7
			c4.3-0.5,6.8-0.8,6.8-0.8l-3.1-90.1l-4.7,1.2l-103.4,27.7l-28.8-55.4L955,435.5z"/>
		<path class="st1" d="M1520.1,793.8c-3.9,0.2-4.7-2.9-4.7-2.9s-1,4.7-4.1,6c-3.1,1.3-5.6-5.7-5.6-5.7s-0.3,3.2-5,3.2
			c-4.7,0-6.1-8.2-6.1-8.2c-3,6.8-8,1.2-8,1.2s-3.8-23.7-5.3-22.8c-1.5,0.9-9.2-3.1-19.2-13c-9.6-9.5-9-22.1-9.5-23.4
			c5.2-5.9,12.1-15.8,16.2-22.3c5.4,4.3,38.4,30.6,43.1,36.8c5.2,6.7,9.2,27.7,10.7,35.6C1524.3,786.2,1524,793.6,1520.1,793.8z"/>
		<path class="st0" d="M1515.3,789.1c-0.1-0.1-0.2-0.1-0.2-0.2c-0.3-0.3-0.4-0.7-0.3-1c-0.1-1.7-2.9-13.1-4.8-20.7
			c-2.8-11.4-2.9-11.9-2.8-12.4c0.1-0.7,0.7-1.1,1.4-1c0.6,0.1,1,0.6,1,1.2c0.1,0.8,1.5,6.3,2.8,11.7c5.3,21.7,5.3,21.7,4.5,22.5
			C1516.3,789.4,1515.7,789.4,1515.3,789.1z"/>
		<path class="st0" d="M1505.3,789c-0.3-0.2-0.4-0.4-0.5-0.8c-1.7-9-4.6-23.6-5.1-25.2c-0.1-0.2-0.2-0.6-0.1-0.9
			c0.1-0.7,0.8-1.1,1.4-0.9c1,0.2,1.2,0.2,6.2,26.6c0.1,0.7-0.3,1.3-1,1.4C1505.9,789.2,1505.6,789.2,1505.3,789z"/>
		<path class="st0" d="M1494,784.7c-0.3-0.2-0.5-0.5-0.5-0.8c-0.7-4.7-2.6-17.1-3-18.6c-0.2-0.6,0.2-1.3,0.9-1.5
			c0.6-0.2,1.3,0.2,1.5,0.9c0.5,1.9,3,18.2,3.1,18.9c0.1,0.7-0.4,1.3-1,1.4C1494.6,784.9,1494.3,784.8,1494,784.7z"/>
		<path class="st3" d="M1355,444.7c0.7,0,7.4,1.2,34.3,69.4s92.2,180,92.2,180s-12.6,39.9-42.2,51.1c0,0-84.2-127.3-95-173.8
			c-10.8-46.5,6.4-132.1,5.5-130.9L1355,444.7z"/>
		<path class="st3" d="M1121.8,767.1c0.7-2.8,80.4,2.3,82.4,0.2c0.7-0.7,1.5-41.1,2.4-93.6c1.6-90,3.8-215.6,6.6-237.8
			c-5.8,0.3-11.6,0.7-17.2,1.2c-10.4,0.8-20.1,1.8-28.2,3c-10.8,1.6-18.6,3.6-21.4,6.1l-4.7,1.2c-2.9,35.1-5.9,89.3-5.9,89.3
			s0,0.4-0.1,1.1C1134.7,554.5,1121.6,764,1121.8,767.1z"/>
		<path class="st3" d="M1384.6,778.1l-40.3-206.6l10.3-71.5l0-0.2l6.8-47.3l0.6-3.9l0,0c-0.7-2.3-1.9-4-3.9-5.1
			c-4.2-2.3-10.8-4.2-18.1-5.7c-8.3-1.6-17.6-2.8-26.1-3.5c-4.9-0.4-9.5-0.7-13.5-0.8l-5,238.6l-2.3,107L1384.6,778.1z"/>
		<path class="st0" d="M1196.2,659.4c-1.1,0-2.1-0.8-2.3-1.9l-20.1-108.8c-0.1-0.5,0-1.1,0.2-1.5c1.9-3.5,11.1-20,14.3-24.5
			c-1.8-3.5-13-15.7-23.2-25.7c-0.7-0.7-0.9-1.8-0.4-2.7c26.9-51.6,29.2-51.8,30.7-52c1.2-0.1,2.4,0.8,2.5,2.1
			c0.1,1-0.4,1.8-1.2,2.3c-2.6,2.7-15.7,26.4-27.1,48.2c26.4,26.2,24.3,28.4,22.8,30c-1.2,1.3-7.9,12.9-13.9,23.8l19.9,108
			c0.2,1.3-0.6,2.5-1.8,2.7C1196.4,659.4,1196.3,659.4,1196.2,659.4z"/>
		<path class="st0" d="M1309.3,667.3c-0.1,0-0.2,0-0.3,0c-1.3-0.2-2.1-1.4-1.9-2.6c9.1-60.6,14.2-94,15.4-99.5
			c-0.4-3.3-9.7-29.8-15.5-45.9c-0.2-0.7-0.2-1.4,0.2-2l19.7-31.5c-8.1-19.5-17.9-40.4-20.9-42.8c-1-0.2-1.8-1.1-1.8-2.2
			c0-1.3,1-2.4,2.3-2.3c1.7,0,6.1,0.3,25.1,46.7c0.3,0.7,0.2,1.5-0.2,2.1l-19.7,31.6c15.3,42.5,15.7,46.2,15.3,47.3
			c-0.8,3.6-9.6,61.2-15.3,99.3C1311.4,666.5,1310.4,667.3,1309.3,667.3z M1322.6,564.3c-0.1,0.3-0.2,0.6-0.2,0.7
			C1322.5,564.6,1322.6,564.4,1322.6,564.3z"/>
		
			<rect x="373.5" y="1472.7" transform="matrix(0.9899 -0.142 0.142 0.9899 -229.0901 70.6163)" class="st0" width="13.7" height="336.4"/>
		
			<rect x="185.6" y="1472.7" transform="matrix(-0.9899 -0.142 0.142 -0.9899 150.0631 3292.6262)" class="st0" width="13.7" height="336.4"/>
		<path class="st0" d="M465,1727.4l-13.6,1.9l-31.5-219.7l-10.9-75.9h13c0.3,0,0.6,0,0.9,0l10.6,74L465,1727.4z"/>
		<polygon class="st0" points="271.7,1433.7 260.8,1509.6 229.3,1729.3 215.7,1727.4 247,1509.6 257.8,1433.7 		"/>
		
			<rect x="1746.7" y="1474.8" transform="matrix(0.9899 -0.142 0.142 0.9899 -215.4769 265.5719)" class="st0" width="13.7" height="336.4"/>
		
			<rect x="1558.8" y="1474.8" transform="matrix(-0.9899 -0.142 0.142 -0.9899 2882.2954 3491.6702)" class="st0" width="13.7" height="336.4"/>
		<path class="st0" d="M1838.2,1729.4l-13.6,1.9l-31.5-219.7l-10.9-75.9h13c0.3,0,0.6,0,0.9,0l10.6,74L1838.2,1729.4z"/>
		<polygon class="st0" points="1644.9,1435.7 1634,1511.7 1602.5,1731.4 1588.9,1729.4 1620.2,1511.7 1631.1,1435.7 		"/>
		<g>
			<path class="st1" d="M662.3,1718.1c-5.7-3.8-13.5-14.7-20.9-26.5c-11.1-17.9-21.1-37.9-21.1-37.9s41-38.3,42.2-42.7
				c1.2-4.3,18.4,23.3,19.9,24.6c0.7,0.6,18-4.3,38.5-8.8c26.2-5.7,57.6-10.9,66.5-3.4C803.4,1636.9,676.8,1727.6,662.3,1718.1z"/>
			<path class="st0" d="M662.3,1718.1c-5.7-3.8-13.5-14.7-20.9-26.5c25.1-8.2,77.9-35.4,81.2-48.7c1.7-6.7,0.4-12-1.7-16.1
				c26.2-5.7,57.6-10.9,66.5-3.4C803.4,1636.9,676.8,1727.6,662.3,1718.1z"/>
			<path class="st1" d="M469.8,1758.9c-2.1-6.5-1.3-19.9,0.5-33.7c2.7-20.9,7.4-42.7,7.4-42.7s56-4,59.7-6.6
				c3.6-2.6-0.4,29.7,0,31.6c0.1,0.9,16.7,8,35.5,17.4c23.9,12,51.6,27.8,53.8,39.3C630.6,1784.6,475,1775.4,469.8,1758.9z"/>
			<path class="st0" d="M469.8,1758.9c-2.1-6.5-1.3-19.9,0.5-33.7c24.7,9.4,82.8,21.5,93.8,13.3c5.5-4.2,7.9-9.1,8.8-13.6
				c23.9,12,51.6,27.8,53.8,39.3C630.6,1784.6,475,1775.4,469.8,1758.9z"/>
		</g>
		<path class="st1" d="M1566,1759.2c2.1-6.5,1.3-19.9-0.5-33.7c-2.7-20.9-7.4-42.7-7.4-42.7s-56-4-59.7-6.6
			c-3.6-2.6,0.4,29.7,0,31.6c-0.1,0.9-16.7,8-35.5,17.4c-23.9,12-51.6,27.8-53.8,39.3C1405.2,1784.9,1560.7,1775.7,1566,1759.2z"/>
		<path class="st0" d="M1566,1759.2c2.1-6.5,1.3-19.9-0.5-33.7c-24.7,9.4-82.8,21.5-93.8,13.3c-5.5-4.2-7.9-9.1-8.8-13.6
			c-23.9,12-51.6,27.8-53.8,39.3C1405.2,1784.9,1560.7,1775.7,1566,1759.2z"/>
		<rect x="389.3" y="1227.2" class="st0" width="1217.8" height="48.8"/>
		<rect x="205.6" y="1242.3" class="st0" width="22.4" height="207.5"/>
		
			<rect x="1786.6" y="1244.3" transform="matrix(-1 -4.472657e-11 4.472657e-11 -1 3595.635 2696.1768)" class="st0" width="22.4" height="207.5"/>
		<polygon class="st0" points="717.6,1612.5 585.7,1683.9 465,1461 573.6,1402.2 		"/>
		<path class="st4" d="M436.6,1509.6H219.4c-19.6,0-35.5-15.9-35.5-35.5v-4.9c0-19.6,15.9-35.5,35.5-35.5h217.2
			c19.6,0,35.5,15.9,35.5,35.5v4.9C472.2,1493.7,456.3,1509.6,436.6,1509.6z"/>
		<path class="st3" d="M431.9,1358.2c-2.5-34.9-22.4-160.6-22.4-160.6c77.3-7.9,8.5-99.3-19.4-148.8c-0.2-0.4-0.6-0.7-0.9-1
			c-16.4-18.2-39-29.8-63.3-32.1c-13.6-1.3-16.3-5.6-26.3,2.3c-11.3,8.9-29.4,32.4-33.1,55c-14.1,86.5-0.4,279.2-2.9,285.2H431.9z"
			/>
		<path class="st1" d="M393,865.6c0,0,7.4,6.7,9.1,22c1.8,15.3,11.4,37.7,26.1,44.7l-8.1,14c0,0,1.6,46-24.3,50.6
			c-25.9,4.6-30.6,0.7-30.6,0.7l-10.3,37.3c-4.1,15-19.4,24.1-34.6,20.6h0c-16.8-3.9-26.6-21.5-21-37.8
			c8.3-24.3,18.6-54.4,18.7-55.6c0.2-2.1-27-44.4,7.5-75C360.2,856.6,393,865.6,393,865.6z"/>
		<path class="st0" d="M332.3,951l0.2-5.8c0,0-27.2-21.6-15.1-41.4c12.2-19.8,20.7,7.7,20.7,7.7l79.8-22.8c0,0-1.9-69.6-85.5-55.7
			s-67.6,94.7-58.2,116.1s34.4,44.3,34.4,44.3h0C323,984,331.9,968.2,332.3,951z"/>
		
			<ellipse transform="matrix(0.9698 -0.244 0.244 0.9698 -213.3348 122.5121)" class="st0" cx="387.9" cy="922.4" rx="7.4" ry="8.5"/>
		<circle class="st2" cx="389.3" cy="919.7" r="3.4"/>
		<path class="st0" d="M392.4,974.8c-3.2-2.3-5.5-6.4-5.2-7.8c0.2-0.9,1-1.4,1.9-1.2c0.7,0.1,1.2,0.7,1.3,1.4
			c0.3,0.8,2.2,4.7,5.9,6.2c2.6,1,5.6,0.5,8.8-1.5c0.8-0.5,1.7-0.2,2.2,0.5c0.5,0.8,0.2,1.7-0.5,2.2c-6.5,4.1-11.3,2.5-14.2,0.4
			C392.6,974.9,392.5,974.9,392.4,974.8z M390.4,967.8C390.4,967.8,390.4,967.8,390.4,967.8C390.4,967.8,390.4,967.8,390.4,967.8z
			 M390.4,967.8C390.4,967.8,390.4,967.8,390.4,967.8C390.4,967.8,390.4,967.8,390.4,967.8z"/>
		<path class="st0" d="M373.7,917c-0.5,0.1-1,0-1.4-0.3c-1.2-0.6-1.6-2-1-3.2c0.3-0.5,7.1-12.9,22.6-11c1.3,0.2,2.2,1.3,2,2.6
			c-0.2,1.3-1.3,2.2-2.6,2c-12.4-1.6-17.8,8.4-17.9,8.5C375,916.5,374.4,916.9,373.7,917z"/>
		<path class="st1" d="M289.9,1079.4c-0.3,0-0.4,0-0.5,0c0,0,0,0,0,0C289.6,1079.4,289.8,1079.4,289.9,1079.4z"/>
		<path class="st0" d="M452.2,1338.6H262v0c0,63.8,51.8,115.6,115.6,115.6h62.8l-24.1,236.4h170.1v-236.4v0
			c0-63.8-51.8-115.6-115.6-115.6H452.2z"/>
		<path class="st2" d="M586.4,1673.7c-1,0-1.7-0.8-1.7-1.7v-225.8c0-1,0.8-1.7,1.7-1.7c1,0,1.7,0.8,1.7,1.7v225.8
			C588.1,1672.9,587.3,1673.7,586.4,1673.7z"/>
		<path class="st4" d="M217.5,1273.9h-1.2c-17.2,0-31.2-14-31.2-31.2v-127.4c0-17.2,14-31.2,31.2-31.2h1.2c17.2,0,31.2,14,31.2,31.2
			v127.4C248.7,1260,234.7,1273.9,217.5,1273.9z"/>
		<path class="st0" d="M285.5,882.8c0,0-62.1-22.7-73.9,28.4c-11.8,51.1,36.4,113.9-12.7,160.2c-27.8,26.2-11.5,90.7,27.3,100.5
			c53.6,13.5,95-69.3,93.1-68.8c-1.8,0.5-68.1,10.1-41.3-30.6S234.9,929.1,248,919s35.8-17.6,35.8-17.6L285.5,882.8z"/>
		<path class="st4" d="M1830.7,1471.3v4.9c0,15.6-10.1,28.8-24,33.6c-3.6,1.2-7.5,1.9-11.5,1.9h-217.6c-19.4-0.2-35.1-16-35.1-35.5
			v-4.9c0-19.6,15.9-35.5,35.5-35.5h217.2c0.3,0,0.6,0,0.9,0C1815.3,1436.2,1830.7,1451.9,1830.7,1471.3z"/>
		<path class="st0" d="M1582.8,1360.2c2.5-34.9,22.4-160.6,22.4-160.6c-65.8-33.3-8.1-93,24.9-141.1c11.3-16.5,26.2-31.6,26.5-31.9
			c16.4-18.2,7.9-6.6,32.2-8.9c13.6-1.3,16.3-5.6,26.3,2.3c11.3,8.9,29.4,32.4,33.1,55c14.1,86.5,0.4,279.2,2.9,285.2H1582.8z"/>
		<path class="st1" d="M1621.6,867.7c0,0-7.4,6.7-9.1,22s-11.4,37.7-26.1,44.7l8.1,14c0,0-1.6,46,24.3,50.6
			c25.9,4.6,30.6,0.7,30.6,0.7l10.3,37.3c4.1,15,19.4,24.1,34.6,20.6h0c16.8-3.9,26.6-21.5,21-37.8c-8.3-24.3-18.6-54.4-18.7-55.6
			c-0.2-2.1,27-44.4-7.5-75C1654.5,858.7,1621.6,867.7,1621.6,867.7z"/>
		<path class="st4" d="M1682.3,953.1l-0.2-5.8c0,0,27.2-21.6,15.1-41.4s-20.7,7.7-20.7,7.7l-79.8-22.8c0,0,1.9-69.6,85.5-55.7
			c83.6,14,67.6,94.7,58.2,116.1c-9.4,21.3-34.4,44.3-34.4,44.3v0C1691.6,986,1682.8,970.2,1682.3,953.1z"/>
		
			<ellipse transform="matrix(0.244 -0.9698 0.9698 0.244 333.3416 2276.519)" class="st0" cx="1626.8" cy="924.5" rx="8.5" ry="7.4"/>
		<circle class="st2" cx="1625.3" cy="921.8" r="3.4"/>
		<path class="st0" d="M1622,977.1c-2.9,2-7.7,3.6-14.2-0.4c-0.8-0.5-1-1.5-0.5-2.2c0.5-0.8,1.5-1,2.2-0.5c3.2,2,6.2,2.5,8.8,1.5
			c3.7-1.4,5.7-5.4,5.9-6.2c0.1-0.7,0.6-1.2,1.3-1.4c0.9-0.2,1.7,0.4,1.9,1.2c0.3,1.3-2,5.4-5.2,7.8
			C1622.1,977,1622.1,977,1622,977.1z M1624.3,969.8C1624.3,969.8,1624.3,969.8,1624.3,969.8
			C1624.3,969.8,1624.3,969.8,1624.3,969.8z M1624.3,969.8C1624.3,969.8,1624.3,969.8,1624.3,969.8
			C1624.3,969.8,1624.3,969.8,1624.3,969.8z"/>
		<path class="st0" d="M1641,919.1c0.5,0.1,1,0,1.4-0.3c1.2-0.6,1.6-2,1-3.2c-0.3-0.5-7.1-12.9-22.6-11c-1.3,0.2-2.2,1.3-2,2.6
			s1.3,2.2,2.6,2c12.4-1.6,17.8,8.4,17.9,8.5C1639.6,918.6,1640.3,919,1641,919.1z"/>
		<path class="st1" d="M1724.7,1081.4c0.3,0,0.4,0,0.5,0c0,0,0,0,0,0C1725,1081.5,1724.9,1081.5,1724.7,1081.4z"/>
		<path class="st1" d="M1447.2,1215.3c0,0-8.7,1.2-7.2,8.9c1.5,7.6,5.6,6,5.6,6s-8.4,11.3,6.6,14.5c0,0-6.3,7.1,8.1,11
			c14.3,3.9,32.7,7,32.7,7s10,18.2,20,19.2c10,1,15.6-0.3,16.5,0.6c0.9,0.9,75.8,46,107.3,25.4c31.5-20.7,48.7-79,48.7-79
			l-44.1-17.2l-25.8,52.8l-86.4-21.7c0,0-22.1-34.9-34.5-37.2c-7.2-1.3-22-1.6-33.3-1.6c-8.2,0-14.6,0.1-14.6,0.1s-0.3,0.3-0.8,0.7
			C1444.3,1206.7,1440.8,1211.4,1447.2,1215.3z"/>
		<path class="st0" d="M1488.7,1217.7c-0.3,0.3-0.8,0.5-1.2,0.5c-14.3-0.4-36-0.9-37.4-0.9c-0.9,0.1-1.7-0.5-1.9-1.5
			c-0.2-0.9,0.5-1.8,1.4-2c0.2,0,0.8-0.1,37.9,0.8c1,0,1.7,0.8,1.7,1.8C1489.3,1216.9,1489.1,1217.4,1488.7,1217.7z"/>
		<path class="st0" d="M1487.6,1230.1c-0.3,0.3-0.7,0.5-1.1,0.5c-14.3,0.3-35.9,0.9-37.1,1c-0.9,0.1-1.7-0.5-1.9-1.5
			c-0.2-0.9,0.5-1.8,1.4-2c0.2,0,0.6-0.1,37.4-1c1,0,1.8,0.7,1.8,1.7C1488.2,1229.3,1488,1229.8,1487.6,1230.1z"/>
		<path class="st3" d="M1562.4,1340.7h190.2v0c0,63.8-51.8,115.6-115.6,115.6h-62.8l24.1,236.4h-170.1v-236.4v0
			c0-63.8,51.8-115.6,115.6-115.6H1562.4z"/>
		<path class="st0" d="M1701.4,1237.5c0.3,0,0.7-0.1,0.9-0.3c0.6-0.5,14.9-11.8,23.1-41.4c0.2-0.8-0.2-1.6-1.1-1.9
			c-0.8-0.2-1.6,0.2-1.9,1.1c-6.9,25-18.5,36.7-21.4,39.3l-76.8-31.1c11.8-54.8,28.2-84.7,28.4-85c0.4-0.7,0.1-1.7-0.6-2.1
			c-0.7-0.4-1.7-0.1-2.1,0.6c-0.2,0.3-17.1,31-29,87.1c-0.2,0.7,0.2,1.4,0.9,1.7l78.9,31.9C1701,1237.5,1701.2,1237.5,1701.4,1237.5
			z"/>
		<path class="st4" d="M1797.2,1276h1.2c17.2,0,31.2-14,31.2-31.2v-127.4c0-17.2-14-31.2-31.2-31.2h-1.2c-17.2,0-31.2,14-31.2,31.2
			v127.4C1766,1262,1780,1276,1797.2,1276z"/>
		<path class="st0" d="M1493.6,1244.8c-0.3,0.3-0.7,0.5-1.1,0.5c-14.3,0.3-35.9,0.9-37.1,1c-0.9,0.1-1.7-0.5-1.9-1.5
			c-0.2-0.9,0.5-1.8,1.4-2c0.2,0,0.6-0.1,37.4-1c1,0,1.8,0.7,1.8,1.7C1494.1,1244,1493.9,1244.5,1493.6,1244.8z"/>
		<path class="st1" d="M543.9,1325.1c0,0,7.7,4.3,3.5,10.9c-4.2,6.6-7.4,3.6-7.4,3.6s3.8,13.6-11.4,11.1c0,0,3.3,8.9-11.5,7.3
			c-14.8-1.6-33-5.3-33-5.3s-15.9,13.4-25.6,10.7c-9.7-2.6-14.4-5.9-15.6-5.4c-1.1,0.6-87.3,15.6-109.3-15.1
			c-21.9-30.6-24-146-24-146l49.4-3.8l10.1,117l88.4,11c0,0,33.2-24.6,45.6-22.2c7.1,1.4,21.1,6.4,31.6,10.5
			c7.7,3,13.6,5.4,13.6,5.4s0.2,0.4,0.5,1C549.8,1318.1,551.3,1323.7,543.9,1325.1z"/>
		<path class="st0" d="M504.4,1312.2c0.2,0.4,0.5,0.7,1,0.9c13.5,4.8,33.9,12.1,35.2,12.7c0.8,0.4,1.8,0.1,2.3-0.7
			c0.5-0.8,0.2-1.9-0.6-2.4c-0.2-0.1-0.7-0.4-35.7-12.9c-0.9-0.3-1.9,0.1-2.2,1.1C504.2,1311.4,504.2,1311.8,504.4,1312.2z"/>
		<path class="st0" d="M500.9,1324.3c0.2,0.4,0.5,0.7,0.9,0.8c13.2,5.5,33.1,13.8,34.2,14.3c0.8,0.4,1.8,0.1,2.3-0.7
			c0.5-0.8,0.2-1.9-0.6-2.4c-0.1-0.1-0.5-0.3-34.5-14.4c-0.9-0.4-1.9,0.1-2.3,0.9C500.7,1323.3,500.7,1323.8,500.9,1324.3z"/>
		<path class="st0" d="M285.6,1197.2c-0.3-0.1-0.6-0.3-0.8-0.6c-0.4-0.7-9.6-16.4-6.6-46.9c0.1-0.8,0.8-1.4,1.7-1.4
			c0.8,0.1,1.4,0.8,1.4,1.7c-2.6,25.8,4,40.9,5.7,44.3l82.9-1.2c8.8-55.3,4.3-89.2,4.2-89.5c-0.1-0.8,0.5-1.6,1.3-1.7
			c0.8-0.1,1.6,0.5,1.7,1.3c0,0.3,4.7,35.1-4.4,91.7c-0.1,0.7-0.7,1.3-1.5,1.3l-85.1,1.3C286,1197.3,285.8,1197.3,285.6,1197.2z"/>
		<path class="st0" d="M490.1,1335.8c0.2,0.4,0.5,0.7,0.9,0.8c13.2,5.5,33.1,13.8,34.2,14.3c0.8,0.4,1.8,0.1,2.3-0.7
			c0.5-0.8,0.2-1.9-0.6-2.4c-0.1-0.1-0.5-0.3-34.5-14.4c-0.9-0.4-1.9,0.1-2.3,0.9C489.9,1334.8,489.9,1335.4,490.1,1335.8z"/>
		<path class="st0" d="M868.7,1726v16.7l-59.9,35.2v23.8h137.5c0,0-11.9-100.2-9.1-99.4c2.9,0.7-59.7,0-59.7,0L868.7,1726z"/>
		<polygon class="st0" points="998.2,1707.5 998.2,1801.7 1112.7,1797.1 1112.7,1766.5 1060.8,1736.5 1058.2,1702.3 		"/>
		
			<rect x="1309.6" y="1469.9" transform="matrix(0.9899 -0.142 0.142 0.9899 -219.213 203.4688)" class="st0" width="13.7" height="336.4"/>
		
			<rect x="1134.4" y="1469.9" transform="matrix(0.9899 -0.142 0.142 0.9899 -220.9876 178.5942)" class="st0" width="13.7" height="336.4"/>
		
			<rect x="1121.7" y="1469.9" transform="matrix(-0.9899 -0.142 0.142 -0.9899 2013.1378 3419.9341)" class="st0" width="13.7" height="336.4"/>
		<path class="st3" d="M982.9,1371.4l-122.1,62.9c0,0-19.4,7-16.7,37s24.7,250.3,24.7,250.3l84.6-5.3l-16.1-208.8
			c0,0,144.8-33.5,148.3-36.1c3.5-2.6,22.9-99.9,22.9-99.9l-63.4-36.7L982.9,1371.4z"/>
		<polygon class="st3" points="991.6,1516.2 994.4,1721.6 1064.3,1721.6 1089,1516.2 		"/>
		<path class="st0" d="M983.2,1478.5l-7,49l-39.9,278.2l-13.6-1.9l39.6-276.2l6.7-47.1c2.7-0.6,5.6-1,8.8-1.4
			C979.6,1478.9,981.4,1478.7,983.2,1478.5z"/>
		<path class="st0" d="M808.8,1154.1l-43.3,44.3c0,0,56.6,115.4,102,118.4c45.3,3.1,85.5-90.6,85.5-90.6l29.9,145.2h234.8
			c0,0-71.1-275-104-302.8l-45.3,5.1L1056,1049l-64.4,8.2v21.6c0,0-71.6,16.5-71.6,19.6c0,3.1-51.5,117.4-51.5,117.4L808.8,1154.1z"
			/>
		<path class="st1" d="M808.8,1154.1c0,0-29.7-76.6-39.7-71.8c-10,4.8,0,28.2,0,28.2s-31.4-37.3-53.6-24
			c-18.2,10.9-22.3,37.8-3.4,53.9c18.9,16.1,58.3,53.1,58.3,53.1L808.8,1154.1z"/>
		<path class="st1" d="M937.2,938.9c2.5-0.5-15.7,90.9,4.3,102.4c20,11.5,50.1,16,50.1,16l64.4-8.2l-20.7-124.4
			C1035.3,924.6,933.6,939.6,937.2,938.9z"/>
		<path class="st0" d="M1049.6,901.7c0,0,50.8-1.4,49.4,27.9s-43,119.4-43,119.4l-64.4,8.2c0,0-27-31.8-16.2-48.3
			s23.6-33.5,9.2-42.4c-13.2-8.1-20.2,18.9-20.2,18.9l-27.2-46.5c0,0-22.9,14.3-31.4-14.3c-8.6-28.6,31.5-65.9,78-68.7
			C1030.3,853,1051.8,877.4,1049.6,901.7z"/>
		<path class="st4" d="M1454.5,1117.4l-112,410.1H940c0,0-16.2-37.7,29-47.1c2.7-0.6,5.6-1,8.8-1.4c1.8-0.2,3.6-0.4,5.3-0.6
			c52.1-5.2,74-1.6,94.5-67.5c21.2-68.1,42.7-272.3,101.4-286c26.4-6.2,145.3-7.6,145.3-7.6
			C1397,1115.9,1454.5,1117.4,1454.5,1117.4z"/>
		<path class="st4" d="M1690.1,979.1c0.4,0.6,22.6,199.7,21.8,201.9s49.1-44.4,49.1-44.4l-13.2-234.9L1690.1,979.1z"/>
	</g>
</g>
<g id="Layer_9">
</g>
<g id="Layer_10">
</g>
</svg>
