<?xml version="1.0" encoding="utf-8"?>
<!-- Generator: Adobe Illustrator 23.0.5, SVG Export Plug-In . SVG Version: 6.00 Build 0)  -->
<svg version="1.1" xmlns="http://www.w3.org/2000/svg" xmlns:xlink="http://www.w3.org/1999/xlink" x="0px" y="0px"
	 viewBox="0 0 2000 2000" style="enable-background:new 0 0 2000 2000;" xml:space="preserve">
<style type="text/css">
	.st0{fill:#252734;}
	.st1{fill:#F1BAA4;}
	.st2{fill:#EFDDBF;}
	.st3{fill:#445E77;}
	.st4{fill:#E66F55;}
</style>
<g id="Layer_1">
</g>
<g id="Layer_2">
	<g>
		<rect x="910.2" y="205.4" class="st2" width="871.6" height="451.6"/>
		<g>
			<path class="st1" d="M382.8,1202.3l-182.4,197.6c0,0-1.1,0.8-2.1,2.1c-2.9,2.3-6.2,4.9-9.3,7.5c-10.8,9.1-21.7,19.9-23.4,28.8
				c-3.2,16.9,95.6,101.5,105.9,93.7c5.4-4.1-2.9-30.1-12.1-53.9c0,0,0,0,0,0c-8.3-21.7-17.3-41.6-17.3-41.6l5.7-9.1
				c0,0,52.6-52.7,116-115.4c15.3-15.2,31.3-30.9,47.3-46.7c10.6-10.4,21.3-20.9,31.8-31.2c10.7-47.1,21.3-93.1,30.1-129.5
				c2.7-11.1,5.2-21.3,7.5-30.3l-75-1L382.8,1202.3z"/>
			<path class="st1" d="M643.6,1532.9c-1.9-10.6-27.3-25.5-49.2-36.9c-17.2-8.9-32.4-15.7-32.5-16.5c-0.1-0.8,0.6-6.8,1.1-13.2
				c0.3-3.6,0.6-7.4,0.6-10.4c0-0.9,0-1.8,0-2.5c2.3-49.5,10.4-232.6,13.9-392.9l-77.4-1c7.8,116,3.1,414.5,3.1,414.5
				c-1.2,6.4-2.5,13.8-3.5,21c-1.8,12.7-2.7,25.1-0.9,31.1C503.4,1541.4,647,1551.9,643.6,1532.9z"/>
		</g>
		<rect x="526.7" y="1273.2" class="st0" width="1142.9" height="66.7"/>
		<path class="st0" d="M1236.3,1712.8v17.1l-61.2,36v24.3h140.4c0,0-12.2-102.3-9.3-101.6s-60.9,0-60.9,0L1236.3,1712.8z"/>
		<polygon class="st0" points="1368.6,1693.9 1368.6,1790.2 1485.5,1785.4 1485.5,1754.2 1432.5,1723.6 1429.8,1688.6 		"/>
		
			<rect x="1686.6" y="1451.3" transform="matrix(0.9899 -0.142 0.142 0.9899 -213.2549 256.8531)" class="st0" width="14" height="343.6"/>
		
			<rect x="1507.6" y="1451.3" transform="matrix(0.9899 -0.142 0.142 0.9899 -215.0673 231.4475)" class="st0" width="14" height="343.6"/>
		
			<rect x="1494.7" y="1451.3" transform="matrix(-0.9899 -0.142 0.142 -0.9899 2757.7563 3442.9192)" class="st0" width="14" height="343.6"/>
		<path class="st3" d="M1352.9,1350.6l-124.7,64.2c0,0-19.8,7.2-17.1,37.8c2.7,30.6,25.2,255.6,25.2,255.6l86.4-5.4l-16.5-213.3
			c0,0,147.9-34.2,151.5-36.9s23.4-102,23.4-102l-64.8-37.5L1352.9,1350.6z"/>
		<polygon class="st3" points="1361.9,1498.6 1364.7,1708.3 1436.1,1708.3 1461.3,1498.6 		"/>
		<path class="st0" d="M1353.2,1460l-7.2,50l-40.7,284.1l-13.9-2l40.4-282.1l6.9-48.1c2.8-0.6,5.8-1,9-1.4
			C1349.6,1460.4,1351.4,1460.2,1353.2,1460z"/>
		<path class="st0" d="M1175.1,1128.7l-44.2,45.2c0,0,57.9,117.8,104.1,121c46.3,3.2,87.3-92.6,87.3-92.6l30.5,148.3h239.8
			c0,0-72.6-280.9-106.2-309.3l-46.3,5.3l-12.6-25.2l-65.7,8.4v22.1c0,0-73.1,16.8-73.1,20s-52.6,119.9-52.6,119.9L1175.1,1128.7z"
			/>
		<path class="st1" d="M1294.3,909.3c2.6-0.5-4.8,79.7,11.5,99.2c15.1,18.1,44.1,21.7,44.1,21.7l65.7-8.4l-21.2-127.1
			C1394.5,894.7,1290.6,910.1,1294.3,909.3z"/>
		<path class="st4" d="M1834.6,1091.2l-114.4,418.8h-411.1c0,0-16.5-38.5,29.6-48.1c2.8-0.6,5.8-1,9-1.4c1.8-0.2,3.7-0.4,5.4-0.6
			c53.2-5.3,75.6-1.7,96.6-69c21.6-69.6,43.6-278.1,103.6-292.1c27-6.3,148.4-7.7,148.4-7.7
			C1775.8,1089.7,1834.6,1091.2,1834.6,1091.2z"/>
		<path class="st0" d="M764.1,1713.2v17.1l-61.2,36v24.3h140.4c0,0-12.2-102.3-9.3-101.6c3,0.8-60.9,0-60.9,0L764.1,1713.2z"/>
		<polygon class="st0" points="896.4,1694.3 896.4,1790.6 1013.3,1785.8 1013.3,1754.6 960.3,1724 957.6,1689 		"/>
		
			<rect x="1214.4" y="1451.7" transform="matrix(0.9899 -0.142 0.142 0.9899 -218.0973 189.8289)" class="st0" width="14" height="343.6"/>
		
			<rect x="1035.4" y="1451.7" transform="matrix(0.9899 -0.142 0.142 0.9899 -219.9097 164.4233)" class="st0" width="14" height="343.6"/>
		
			<rect x="1022.5" y="1451.7" transform="matrix(-0.9899 -0.142 0.142 -0.9899 1818.1132 3376.7417)" class="st0" width="14" height="343.6"/>
		<path class="st3" d="M880.7,1351.1L756,1415.3c0,0-19.8,7.2-17.1,37.8c2.7,30.6,25.2,255.6,25.2,255.6l86.4-5.4L834.1,1490
			c0,0,147.9-34.2,151.5-36.9c3.6-2.7,23.4-102,23.4-102l-64.8-37.5L880.7,1351.1z"/>
		<polygon class="st3" points="889.7,1499 892.5,1708.7 963.9,1708.7 989.1,1499 		"/>
		<path class="st0" d="M881,1460.5l-7.2,50l-40.7,284.1l-13.9-2l40.4-282.1l6.9-48.1c2.8-0.6,5.8-1,9-1.4
			C877.4,1460.8,879.2,1460.6,881,1460.5z"/>
		<path class="st2" d="M703,1129.1l-44.2,45.2c0,0,57.9,117.8,104.1,121s87.3-92.6,87.3-92.6l30.5,148.3h239.8
			c0,0-72.6-280.9-106.2-309.3l-46.3,5.3l-12.6-25.2l-65.7,8.4v22.1c0,0-73.1,16.8-73.1,20S764,1192.2,764,1192.2L703,1129.1z"/>
		<path class="st1" d="M703,1129.1c0,0-30.4-78.3-40.6-73.4s0,28.8,0,28.8s-32.1-38.1-54.7-24.5c-18.6,11.1-22.8,38.6-3.5,55
			s59.5,54.3,59.5,54.3L703,1129.1z"/>
		<path class="st1" d="M834.1,909.3c2.6-0.5-16,92.8,4.4,104.5c20.5,11.7,51.2,16.3,51.2,16.3l65.7-8.4l-21.2-127.1
			C934.3,894.7,830.4,910.1,834.1,909.3z"/>
		<path class="st0" d="M948.9,871.3c0,0,51.9-1.5,50.4,28.5c-1.5,30-43.9,122-43.9,122l-65.7,8.4c0,0-27.6-32.5-16.6-49.3
			c11-16.8,24.1-34.3,9.4-43.3c-13.5-8.3-20.6,19.3-20.6,19.3l-27.8-47.5c0,0-23.3,14.6-32.1-14.6s32.2-67.3,79.7-70.2
			C929.1,821.6,951.1,846.5,948.9,871.3z"/>
		<path class="st4" d="M1362.4,1091.7L1248,1510.5H836.9c0,0-16.5-38.5,29.6-48.1c2.8-0.6,5.8-1,9-1.4c1.8-0.2,3.7-0.4,5.4-0.6
			c53.2-5.3,75.6-1.7,96.6-69c21.6-69.6,43.6-278.1,103.6-292.1c27-6.3,148.4-7.7,148.4-7.7
			C1303.6,1090.1,1362.4,1091.7,1362.4,1091.7z"/>
		<path class="st2" d="M1361.9,1029.8v-38.9c0,0,31-30.2,10.3-42.4s-27,7.9-27,7.9l-9.8-40h-50c0,0-29.6-78.6,46.9-92.1
			c76.6-13.5,109.6,13.8,121.8,56.3s73.6,215,73.6,215s-161.3,56.6-155.6,57.5C1377.8,1154.1,1361.9,1029.8,1361.9,1029.8z"/>
		<path class="st0" d="M499.8,371.3c2.8,1.2,62-19.6,69.7,65c7.7,84.6,3.9,164.5,2,162.5c-2-2-209.2-2.1-207.2-2.7
			S400.3,329.3,499.8,371.3z"/>
		
			<rect x="461.4" y="510.7" transform="matrix(-0.9999 -1.337309e-02 1.337309e-02 -0.9999 954.6175 1102.0736)" class="st1" width="39.1" height="74.4"/>
		<path class="st2" d="M577.1,663c-0.3,12.1-0.7,24.8-1.2,37.4c-0.1,3.4-0.3,6.8-0.4,10.1c-1.9,46.5-4.5,88.3-4.5,88.3l-0.1,0
			l-33.7,8.9l-4.3,1.1l-56.3,14.8l-2.6,0.7l-9.9-5.2l-54.3-28.9l-0.1,0c0,0-4.3-32.8-8.2-72.7c-0.3-2.8-0.6-5.7-0.8-8.6l0-0.1
			c-5.3-55.6-9.3-121-0.3-131.1c14.3-16,28.9-11.4,39.8-18.3c1.4-0.9,2.7-2,4-3.3c11.2-11.8,14.8-22.8,14.8-22.8
			c1.3,0.8,26.4,18.6,46.3,10.1c0,0-5,15.8,8.4,19.4c1,0.3,2,0.5,3.2,0.6c5.2,0.5,11.9,0.8,19,1.5c10.3,1,21.3,3.2,29.2,9
			c0.1,0.1,0.1,0.1,0.2,0.2c2.5,1.8,4.6,4,6.3,6.7c0.1,0.1,0.1,0.1,0.1,0.2c1.5,2.3,2.6,4.8,3.4,7.8
			C577.8,598.1,577.9,628.3,577.1,663z"/>
		<path class="st0" d="M498.8,1526.1c-1.9-6.1-0.9-18.4,0.9-31.1c22.7,9,76.2,20.9,86.5,13.4c5.1-3.8,7.4-8.3,8.3-12.4
			c22,11.4,47.3,26.3,49.2,36.9C647,1551.9,503.4,1541.4,498.8,1526.1z"/>
		<path class="st0" d="M489.4,1488.8c0-0.2,0-0.4,0.1-0.6C489.5,1488.3,489.5,1488.5,489.4,1488.8z"/>
		<path class="st0" d="M409.8,790.2c0,0,111-10.6,161.1,8.6c0,0,18.3,28,22.6,86.1c8.7,118.2-13.3,206.4-13.8,204.2l-204.6-1.3
			c0,0-7.2-180.7,6.9-222.2C396.2,824.2,409.8,790.2,409.8,790.2z"/>
		<path class="st0" d="M271.4,1532.1c-10.3,7.8-109.1-76.8-105.9-93.7c1.7-8.9,12.6-19.7,23.4-28.8c8.4,14.9,33.9,58.1,52,67.1
			c8.9,4.4,14.7,3.8,18.4,1.5C268.5,1502,276.8,1528,271.4,1532.1z"/>
		<path class="st3" d="M454.5,854.1c0,0-88.9,3.2-91.8,3.9c-2.9,0.7,29.6-74.2,30.1-77c0.2-1,0.6-16.4,1.2-36.1
			c0.3-11.3,0.7-24,1-36.2c0.8-27.8,1.4-53,1.4-53L360,683.8l27.1,11.1l-4.4,11.7l-11.6,30.6l-4.7,12.4c0,0-82.2-17.3-89-42.7
			c-6.8-25.4,53.6-94.4,72.5-113.6c18.9-19.2,77.3-31.4,77.3-31.4s21.6,34.3,26.6,73c1.8,13.4,2.4,44,2.5,78.2c0,8.4,0,17,0,25.6
			C455.9,795.9,454.5,854.1,454.5,854.1z"/>
		<path class="st1" d="M794.2,523.9c1.7-0.4,26.9-26.7,33.5-21.9c6.6,4.7-3.9,13.6-3.9,13.6s51.6-22.1,54.3-14.9
			c2.7,7.2-30.8,17.6-30.8,19.1s9.2,24.3-1.9,32.4s-51.2,16.6-51.2,16.6V523.9z"/>
		<path class="st1" d="M550.6,442.8c-0.6,1.4,1.4,34.1-9.5,59.2c-5,11.6-12.8,21.5-24.8,26c-6.1,2.3-13.3,3.2-21.9,2.1
			c0,0-42.2,4.1-58.7-44.6c0,0-17.7,0.1-21.8-18.6c-4-18.7,9.4-26.2,19.4-16.5c0,0,7.2-56.8,58.3-55.2
			C542.6,396.8,550.6,442.8,550.6,442.8z"/>
		<path class="st0" d="M456.6,450.4c-0.7-0.8-0.6-2.1,0.2-2.8c8.5-7.1,16.4-3.3,19-2c0.2,0.1,0.3,0.2,0.5,0.2c0.5,0,1,0.3,1.3,0.7
			c0.7,0.8,0.6,2.1-0.2,2.8c-1.1,0.9-2.3,0.3-3.3-0.1c-2.5-1.2-8.3-4-14.8,1.5c-0.4,0.3-0.8,0.5-1.3,0.5
			C457.6,451.1,457,450.9,456.6,450.4z M474.9,446.3L474.9,446.3L474.9,446.3z M474.9,446.3L474.9,446.3L474.9,446.3z M474.9,446.3
			C474.9,446.3,474.9,446.3,474.9,446.3C474.9,446.3,474.9,446.3,474.9,446.3z M474.9,446.3C474.9,446.3,474.9,446.3,474.9,446.3
			L474.9,446.3z M474.9,446.3C474.9,446.3,474.9,446.3,474.9,446.3C474.9,446.3,474.9,446.3,474.9,446.3z M474.9,446.3
			C474.9,446.3,474.9,446.3,474.9,446.3C474.9,446.3,474.9,446.3,474.9,446.3z M474.9,446.3C474.9,446.3,474.9,446.3,474.9,446.3
			C474.9,446.3,474.9,446.3,474.9,446.3z M474.9,446.3L474.9,446.3L474.9,446.3z M474.9,446.3C474.9,446.3,474.9,446.3,474.9,446.3
			S474.9,446.3,474.9,446.3z M474.9,446.3L474.9,446.3L474.9,446.3z M474.9,446.3C474.9,446.3,474.9,446.3,474.9,446.3
			C474.9,446.3,474.9,446.3,474.9,446.3z M474.9,446.3C474.9,446.3,474.9,446.3,474.9,446.3C474.9,446.3,474.9,446.3,474.9,446.3z
			 M474.9,446.3L474.9,446.3L474.9,446.3z"/>
		<path class="st0" d="M539.5,459.3c0.4,0,0.8-0.1,1.2-0.4c0.9-0.6,1.1-1.9,0.5-2.8c-0.3-0.4-7.3-10-20.1-6.7
			c-1.1,0.3-1.7,1.4-1.4,2.4c0.3,1.1,1.4,1.7,2.4,1.4c10.1-2.6,15.8,5.1,15.8,5.2C538.3,459,538.9,459.3,539.5,459.3z"/>
		<path class="st0" d="M495.5,500.6c-1.1-0.2-1.8-1.2-1.6-2.2c0.1-1.1,1.1-1.8,2.2-1.7c0.1,0,3.1,0.3,5.5-4.3c2-3.9-2.4-11.1-4-13.8
			c-0.9-1.4-1.2-1.9-1.1-2.7c0.1-1.1,1.1-1.9,2.2-1.7c0.8,0.1,1.5,0.7,1.7,1.4c0.1,0.2,0.3,0.5,0.6,1c2.1,3.5,7.2,11.8,4.2,17.7
			c-3.1,6-7.4,6.5-9,6.5C495.8,500.7,495.5,500.6,495.5,500.6z M500.4,476.3C500.4,476.3,500.4,476.3,500.4,476.3
			C500.4,476.3,500.4,476.3,500.4,476.3z M500.4,476.3C500.4,476.3,500.4,476.3,500.4,476.3S500.4,476.3,500.4,476.3z"/>
		<path class="st0" d="M492.2,515.5c-4.4-0.2-10.3-2.2-13.6-11c-0.4-1,0.1-2.2,1.2-2.6c1-0.4,2.2,0.1,2.6,1.2
			c1.7,4.4,4.2,7.1,7.5,8.1c4.7,1.4,9.6-1.1,10.5-1.6c0.6-0.6,1.5-0.8,2.2-0.4c1,0.5,1.4,1.6,1,2.6c-0.7,1.5-6,3.8-10.9,3.8
			C492.4,515.5,492.3,515.5,492.2,515.5z M499.9,510.1C499.9,510.1,499.9,510.1,499.9,510.1C499.9,510.1,499.9,510.1,499.9,510.1z
			 M499.9,510.1C499.9,510.1,499.9,510.1,499.9,510.1C499.9,510.1,499.9,510.1,499.9,510.1z"/>
		
			<ellipse transform="matrix(0.1163 -0.9932 0.9932 0.1163 -49.429 877.0293)" class="st0" cx="468.2" cy="466.3" rx="8.3" ry="7.2"/>
		<circle class="st2" cx="466.4" cy="463.8" r="3.3"/>
		<ellipse transform="matrix(0.1163 -0.9932 0.9932 0.1163 -4.2718 941.5696)" class="st0" cx="527" cy="473.2" rx="8.3" ry="7.2"/>
		<circle class="st2" cx="525.3" cy="470.7" r="3.3"/>
		<path class="st2" d="M522.5,809.2l-50.6-0.7c-0.7,0-1.3-0.6-1.3-1.3c0-0.7,0.6-1.3,1.3-1.3c0,0,0,0,0,0l50.6,0.7L522.5,809.2z"/>
		
			<rect x="377.3" y="669.5" transform="matrix(0.8631 0.5051 -0.5051 0.8631 437.5511 -118.0477)" class="st0" width="118.4" height="156.9"/>
		<path class="st3" d="M505.5,676.9c4.5-10.4,0.6-22.8-9.4-28.6c-5-2.9-10.7-3.7-16-2.7c-5.3,1-10.2,4-13.6,8.5l-14.7-8.6l-17,29
			l68.3,40l17-29L505.5,676.9z M481.1,673.9c-4.5-2.6-6-8.4-3.4-12.9c2.6-4.5,8.4-6,12.9-3.4s6,8.4,3.4,12.9
			C491.3,675.1,485.6,676.6,481.1,673.9z"/>
		<path class="st1" d="M466.8,719.8c0,0-4.6-3.1-10.6-6.9c-7.8-5-17.8-11.1-23.2-13.4c-7.9-3.3-30.2,5.8-37.9,9.1
			c-1.7,0.7-2.6,1.2-2.6,1.2l-9.8-3.3l-11.6,30.6c2.1,0.1,3.3,0.1,3.5,0.1c1-0.2,4.3,3.2,11.7,6.9c2.2,1.1,5,1.2,7.9,0.8
			c7-1.1,14.6-5.2,14.6-5.2s14.1,6.1,25.8,9.8c11.7,3.7,10.5-4,10.5-4c11.8,4.5,11-7.1,11-7.1s0.1,0.1,0.2,0.2
			c0.5,0.5,2.6,2.1,6.4-1.8c4.5-4.6-1-9.4-1-9.4C469.3,727.5,466.8,719.8,466.8,719.8z"/>
		<path class="st0" d="M431.7,710.4c0.1,0.4,0.3,0.7,0.6,0.9c10.1,6.1,25.3,15.4,26.3,16.1c0.6,0.5,1.4,0.4,1.9-0.2
			c0.5-0.6,0.5-1.5-0.1-2c-0.1-0.1-0.5-0.5-26.6-16.4c-0.7-0.4-1.6-0.2-2,0.5C431.6,709.6,431.6,710,431.7,710.4z"/>
		<path class="st0" d="M428,720.2c0.1,0.3,0.3,0.6,0.6,0.8c9.7,6.6,24.5,16.6,25.2,17.2c0.6,0.5,1.4,0.4,2-0.2
			c0.5-0.6,0.5-1.5-0.1-2c-0.1-0.1-0.4-0.3-25.5-17.4c-0.7-0.4-1.5-0.3-2,0.4C427.9,719.4,427.9,719.8,428,720.2z"/>
		<path class="st0" d="M424.8,731.7c0.1,0.3,0.3,0.6,0.5,0.8c6.2,4.7,15.6,11.8,16.1,12.2c0.6,0.5,1.5,0.4,2-0.2
			c0.5-0.6,0.5-1.5-0.1-2c-0.3-0.3-10.3-7.8-16.2-12.3c-0.6-0.5-1.5-0.4-2,0.3C424.8,730.9,424.7,731.3,424.8,731.7z"/>
		<path class="st3" d="M813,577.9l-227,81.9l-9,3.2l-13,4.7l1.3-93.7c0.1,0.1,0.1,0.1,0.2,0.2c1.4,0.8,6.4,0.5,14.2-0.5
			c51.5-6.6,221.9-46.1,221.9-46.1L813,577.9z"/>
		<path class="st3" d="M616.5,858.4l-74.6-1l-4.7-49.7l-1.6-17.1l-5.5-58.1l-1.6-17l-14.5-152.5c1,0.3,2,0.5,3.2,0.6
			c5.2,0.5,11.9,0.8,19,1.5c10.3,1,21.3,3.2,29.2,9c0.1,0.1,0.1,0.1,0.2,0.2c1.4,0.8,6.4,0.5,14.2-0.5c3.6,31.1,7.2,69.5,7.2,69.5
			s-0.4,6.5-0.9,16.6c-1.8,32.4-5.7,101.3-6.3,104.5C579,768.4,616.5,858.4,616.5,858.4z"/>
		<path class="st0" d="M433.3,450.3l4.2,25.2l9.5-39.8c0,0,64.1,20,82.1-6.5c0,0,10.7,31.2,20.8,32.4s16.2-50.4-14.2-66
			c-30.5-15.6-76.4-7.6-87.1,2.8S433.3,450.3,433.3,450.3z"/>
		<path class="st0" d="M562,553.2c0,0,18.9,41.5,6.1,104.6c-12.8,63.1-32.7,61.5-32.7,61.5l4-164.5L562,553.2z"/>
		<path class="st3" d="M1143.2,295.4v281.8c-74.4-3.9-133.6-65.4-133.6-140.9S1068.7,299.2,1143.2,295.4z"/>
		<path class="st4" d="M1205.8,374.9c-18.2,17.2-36.4,34.5-47.7,45.2V295.4c35,1.8,66.6,16.4,90.4,39.2c-0.7,0.6-1.3,1.2-2,1.9
			C1235.3,346.9,1220.5,360.9,1205.8,374.9z"/>
		<path class="st0" d="M1158.1,443.8h133.5c-3.8,72-61.5,129.7-133.5,133.4V443.8z"/>
		<path class="st4" d="M1170.5,428.8c30.7-29.2,67.4-63.9,88.1-83.4c19.2,22.8,31.3,51.7,32.9,83.4H1170.5z"/>
		<path class="st3" d="M1556.2,295.4v281.8c-74.4-3.9-133.6-65.4-133.6-140.9S1481.7,299.2,1556.2,295.4z"/>
		<g>
			<path class="st0" d="M1571.1,443.8h133.5c-3.8,72-61.5,129.7-133.5,133.4V443.8z"/>
		</g>
		<g>
			<path class="st4" d="M1571.1,428.8h133.5c-3.8-72-61.5-129.7-133.5-133.4V428.8z"/>
		</g>
	</g>
</g>
<g id="Layer_3">
</g>
<g id="Layer_4">
</g>
<g id="Layer_5">
</g>
<g id="Layer_6">
</g>
<g id="Layer_7">
</g>
<g id="Layer_8">
</g>
<g id="Layer_9">
</g>
<g id="Layer_10">
</g>
</svg>
