<?xml version="1.0" encoding="utf-8"?>
<!-- Generator: Adobe Illustrator 23.0.5, SVG Export Plug-In . SVG Version: 6.00 Build 0)  -->
<svg version="1.1" xmlns="http://www.w3.org/2000/svg" xmlns:xlink="http://www.w3.org/1999/xlink" x="0px" y="0px"
	 viewBox="0 0 2000 2000" style="enable-background:new 0 0 2000 2000;" xml:space="preserve">
<style type="text/css">
	.st0{fill:#252734;}
	.st1{fill:#F1BAA4;}
	.st2{fill:#EFDDBF;}
	.st3{fill:#445E77;}
	.st4{fill:#E66F55;}
</style>
<g id="Layer_1">
</g>
<g id="Layer_2">
</g>
<g id="Layer_3">
</g>
<g id="Layer_4">
</g>
<g id="Layer_5">
	<g>
		<g>
			<path class="st1" d="M704.8,1798.6c-5.7-3.8-13.5-14.7-20.9-26.5c-11.1-17.9-21.1-37.9-21.1-37.9s41-38.3,42.2-42.7
				c1.2-4.3,18.4,23.3,19.9,24.6c0.7,0.6,18-4.3,38.5-8.8c26.2-5.7,57.6-10.9,66.5-3.4C845.9,1717.3,719.2,1808,704.8,1798.6z"/>
			<path class="st0" d="M704.8,1798.6c-5.7-3.8-13.5-14.7-20.9-26.5c25.1-8.2,77.9-35.4,81.2-48.7c1.7-6.7,0.4-12-1.7-16.1
				c26.2-5.7,57.6-10.9,66.5-3.4C845.9,1717.3,719.2,1808,704.8,1798.6z"/>
			<path class="st1" d="M512.2,1839.3c-2.1-6.5-1.3-19.9,0.5-33.7c2.7-20.9,7.4-42.7,7.4-42.7s56-4,59.7-6.6
				c3.6-2.6-0.4,29.7,0,31.6c0.1,0.9,16.7,8,35.5,17.4c23.9,12,51.6,27.8,53.8,39.3C673,1865,517.5,1855.8,512.2,1839.3z"/>
			<path class="st0" d="M512.2,1839.3c-2.1-6.5-1.3-19.9,0.5-33.7c24.7,9.4,82.8,21.5,93.8,13.3c5.5-4.2,7.9-9.1,8.8-13.6
				c23.9,12,51.6,27.8,53.8,39.3C673,1865,517.5,1855.8,512.2,1839.3z"/>
		</g>
		<path class="st1" d="M1608.5,1839.6c2.1-6.5,1.3-19.9-0.5-33.7c-2.7-20.9-7.4-42.7-7.4-42.7s-56-4-59.7-6.6
			c-3.6-2.6,0.4,29.7,0,31.6c-0.1,0.9-16.7,8-35.5,17.4c-23.9,12-51.6,27.8-53.8,39.3C1447.7,1865.3,1603.2,1856.1,1608.5,1839.6z"
			/>
		<path class="st0" d="M1608.5,1839.6c2.1-6.5,1.3-19.9-0.5-33.7c-24.7,9.4-82.8,21.5-93.8,13.3c-5.5-4.2-7.9-9.1-8.8-13.6
			c-23.9,12-51.6,27.8-53.8,39.3C1447.7,1865.3,1603.2,1856.1,1608.5,1839.6z"/>
		<rect x="305.8" y="112.9" class="st2" width="1469.7" height="761.4"/>
		<path class="st3" d="M647.4,302.3v444.9c-117.5-6.1-211-103.3-211-222.4S529.8,308.4,647.4,302.3z"/>
		<g>
			<path class="st0" d="M670.9,536.5h210.7c-5.9,113.7-97.1,204.7-210.7,210.6V536.5z"/>
		</g>
		<path class="st0" d="M989.4,653.5c0,0-29.9-9.3-32.1,32.5c-2.1,41.8-4.4,61.8,16,76.8c20.4,15,65.8,14.6,63.4,0
			C1034.3,748.3,989.4,653.5,989.4,653.5z"/>
		<path class="st1" d="M1354.1,1252.5c-4.7,0.1-5.5-3.7-5.5-3.7s-1.4,5.6-5.2,7.1c-3.8,1.5-6.5-7.1-6.5-7.1s-0.5,3.9-6.2,3.7
			c-5.7-0.3-7-10.2-7-10.2c-3.9,8.1-9.8,1.1-9.8,1.1s-3.6-28.8-5.4-27.9c-1.9,1-11.1-4.2-22.7-16.6c-11.2-12-9.9-27.1-10.5-28.8
			c6.6-6.9,15.3-18.7,20.6-26.4c6.4,5.4,45.2,38.8,50.8,46.4c6,8.3,10,33.9,11.5,43.7C1359.5,1243.5,1358.8,1252.5,1354.1,1252.5z"
			/>
		<path class="st0" d="M1348.5,1246.6c-0.1-0.1-0.2-0.1-0.3-0.2c-0.3-0.4-0.4-0.8-0.3-1.3c-0.1-2-3-16-5-25.4
			c-2.9-14-3-14.6-2.9-15.1c0.1-0.8,0.9-1.3,1.7-1.2c0.7,0.1,1.2,0.8,1.2,1.5c0.1,1,1.5,7.7,2.9,14.3c5.6,26.5,5.5,26.6,4.5,27.4
			C1349.7,1247,1349,1247,1348.5,1246.6z"/>
		<path class="st0" d="M1336.4,1246.1c-0.3-0.2-0.5-0.6-0.6-1c-1.7-11-4.6-28.8-5.1-30.8c-0.2-0.3-0.2-0.7-0.1-1
			c0.2-0.8,1-1.3,1.8-1.1c1.2,0.3,1.4,0.3,6.4,32.5c0.1,0.8-0.4,1.5-1.2,1.7C1337.1,1246.4,1336.7,1246.3,1336.4,1246.1z"/>
		<path class="st0" d="M1322.9,1240.4c-0.3-0.2-0.5-0.6-0.6-1c-0.7-5.7-2.5-20.9-2.9-22.7c-0.2-0.8,0.3-1.6,1.1-1.7
			c0.8-0.2,1.6,0.3,1.7,1.1c0.5,2.4,2.8,22.2,2.9,23c0.1,0.8-0.5,1.5-1.3,1.6C1323.6,1240.7,1323.2,1240.6,1322.9,1240.4z"/>
		<path class="st0" d="M1142.7,648.4c0,0-5.4-64.7-67-62.1c-61.6,2.5-83.2,44.8-90.2,76.5s-4.2,102.6,61.5,103.6
			C1112.8,767.3,1142.7,648.4,1142.7,648.4z"/>
		
			<rect x="1047.7" y="748.1" transform="matrix(-1 -4.418966e-11 4.418966e-11 -1 2137.7156 1576.6429)" class="st1" width="42.4" height="80.5"/>
		<path class="st1" d="M1142.7,673.6c-0.6,1.5,2,36.9-9.4,64.2c-5.3,12.6-13.5,23.5-26.5,28.5c-6.6,2.6-14.4,3.6-23.7,2.6
			c0,0-45.6,5-64.2-47.4c0,0-19.2,0.3-23.8-19.9c-4.7-20.2,9.8-28.5,20.7-18.1c0,0,7-61.6,62.3-60.6
			C1133.4,623.9,1142.7,673.6,1142.7,673.6z"/>
		<path class="st0" d="M1041.1,683.2c-0.8-0.9-0.7-2.3,0.2-3c9.1-7.8,17.7-3.8,20.6-2.4c0.2,0.1,0.4,0.2,0.5,0.2
			c0.5,0,1.1,0.3,1.5,0.7c0.8,0.9,0.7,2.3-0.2,3c-1.2,1-2.4,0.4-3.6-0.1c-2.7-1.3-9-4.2-16,1.8c-0.4,0.4-0.9,0.5-1.4,0.5
			C1042.1,683.9,1041.5,683.7,1041.1,683.2z M1060.8,678.5L1060.8,678.5L1060.8,678.5z M1060.8,678.5L1060.8,678.5L1060.8,678.5z
			 M1060.8,678.5C1060.8,678.5,1060.8,678.5,1060.8,678.5C1060.8,678.5,1060.8,678.5,1060.8,678.5z M1060.8,678.5
			C1060.8,678.5,1060.8,678.5,1060.8,678.5L1060.8,678.5z M1060.8,678.5C1060.8,678.5,1060.8,678.5,1060.8,678.5
			C1060.8,678.5,1060.8,678.5,1060.8,678.5z M1060.8,678.5C1060.8,678.5,1060.8,678.5,1060.8,678.5
			C1060.8,678.5,1060.8,678.5,1060.8,678.5z M1060.8,678.5C1060.8,678.5,1060.8,678.4,1060.8,678.5
			C1060.8,678.4,1060.8,678.5,1060.8,678.5z M1060.8,678.4L1060.8,678.4L1060.8,678.4z M1060.8,678.4
			C1060.8,678.4,1060.8,678.4,1060.8,678.4S1060.8,678.4,1060.8,678.4z M1060.8,678.4L1060.8,678.4L1060.8,678.4z M1060.8,678.4
			C1060.8,678.4,1060.8,678.4,1060.8,678.4C1060.8,678.4,1060.8,678.4,1060.8,678.4z M1060.8,678.4
			C1060.8,678.4,1060.8,678.4,1060.8,678.4C1060.8,678.4,1060.8,678.4,1060.8,678.4z M1060.8,678.4L1060.8,678.4L1060.8,678.4z"/>
		<path class="st0" d="M1130.9,691.6c0.4,0,0.9-0.1,1.3-0.4c1-0.7,1.2-2,0.5-3c-0.3-0.4-8.1-10.7-21.8-7c-1.1,0.3-1.8,1.5-1.5,2.6
			s1.5,1.8,2.6,1.5c10.9-3,17.1,5.3,17.2,5.3C1129.6,691.3,1130.2,691.6,1130.9,691.6z"/>
		<path class="st0" d="M1083.9,737c-1.2-0.2-1.9-1.2-1.8-2.4c0.1-1.2,1.2-2,2.4-1.9c0.1,0,3.4,0.3,5.9-4.8c2.1-4.2-2.7-12-4.5-14.9
			c-1-1.5-1.3-2-1.2-2.9c0.1-1.2,1.2-2,2.4-1.9c0.9,0.1,1.6,0.7,1.8,1.5c0.1,0.2,0.4,0.6,0.6,1c2.4,3.8,7.9,12.7,4.8,19.1
			c-3.2,6.5-7.9,7.2-9.6,7.2C1084.2,737.1,1083.9,737,1083.9,737z M1088.9,710.6C1088.9,710.6,1088.9,710.6,1088.9,710.6
			C1088.9,710.6,1088.9,710.6,1088.9,710.6z M1088.9,710.6C1088.9,710.6,1088.9,710.6,1088.9,710.6S1088.9,710.6,1088.9,710.6z"/>
		<path class="st0" d="M1080.5,753.1c-4.7-0.1-11.2-2.2-14.9-11.7c-0.4-1.1,0.1-2.4,1.2-2.8c1.1-0.4,2.4,0.1,2.8,1.2
			c1.9,4.7,4.6,7.6,8.3,8.6c5.1,1.4,10.4-1.3,11.3-1.9c0.6-0.6,1.6-0.8,2.4-0.5c1.1,0.5,1.6,1.8,1.1,2.8c-0.7,1.6-6.5,4.2-11.8,4.2
			C1080.8,753.2,1080.6,753.1,1080.5,753.1z M1088.7,747.2C1088.7,747.2,1088.7,747.2,1088.7,747.2
			C1088.7,747.2,1088.7,747.2,1088.7,747.2z M1088.7,747.2C1088.7,747.2,1088.7,747.2,1088.7,747.2
			C1088.7,747.2,1088.7,747.2,1088.7,747.2z"/>
		
			<ellipse transform="matrix(0.103 -0.9947 0.9947 0.103 248.7044 1676.2522)" class="st0" cx="1053.8" cy="700.2" rx="9" ry="7.8"/>
		<circle class="st2" cx="1051.9" cy="697.6" r="3.6"/>
		
			<ellipse transform="matrix(0.103 -0.9947 0.9947 0.103 299.3599 1745.6448)" class="st0" cx="1117.6" cy="706.8" rx="9" ry="7.8"/>
		<circle class="st2" cx="1115.7" cy="704.2" r="3.6"/>
		<path class="st4" d="M1174.6,906.8c-0.7,66.8-4.7,151.9-4.7,151.9l-34.9,9.7l-67.4,18.7l-2.3,0.6l-59.4-30.6l-10.6-5.5
			c0,0-3.7-26-7.9-60.6c-2.7-22.6-5.5-49-7.6-74c-3.7-45.5-4.8-86.9,2.3-95.1c1.6-1.8,3.2-3.4,4.7-4.8c15.5-13.4,31.2-7.7,42.1-18.9
			c0.1-0.1,0.3-0.2,0.4-0.4c12-12.9,15.7-24.9,15.7-24.9c0.2,0.1,1.2,0.8,2.7,1.7c6.9,4.2,25.6,14.3,42.4,10.3
			c1.8-0.4,3.6-1,5.3-1.7c0,0-5.1,16.6,8.7,20.7c1.2,0.4,2.6,0.6,4.2,0.8c13.6,1.2,36.7,0.2,51.3,10c0.3,0.1,0.5,0.3,0.8,0.5
			c5.3,3.7,9.4,8.9,11.4,16.1c0.3,1.2,0.6,2.7,0.9,4.4c0.5,3.5,1,8,1.3,13.4l0,0.5C1174.6,864.1,1174.8,884.4,1174.6,906.8z"/>
		<path class="st1" d="M1051.5,1860.9c-4.6,13.2-144.3-4-151.6-21.1c-3.8-9-0.4-25.4,3.9-40c3.8-13.1,8.5-24.8,9.3-28.6l54.1-4.6
			l0.6,25.7c0,0,20.1,12.6,40.6,27.2c0,0,0,0,0,0C1030.9,1835.5,1053.9,1854,1051.5,1860.9z"/>
		<path class="st1" d="M1102.3,1847.1c-2.1-6.5-1.3-19.9,0.5-33.7c2.7-20.9,7.4-42.7,7.4-42.7s56-4,59.7-6.6
			c3.6-2.6-0.4,29.7,0,31.6c0.1,0.9,16.7,8,35.5,17.4c23.9,12,51.6,27.8,53.8,39.3C1263.1,1872.8,1107.5,1863.5,1102.3,1847.1z"/>
		<path class="st0" d="M1051.5,1860.9c-4.6,13.2-144.3-4-151.6-21.1c-3.8-9-0.4-25.4,3.9-40c16.5,8.4,65.3,32.1,87.1,29.4
			c10.7-1.3,15.5-5.4,17.5-9.7C1030.9,1835.5,1053.9,1854,1051.5,1860.9z"/>
		<path class="st0" d="M1102.3,1847.1c-2.1-6.5-1.3-19.9,0.5-33.7c24.7,9.4,82.8,21.5,93.8,13.3c5.5-4.2,7.9-9.1,8.8-13.6
			c23.9,12,51.6,27.8,53.8,39.3C1263.1,1872.8,1107.5,1863.5,1102.3,1847.1z"/>
		<path class="st0" d="M995.3,1051.7c0,0-120.6,715.5-116.4,716.9c4.2,1.4,60.3,30.9,130.5,0c0,0,57.5-481.2,65.9-475.6
			c8.4,5.6,0,479.8,0,479.8s75.8,26.7,136.1-4.2c0,0-17-666.4-41.5-709.9L995.3,1051.7z"/>
		<path class="st0" d="M1091.6,1806.8c-0.1-0.2,0-0.4,0.1-0.6C1091.7,1806.2,1091.7,1806.4,1091.6,1806.8z"/>
		<path class="st3" d="M1202.1,1192c0.9,3.7-59.4,5.6-59.4,5.6s-4-62.1-7.7-129.2c-2.9-51.8-5.8-106.5-6.6-138
			C1126.5,858.2,1104,804,1104,804c1.2,0.4,2.6,0.6,4.2,0.8c13.6,1.2,36.7,0.2,51.3,10c0.3,0.1,0.5,0.3,0.8,0.5
			c1.6,1.1,5.6,3.8,11.1,7.6l2.2,13.4l1.1,13.2l0,2.7l4.9,54l-1,2.5l-3.9,114C1174.7,1022.7,1201.1,1188.2,1202.1,1192z"/>
		<path class="st3" d="M1067.6,1087.1c-0.7,60.9-2.1,110.5-2.1,110.5H953.7L980,1056l6.2-33.3l-2.5-34.7l-4.9-69.7l-6.4-89.9
			c4.8-3.8,13.4-11.5,13.4-11.5c15.5-13.4,32.3-7.5,43.2-18.7c5.3,5.7,12.3,14.5,18.8,28c0.4,0.8,0.7,1.5,1.1,2.3
			c6.8,14.8,12.9,34.8,15.5,61.7C1068.4,931.9,1068.5,1017,1067.6,1087.1z"/>
		<path class="st0" d="M1053.7,1021.9c-0.7,0-1.3-0.5-1.4-1.2l-17-97.4l0.1-0.3c2.4-6.9,13.9-39.8,16.7-45.4
			c-2.3-2.7-18.2-12.5-33-20.9l-0.8-0.4l0.1-0.9c3.4-43.3,3.9-44.1,4-44.5c0.3-0.7,1.2-1,1.9-0.6c0.6,0.3,0.9,1,0.7,1.7
			c-0.4,1.9-2.4,26.2-3.7,42.7c12.7,7.2,33.2,19.2,33.8,22.5c0.1,0.5,0,1-0.3,1.4c-1.3,1.9-10.8,28.4-16.5,44.9l16.9,96.7
			c0.1,0.8-0.4,1.5-1.1,1.6C1053.8,1021.9,1053.7,1021.9,1053.7,1021.9z M1052.5,876.9C1052.5,876.9,1052.5,876.9,1052.5,876.9
			C1052.5,876.9,1052.5,876.9,1052.5,876.9z"/>
		<path class="st0" d="M1177.1,900.6c-0.8,0-1.4-0.6-1.4-1.4c-0.8-32.4-14.1-69.9-14.2-70.2c-0.3-0.7,0.1-1.5,0.8-1.8
			c0.7-0.3,1.5,0.1,1.8,0.8c0.1,0.3,13.6,38.4,14.4,71.2C1178.5,900,1177.9,900.6,1177.1,900.6
			C1177.1,900.6,1177.1,900.6,1177.1,900.6z"/>
		<path class="st0" d="M1088.7,827.9c0,0-0.1,0-0.2,0c-0.5-0.1-1-0.4-1.1-0.9l-14.3-35.5c-0.3-0.7,0.1-1.5,0.8-1.8
			c0.7-0.3,1.5,0.1,1.8,0.8l13.4,33.1l11.8-17.3c0.4-0.6,1.3-0.8,1.9-0.4c0.6,0.4,0.8,1.3,0.4,1.9l-13.3,19.5
			C1089.6,827.7,1089.2,827.9,1088.7,827.9z"/>
		<path class="st0" d="M1066.5,830.8c-0.3,0-0.6-0.1-0.8-0.3l-18.7-13.3c-0.6-0.4-0.8-1.3-0.3-1.9c0.5-0.6,1.3-0.8,1.9-0.3l17,12.1
			c1.6-7.1,6.9-30.8,7.5-36.2c0.1-0.8,0.8-1.3,1.5-1.3c0.8,0.1,1.3,0.8,1.3,1.5c-0.7,6.5-7.7,37.2-8,38.5c-0.1,0.5-0.4,0.8-0.9,1
			C1066.8,830.7,1066.6,830.8,1066.5,830.8z"/>
		<path class="st1" d="M787.7,1258.2c4.7,0.1,5.5-3.7,5.5-3.7s1.4,5.6,5.2,7.1c3.8,1.5,6.5-7.1,6.5-7.1s0.5,3.9,6.2,3.7
			c5.7-0.3,7-10.2,7-10.2c3.9,8.1,9.8,1.1,9.8,1.1s3.6-28.8,5.4-27.9c1.9,1,11.1-4.2,22.7-16.6c11.2-12,9.9-27.1,10.5-28.8
			c-6.6-6.9-15.3-18.7-20.6-26.4c-6.4,5.4-45.2,38.8-50.8,46.4c-6,8.3-10,33.9-11.5,43.7C782.3,1249.2,783,1258.2,787.7,1258.2z"/>
		<path class="st0" d="M793.3,1252.3c0.1-0.1,0.2-0.1,0.3-0.2c0.3-0.4,0.4-0.8,0.3-1.3c0.1-2,3-16,5-25.4c2.9-14,3-14.6,2.9-15.1
			c-0.1-0.8-0.9-1.3-1.7-1.2c-0.7,0.1-1.2,0.8-1.2,1.5c-0.1,1-1.5,7.7-2.9,14.3c-5.6,26.5-5.5,26.6-4.5,27.4
			C792.1,1252.7,792.8,1252.7,793.3,1252.3z"/>
		<path class="st0" d="M805.4,1251.8c0.3-0.2,0.5-0.6,0.6-1c1.7-11,4.6-28.8,5.1-30.8c0.2-0.3,0.2-0.7,0.1-1c-0.2-0.8-1-1.3-1.8-1.1
			c-1.2,0.3-1.4,0.3-6.4,32.5c-0.1,0.8,0.4,1.5,1.2,1.7C804.7,1252.1,805.1,1252,805.4,1251.8z"/>
		<path class="st0" d="M818.9,1246.1c0.3-0.2,0.5-0.6,0.6-1c0.7-5.7,2.5-20.9,2.9-22.7c0.2-0.8-0.3-1.6-1.1-1.7
			c-0.8-0.2-1.6,0.3-1.7,1.1c-0.5,2.4-2.8,22.2-2.9,23c-0.1,0.8,0.5,1.5,1.3,1.6C818.2,1246.4,818.6,1246.3,818.9,1246.1z"/>
		<path class="st3" d="M980.2,827.9c4.1,21.4,20.9,104.5,11.4,153.3c-11.1,56.8-107.8,214.8-107.8,214.8
			c-36.4-12.3-53.3-60.2-53.3-60.2s74.5-138.2,104.2-222.2c29.7-83.9,37.8-85.6,38.6-85.6L980.2,827.9z"/>
		<path class="st3" d="M1311.4,1130.2c0,0-16.9,47.9-53.3,60.1c0,0-96.8-158-107.8-214.8c-9.4-48.3,6.8-129.8,11.2-152.5l9.9-0.3
			c0.8,0,6.2,1.3,35.8,85.2C1236.9,991.9,1311.4,1130.2,1311.4,1130.2z"/>
		<path class="st0" d="M984.9,912c-0.2,0-0.4,0-0.5-0.1c-0.7-0.3-1.1-1.1-0.8-1.8c14.9-36.7,6.9-62.2,3.9-71.8
			c-0.7-2.2-1.1-3.5-1.1-4.4c0-0.8,0.6-1.4,1.4-1.4c0.8,0,1.4,0.6,1.4,1.4c0,0.5,0.5,1.9,1,3.5c3.1,9.9,11.3,36-4,73.7
			C986,911.7,985.5,912,984.9,912z"/>
		<path class="st0" d="M1071.4,829.6c8.6-0.1,19.8-0.4,27.9-0.7c4.3-0.1,6.8,4.7,4.2,8.1c-5.9,7.9-14,18.7-15.3,19.2
			c-1.2,0.5-12.2-9.9-20.4-17.9C1064.6,835.2,1066.8,829.7,1071.4,829.6z"/>
		<path class="st0" d="M1075.8,840.1c0.3,2-1.3,131.8-1.3,131.8l16.6,53.3c2.1,6.7,11.5,6.9,13.8,0.3l20.6-57.2l-30.2-128.2H1075.8z
			"/>
		<path class="st0" d="M1015.8,683.4c0,0-7.4,21.6,3.9,17.7c11.3-3.9,25.3-56.7,25.3-56.7s84.3,38.1,97.7,29.1s1.8-72.2-45.2-72.2
			C1050.5,601.4,1007.3,656.8,1015.8,683.4z"/>
		<rect x="431.7" y="1307.7" class="st3" width="1217.8" height="48.8"/>
		<circle class="st0" cx="1636.1" cy="1857.6" r="27.5"/>
		<circle class="st0" cx="1845.2" cy="1857.6" r="27.5"/>
		<rect x="1727.4" y="1528.3" class="st0" width="26.5" height="176.5"/>
		<circle class="st0" cx="1740.7" cy="1859.6" r="27.5"/>
		<circle class="st0" cx="463.4" cy="1855.6" r="27.5"/>
		<circle class="st0" cx="254.3" cy="1855.6" r="27.5"/>
		
			<rect x="345.6" y="1526.2" transform="matrix(-1 -7.655267e-11 7.655267e-11 -1 717.6959 3229.0095)" class="st0" width="26.5" height="176.5"/>
		<circle class="st0" cx="358.8" cy="1857.5" r="27.5"/>
		<rect x="248.1" y="1322.7" class="st0" width="22.4" height="207.5"/>
		
			<rect x="1829.1" y="1324.8" transform="matrix(-1 -4.472657e-11 4.472657e-11 -1 3680.5261 2857.0078)" class="st0" width="22.4" height="207.5"/>
		<polygon class="st0" points="760,1692.9 628.1,1764.4 507.4,1541.5 616,1482.7 		"/>
		<path class="st3" d="M479.1,1590H261.9c-19.6,0-35.5-15.9-35.5-35.5v-4.9c0-19.6,15.9-35.5,35.5-35.5h217.2
			c19.6,0,35.5,15.9,35.5,35.5v4.9C514.6,1574.1,498.7,1590,479.1,1590z"/>
		<path class="st2" d="M474.3,1438.6c-2.5-34.9-22.4-160.6-22.4-160.6c77.3-7.9,8.5-99.3-19.4-148.8c-0.2-0.4-0.6-0.7-0.9-1
			c-16.4-18.2-39-29.8-63.3-32.1c-13.6-1.3-16.3-5.6-26.3,2.3c-11.3,8.9-29.4,32.4-33.1,55c-14.1,86.5-0.4,279.2-2.9,285.2H474.3z"
			/>
		<path class="st1" d="M435.5,946.1c0,0,7.4,6.7,9.1,22c1.8,15.3,11.4,37.7,26.1,44.7l-8.1,14c0,0,1.6,46-24.3,50.6
			c-25.9,4.6-30.6,0.7-30.6,0.7l-10.3,37.3c-4.1,15-19.4,24.1-34.6,20.6h0c-16.8-3.9-26.6-21.5-21-37.8
			c8.3-24.3,18.6-54.4,18.7-55.6c0.2-2.1-27-44.4,7.5-75C402.6,937.1,435.5,946.1,435.5,946.1z"/>
		<path class="st0" d="M374.8,1031.5l0.2-5.8c0,0-27.2-21.6-15.1-41.4c12.2-19.8,20.7,7.7,20.7,7.7l79.8-22.8
			c0,0-1.9-69.6-85.5-55.7c-83.6,14-67.6,94.7-58.2,116.1s34.4,44.3,34.4,44.3l0,0C365.5,1064.4,374.3,1048.6,374.8,1031.5z"/>
		
			<ellipse transform="matrix(0.9698 -0.244 0.244 0.9698 -231.6727 135.2988)" class="st0" cx="430.3" cy="1002.8" rx="7.4" ry="8.5"/>
		<circle class="st2" cx="431.7" cy="1000.1" r="3.4"/>
		<path class="st0" d="M434.9,1055.3c-3.2-2.3-5.5-6.4-5.2-7.8c0.2-0.9,1-1.4,1.9-1.2c0.7,0.1,1.2,0.7,1.3,1.4
			c0.3,0.8,2.2,4.7,5.9,6.2c2.6,1,5.6,0.5,8.8-1.5c0.8-0.5,1.7-0.2,2.2,0.5c0.5,0.8,0.2,1.7-0.5,2.2c-6.5,4.1-11.3,2.5-14.2,0.4
			C435,1055.4,434.9,1055.3,434.9,1055.3z M432.8,1048.2C432.8,1048.2,432.8,1048.2,432.8,1048.2
			C432.8,1048.2,432.8,1048.2,432.8,1048.2z M432.8,1048.2C432.8,1048.2,432.8,1048.2,432.8,1048.2
			C432.8,1048.2,432.8,1048.2,432.8,1048.2z"/>
		<path class="st0" d="M416.1,997.5c-0.5,0.1-1,0-1.4-0.3c-1.2-0.6-1.6-2-1-3.2c0.3-0.5,7.1-12.9,22.6-11c1.3,0.2,2.2,1.3,2,2.6
			s-1.3,2.2-2.6,2c-12.4-1.6-17.8,8.4-17.9,8.5C417.5,996.9,416.8,997.4,416.1,997.5z"/>
		<path class="st1" d="M332.4,1159.8c-0.3,0-0.4,0-0.5,0c0,0,0,0,0,0C332.1,1159.8,332.2,1159.8,332.4,1159.8z"/>
		<path class="st0" d="M494.7,1419H304.4v0c0,63.8,51.8,115.6,115.6,115.6h62.8l-24.1,236.4h170.1v-236.4v0
			c0-63.8-51.8-115.6-115.6-115.6H494.7z"/>
		<path class="st3" d="M628.8,1754.1c-1,0-1.7-0.8-1.7-1.7v-225.8c0-1,0.8-1.7,1.7-1.7s1.7,0.8,1.7,1.7v225.8
			C630.6,1753.3,629.8,1754.1,628.8,1754.1z"/>
		<path class="st3" d="M259.9,1354.4h-1.2c-17.2,0-31.2-14-31.2-31.2v-127.4c0-17.2,14-31.2,31.2-31.2h1.2c17.2,0,31.2,14,31.2,31.2
			v127.4C291.1,1340.4,277.1,1354.4,259.9,1354.4z"/>
		<path class="st3" d="M428.3,1855.6h70.1c0-16-10.7-29.5-25.4-33.7v-21.4l-86.4-54.5v-43h-55.5v43l-86.4,54.5v21.4
			c-14.7,4.2-25.4,17.7-25.4,33.7h70.1c0-16.2-11-29.9-26-33.9v-7.2l84.5-53.3v63c-14,4.6-24.1,17.8-24.1,33.3h70.1
			c0-15.5-10.1-28.7-24.1-33.3v-63l84.5,53.3v7.2C439.3,1825.7,428.3,1839.4,428.3,1855.6z"/>
		<path class="st0" d="M352.2,942.7c0,0-48.6-56.2-88-12.5c-39.4,43.7-26.5,131.6-99.9,150.3c-41.6,10.6-60.8,82.7-28.1,113.5
			c45.2,42.5,131-16.1,129-16.7c-2.1-0.5-72.3-27.3-23.8-52.5s35.9-164.2,54.3-167c18.4-2.8,44.7,2.3,44.7,2.3L352.2,942.7z"/>
		<path class="st3" d="M1620.5,1592.1h217.2c19.6,0,35.5-15.9,35.5-35.5v-4.9c0-19.6-15.9-35.5-35.5-35.5h-217.2
			c-19.6,0-35.5,15.9-35.5,35.5v4.9C1584.9,1576.2,1600.8,1592.1,1620.5,1592.1z"/>
		<path class="st4" d="M1625.2,1440.6c2.5-34.9,22.4-160.6,22.4-160.6c-77.3-7.9-8.5-99.3,19.4-148.8c0.2-0.4,0.6-0.7,0.9-1
			c16.4-18.2,39-29.8,63.3-32.1c13.6-1.3,16.3-5.6,26.3,2.3c11.3,8.9,29.4,32.4,33.1,55c14.1,86.5,0.4,279.2,2.9,285.2H1625.2z"/>
		<path class="st1" d="M1664,948.1c0,0-7.4,6.7-9.1,22c-1.8,15.3-11.4,37.7-26.1,44.7l8.1,14c0,0-1.6,46,24.3,50.6
			c25.9,4.6,30.6,0.7,30.6,0.7l10.3,37.3c4.1,15,19.4,24.1,34.6,20.6l0,0c16.8-3.9,26.6-21.5,21-37.8c-8.3-24.3-18.6-54.4-18.7-55.6
			c-0.2-2.1,27-44.4-7.5-75C1696.9,939.1,1664,948.1,1664,948.1z"/>
		<path class="st0" d="M1724.8,1033.5l-0.2-5.8c0,0,27.2-21.6,15.1-41.4c-12.2-19.8-20.7,7.7-20.7,7.7l-79.8-22.8
			c0,0,1.9-69.6,85.5-55.7c83.6,14,67.6,94.7,58.2,116.1c-9.4,21.3-34.4,44.3-34.4,44.3h0
			C1734.1,1066.5,1725.2,1050.6,1724.8,1033.5z"/>
		
			<ellipse transform="matrix(0.244 -0.9698 0.9698 0.244 287.4457 2378.4766)" class="st0" cx="1669.2" cy="1004.9" rx="8.5" ry="7.4"/>
		<circle class="st2" cx="1667.8" cy="1002.2" r="3.4"/>
		<path class="st0" d="M1664.4,1057.5c-2.9,2-7.7,3.6-14.2-0.4c-0.8-0.5-1-1.5-0.5-2.2c0.5-0.8,1.5-1,2.2-0.5c3.2,2,6.2,2.5,8.8,1.5
			c3.7-1.4,5.7-5.4,5.9-6.2c0.1-0.7,0.6-1.2,1.3-1.4c0.9-0.2,1.7,0.4,1.9,1.2c0.3,1.3-2,5.4-5.2,7.8
			C1664.6,1057.4,1664.5,1057.4,1664.4,1057.5z M1666.7,1050.2C1666.7,1050.2,1666.7,1050.2,1666.7,1050.2
			C1666.7,1050.2,1666.7,1050.2,1666.7,1050.2z M1666.7,1050.2C1666.7,1050.2,1666.7,1050.2,1666.7,1050.2
			C1666.7,1050.2,1666.7,1050.2,1666.7,1050.2z"/>
		<path class="st0" d="M1683.4,999.5c0.5,0.1,1,0,1.4-0.3c1.2-0.6,1.6-2,1-3.2c-0.3-0.5-7.1-12.9-22.6-11c-1.3,0.2-2.2,1.3-2,2.6
			s1.3,2.2,2.6,2c12.4-1.6,17.8,8.4,17.9,8.5C1682.1,999,1682.7,999.4,1683.4,999.5z"/>
		<path class="st1" d="M1767.2,1161.8c0.3,0,0.4,0,0.5,0c0,0,0,0,0,0C1767.5,1161.9,1767.3,1161.9,1767.2,1161.8z"/>
		<path class="st1" d="M1489.7,1295.8c0,0-8.7,1.2-7.2,8.9c1.5,7.6,5.6,6,5.6,6s-8.4,11.3,6.6,14.5c0,0-6.3,7.1,8.1,11
			c14.3,3.9,32.7,7,32.7,7s10,18.2,20,19.2c10,1,15.6-0.3,16.5,0.6c0.9,0.9,75.8,46,107.3,25.4c31.5-20.7,48.7-79,48.7-79
			l-44.1-17.2L1658,1345l-86.4-21.7c0,0-22.1-34.9-34.5-37.2c-7.2-1.3-22-1.6-33.3-1.6c-8.2,0-14.6,0.1-14.6,0.1s-0.3,0.3-0.8,0.7
			C1486.7,1287.1,1483.3,1291.8,1489.7,1295.8z"/>
		<path class="st0" d="M1531.2,1298.1c-0.3,0.3-0.8,0.5-1.2,0.5c-14.3-0.4-36-0.9-37.4-0.9c-0.9,0.1-1.7-0.5-1.9-1.5
			c-0.2-0.9,0.5-1.8,1.4-2c0.2,0,0.8-0.1,37.9,0.8c1,0,1.7,0.8,1.7,1.8C1531.7,1297.3,1531.5,1297.8,1531.2,1298.1z"/>
		<path class="st0" d="M1530.1,1310.5c-0.3,0.3-0.7,0.5-1.1,0.5c-14.3,0.3-35.9,0.9-37.1,1c-0.9,0.1-1.7-0.5-1.9-1.5
			c-0.2-0.9,0.5-1.8,1.4-2c0.2,0,0.6-0.1,37.4-1c1,0,1.8,0.7,1.8,1.7C1530.6,1309.7,1530.4,1310.2,1530.1,1310.5z"/>
		<path class="st0" d="M1604.9,1421.1h190.2v0c0,63.8-51.8,115.6-115.6,115.6h-62.8l24.1,236.4h-170.1v-236.4v0
			c0-63.8,51.8-115.6,115.6-115.6H1604.9z"/>
		<path class="st0" d="M1743.9,1317.9c0.3,0,0.7-0.1,0.9-0.3c0.6-0.5,14.9-11.8,23.1-41.4c0.2-0.8-0.2-1.6-1.1-1.9
			c-0.8-0.2-1.6,0.2-1.9,1.1c-6.9,25-18.5,36.7-21.4,39.3l-76.8-31.1c11.8-54.8,28.2-84.7,28.4-85c0.4-0.7,0.1-1.7-0.6-2.1
			c-0.7-0.4-1.7-0.1-2.1,0.6c-0.2,0.3-17.1,31-29,87.1c-0.2,0.7,0.2,1.4,0.9,1.7l78.9,31.9
			C1743.5,1317.9,1743.7,1317.9,1743.9,1317.9z"/>
		<path class="st3" d="M1839.6,1356.4h1.2c17.2,0,31.2-14,31.2-31.2v-127.4c0-17.2-14-31.2-31.2-31.2h-1.2
			c-17.2,0-31.2,14-31.2,31.2v127.4C1808.4,1342.4,1822.4,1356.4,1839.6,1356.4z"/>
		<path class="st3" d="M1810.2,1857.6h70.1c0-16-10.7-29.5-25.4-33.7v-21.4l-86.4-54.5v-43h-55.5v43l-86.4,54.5v21.4
			c-14.7,4.2-25.4,17.7-25.4,33.7h70.1c0-16.2-11-29.9-26-33.9v-7.2l84.5-53.3v63c-14,4.6-24.1,17.8-24.1,33.3h70.1
			c0-15.5-10.1-28.7-24.1-33.3v-63l84.5,53.3v7.2C1821.2,1827.8,1810.2,1841.4,1810.2,1857.6z"/>
		<path class="st0" d="M1536,1325.2c-0.3,0.3-0.7,0.5-1.1,0.5c-14.3,0.3-35.9,0.9-37.1,1c-0.9,0.1-1.7-0.5-1.9-1.5
			c-0.2-0.9,0.5-1.8,1.4-2c0.2,0,0.6-0.1,37.4-1c1,0,1.8,0.7,1.8,1.7C1536.6,1324.4,1536.4,1324.9,1536,1325.2z"/>
		<path class="st0" d="M1759.2,933.8c-2.6-2.3,26.7-50.4,61.3-6.8s-19.6,87.6-39.9,65.2C1760.3,969.9,1759.2,933.8,1759.2,933.8z"/>
		<path class="st1" d="M586.4,1405.5c0,0,7.7,4.3,3.5,10.9c-4.2,6.6-7.4,3.6-7.4,3.6s3.8,13.6-11.4,11.1c0,0,3.3,8.9-11.5,7.3
			c-14.8-1.6-33-5.3-33-5.3s-15.9,13.4-25.6,10.7c-9.7-2.6-14.4-5.9-15.6-5.4c-1.1,0.6-87.3,15.6-109.3-15.1
			c-21.9-30.6-24-146-24-146l49.4-3.8l10.1,117l88.4,11c0,0,33.2-24.6,45.6-22.2c7.1,1.4,21.1,6.4,31.6,10.5
			c7.7,3,13.6,5.4,13.6,5.4s0.2,0.4,0.5,1C592.3,1398.5,593.8,1404.1,586.4,1405.5z"/>
		<path class="st0" d="M546.8,1392.7c0.2,0.4,0.5,0.7,1,0.9c13.5,4.8,33.9,12.1,35.2,12.7c0.8,0.4,1.8,0.1,2.3-0.7
			c0.5-0.8,0.2-1.9-0.6-2.4c-0.2-0.1-0.7-0.4-35.7-12.9c-0.9-0.3-1.9,0.1-2.2,1.1C546.6,1391.8,546.6,1392.3,546.8,1392.7z"/>
		<path class="st0" d="M543.4,1404.7c0.2,0.4,0.5,0.7,0.9,0.8c13.2,5.5,33.1,13.8,34.2,14.3c0.8,0.4,1.8,0.1,2.3-0.7
			c0.5-0.8,0.2-1.9-0.6-2.4c-0.1-0.1-0.5-0.3-34.5-14.4c-0.9-0.4-1.9,0.1-2.3,0.9C543.1,1403.7,543.2,1404.2,543.4,1404.7z"/>
		<path class="st0" d="M328.1,1277.6c-0.3-0.1-0.6-0.3-0.8-0.6c-0.4-0.7-9.6-16.4-6.6-46.9c0.1-0.8,0.8-1.4,1.7-1.4
			c0.8,0.1,1.4,0.8,1.4,1.7c-2.6,25.8,4,40.9,5.7,44.3l82.9-1.2c8.8-55.3,4.3-89.2,4.2-89.5c-0.1-0.8,0.5-1.6,1.3-1.7
			c0.8-0.1,1.6,0.5,1.7,1.3c0,0.3,4.7,35.1-4.4,91.7c-0.1,0.7-0.7,1.3-1.5,1.3l-85.1,1.3C328.4,1277.7,328.2,1277.7,328.1,1277.6z"
			/>
		<path class="st0" d="M532.5,1416.2c0.2,0.4,0.5,0.7,0.9,0.8c13.2,5.5,33.1,13.8,34.2,14.3c0.8,0.4,1.8,0.1,2.3-0.7
			c0.5-0.8,0.2-1.9-0.6-2.4c-0.1-0.1-0.5-0.3-34.5-14.4c-0.9-0.4-1.9,0.1-2.3,0.9C532.3,1415.3,532.3,1415.8,532.5,1416.2z"/>
		<path class="st0" d="M1139.5,1031.7c-0.1,0-0.1,0-0.2,0c-0.8-0.1-1.3-0.8-1.2-1.6l13.5-111l-17.9-33.9l17.7-24.9
			c-12.5-17.9-32.5-46-34.6-47.6c-0.6-0.5-0.7-1.3-0.3-1.9c0.4-0.6,1.3-0.8,1.9-0.4c2.8,1.8,30.3,41.2,35.9,49.1l0.6,0.8l-17.8,25.1
			l17.5,33.2l-0.1,0.4l-13.6,111.4C1140.8,1031.2,1140.2,1031.7,1139.5,1031.7z"/>
		<g>
			<path class="st0" d="M1444.9,352.1L1321,362.3l31.6,27.7l-51.5,55.4c0,0-161.3-72.7-162.6-70.3c-1.3,2.4-254,310.8-254,310.8
				c2.1-1.7,256.1-237.1,256.1-237.1l174.4,79.5l93.8-89.1l42.4,37.1L1444.9,352.1z"/>
			<path class="st0" d="M881.6,688.6l2.5-3c2.5-3.1,252.1-307.6,254-310.8c0.4-0.7,1-1.8,82.3,34.1c38.3,16.9,77,34.3,80.5,35.9
				l51-54.9l-32-28l125.2-10.3l0,0.4l6.2,125.1l-42.8-37.5l-93.7,89.1l-0.2-0.1l-174.1-79.3c-12.9,11.9-253.8,235.2-255.9,236.9
				L881.6,688.6z M1138.7,375.4c-5.5,7.5-219,268-250.5,306.4c32.7-30.1,249.6-231.1,252-233.3l0.2-0.2l0.2,0.1l174.1,79.3
				l93.8-89.2l42,36.8l-6.1-122.8l-122.5,10.1l31.2,27.3l-52,55.9l-0.3-0.1C1257.4,426.1,1144,375.5,1138.7,375.4z M1138.8,375.2
				C1138.8,375.2,1138.8,375.2,1138.8,375.2C1138.8,375.2,1138.8,375.2,1138.8,375.2z"/>
		</g>
		<g>
			<path class="st4" d="M670.9,512.9h210.7c-5.9-113.7-97.1-204.7-210.7-210.6V512.9z"/>
		</g>
	</g>
</g>
<g id="Layer_6">
</g>
<g id="Layer_7">
</g>
<g id="Layer_8">
</g>
<g id="Layer_9">
</g>
<g id="Layer_10">
</g>
</svg>
