<?xml version="1.0" encoding="utf-8"?>
<!-- Generator: Adobe Illustrator 23.0.5, SVG Export Plug-In . SVG Version: 6.00 Build 0)  -->
<svg version="1.1" xmlns="http://www.w3.org/2000/svg" xmlns:xlink="http://www.w3.org/1999/xlink" x="0px" y="0px"
	 viewBox="0 0 2000 2000" style="enable-background:new 0 0 2000 2000;" xml:space="preserve">
<style type="text/css">
	.st0{fill:#252734;}
	.st1{fill:#F1BAA4;}
	.st2{fill:#EFDDBF;}
	.st3{fill:#445E77;}
	.st4{fill:#E66F55;}
</style>
<g id="Layer_1">
</g>
<g id="Layer_2">
</g>
<g id="Layer_3">
</g>
<g id="Layer_4">
</g>
<g id="Layer_5">
</g>
<g id="Layer_6">
</g>
<g id="Layer_7">
	<g>
		<rect x="884.6" y="210" class="st2" width="924.5" height="570.2"/>
		<path class="st4" d="M1020.9,716.2c-1.3,0-2.6-0.2-3.8-0.6c-6.6-2.1-10.3-9.2-8.2-15.8l76.4-238.8l58.2,135.3l40.1-59.5l20.2,26.3
			l48.6-156.4l11.6,40.9c16.6,58.6,35.3,122.4,46.9,158.7c5.8-17.2,13.1-39.6,20.3-61.5c66.2-201.6,68.3-202.4,77.2-205.6
			c3.8-1.4,7.9-0.9,11.3,1.2c3,1.9,8.5,5.4,72.6,123.5l79.2-184.5l100.9,96.2c5,4.8,5.2,12.8,0.4,17.8c-4.8,5-12.8,5.2-17.8,0.4
			l-74.6-71.2l-85.5,199l-12.4-22.9c-24.8-46-52.6-96.4-67.8-122.1c-13.9,37-41.6,121.3-59.5,175.9c-31.3,95.3-31.6,95.6-34.9,99
			l-5.1,5.1l-7.2-1.8c-8.7-2.3-10.2-2.7-40.5-105c-5.7-19.3-11.3-38.7-16-54.9l-37.9,122l-28.5-37.1l-46.3,68.7l-49.8-115.8
			l-55.9,174.6C1031.2,712.7,1026.3,716.2,1020.9,716.2z"/>
		<path class="st0" d="M1398.7,195.2v-1.3c0-28.6-23.2-51.8-51.8-51.8l0,0c-28.6,0-51.8,23.2-51.8,51.8v1.3h-190.5
			c-20.9,0-37.8,16.9-37.8,37.8v0H1627v0c0-20.9-16.9-37.8-37.8-37.8H1398.7z"/>
		<rect x="1039.4" y="768.4" class="st0" width="614.9" height="28.9"/>
		
			<rect x="1021.5" y="929.7" transform="matrix(0.4107 0.9118 -0.9118 0.4107 1565.4048 -391.9127)" class="st0" width="128.8" height="170.7"/>
		<path class="st3" d="M1191.9,995.6c10.5-6.4,14.9-19.8,9.7-31.3c-2.6-5.8-7.1-10-12.5-12.4c-5.3-2.4-11.5-2.9-17.4-1.1l-7.6-16.9
			l-33.4,15l35.4,78.5l33.4-15L1191.9,995.6z M1172.1,977.6c-2.3-5.1,0-11.2,5.1-13.5c5.1-2.3,11.2,0,13.5,5.1
			c2.3,5.1,0,11.2-5.1,13.5C1180.5,985,1174.4,982.7,1172.1,977.6z"/>
		
			<rect x="790.2" y="504.8" transform="matrix(-0.9994 3.472257e-02 -3.472257e-02 -0.9994 1642.4327 1063.8325)" class="st1" width="43.5" height="82.7"/>
		<path class="st0" d="M923,682.3c-0.7,69.8-4.9,158.9-4.9,158.9l-36.5,10.1l-70.5,19.6l-2.4,0.7l-62.1-32l-11.1-5.7
			c0,0-3.9-27.2-8.2-63.4c-2.8-23.7-5.8-51.2-8-77.4c-3.9-47.5-5.1-90.8,2.4-99.5c1.6-1.9,3.3-3.5,4.9-5c16.2-14,32.6-8,44-19.7
			c0.1-0.1,0.3-0.2,0.4-0.4c12.5-13.4,16.5-26,16.5-26c0.2,0.1,1.2,0.8,2.8,1.8c7.2,4.4,26.8,14.9,44.3,10.8c1.9-0.4,3.7-1,5.5-1.8
			c0,0-5.3,17.4,9.1,21.6c1.3,0.4,2.7,0.7,4.4,0.8c14.2,1.3,38.3,0.2,53.6,10.4c0.3,0.1,0.5,0.4,0.8,0.5c5.5,3.9,9.8,9.3,11.9,16.9
			c0.4,1.2,0.7,2.8,0.9,4.6c0.6,3.6,1,8.4,1.3,14.1l0,0.5C923,637.6,923.2,658.9,923,682.3z"/>
		<path class="st3" d="M735.5,833.8c0,0-102.8,746.1-98.4,747.5c4.4,1.5,10.2,38.1,83.5,5.9c0,0,89.7-507,98.5-501.1
			c8.8,5.9,27,504.5,27,504.5s25.2,31.6,88.3-0.7c0,0,9.2-703.3-16.3-748.7L735.5,833.8z"/>
		<path class="st0" d="M739.7,453.4c0,0-16.4-42,0.3-72.2c16.7-30.2,40.4-12.3,40.4-12.3s59.9-17.4,86.8-6.1
			c26.9,11.2,15.3,38.3,15.3,38.3l-135.2,62.9L739.7,453.4z"/>
		<path class="st1" d="M882.9,438c-1,2.7,11.1,105-57.8,100c0,0-46.6,6.8-67.6-46.4c0,0-19.7,1-25.2-19.5s9.1-29.6,20.6-19.4
			c0,0,5-63.5,61.8-64.4C871.5,387.3,882.9,438,882.9,438z"/>
		<path class="st0" d="M752.9,452.6l4.2,21.2c0,0,16.8-41,18.6-59.8c0,0,71,35.6,75,6c0,0,18.1,34.8,37.5,31.6s9-56.3-37.5-71.5
			c-46.5-15.2-85.8-3.8-99.7,19.3S755.1,454.3,752.9,452.6z"/>
		<path class="st0" d="M780.3,456.4c0.3,0,0.7-0.1,0.9-0.4c7.1-6.6,13.9-3.7,16.8-2.5c1.1,0.5,2,0.9,2.8,0.1c0.6-0.5,0.6-1.4,0.1-2
			c-0.3-0.3-0.7-0.5-1.1-0.5c0,0,0,0,0,0c-0.2-0.1-0.4-0.2-0.7-0.3c-3.1-1.3-11.3-4.8-19.8,3c-0.6,0.5-0.6,1.4-0.1,2
			C779.6,456.2,779.9,456.4,780.3,456.4z"/>
		<path class="st0" d="M869.2,461c0.3,0,0.6-0.1,0.8-0.3c0.6-0.5,0.7-1.4,0.2-2c-0.1-0.1-8.1-10.1-21.4-6c-0.7,0.2-1.2,1-0.9,1.8
			c0.2,0.7,1,1.2,1.8,0.9c11.4-3.6,18.2,4.9,18.3,5C868.4,460.8,868.8,461,869.2,461z"/>
		<path class="st0" d="M822.5,506.7c-0.1,0.8,0.5,1.5,1.2,1.5c0.1,0,0.3,0,0.6,0c1.6-0.1,5.9-0.8,8.7-7.1c2.8-6.2-2.9-14.6-5.4-18.3
			c-0.3-0.5-0.6-0.9-0.7-1.1c-0.1-0.5-0.7-1-1.3-1c-0.8-0.1-1.4,0.5-1.5,1.3c0,0.6,0.2,1,1.2,2.4c2,3,7.3,10.8,5.2,15.5
			c-2.6,5.7-6.3,5.5-6.5,5.4C823.3,505.4,822.5,506,822.5,506.7z"/>
		<path class="st0" d="M821.2,524.6c5.4-0.2,10.5-3,11-4.2c0.3-0.7,0-1.5-0.8-1.8c-0.6-0.2-1.2-0.1-1.6,0.4
			c-0.8,0.6-6.2,3.7-11.8,2.5c-4-0.9-7.1-3.9-9.3-8.9c-0.3-0.7-1.1-1-1.9-0.7c-0.7,0.3-1,1.1-0.7,1.9c3.9,9,10.2,10.9,14.7,10.8
			C820.9,524.6,821.1,524.6,821.2,524.6z"/>
		
			<ellipse transform="matrix(6.843802e-02 -0.9977 0.9977 6.843802e-02 265.8951 1230.9556)" class="st0" cx="792.1" cy="473.1" rx="9" ry="7.8"/>
		<circle class="st2" cx="790.1" cy="470.5" r="3.6"/>
		
			<ellipse transform="matrix(6.843802e-02 -0.9977 0.9977 6.843802e-02 321.443 1299.2742)" class="st0" cx="856.4" cy="477.5" rx="9" ry="7.8"/>
		<circle class="st2" cx="854.4" cy="474.9" r="3.6"/>
		<path class="st0" d="M794.3,1679.9c-4.8,13.8-150.9-4.2-158.5-22.1c-4-9.4-0.5-26.5,4-41.8c4-13.7,8.9-26,9.7-29.9l56.5-4.8
			l0.7,26.9c0,0,21,13.2,42.4,28.4c0,0,0,0,0,0C772.8,1653.4,796.8,1672.7,794.3,1679.9z"/>
		<path class="st0" d="M847.4,1665.4c-2.2-6.8-1.3-20.8,0.5-35.3c2.8-21.9,7.8-44.7,7.8-44.7s58.6-4.2,62.4-6.9
			c3.8-2.7-0.4,31,0,33.1c0.1,0.9,17.4,8.4,37.1,18.2c25,12.6,53.9,29.1,56.3,41C1015.5,1692.3,852.9,1682.7,847.4,1665.4z"/>
		<path class="st0" d="M1059.1,1615.7c-0.1-0.2,0-0.5,0.1-0.7C1059.2,1615,1059.2,1615.3,1059.1,1615.7z"/>
		<path class="st1" d="M1101.5,1024c-4.8,0.1-5.6-3.7-5.6-3.7s-1.4,5.7-5.3,7.2c-3.9,1.5-6.6-7.2-6.6-7.2s-0.5,3.9-6.3,3.7
			c-5.7-0.3-7-10.3-7-10.3c-4,8.1-9.8,1.1-9.8,1.1s-3.6-29-5.5-28c-1.9,1-11.1-4.2-22.8-16.7c-11.3-12-10-27.3-10.6-28.9
			c6.6-6.9,15.4-18.8,20.7-26.5c6.4,5.5,45.4,39,51,46.6c6.1,8.4,10,34.1,11.6,43.9C1106.9,1014.9,1106.2,1023.9,1101.5,1024z"/>
		<path class="st0" d="M1095.8,1018c-0.1-0.1-0.2-0.1-0.3-0.2c-0.3-0.4-0.4-0.8-0.3-1.3c-0.1-2-3-16.1-5-25.5
			c-3-14.1-3-14.7-2.9-15.2c0.1-0.8,0.9-1.3,1.7-1.2c0.7,0.1,1.2,0.8,1.2,1.5c0.1,1,1.5,7.8,2.9,14.3c5.6,26.6,5.5,26.7,4.5,27.5
			C1097.1,1018.4,1096.3,1018.4,1095.8,1018z"/>
		<path class="st0" d="M1083.7,1017.5c-0.3-0.2-0.5-0.6-0.6-1c-1.7-11-4.6-29-5.2-31c-0.2-0.3-0.2-0.7-0.1-1c0.2-0.8,1-1.3,1.8-1.1
			c1.2,0.3,1.4,0.3,6.4,32.6c0.1,0.8-0.4,1.6-1.2,1.7C1084.4,1017.8,1084,1017.7,1083.7,1017.5z"/>
		<path class="st0" d="M1070.1,1011.8c-0.3-0.2-0.5-0.6-0.6-1c-0.7-5.7-2.5-21-2.9-22.8c-0.2-0.8,0.3-1.6,1.1-1.8
			c0.8-0.2,1.6,0.3,1.8,1.1c0.5,2.4,2.8,22.3,2.9,23.1c0.1,0.8-0.5,1.5-1.3,1.6C1070.8,1012.1,1070.4,1012,1070.1,1011.8z"/>
		<path class="st1" d="M532.3,1029.7c4.8,0.1,5.6-3.7,5.6-3.7s1.4,5.7,5.3,7.2c3.9,1.5,6.6-7.2,6.6-7.2s0.5,3.9,6.3,3.7
			c5.7-0.3,7-10.3,7-10.3c4,8.1,9.8,1.1,9.8,1.1s3.6-29,5.5-28c1.9,1,11.1-4.2,22.8-16.7c11.3-12,10-27.3,10.6-28.9
			c-6.6-6.9-15.4-18.8-20.7-26.5c-6.4,5.5-45.4,39-51,46.6c-6.1,8.4-10,34.1-11.6,43.9C526.9,1020.7,527.5,1029.6,532.3,1029.7z"/>
		<path class="st0" d="M538,1023.8c0.1-0.1,0.2-0.1,0.3-0.2c0.3-0.4,0.4-0.8,0.3-1.3c0.1-2,3-16.1,5-25.5c3-14.1,3-14.7,2.9-15.2
			c-0.1-0.8-0.9-1.3-1.7-1.2c-0.7,0.1-1.2,0.8-1.2,1.5c-0.1,1-1.5,7.8-2.9,14.3c-5.6,26.6-5.5,26.7-4.5,27.5
			C536.7,1024.1,537.4,1024.2,538,1023.8z"/>
		<path class="st0" d="M550.1,1023.2c0.3-0.2,0.5-0.6,0.6-1c1.7-11,4.6-29,5.2-31c0.2-0.3,0.2-0.7,0.1-1c-0.2-0.8-1-1.3-1.8-1.1
			c-1.2,0.3-1.4,0.3-6.4,32.6c-0.1,0.8,0.4,1.6,1.2,1.7C549.4,1023.6,549.8,1023.5,550.1,1023.2z"/>
		<path class="st0" d="M563.6,1017.5c0.3-0.2,0.5-0.6,0.6-1c0.7-5.7,2.5-21,2.9-22.8c0.2-0.8-0.3-1.6-1.1-1.8
			c-0.8-0.2-1.6,0.3-1.8,1.1c-0.5,2.4-2.8,22.3-2.9,23.1c-0.1,0.8,0.5,1.5,1.3,1.6C563,1017.8,563.3,1017.7,563.6,1017.5z"/>
		<path class="st0" d="M725.7,597.2c4.1,21.5,21,105,11.4,154.1C726,808.4,628.8,967.2,628.8,967.2c-6.8-2.3-12.9-5.8-18.3-10
			c-11.6-9-20.2-21.1-26-31.2c-6.2-10.8-9.2-19.3-9.2-19.3s74.9-139,104.7-223.3c29.8-84.3,38-86,38.8-86.1L725.7,597.2z"/>
		<path class="st0" d="M1058.6,901c0,0-3,8.5-9.2,19.3c-5.8,10.1-14.4,22.2-26,31.2c-5.4,4.2-11.5,7.7-18.3,10
			c0,0-97.2-158.7-108.4-215.8c-9.4-48.5,6.8-130.4,11.2-153.2l1.9-3.3c0.8,0.1,14.3,4.3,44.1,88.6
			C983.7,762.1,1058.6,901,1058.6,901z"/>
		<path class="st4" d="M787.1,581.6c4.4-2.4,59.7-4.3,59.7-2.4c0,1.9-25.3,40.9-25.3,40.9L787.1,581.6z"/>
		<path class="st4" d="M834.4,596.9c0.1,2.9,28.9,188.4,28.9,188.4s-34.9,49.4-36.9,50.2c-2.1,0.8-46.5-47.7-46.5-47.7l24.5-193.3
			L834.4,596.9z"/>
		<path class="st2" d="M826.5,941c-2.5,0-5.1-0.3-7.8-1c-0.8-0.2-1.2-0.9-1-1.7c0.2-0.8,0.9-1.2,1.7-1c9.2,2.2,16.9,0.3,22.9-5.8
			c17.9-18,16.6-65.2,15.3-70.3c-0.2-0.8,0.3-1.5,1-1.7c0.8-0.2,1.5,0.3,1.7,1c1.3,5.3,2.5,54.2-16.1,72.9
			C839.3,938.5,833.4,941,826.5,941z"/>
		<path class="st2" d="M814,993.3c-0.2,0-0.4,0-0.6-0.2c-0.7-0.4-1-1.2-0.6-1.9c0.9-2.9,2.6-49.6,3.7-80.5
			c1.1-29.3,1.5-41.4,1.8-42.6c0.2-0.8,0.9-1.2,1.7-1c0.7,0.2,1.2,0.9,1,1.7c-0.3,1.5-1,21.2-1.7,42.1c-2,54.9-3,79.7-4,81.6
			C815,993,814.5,993.3,814,993.3z"/>
		<rect x="963.8" y="1400" class="st0" width="61.4" height="446.9"/>
		<rect x="1768.3" y="1254" class="st0" width="32.1" height="222.6"/>
		<path class="st3" d="M1816.6,1281.5H1724c-39.5,0-71.5-32-71.5-71.5v-34.8c0-39.5,32-71.5,71.5-71.5h92.7
			c39.5,0,71.5,32,71.5,71.5v34.8C1888.1,1249.5,1856.1,1281.5,1816.6,1281.5z"/>
		<circle class="st0" cx="1524.7" cy="1824.8" r="30.9"/>
		<circle class="st0" cx="1759.5" cy="1824.8" r="30.9"/>
		<rect x="1627.2" y="1536.8" class="st0" width="29.8" height="116.5"/>
		<circle class="st0" cx="1642.1" cy="1827" r="30.9"/>
		<path class="st3" d="M1720.1,1824.8h78.7c0-18-12.1-33.1-28.5-37.8v-24l-97-61.2v-48.2h-62.4v48.2l-97,61.2v24
			c-16.5,4.7-28.5,19.9-28.5,37.8h78.7c0-18.2-12.4-33.5-29.2-38v-8.1l94.9-59.9v70.8c-15.7,5.2-27.1,19.9-27.1,37.4h78.7
			c0-17.4-11.4-32.2-27.1-37.4v-70.8l94.9,59.9v8.1C1732.5,1791.3,1720.1,1806.6,1720.1,1824.8z"/>
		<path class="st3" d="M1782.6,1559.5h-313.2c-26.2,0-47.5-21.3-47.5-47.5v-2.4c0-26.2,21.3-47.5,47.5-47.5h313.2
			c26.2,0,47.5,21.3,47.5,47.5v2.4C1830,1538.2,1808.8,1559.5,1782.6,1559.5z"/>
		
			<rect x="207.6" y="1245.1" transform="matrix(-1 -4.485180e-11 4.485180e-11 -1 447.3338 2712.8303)" class="st0" width="32.1" height="222.6"/>
		<path class="st3" d="M191.4,1272.7h92.7c39.5,0,71.5-32,71.5-71.5v-34.8c0-39.5-32-71.5-71.5-71.5h-92.7
			c-39.5,0-71.5,32-71.5,71.5v34.8C119.9,1240.7,151.9,1272.7,191.4,1272.7z"/>
		<circle class="st0" cx="386" cy="1816" r="30.9"/>
		<circle class="st0" cx="151.3" cy="1816" r="30.9"/>
		
			<rect x="253.7" y="1527.9" transform="matrix(-1 -4.497037e-11 4.497037e-11 -1 537.2446 3172.3401)" class="st0" width="29.8" height="116.5"/>
		<circle class="st0" cx="268.6" cy="1818.2" r="30.9"/>
		<path class="st3" d="M346.6,1816h78.7c0-18-12.1-33.1-28.5-37.8v-24l-97-61.2v-48.2h-62.4v48.2l-97,61.2v24
			c-16.5,4.7-28.5,19.9-28.5,37.8h78.7c0-18.2-12.4-33.5-29.2-38v-8.1l94.9-59.9v70.8c-15.7,5.2-27.1,19.9-27.1,37.4H308
			c0-17.4-11.4-32.2-27.1-37.4V1710l94.9,59.9v8.1C359,1782.5,346.6,1797.8,346.6,1816z"/>
		<path class="st3" d="M208.4,1550.6h232.9c26.2,0,47.5-21.3,47.5-47.5v-2.4c0-26.2-21.3-47.5-47.5-47.5H208.4
			c-26.2,0-47.5,21.3-47.5,47.5v2.4C161,1529.4,182.2,1550.6,208.4,1550.6z"/>
		<path class="st0" d="M1738.1,926.2C1738.1,926.2,1738.1,926.2,1738.1,926.2c-0.5,3.6-1.2,7.2-1.9,10.7c-0.6,2.7-1.2,5.4-1.8,8
			c-7.3,28.8-21.3,49.8-47.9,44.6h0c-31.1-6.1-88.2-69.2-91.5-72.9c-0.1-0.1-0.2-0.2-0.2-0.2c-21.2,8.1-24.4-92.6,58.5-95.2
			C1734.5,818.7,1743.8,888.5,1738.1,926.2z"/>
		<rect x="1645.7" y="978.4" class="st1" width="40.9" height="77.7"/>
		<path class="st1" d="M1738.1,926.2C1738.1,926.2,1738.1,926.2,1738.1,926.2c0,2.2-0.2,4.6-0.9,7.3c-0.3,1.2-0.6,2.4-1,3.4
			c-0.2,0.6-0.4,1.1-0.7,1.6c-0.6,1.3-1.3,2.6-2,3.7c-1.8,2.8-4.1,4.9-6.3,6.4c-6.3,4.2-13,4.1-13,4.1c-2.4,6.8-5.3,12.6-8.5,17.6
			c-5.8,9-12.5,15.1-19.2,19.3c0,0,0,0,0,0s0,0,0,0c-17.2,10.8-34.2,8.9-34.2,8.9c-3.1,0.3-6,0.4-8.7,0.3c-5.3-0.2-9.9-1.2-14.1-2.8
			c-12.5-4.9-20.5-15.3-25.6-27.5c-7.5-17.9-8.7-39.4-8.9-51.8c0-0.1,0-0.2,0-0.2c0-1.7,0-3.2,0-4.5c0-3.1,0-5.1-0.1-5.4
			c0,0,9-48,62.3-49c53.3-1,60.1,58.5,60.1,58.5C1726.4,907.4,1738,912.2,1738.1,926.2z"/>
		<path class="st0" d="M1691.4,916.5c-0.5,0-1-0.2-1.4-0.5c-6.7-5.8-12.8-2.9-15.4-1.7c-1.1,0.5-2.3,1.1-3.4,0.1
			c-0.9-0.7-1-2.1-0.2-2.9c0.4-0.4,0.9-0.7,1.4-0.7c0.1-0.1,0.3-0.1,0.5-0.2c2.7-1.3,11.1-5.2,19.9,2.3c0.9,0.7,1,2.1,0.2,2.9
			C1692.5,916.2,1692,916.5,1691.4,916.5z M1673.9,911.2L1673.9,911.2L1673.9,911.2z M1673.9,911.2L1673.9,911.2L1673.9,911.2z
			 M1673.9,911.2C1673.9,911.2,1673.9,911.2,1673.9,911.2S1673.9,911.2,1673.9,911.2z M1673.9,911.2
			C1673.9,911.2,1673.9,911.2,1673.9,911.2L1673.9,911.2z M1673.9,911.2C1673.9,911.2,1673.9,911.2,1673.9,911.2
			C1673.9,911.2,1673.9,911.2,1673.9,911.2z M1673.9,911.2C1673.9,911.2,1673.9,911.2,1673.9,911.2
			C1673.9,911.2,1673.9,911.2,1673.9,911.2z M1673.9,911.2C1673.9,911.2,1673.9,911.2,1673.9,911.2
			C1673.9,911.2,1673.9,911.2,1673.9,911.2z M1673.9,911.2L1673.9,911.2L1673.9,911.2z M1673.9,911.2
			C1673.9,911.2,1673.9,911.2,1673.9,911.2C1673.9,911.2,1673.9,911.2,1673.9,911.2z M1673.9,911.2L1673.9,911.2L1673.9,911.2z
			 M1673.9,911.2C1673.9,911.2,1673.9,911.2,1673.9,911.2S1673.9,911.2,1673.9,911.2z M1673.9,911.2
			C1673.9,911.2,1673.9,911.2,1673.9,911.2C1673.9,911.2,1673.9,911.2,1673.9,911.2z M1673.9,911.2L1673.9,911.2L1673.9,911.2z"/>
		<path class="st0" d="M1606.3,923.9c-0.4,0-0.9-0.1-1.2-0.4c-0.9-0.7-1.1-2-0.4-2.9c0.3-0.4,7.8-10.4,21.1-6.7
			c1.1,0.3,1.8,1.4,1.4,2.6c-0.3,1.1-1.4,1.8-2.6,1.4c-10.6-2.9-16.5,5.1-16.6,5.2C1607.6,923.6,1606.9,923.9,1606.3,923.9z"/>
		<path class="st0" d="M1651,967.7c-1.7,0-6.2-0.6-9.3-6.9c-3.1-6.2,2.3-14.8,4.6-18.4c0.3-0.4,0.5-0.8,0.6-1
			c0.2-0.8,0.9-1.4,1.8-1.4c1.1-0.1,2.2,0.7,2.3,1.9c0.1,0.8-0.2,1.3-1.2,2.8c-1.8,2.8-6.4,10.3-4.4,14.4c2.4,4.9,5.5,4.6,5.7,4.6
			c1.1-0.1,2.2,0.7,2.3,1.8c0.1,1.1-0.6,2.1-1.7,2.3C1651.6,967.7,1651.4,967.7,1651,967.7z M1646.8,942.2
			C1646.8,942.2,1646.8,942.2,1646.8,942.2C1646.8,942.2,1646.8,942.2,1646.8,942.2z M1646.8,942.2
			C1646.8,942.2,1646.8,942.2,1646.8,942.2C1646.8,942.2,1646.8,942.2,1646.8,942.2z"/>
		<path class="st0" d="M1654.5,983.3c-5.1,0-10.6-2.5-11.4-4.1c-0.5-1,0-2.3,1-2.7c0.8-0.4,1.8-0.2,2.3,0.4
			c0.9,0.6,5.9,3.2,10.9,1.8c3.5-1,6.2-3.8,8-8.3c0.4-1.1,1.6-1.6,2.7-1.2c1.1,0.4,1.6,1.6,1.2,2.7c-3.6,9.2-9.8,11.2-14.4,11.3
			C1654.8,983.3,1654.6,983.3,1654.5,983.3z M1646.9,977.5C1646.9,977.5,1646.9,977.5,1646.9,977.5
			C1646.9,977.5,1646.9,977.5,1646.9,977.5z M1646.9,977.5C1646.9,977.5,1646.9,977.5,1646.9,977.5
			C1646.9,977.5,1646.9,977.5,1646.9,977.5z"/>
		
			<ellipse transform="matrix(0.9947 -0.103 0.103 0.9947 -87.1075 178.135)" class="st0" cx="1680.7" cy="932.2" rx="7.5" ry="8.7"/>
		<circle class="st2" cx="1682.5" cy="929.7" r="3.4"/>
		
			<ellipse transform="matrix(0.9947 -0.103 0.103 0.9947 -88.0923 171.8258)" class="st0" cx="1619.1" cy="938.6" rx="7.5" ry="8.7"/>
		<circle class="st2" cx="1621" cy="936.1" r="3.4"/>
		<path class="st2" d="M1564.1,1118.2c0,3.6,0,7.3,0.1,11.1c0.1,6,0.1,12.2,0.2,18.4c0.1,3.7,0.1,7.5,0.2,11.2
			c0.1,4.8,0.2,9.7,0.3,14.5c0,0.6,0,1.1,0,1.7c0.1,2.5,0.1,5.1,0.2,7.6c0,1,0.1,2,0.1,3c0.1,2.8,0.2,5.5,0.2,8.2
			c0.2,6.3,0.4,12.5,0.6,18.5c0.1,3.9,0.3,7.7,0.4,11.4c1.1,31.2,2.2,54.2,2.2,54.2l27.6,7.7c47.1,13.1,100.1,46.6,143.5,24.2
			c0,0-1.1-50.2,1.2-68.1c0.4-3.4,0.9-7,1.4-10.8c0.9-7,1.8-14.6,2.8-22.6c0.4-3.6,0.8-7.2,1.3-10.9c0.4-3.6,0.8-7.3,1.2-11v-0.1
			c0.1-1.3,0.3-2.7,0.4-4h0c0.3-3.3,0.7-6.6,1-9.9c0.4-3.6,0.7-7.3,1.1-10.9c0.7-7.5,1.4-15.1,2-22.5c0.3-3.7,0.6-7.4,0.8-11
			c0.7-9.4,1.2-18.4,1.5-26.8c0.1-3.8,0.2-7.5,0.3-11c0.1-7.9,0-15-0.4-21c-0.3-3.9-0.7-7.4-1.2-10.4c-0.8-4.5-1.9-7.7-3.4-9.4
			c-5.8-6.7-11.7-10-17.5-12h0c-8.7-3.1-17-3.2-23.9-7.6c-1.5-0.9-2.8-2.1-4.2-3.5c-11.6-12.4-15.2-24-15.2-24
			c-1.3,0.8-27.8,19-48.5,9.9c0,0,5.8,19-12.4,20.7c-5.4,0.5-12.5,0.6-19.9,1.3c-14.2,1.2-29.7,4.4-37.6,16.1
			c-0.1,0.1-0.1,0.1-0.1,0.2c-0.9,1.4-1.8,3-2.5,4.6c-0.1,0.2-0.1,0.3-0.2,0.5c0,0,0,0,0,0c0,0,0,0,0,0c-0.4,0.9-0.7,1.9-1,3
			c-0.4,1.6-0.8,3.8-1.2,6.4c-0.6,4.6-1,10.8-1.3,18.1c-0.1,3.5-0.2,7.2-0.3,11.1C1564.1,1101.7,1564,1109.7,1564.1,1118.2z"/>
		<path class="st0" d="M1664.5,1047.2c7.1,0,13.6-1.7,18.6-4.1c4-1.9,8.3-4.9,8.6-7.9c0.1-0.7-0.4-1.4-1.2-1.5
			c-0.8-0.1-1.4,0.5-1.5,1.2c-0.1,1-2.1,3.4-7.1,5.7c-9.9,4.7-25.8,6.4-40.4-3c-0.6-0.4-1.5-0.2-1.9,0.4c-0.4,0.6-0.2,1.5,0.4,1.9
			C1648.2,1045.1,1656.7,1047.2,1664.5,1047.2z"/>
		<path class="st0" d="M1717.3,916l-2.2,23.9c0,0-25.6-63.6-26.9-62.6c-1.2,0.9-77.3,32.5-91.1,38.3c-1,0.4-1.7,0.7-2,0.8
			c-0.1,0-0.1,0.1-0.1,0.1s-0.4-2.3-0.7-6c-1.2-16.9,1.3-63.3,65.3-61.4C1737.7,851.4,1717.3,916,1717.3,916z"/>
		<path class="st2" d="M1605.8,1034.6c0,0-57,5.9-69.6,50.3c-14.9,52.7-18.2,80.9-18.2,80.9l57.5,8.9L1605.8,1034.6z"/>
		<path class="st0" d="M1577.8,1048.6c-0.3,0-1.3-0.1-3.5,2c-2.6,2.3-10.9,11.6-11.3,32.7c-0.4,24.5,0.3,81.5,0.3,82.1
			c0,0.9,0.7,1.5,1.6,1.5c0,0,0,0,0,0c0.9,0,1.5-0.7,1.5-1.6c0-0.6-0.7-57.5-0.3-82c0.4-22,9.9-30.7,11.8-31.6
			c0.7-0.1,1.3-0.7,1.3-1.4C1579.3,1049.4,1578.7,1048.7,1577.8,1048.6z"/>
		<path class="st1" d="M1377.5,1650.3l-5.5,10c6.7,30.8-13.4,71.2-46.7,50.5c-33.3-20.7-101.3-21.1-126.5-27.7
			c-32.8-8.6-32.2-33.8-23.6-32.7c8.6,1.1,145.9-18.7,145.9-18.7l6.3-8.7l35.3-48.7l40.3,29.2L1377.5,1650.3z"/>
		<path class="st1" d="M1562.1,1800.9c-39.1,2.8-94.4,42.4-118.6,51.9c-31.6,12.3-45.9-8.5-38.3-12.7
			c7.6-4.2,107.1-100.8,107.1-100.8v-70.9h49.8l6.4,50.2l1.8,14C1593.7,1753.6,1601.1,1798.1,1562.1,1800.9z"/>
		<path class="st0" d="M1741.6,1304.7c2.8-4.2,38,53.5,35.2,116.9s-17.5,67.6-17.5,67.6l-161.3-7v204.2l-107-7v-174.6l-73.2,125.3
			l-94.4-45.1l140.8-274.6c0,0,22.5-40.8,70.4-23.9c47.9,16.9,85.9,9.9,85.9,9.9L1741.6,1304.7z"/>
		<path class="st2" d="M1490.9,1506.1c-0.8,0-1.4-0.6-1.4-1.4c0-0.5-2.8-48.3-1.4-81.8c0.7-16,12.6-31.1,31.1-39.4
			c16.1-7.2,40-9.4,58.6,6c32.2,26.6,57.8,64.7,58,65.1c0.4,0.7,0.3,1.6-0.4,2c-0.7,0.4-1.6,0.3-2-0.4c-0.3-0.4-25.6-38.2-57.5-64.5
			c-17.6-14.5-40.2-12.4-55.6-5.5c-17.3,7.7-28.8,22.2-29.4,36.9c-1.4,33.3,1.4,81.1,1.4,81.5
			C1492.3,1505.4,1491.7,1506.1,1490.9,1506.1C1490.9,1506.1,1490.9,1506.1,1490.9,1506.1z"/>
		<path class="st2" d="M1597.9,1483.6c-0.7,0-1.4-0.5-1.4-1.3l-4.2-40.1c-0.1-0.8,0.5-1.5,1.3-1.6c0.8-0.1,1.5,0.5,1.6,1.3l4.2,40.1
			c0.1,0.8-0.5,1.5-1.3,1.6C1598,1483.6,1598,1483.6,1597.9,1483.6z"/>
		<path class="st0" d="M1420.4,1589.2c-0.3,0-0.6-0.1-0.8-0.2c-25.8-17.4-54.6-35.1-59-35.1c0,0-0.1,0-0.1,0
			c-0.6,0.3-1.4,0.1-1.8-0.5c-0.4-0.7-0.3-1.6,0.4-2c1.3-0.9,3.4-2.3,33.4,16.5c14.5,9.1,28.6,18.6,28.7,18.7c0.7,0.4,0.8,1.3,0.4,2
			C1421.4,1589,1420.9,1589.2,1420.4,1589.2z M1360.7,1553.8C1360.7,1553.8,1360.7,1553.8,1360.7,1553.8
			C1360.7,1553.8,1360.7,1553.8,1360.7,1553.8z"/>
		<path class="st0" d="M1579.6,1655.4c-0.1,0-0.2,0-0.2,0l-67.6-11.3c-0.8-0.1-1.3-0.9-1.2-1.7c0.1-0.8,0.9-1.3,1.7-1.2l67.6,11.3
			c0.8,0.1,1.3,0.9,1.2,1.7C1580.9,1654.9,1580.3,1655.4,1579.6,1655.4z"/>
		<path class="st0" d="M1721.8,1351.2c-0.1,0-0.3,0-0.4-0.1l-171.7-53.5c-0.8-0.2-1.2-1-0.9-1.8c0.2-0.8,1-1.2,1.8-0.9l171.7,53.5
			c0.8,0.2,1.2,1,0.9,1.8C1723,1350.8,1722.5,1351.2,1721.8,1351.2z"/>
		<g>
			<path class="st4" d="M1582.8,1109.9l-209.1,14.9c0,0,31.7,163.8,34,163.8c2.3,0,199.8,8.9,199.9,8.9s53.7-30,53.7-30l-9.8-15.8
				l-53.6,20.4L1582.8,1109.9z"/>
			<path class="st4" d="M1607.6,1297.9c-0.1,0-1,0-26.7-1.2c-51.3-2.3-171.5-7.7-173.2-7.7c-0.6,0-1.7,0-18.2-82.2
				c-8.1-40.5-16.1-81.5-16.1-81.9l-0.1-0.4l0.4,0l209.4-15l0,0.3l15.1,161.6l53.4-20.3l10.2,16.4l-0.3,0.2
				C1607.8,1297.9,1607.8,1297.9,1607.6,1297.9C1607.6,1297.9,1607.6,1297.9,1607.6,1297.9z M1407.8,1288.3
				c4.9,0.1,118.2,5.2,173.1,7.7c15.2,0.7,25.5,1.1,26.6,1.2c2.2-1.2,48.9-27.3,53.2-29.8l-9.5-15.3l-53.7,20.4l0-0.5l-15.1-161.8
				l-208.3,14.9C1384.8,1180.4,1405.4,1284.3,1407.8,1288.3z"/>
		</g>
		<path class="st1" d="M1807.5,1141.7c-1.2-2.3-64.1,0-64.1,0l26,73.2l-88.8,26.7l-28.3-3.4c0,0-51.5,17-49,22c2.5,5,31.1,0,31.1,0
			v22.1c0,0-28.1,10.6-21.1,15.2c7,4.7,24.4,4.2,26.4,4.7c2,0.5,10.2,2.2,19.7,0.7c0,0,5.1,1.4,17.6-2.7s6.9,0.5,6.8,0.5
			c-0.1,0,0-23,0-23s107.3-17.2,136.2-30.5C1849,1233.9,1808.7,1144.1,1807.5,1141.7z"/>
		<path class="st2" d="M1830,1156.1c0-3.2-83.7,17.5-83.7,17.5s-93.6-113.4-18.4-130.3S1830.1,1158.8,1830,1156.1z"/>
		<path class="st0" d="M1739.9,1176.2c-0.4,0-0.8-0.1-1.1-0.4c-0.3-0.3-33.5-33.4-40.8-81.1c-2.8-17.9,0.8-31.2,10.5-39.4
			c7.8-6.7,17.7-8.2,22.5-9c0.9-0.1,1.9-0.3,2.3-0.4c0.6-0.4,1.4-0.4,1.9,0.1c0.6,0.6,0.7,1.6,0.1,2.2c-0.6,0.6-1.5,0.8-3.8,1.2
			c-4.5,0.7-13.8,2.2-21,8.3c-8.8,7.5-12,19.8-9.4,36.6c7.2,46.6,39.6,79,39.9,79.3c0.6,0.6,0.6,1.6,0,2.2
			C1740.7,1176.1,1740.3,1176.2,1739.9,1176.2z M1733,1046.1C1733,1046.1,1733,1046.1,1733,1046.1
			C1733,1046.1,1733,1046.1,1733,1046.1z"/>
		<path class="st0" d="M1509.7,1215.5c-2.6,8.7-10.7,15.1-20.2,15.1c-11.6,0-21.1-9.4-21.1-21.1c0-10.4,7.5-19,17.4-20.8
			c-0.6,1.9-0.9,3.9-0.9,6c0,11.6,9.4,21.1,21.1,21.1C1507.2,1215.8,1508.5,1215.7,1509.7,1215.5z"/>
		<path class="st0" d="M1686.6,989.5L1686.6,989.5C1686.6,989.6,1686.6,989.6,1686.6,989.5L1686.6,989.5z"/>
		<path class="st0" d="M1372,1660.3c6.7,30.8-13.4,71.2-46.7,50.5c-33.3-20.7-101.3-21.1-126.5-27.7c-32.8-8.6-32.2-33.8-23.6-32.7
			c8.6,1.1,145.9-18.7,145.9-18.7l6.3-8.7c14.9,8.1,35.1,19.1,50,27.2L1372,1660.3z"/>
		<path class="st0" d="M1562.1,1800.9c-39.1,2.8-94.4,42.4-118.6,51.9c-31.6,12.3-45.9-8.5-38.3-12.7
			c7.6-4.2,107.1-100.8,107.1-100.8v-12c16.3-2.7,38.3-6.3,56.1-8.8l1.8,14C1593.7,1753.6,1601.1,1798.1,1562.1,1800.9z"/>
		<path class="st0" d="M1712.6,849c0,0,53.2-63.6,100-21.8s-40.4,132.6-12.2,151.2c28.1,18.6,35.4-14.1,26.3-24.5
			c0,0,33.6,10.6,17.7,48.6c-15.9,38-81.4,25.6-89.5-3.6c-9.9-35.4,24.3-157.4-38-132.3C1716.9,866.5,1712.1,844.9,1712.6,849z"/>
		<path class="st3" d="M470.9,1767.2c0,0-43.6,59.3-18,64.7c25.5,5.3,193.6,10.7,193-4.2s-17.8-14.3-37.4-18.4
			c-19.6-4.2-91.7-37.2-91.7-37.2L470.9,1767.2z"/>
		<path class="st0" d="M476.3,1783.5l39.8-8.6c0,0,122.5-242.6,144.6-303.9c22.1-61.3,1.2-79.7-31.9-98s-147.1-45.3-147.1-45.3
			l-125.4,12.3l149.9,131.1L476.3,1783.5z"/>
		<path class="st0" d="M278.4,1366.2c1,2.9,3.9,99.4,82.9,101.4c79,1.9,92.6,0,92.6,0l-23.4,311l45.8,4.9
			c0,0,138.4-322.7,99.4-375.3s-140.4-58.5-140.4-58.5l-79-9.7L278.4,1366.2z"/>
		<path class="st3" d="M430.5,1778.6c0,0-43.6,59.3-18,64.7c25.5,5.3,193.6,10.7,193-4.2s-17.8-14.3-37.4-18.4
			c-19.6-4.2-91.7-37.2-91.7-37.2L430.5,1778.6z"/>
		<path class="st2" d="M484.4,1767.7l-2.6-1.1c12.8-30.8,45-110.6,69.2-187.2c13.4-42.4,22.5-78,26.9-105.6
			c5.3-32.9,4.2-54.7-3.3-64.9c-19.9-26.9-56.7-41.2-84-48.5c-29.7-7.9-55-9.4-55.3-9.5l0.2-2.9c0.3,0,25.8,1.6,55.9,9.6
			c27.8,7.4,65.2,22,85.6,49.5c14.6,19.8,6.9,78-23.2,173.1C529.5,1657,497.2,1736.9,484.4,1767.7z"/>
		<path class="st0" d="M602.3,1832.2c-0.6,0-1.1-0.4-1.3-0.9c-2-5.3-8.9-6-18.4-7c-3.5-0.4-7.5-0.8-11.5-1.5
			c-15.3-2.7-83.8-32.8-84.5-33.1c-0.7-0.3-1-1.2-0.7-1.9c0.3-0.7,1.2-1,1.9-0.7c0.7,0.3,69.1,30.3,83.8,32.9
			c4,0.7,7.7,1.1,11.3,1.5c10.1,1.1,18.1,1.9,20.8,8.8c0.3,0.7-0.1,1.6-0.8,1.8C602.6,1832.2,602.5,1832.2,602.3,1832.2z"/>
		<path class="st1" d="M661.1,1380.6c0,0,4.7,7.3-1.9,11.2c-6.7,3.8-8.1-0.3-8.1-0.3s-3,13.6-15.1,4.5c0,0-1.2,9.3-13.5,1.1
			c-12.2-8.2-26.5-19.9-26.5-19.9s-20.1,4.3-27.4-2.5c-7.3-6.8-9.9-11.9-11.1-11.9c-1.2,0-83.6-26.8-88.6-63.8
			c-5-37,4.4-145.3,4.4-145.3s36.6,1.4,35.7,2c-0.6,0.3,26.9,145.5,26.9,145.5l51.5,36c0,0,40.4-6.1,50.2,1.7
			c5.6,4.5,15.5,15.4,22.8,23.8c5.4,6.1,9.4,11,9.4,11s0,0.4,0,1.1C669.5,1377.2,668.2,1382.8,661.1,1380.6z"/>
		<path class="st0" d="M445.2,913.6c24.4,9.3,28.1-106.5-67.3-109.5c-93.3-3-104,77.3-97.5,120.7c6.5,43.4,22.5,80,59.3,72.8
			C376.6,990.4,445.2,913.6,445.2,913.6z"/>
		
			<rect x="339.7" y="984.8" transform="matrix(-1 -4.426782e-11 4.426782e-11 -1 726.4132 2058.9514)" class="st1" width="47" height="89.4"/>
		<path class="st1" d="M445.2,902.1c-0.7,1.7,2.2,40.9-10.4,71.2c-5.8,14-15,26-29.4,31.6c-7.3,2.9-16,4-26.3,2.9
			c0,0-19.6,2.2-39.4-10.2c0,0,0,0,0,0c-12-7.5-24.1-20.4-31.9-42.4c0,0-17.4,0.3-24.5-16.2c-0.8-1.8-1.4-3.7-1.9-5.8
			c-5.2-22.4,10.9-31.6,23-20.1c0,0,7.7-68.4,69.1-67.2C434.8,847,445.2,902.1,445.2,902.1z"/>
		<path class="st0" d="M332.4,912.8c-0.9-1-0.7-2.5,0.2-3.4c10.1-8.7,19.7-4.2,22.8-2.7c0.2,0.1,0.4,0.2,0.6,0.3
			c0.6,0,1.2,0.3,1.6,0.8c0.9,1,0.7,2.5-0.3,3.4c-1.3,1.1-2.7,0.5-4-0.1c-3-1.4-10-4.7-17.7,2c-0.5,0.4-1,0.6-1.6,0.6
			C333.5,913.6,332.8,913.3,332.4,912.8z M354.3,907.6L354.3,907.6L354.3,907.6z M354.3,907.6L354.3,907.6L354.3,907.6z
			 M354.3,907.6C354.3,907.6,354.3,907.6,354.3,907.6C354.3,907.6,354.3,907.6,354.3,907.6z M354.3,907.6
			C354.3,907.6,354.3,907.6,354.3,907.6L354.3,907.6z M354.3,907.5C354.3,907.5,354.3,907.5,354.3,907.5
			C354.3,907.5,354.3,907.5,354.3,907.5z M354.3,907.5C354.3,907.5,354.3,907.5,354.3,907.5C354.3,907.5,354.3,907.5,354.3,907.5z
			 M354.3,907.5C354.3,907.5,354.3,907.5,354.3,907.5C354.3,907.5,354.3,907.5,354.3,907.5z M354.3,907.5L354.3,907.5L354.3,907.5z
			 M354.3,907.5C354.3,907.5,354.3,907.5,354.3,907.5S354.3,907.5,354.3,907.5z M354.3,907.5L354.3,907.5L354.3,907.5z M354.3,907.5
			C354.3,907.5,354.3,907.5,354.3,907.5C354.3,907.5,354.3,907.5,354.3,907.5z M354.3,907.5C354.3,907.5,354.3,907.5,354.3,907.5
			C354.3,907.5,354.3,907.5,354.3,907.5z M354.3,907.5L354.3,907.5L354.3,907.5z"/>
		<path class="st0" d="M432,922.2c0.5,0,1-0.1,1.4-0.5c1.1-0.8,1.3-2.3,0.5-3.3c-0.4-0.5-8.9-11.9-24.2-7.7c-1.3,0.3-2,1.7-1.7,2.9
			c0.3,1.3,1.7,2,2.9,1.7c12.1-3.3,19,5.8,19.1,5.9C430.6,921.8,431.3,922.2,432,922.2z"/>
		<path class="st0" d="M379.9,972.5c-1.3-0.2-2.1-1.4-2-2.7c0.2-1.3,1.3-2.2,2.6-2.1c0.1,0,3.7,0.3,6.5-5.3c2.3-4.7-3-13.3-5-16.5
			c-1.1-1.7-1.4-2.3-1.3-3.2c0.1-1.3,1.3-2.2,2.6-2.1c1,0.1,1.8,0.8,2,1.7c0.1,0.3,0.4,0.7,0.7,1.2c2.6,4.2,8.8,14.1,5.3,21.2
			c-3.6,7.2-8.8,8-10.7,8C380.2,972.6,379.9,972.5,379.9,972.5z M385.4,943.2C385.4,943.2,385.4,943.2,385.4,943.2
			C385.4,943.2,385.4,943.2,385.4,943.2z M385.4,943.2C385.4,943.2,385.4,943.2,385.4,943.2S385.4,943.2,385.4,943.2z"/>
		<path class="st0" d="M376.1,990.4c-5.3-0.1-12.4-2.5-16.6-13c-0.5-1.2,0.1-2.6,1.3-3.1c1.2-0.5,2.6,0.1,3.1,1.3
			c2.1,5.3,5.2,8.5,9.2,9.6c5.7,1.6,11.5-1.4,12.5-2.1c0.7-0.7,1.8-0.9,2.7-0.5c1.2,0.5,1.7,2,1.2,3.2c-0.8,1.8-7.2,4.7-13.1,4.7
			C376.4,990.4,376.3,990.4,376.1,990.4z M385.3,983.8C385.3,983.8,385.3,983.8,385.3,983.8C385.3,983.8,385.3,983.8,385.3,983.8z
			 M385.3,983.8C385.3,983.8,385.3,983.8,385.3,983.8C385.3,983.8,385.3,983.8,385.3,983.8z"/>
		
			<ellipse transform="matrix(0.103 -0.9947 0.9947 0.103 -615.9725 1180.3413)" class="st0" cx="346.5" cy="931.7" rx="10" ry="8.6"/>
		<circle class="st2" cx="344.3" cy="928.8" r="4"/>
		<ellipse transform="matrix(0.103 -0.9947 0.9947 0.103 -559.7555 1257.3527)" class="st0" cx="417.3" cy="939" rx="10" ry="8.6"/>
		<circle class="st2" cx="415.2" cy="936.1" r="4"/>
		<path class="st2" d="M480.6,1145.6c0,4.2,0,8.4-0.1,12.7c-0.1,6.9-0.2,14-0.3,21.2c-0.1,4.3-0.2,8.6-0.2,12.9
			c-0.1,5.6-0.3,11.2-0.4,16.7c0,0.7,0,1.3-0.1,2c-0.1,2.9-0.1,5.8-0.2,8.7c0,1.2-0.1,2.3-0.1,3.5c-0.1,3.2-0.2,6.3-0.3,9.4
			c-0.2,7.3-0.5,14.4-0.7,21.3c-0.2,4.5-0.3,8.8-0.5,13.1c-1.3,35.9-2.6,62.3-2.6,62.3l-31.8,8.8c-54.1,15-115.1,53.6-165.1,27.8
			c0,0,1.3-57.8-1.4-78.3c-0.5-3.9-1-8-1.6-12.4c-1-8-2.1-16.8-3.2-26c-0.5-4.1-1-8.3-1.4-12.5c-0.5-4.2-0.9-8.4-1.4-12.7v-0.1
			c-0.2-1.5-0.3-3.1-0.5-4.6h0c-0.4-3.8-0.8-7.6-1.2-11.4c-0.4-4.2-0.8-8.4-1.2-12.6c-0.8-8.7-1.6-17.3-2.3-25.9
			c-0.3-4.2-0.7-8.5-1-12.6c-0.8-10.8-1.4-21.1-1.7-30.8c-0.2-4.4-0.3-8.6-0.3-12.6c-0.1-9.1,0-17.2,0.5-24.2
			c0.3-4.5,0.8-8.5,1.4-11.9c0.9-5.1,2.2-8.9,4-10.9c6.7-7.7,13.5-11.5,20.1-13.8h0c10-3.5,19.6-3.7,27.5-8.8c1.7-1.1,3.3-2.4,4.8-4
			c13.3-14.3,17.5-27.6,17.5-27.6c1.6,1,32,21.9,55.8,11.4c0,0-6.6,21.9,14.3,23.8c6.3,0.6,14.4,0.7,22.9,1.5
			c16.4,1.4,34.2,5.1,43.2,18.5c0.1,0.1,0.1,0.2,0.2,0.2c1.1,1.6,2,3.4,2.8,5.3c0.1,0.2,0.2,0.4,0.2,0.5c0,0,0,0,0,0s0,0,0,0
			c0.4,1.1,0.8,2.2,1.2,3.4c0.5,1.8,1,4.3,1.3,7.4c0.7,5.3,1.1,12.4,1.4,20.9c0.1,4,0.3,8.2,0.4,12.8
			C480.6,1126.6,480.6,1135.9,480.6,1145.6z"/>
		<path class="st0" d="M365.1,1063.9c-8.2,0-15.6-1.9-21.4-4.7c-4.5-2.2-9.5-5.7-9.9-9.1c-0.1-0.9,0.5-1.6,1.4-1.7
			c0.9-0.1,1.6,0.5,1.7,1.4c0.1,1.1,2.5,3.9,8.2,6.6c11.4,5.4,29.7,7.4,46.5-3.5c0.7-0.5,1.7-0.3,2.1,0.5c0.5,0.7,0.3,1.7-0.5,2.1
			C383.8,1061.6,374.1,1063.9,365.1,1063.9z"/>
		<path class="st0" d="M304.4,913.1l2.6,27.5c0,0,29.5-73.2,31-72.1c1.5,1.1,107.3,45.1,107.3,45.1s15.7-80.2-74.3-77.6
			S304.4,913.1,304.4,913.1z"/>
		<path class="st2" d="M432.6,1049.4c0,0,65.6,6.7,80.1,57.9c17.1,60.6,20.9,93.1,20.9,93.1l-66.1,10.2L432.6,1049.4z"/>
		<path class="st0" d="M427.1,1309.1c0,0-66.5,43.9-87.4-11.9c-20.9-55.9,21.5-143.8,18.5-145.6c-3-1.8-22.6-11.5-13.2-33.4
			c0,0-22.9-15.4-13.2-45.3c0,0-84.8-58-48.5-133.8c7.2,16.5,24.5,16.2,24.5,16.2c7.8,22,19.9,34.9,31.9,42.4c0,0,0,0,0,0
			c0.5,0.7,24.3,33.9,5.3,69.7c0,0,40.7,12.8,25.9,41.9c0,0,20.7,12.1,7,35.6c0,0,29.8,42.9,14.5,107.7S427.1,1309.1,427.1,1309.1z"
			/>
		<ellipse class="st4" cx="999.7" cy="1365.3" rx="514" ry="96.8"/>
		
			<rect x="426.1" y="1077.6" transform="matrix(0.9987 -5.023726e-02 5.023726e-02 0.9987 -58.5456 26.699)" class="st0" width="151.4" height="200.7"/>
		<path class="st3" d="M525.9,1053.5c-2.5-14.3-15.3-24.8-30.1-24c-7.4,0.4-14,3.5-18.9,8.3c-4.9,4.8-8.1,11.4-8.6,18.6l-21.7,1.1
			l2.2,43l101.1-5.1l-2.2-43L525.9,1053.5z M497.7,1067.6c-6.6,0.3-12.3-4.8-12.6-11.4c-0.3-6.6,4.8-12.3,11.4-12.6
			c6.6-0.3,12.3,4.8,12.6,11.4S504.3,1067.2,497.7,1067.6z"/>
		<path class="st1" d="M468.4,1154.8c-6-8-33.1,4-33.1,4s16.3-7.2,13.1-14.8c-3.2-7.6-16.4,2-21.2,6c-4.8,4-18.3,36.5-18.3,36.5
			l-156.2,40.3c0,0,101.2-131.4,48.8-154.5c-35.3-15.6-53,10-60.8,28.3c-5.3,12.5-11.2,24.8-18.1,36.6
			c-21.8,37.2-60.2,114.4-23.1,143.9c49.6,39.4,219.6-59.8,219.6-59.8s50.4-16.1,57.6-21.2C484,1194.7,474.4,1162.7,468.4,1154.8z"
			/>
		<path class="st2" d="M174.7,1189.3c0-3.7,96.3,20.1,96.3,20.1s107.6-130.4,21.2-149.8C205.8,1040.1,174.7,1192.3,174.7,1189.3z"/>
		<path class="st3" d="M278.4,1212c-0.4,0-0.7-0.1-1-0.4c-0.6-0.6-0.5-1.5,0-2c0.4-0.4,37.8-37.7,46-91.5c3-19.4-0.7-33.7-10.9-42.4
			c-8.3-7.1-19.1-8.8-24.3-9.6c-2.6-0.4-3.6-0.6-4.2-1.2c-0.5-0.6-0.5-1.5,0.1-2c0.5-0.5,1.3-0.5,1.8-0.1c0.4,0.1,1.6,0.3,2.7,0.5
			c5.4,0.9,16.8,2.6,25.7,10.2c11.1,9.4,15.1,24.6,11.9,45c-4.4,28.6-16.9,52.4-26.6,67.3c-10.5,16.2-20.2,25.7-20.2,25.8
			C279.1,1211.9,278.7,1212,278.4,1212z M286,1062.9C286,1062.9,286,1062.9,286,1062.9C286,1062.9,286,1062.9,286,1062.9z"/>
		<polygon class="st2" points="842.6,1390.9 641.1,1390.9 603.7,1321.9 805.2,1321.9 		"/>
		<polygon class="st2" points="1412.9,1382.7 1211.4,1382.7 1174,1313.7 1375.5,1313.7 		"/>
	</g>
</g>
<g id="Layer_8">
</g>
<g id="Layer_9">
</g>
<g id="Layer_10">
</g>
</svg>
