<?xml version="1.0" encoding="utf-8"?>
<!-- Generator: Adobe Illustrator 23.0.5, SVG Export Plug-In . SVG Version: 6.00 Build 0)  -->
<svg version="1.1" xmlns="http://www.w3.org/2000/svg" xmlns:xlink="http://www.w3.org/1999/xlink" x="0px" y="0px"
	 viewBox="0 0 2000 2000" style="enable-background:new 0 0 2000 2000;" xml:space="preserve">
<style type="text/css">
	.st0{fill:#252734;}
	.st1{fill:#F1BAA4;}
	.st2{fill:#EFDDBF;}
	.st3{fill:#445E77;}
	.st4{fill:#E66F55;}
</style>
<g id="Layer_1">
</g>
<g id="Layer_2">
</g>
<g id="Layer_3">
	<g>
		<rect x="844" y="197.9" class="st2" width="1025.6" height="632.6"/>
		<path class="st0" d="M384.6,630.7c0,0-11.2,57.5-16.4,133.1c-5.2,75.6-30.9,487.9-30.9,487.9s57.5,21.2,79.8-2.5
			c0,0,18.3-462.2,52.5-468.9s55,474.3,55,474.3s42,19.8,78.6-5.1c0,0-29.9-593.2-48.3-615.5c-18.4-22.3-106.1-33.2-109.6-31.5
			S384.6,630.7,384.6,630.7z"/>
		<path class="st0" d="M519,281c0,0,14.5-37.1-0.3-63.8S483,206.3,483,206.3s-52.9-15.3-76.6-5.4c-23.8,9.9-13.5,33.8-13.5,33.8
			l119.5,55.5L519,281z"/>
		
			<rect x="438.6" y="342.2" transform="matrix(0.9994 3.472257e-02 -3.472257e-02 0.9994 13.428 -15.6678)" class="st1" width="38.4" height="73.1"/>
		<path class="st2" d="M572.8,501.4c-1.4,26.2-3.7,54.1-6.4,77.4c-3.6,30.7-7.8,53.7-11.5,55.3c-3.8,1.6-22.3,3.1-46.1,3.9
			c-27.4,0.8-61.9,0.7-88.8-1.5c-19.6-1.6-35.1-4.3-41-8.4c-5.1-3.6-7.7-5.4-8.7-7.5c-1.5-2.8,0.1-6.1,1.6-15.1l0-0.2
			c0.7-4.2,1.4-9.7,1.7-17.1c0.6-11.7,0.3-28-2-51.2c-0.1-0.7-0.1-1.4-0.2-2.1c0,0,0,0,0,0c-3-29.5-7-52.6-10.5-70.6l0-0.2
			c-4.3-22.1-7.9-36.4-8-45.3c-0.1-2.4,0.1-4.3,0.6-6l0,0c0.7-2.3,1.9-4,3.9-5.1c4.2-2.3,10.8-4.2,18.1-5.7
			c8.3-1.6,17.6-2.8,26.1-3.5c4.9-0.4,9.5-0.7,13.5-0.8c0.2,0,0.5,0,0.7,0c1.7-0.1,3.2-0.1,4.6-0.1c0.4,0,7.1,0,17.6,0.2
			c4.4,0.1,9.4,0.2,14.8,0.3c1,0,2,0,3,0.1c6.4,0.2,13.4,0.4,20.6,0.7c4.7,0.2,9.5,0.4,14.4,0.6c3.8,0.2,7.7,0.4,11.5,0.6
			c5.8,0.3,11.6,0.7,17.2,1.2c10.4,0.8,20.1,1.8,28.2,3c10.8,1.6,18.6,3.6,21.4,6.1C574.9,415.7,575.2,456.2,572.8,501.4z"/>
		<path class="st1" d="M392.5,267.4c0.9,2.4-9.8,92.8,51,88.3c0,0,41.2,6,59.7-41c0,0,17.4,0.9,22.2-17.3c4.9-18.2-8-26.1-18.2-17.1
			c0,0-4.4-56.1-54.6-56.9S392.5,267.4,392.5,267.4z"/>
		<path class="st2" d="M422.8,378.8c3.8-4.3,10.1-5.4,15.3-2.9c4.3,2,9.4,4.8,11.6,7.2c4.1,4.4,4.4,31.9-1.1,32
			c-5.6,0.1-35.1-6.6-32.6-18.1C416.8,393,420.8,381,422.8,378.8z"/>
		<path class="st2" d="M487,381c-3.5-4.6-9.7-6-15-3.9c-4.4,1.7-9.8,4.1-12.1,6.3c-4.4,4.1-6.7,31.5-1.1,32
			c5.5,0.5,33.6-5.1,31.9-16.8C490.1,394.7,488.7,383.3,487,381z"/>
		<path class="st0" d="M507.3,280.3l-3.7,18.7c0,0-14.9-36.2-16.4-52.8c0,0-62.8,31.5-66.3,5.3c0,0-16,30.8-33.1,27.9
			c-17.2-2.9-8-49.7,33.1-63.1s75.8-3.3,88.1,17.1C521.3,253.8,505.4,281.8,507.3,280.3z"/>
		<path class="st0" d="M483.1,283.6c-0.3,0-0.6-0.1-0.8-0.3c-6.3-5.8-12.3-3.3-14.8-2.2c-1,0.4-1.8,0.8-2.5,0.1
			c-0.5-0.5-0.5-1.3-0.1-1.8c0.3-0.3,0.6-0.4,1-0.4c0,0,0,0,0,0c0.1-0.1,0.3-0.1,0.6-0.2c2.7-1.2,10-4.3,17.5,2.7
			c0.5,0.5,0.5,1.3,0.1,1.8C483.8,283.5,483.4,283.6,483.1,283.6z"/>
		<path class="st0" d="M404.5,287.7c-0.3,0-0.5-0.1-0.7-0.3c-0.5-0.4-0.6-1.2-0.2-1.7c0.1-0.1,7.2-8.9,18.9-5.3
			c0.7,0.2,1,0.9,0.8,1.6c-0.2,0.7-0.9,1-1.6,0.8c-10.1-3.1-16.1,4.4-16.2,4.4C405.3,287.6,404.9,287.7,404.5,287.7z"/>
		<path class="st0" d="M444.5,327c-0.2,0-3.4,0.2-5.7-4.8c-1.9-4.2,2.8-11.1,4.6-13.7c0.9-1.3,1.1-1.6,1-2.1c0-0.7-0.7-1.2-1.3-1.2
			c-0.5,0-1,0.4-1.1,0.9c-0.1,0.2-0.4,0.5-0.7,1c-2.2,3.2-7.2,10.7-4.8,16.1c2.5,5.6,6.3,6.2,7.7,6.3c0.3,0,0.5,0,0.5,0
			c0.7-0.1,1.2-0.7,1.1-1.4C445.8,327.4,445.2,326.9,444.5,327z"/>
		<path class="st0" d="M447,343.9c-4.7-0.2-9.3-2.7-9.7-3.7c-0.3-0.6,0-1.4,0.7-1.6c0.5-0.2,1.1,0,1.4,0.4c0.7,0.5,5.5,3.3,10.4,2.2
			c3.5-0.8,6.3-3.4,8.2-7.8c0.3-0.6,1-0.9,1.6-0.6c0.6,0.3,0.9,1,0.6,1.6c-3.5,8-9,9.6-13,9.6C447.2,343.9,447.1,343.9,447,343.9z"
			/>
		
			<ellipse transform="matrix(0.9977 -6.843802e-02 6.843802e-02 0.9977 -19.3139 33.0506)" class="st0" cx="472.7" cy="298.4" rx="6.9" ry="8"/>
		<circle class="st2" cx="474.5" cy="296.1" r="3.2"/>
		
			<ellipse transform="matrix(0.9977 -6.843802e-02 6.843802e-02 0.9977 -19.7141 29.1687)" class="st0" cx="415.8" cy="302.3" rx="6.9" ry="8"/>
		<circle class="st2" cx="417.6" cy="300" r="3.2"/>
		<path class="st2" d="M465.2,718.9c-1.4,0-2.8-0.2-4.3-0.5c-0.7-0.1-1.1-0.8-1-1.5c0.1-0.7,0.8-1.1,1.5-1
			c6.6,1.3,12.2-0.2,16.6-4.4c13.4-13,11.4-46.6,11.4-46.9c-0.1-0.7,0.3-1.3,1-1.4c0.7-0.1,1.3,0.3,1.4,1
			c0.1,0.3,2.4,35.1-12.1,49.1C475.7,717.2,470.9,719.1,465.2,718.9z"/>
		<path class="st2" d="M459.6,762C459.6,762,459.6,762,459.6,762c-0.7,0-1.2-0.6-1.2-1.3c1.2-32.7,3.5-95,3.4-97.1
			c0-0.7,0.5-1.3,1.2-1.3c0.7,0,1.3,0.5,1.3,1.2c0.2,2.7-3.2,93.5-3.4,97.3C460.9,761.4,460.3,762,459.6,762z"/>
		<path class="st2" d="M478.6,657.4c-32.5-1.1-64.8-4.9-79.7-6.6c-3.7-0.4-6.4-0.7-7-0.8c-0.7,0-1.2-0.6-1.2-1.3
			c0-0.7,0.6-1.2,1.3-1.2c0.7,0,3.2,0.3,7.2,0.8c69.6,8,118.4,9,145.2,2.9c0.7-0.2,1.3,0.3,1.5,0.9c0.2,0.7-0.3,1.3-0.9,1.5
			C527.5,657.7,503,658.3,478.6,657.4z"/>
		<path class="st0" d="M433.7,416.4c3.7-1.8,49.1-1.8,49-0.2c-0.1,1.6-21.9,32.8-21.9,32.8L433.7,416.4z"/>
		<path class="st0" d="M472.1,430.3c0,2.4,18.3,155.2,18.3,155.2s-30,39.5-31.7,40.1c-1.7,0.6-36.7-40.4-36.7-40.4l25.6-157.8
			L472.1,430.3z"/>
		<path class="st1" d="M658.9,476.7c0,0,12.8,25.5,33.7,28.2c20.9,2.7,31-18.3,38.5-51.7c7.5-33.4,8.2-70.1,8.2-70.1
			s34.6-9.3,40.4-16.8c5.8-7.5,11.5-20.9,8-22.4c0,0,2.4-6.8-3.3-7.6c0,0,0-8-7-6.3c0,0-2-7.2-11.7,3.7c-9.8,11-24.5,22.7-29.3,17.5
			c-4.8-5.2,7.2-16.3-0.5-18.8s-17.9,22-19.2,36.1c-1.3,14-17.6,75.2-17.6,75.2s-28.2,5.2-29.3,5.6S658.9,476.7,658.9,476.7z"/>
		<path class="st3" d="M760.5,399.8c0,0-20.2,98.6-60.8,105.4c-30.9,5.2-92.6-0.2-120-3.1c-2.6-0.3-5-0.5-6.9-0.7
			c-4.3-0.5-6.8-0.8-6.8-0.8l3.1-90.1l4.7,1.2l103.4,27.7l28.8-55.4L760.5,399.8z"/>
		<path class="st0" d="M253,785.8l-97.6-37.4l11.8-30.8c2.9-7.5,11.4-11.3,18.9-8.4l70.3,26.9c7.5,2.9,11.3,11.4,8.4,18.9L253,785.8
			z M167.5,743.1l80.1,30.7l5.1-13.3c2.9-7.5-0.9-16-8.4-18.9l-52.8-20.2c-7.5-2.9-16,0.9-18.9,8.4L167.5,743.1z"/>
		<path class="st0" d="M241.1,750.6l-53.2-20.4c-2.9-1.1-4.3-4.4-3.2-7.2l6.2-16.2c1.1-2.9,4.4-4.3,7.2-3.2l53.2,20.4
			c2.9,1.1,4.3,4.4,3.2,7.2l-6.2,16.2C247.2,750.2,244,751.7,241.1,750.6z"/>
		<path class="st3" d="M307.4,808.2l-37.4,97.7c-4.7,12.4-18.7,18.6-31,13.9L76.4,857.6c-12.4-4.7-18.6-18.7-13.9-31l37.4-97.7
			c4.7-12.4,18.7-18.6,31-13.9l162.4,62.2C305.9,781.9,312.1,795.8,307.4,808.2z"/>
		<path class="st0" d="M248.1,857c4.1,0,8.2-0.8,12-2.5c7.3-3.2,12.9-9,15.8-16.4l21.9-57.2c0.5-1.2-0.1-2.5-1.3-3
			c-1.2-0.5-2.5,0.1-3,1.3l-21.9,57.2c-2.4,6.2-7.1,11.1-13.3,13.8c-6.2,2.7-13.2,2.8-19.6,0.4l-116-44.4
			c-13.2-5.1-19.9-19.6-15-32.5l21.9-57.2c0.5-1.2-0.1-2.5-1.3-3c-1.2-0.5-2.5,0.1-3,1.3l-21.9,57.2c-5.8,15.3,2.1,32.5,17.6,38.5
			l116,44.4C240.6,856.3,244.4,857,248.1,857z"/>
		<path class="st0" d="M197.9,847.2l-42.6-16.3c-2.4-0.9-3.5-3.5-2.6-5.9l5-13.2c0.9-2.4,3.5-3.5,5.9-2.6l42.6,16.3
			c2.4,0.9,3.5,3.5,2.6,5.9l-5,13.2C202.9,846.9,200.3,848.1,197.9,847.2z"/>
		<path class="st1" d="M195.4,758.2c3.9,0.2,4.7-2.9,4.7-2.9s1,4.7,4.1,6c3.1,1.3,5.6-5.7,5.6-5.7s0.3,3.2,5,3.2
			c4.7,0,6.1-8.2,6.1-8.2c3,6.8,8,1.2,8,1.2s3.8-23.7,5.3-22.8c1.5,0.9,9.2-3.1,19.2-13c9.6-9.5,9-22.1,9.5-23.4
			c-5.2-5.9-12.1-15.8-16.2-22.3c-5.4,4.3-38.4,30.6-43.1,36.8c-5.2,6.7-9.2,27.7-10.7,35.6C191.2,750.6,191.5,758,195.4,758.2z"/>
		<path class="st0" d="M200.2,753.5c0.1-0.1,0.2-0.1,0.2-0.2c0.3-0.3,0.4-0.7,0.3-1c0.1-1.7,2.9-13.1,4.8-20.7
			c2.8-11.4,2.9-11.9,2.8-12.4c-0.1-0.7-0.7-1.1-1.4-1c-0.6,0.1-1,0.6-1,1.2c-0.1,0.8-1.5,6.3-2.8,11.7c-5.3,21.7-5.3,21.7-4.5,22.5
			C199.2,753.7,199.8,753.8,200.2,753.5z"/>
		<path class="st0" d="M210.2,753.4c0.3-0.2,0.4-0.4,0.5-0.8c1.7-9,4.6-23.6,5.1-25.2c0.1-0.2,0.2-0.6,0.1-0.9
			c-0.1-0.7-0.8-1.1-1.4-0.9c-1,0.2-1.2,0.2-6.2,26.6c-0.1,0.7,0.3,1.3,1,1.4C209.6,753.6,209.9,753.5,210.2,753.4z"/>
		<path class="st0" d="M221.5,749c0.3-0.2,0.5-0.5,0.5-0.8c0.7-4.7,2.6-17.1,3-18.6c0.2-0.6-0.2-1.3-0.9-1.5
			c-0.6-0.2-1.3,0.2-1.5,0.9c-0.5,1.9-3,18.2-3.1,18.9c-0.1,0.7,0.4,1.3,1,1.4C220.9,749.3,221.2,749.2,221.5,749z"/>
		<path class="st3" d="M360.5,409.1c-0.7,0-7.4,1.2-34.3,69.4s-92.2,180-92.2,180s12.6,39.9,42.2,51.1c0,0,84.2-127.3,95-173.8
			s-6.4-132.1-5.5-130.9L360.5,409.1z"/>
		<path class="st3" d="M593.7,731.5c-0.7-2.8-80.4,2.3-82.4,0.2c-0.7-0.7-1.5-41.1-2.4-93.6c-1.6-90-3.8-215.6-6.6-237.8
			c5.8,0.3,11.6,0.7,17.2,1.2c10.4,0.8,20.1,1.8,28.2,3c10.8,1.6,18.6,3.6,21.4,6.1l4.7,1.2c2.9,35.1,5.9,89.3,5.9,89.3
			s0,0.4,0.1,1.1C580.8,518.9,593.9,728.4,593.7,731.5z"/>
		<path class="st3" d="M330.9,742.5l40.3-206.6l-10.3-71.5l0-0.2l-6.8-47.3l-0.6-3.9l0,0c0.7-2.3,1.9-4,3.9-5.1
			c4.2-2.3,10.8-4.2,18.1-5.7c8.3-1.6,17.6-2.8,26.1-3.5c4.9-0.4,9.5-0.7,13.5-0.8l5,238.6l2.3,107L330.9,742.5z"/>
		<path class="st0" d="M519.3,623.7c1.1,0,2.1-0.8,2.3-1.9L541.7,513c0.1-0.5,0-1.1-0.2-1.5c-1.9-3.5-11.1-20-14.3-24.5
			c1.8-3.5,13-15.7,23.2-25.7c0.7-0.7,0.9-1.8,0.4-2.7c-26.9-51.6-29.2-51.8-30.7-52c-1.2-0.1-2.4,0.8-2.5,2.1
			c-0.1,1,0.4,1.8,1.2,2.3c2.6,2.7,15.7,26.4,27.1,48.2c-26.4,26.2-24.3,28.4-22.8,30c1.2,1.3,7.9,12.9,13.9,23.8l-19.9,108
			c-0.2,1.3,0.6,2.5,1.8,2.7C519.1,623.7,519.2,623.7,519.3,623.7z"/>
		<path class="st0" d="M403.9,629.7c-5.7-38.1-14.5-95.7-15.3-99.3c-0.4-1.2,0-4.8,15.3-47.3l-19.7-31.6c-0.4-0.6-0.5-1.4-0.2-2.1
			c19-46.3,23.4-46.7,25.1-46.7c1.3-0.1,2.3,1,2.3,2.3c0,1.1-0.8,2-1.8,2.2c-3,2.4-12.8,23.2-20.9,42.8l19.7,31.5
			c0.4,0.6,0.5,1.3,0.2,2c-5.8,16.1-15.1,42.6-15.5,45.9c1.1,5.5,6.3,39,15.4,99.5c0.2,1.3-0.7,2.4-1.9,2.6c-0.1,0-0.2,0-0.3,0
			C405.1,631.7,404.1,630.8,403.9,629.7z M393.1,529.4c0-0.2,0-0.4-0.2-0.7C392.9,528.8,393,529,393.1,529.4z"/>
		<path class="st1" d="M981.1,1285.6c1.2-1.2,65.1,2.8,86,20.5c20.9,17.7,24.6,28.6,24.6,28.6h-74.1c0,0,13.3,15.6,5.2,22.9
			c-8,7.2-30.9-23.4-30.9-23.4l-8.9-18L981.1,1285.6z"/>
		<polygon class="st0" points="1662,1401.3 519,1401.3 521.5,1334.7 1664.4,1334.7 		"/>
		<path class="st0" d="M1340.7,1791.9v17.1l-61.2,36v24.3h140.4c0,0-12.2-102.3-9.3-101.6c3,0.8-60.9,0-60.9,0L1340.7,1791.9z"/>
		<polygon class="st0" points="1473,1773 1473,1869.3 1590,1864.6 1590,1833.3 1536.9,1802.7 1534.2,1767.8 		"/>
		
			<rect x="1791.1" y="1530.4" transform="matrix(0.9899 -0.142 0.142 0.9899 -223.4341 272.4832)" class="st0" width="14" height="343.6"/>
		
			<rect x="1612.1" y="1530.4" transform="matrix(0.9899 -0.142 0.142 0.9899 -225.2465 247.0777)" class="st0" width="14" height="343.6"/>
		
			<rect x="1599.1" y="1530.4" transform="matrix(-0.9899 -0.142 0.142 -0.9899 2954.3796 3615.2644)" class="st0" width="14" height="343.6"/>
		<path class="st3" d="M1457.4,1429.8l-124.7,64.2c0,0-19.8,7.2-17.1,37.8c2.7,30.6,25.2,255.6,25.2,255.6l86.4-5.4l-16.5-213.3
			c0,0,147.9-34.2,151.5-36.9c3.6-2.7,23.4-102,23.4-102l-64.8-37.5L1457.4,1429.8z"/>
		<polygon class="st3" points="1466.3,1577.7 1469.1,1787.4 1540.5,1787.4 1565.7,1577.7 		"/>
		<path class="st0" d="M1457.6,1539.2l-7.2,50l-40.7,284.1l-13.9-2l40.4-282.1l6.9-48.1c2.8-0.6,5.8-1,9-1.4
			C1454,1539.6,1455.9,1539.4,1457.6,1539.2z"/>
		<path class="st0" d="M1279.6,1207.8l-44.2,45.2c0,0,57.9,117.8,104.1,121c46.3,3.2,87.3-92.6,87.3-92.6l30.5,148.3h239.8
			c0,0-72.6-280.9-106.2-309.3l-46.3,5.3l-12.6-25.2l-65.7,8.4v22.1c0,0-73.1,16.8-73.1,20s-52.6,119.9-52.6,119.9L1279.6,1207.8z"
			/>
		<path class="st1" d="M1279.6,1207.8c0,0-30.4-78.3-40.6-73.4c-10.2,4.9,0,28.8,0,28.8s-32.1-38.1-54.7-24.5
			c-18.6,11.1-22.8,38.6-3.5,55c19.3,16.5,59.5,54.3,59.5,54.3L1279.6,1207.8z"/>
		<path class="st1" d="M1410.7,988.1c2.6-0.5-16,92.8,4.4,104.5c20.5,11.7,51.2,16.3,51.2,16.3l65.7-8.4l-21.2-127.1
			C1510.9,973.5,1407,988.8,1410.7,988.1z"/>
		<path class="st0" d="M1525.5,950.1c0,0,51.9-1.5,50.4,28.5s-43.9,122-43.9,122l-65.7,8.4c0,0-27.6-32.5-16.6-49.3
			c11-16.8,24.1-34.3,9.4-43.3c-13.5-8.3-20.6,19.3-20.6,19.3l-27.8-47.5c0,0-23.3,14.6-32.1-14.6s32.2-67.3,79.7-70.2
			S1527.7,925.2,1525.5,950.1z"/>
		<path class="st4" d="M1939,1170.4l-114.4,418.8h-411.1c0,0-16.5-38.5,29.6-48.1c2.8-0.6,5.8-1,9-1.4c1.8-0.2,3.7-0.4,5.4-0.6
			c53.2-5.3,75.6-1.7,96.6-69c21.6-69.6,43.6-278.1,103.6-292.1c27-6.3,148.4-7.7,148.4-7.7C1880.3,1168.9,1939,1170.4,1939,1170.4z
			"/>
		<path class="st3" d="M863.3,1796.1v17.1l61.2,36v24.3H784.1c0,0,12.2-102.3,9.3-101.6c-3,0.8,60.9,0,60.9,0L863.3,1796.1z"/>
		<polygon class="st3" points="731,1777.2 731,1873.5 614.1,1868.7 614.1,1837.5 667.1,1806.9 669.8,1771.9 		"/>
		
			<rect x="398.9" y="1534.6" transform="matrix(-0.9899 -0.142 0.142 -0.9899 565.5394 3453.126)" class="st0" width="14" height="343.6"/>
		
			<rect x="577.9" y="1534.6" transform="matrix(-0.9899 -0.142 0.142 -0.9899 921.6654 3478.5315)" class="st0" width="14" height="343.6"/>
		
			<rect x="590.9" y="1534.6" transform="matrix(0.9899 -0.142 0.142 0.9899 -236.1759 102.1504)" class="st0" width="14" height="343.6"/>
		<path class="st0" d="M746.6,1433.9l124.7,64.2c0,0,19.8,7.2,17.1,37.8c-2.7,30.6-25.2,255.6-25.2,255.6l-86.4-5.4l16.5-213.3
			c0,0-147.9-34.2-151.5-36.9s-23.4-102-23.4-102l64.8-37.5L746.6,1433.9z"/>
		<polygon class="st0" points="737.7,1581.9 734.9,1791.6 663.5,1791.6 638.3,1581.9 		"/>
		<path class="st0" d="M746.4,1543.3l7.2,50l40.7,284.1l13.9-2l-40.4-282.1l-6.9-48.1c-2.8-0.6-5.8-1-9-1.4
			C750,1543.7,748.1,1543.5,746.4,1543.3z"/>
		<path class="st3" d="M988.1,1278.3l3.8,55.9c0,0-68.8-0.7-115.1,0.6c-46.4,1.3-99.8-49.1-99.8-49.1l-30.5,148.3H506.8
			c0,0,72.6-280.9,106.2-309.3l46.3,5.3l12.6-25.2l65.7,8.4v22.1c0,0,73.1,16.8,73.1,20c0,3.2,70.2,106.3,70.2,106.3L988.1,1278.3z"
			/>
		<path class="st1" d="M793.3,992.2c-2.6-0.5,16,92.8-4.4,104.5c-20.5,11.7-51.2,16.3-51.2,16.3l-65.7-8.4l21.2-127.1
			C693.1,977.6,797,993,793.3,992.2z"/>
		<path class="st4" d="M265,1174.5l114.4,418.8h411.1c0,0,16.5-38.5-29.6-48.1c-2.8-0.6-5.8-1-9-1.4c-1.8-0.2-3.7-0.4-5.4-0.6
			c-53.2-5.3-75.6-1.7-96.6-69c-21.6-69.6-43.6-278.1-103.6-292.1c-27-6.3-148.4-7.7-148.4-7.7C323.7,1173,265,1174.5,265,1174.5z"
			/>
		<path class="st0" d="M745.7,907.4c-47.5-2.9-69.4,21.9-67.3,46.8c0,0-51.1-1.4-50.5,27.8l-13.6,188.5
			c-1.1,15.4,9.3,29.3,24.4,32.6l63.3,13.7c19.7,4.3,38.2-11.1,37.6-31.3l-2.1-72.4c0,0,27.6-32.5,16.6-49.3
			c-11-16.8-24.1-34.3-9.4-43.3c13.5-8.3,20.6,19.3,20.6,19.3l27.8-47.5c0,0,16.5,5.2,16.1-25.3
			C809.1,939.1,793.3,910.3,745.7,907.4z"/>
		<path class="st4" d="M995.2,759.4c-1.4,0-2.8-0.2-4.3-0.7c-7.3-2.4-11.4-10.2-9-17.6l84.8-264.9l64.6,150.1l44.5-66l22.4,29.2
			l53.9-173.5l12.8,45.3c18.4,65,39.2,135.8,52,176.1c6.4-19.1,14.5-43.9,22.5-68.3c73.4-223.7,75.8-224.5,85.6-228.1
			c4.2-1.5,8.7-1,12.5,1.4c3.4,2.1,9.4,6,80.6,137l87.9-204.6l111.9,106.7c5.6,5.3,5.8,14.2,0.5,19.8c-5.3,5.6-14.2,5.8-19.8,0.5
			l-82.8-79l-94.8,220.8l-13.7-25.4c-27.5-51.1-58.4-106.9-75.2-135.5c-15.5,41.1-46.1,134.5-66.1,195.2
			c-34.7,105.8-35,106.1-38.7,109.8l-5.7,5.7l-8-2c-9.6-2.5-11.4-3-45-116.5c-6.3-21.4-12.6-42.9-17.8-60.9l-42,135.3l-31.6-41.2
			l-51.4,76.2L1070.5,556l-62,193.7C1006.6,755.6,1001.1,759.4,995.2,759.4z"/>
		<path class="st0" d="M1414.3,181.4V180c0-31.7-25.7-57.5-57.5-57.5l0,0c-31.7,0-57.5,25.7-57.5,57.5v1.4H1088
			c-23.2,0-41.9,18.8-41.9,41.9v0h621.5v0c0-23.2-18.8-41.9-41.9-41.9H1414.3z"/>
		<rect x="1015.7" y="817.4" class="st0" width="682.2" height="32.1"/>
	</g>
</g>
<g id="Layer_4">
</g>
<g id="Layer_5">
</g>
<g id="Layer_6">
</g>
<g id="Layer_7">
</g>
<g id="Layer_8">
</g>
<g id="Layer_9">
</g>
<g id="Layer_10">
</g>
</svg>
