<?xml version="1.0" encoding="utf-8"?>
<!-- Generator: Adobe Illustrator 23.0.5, SVG Export Plug-In . SVG Version: 6.00 Build 0)  -->
<svg version="1.1" xmlns="http://www.w3.org/2000/svg" xmlns:xlink="http://www.w3.org/1999/xlink" x="0px" y="0px"
	 viewBox="0 0 2000 2000" style="enable-background:new 0 0 2000 2000;" xml:space="preserve">
<style type="text/css">
	.st0{fill:#252734;}
	.st1{fill:#F1BAA4;}
	.st2{fill:#EFDDBF;}
	.st3{fill:#445E77;}
	.st4{fill:#E66F55;}
</style>
<g id="Layer_1">
</g>
<g id="Layer_2">
</g>
<g id="Layer_3">
</g>
<g id="Layer_4">
</g>
<g id="Layer_5">
</g>
<g id="Layer_6">
	<g>
		<rect x="485.2" y="304.4" class="st2" width="1241" height="643"/>
		<path class="st3" d="M1364.3,489.6v281.8c-74.4-3.9-133.6-65.4-133.6-140.9S1289.9,493.5,1364.3,489.6z"/>
		<g>
			<path class="st0" d="M1379.3,638h133.5c-3.8,72-61.5,129.7-133.5,133.4V638z"/>
		</g>
		<g>
			<path class="st4" d="M1379.3,623.1h133.5c-3.8-72-61.5-129.7-133.5-133.4V623.1z"/>
		</g>
		<path class="st0" d="M238,834.3c-5,2-10.5,5.4-11,10.9c-0.2,2.7,0.8,5.3,0.7,8c-0.3,8.4-11.2,12.4-14.1,20.2
			c-4,10.9,8.9,21.4,8.4,33c-0.2,5.4-3.3,10.1-5.4,15.1s-3,11.3,0.6,15.3c1.2,1.4,2.9,2.3,4.1,3.7c4.3,5.1,0.6,12.8-2.7,18.6
			s-5.7,14.4-0.2,18.2c1.5,1.1,3.5,1.5,4.9,2.7c2.8,2.5,2.3,7,0.8,10.4c-1.5,3.4-3.7,6.7-3.6,10.5c0.1,5.2,4.9,9.4,10,10.3
			c5.1,0.9,10.3-0.9,14.9-3.3c5.8-3.1,11.1-7.3,15.4-12.3c2.4-2.8,4.6-5.9,7.7-7.6c6.2-3.4,13.8-0.7,20.7,1.2
			c6.8,1.9,15.7,2.2,19.4-3.9c1.3-2.2,1.7-4.9,3-7.1c2.8-4.9,9.1-6.5,14.7-6.2c5.6,0.3,11.1,2,16.8,1.7c5.6-0.3,11.7-3.5,12.8-9
			c0.8-4-1.2-8.1-0.3-12c1.6-7,11.5-10.2,12.2-17.4c0.6-6.5-6.8-11.1-8.1-17.6c-1.5-8,6.8-14.9,6.7-23.1
			c-0.1-8.9-10.1-15.3-10.1-24.2c0-2.7,1-5.4,1.4-8.1c1.5-8.9-3.3-18.4-11.2-22.6c-2.2-1.2-4.7-2-6.5-3.8
			c-4.2-4.2-2.6-11.4-5.4-16.5c-3.4-6.2-11.7-7.5-18.8-7.4c-7.1,0.1-15,0.6-20.4-3.9c-6.5-5.5-7.5-8.1-15.7-4
			c-5.5,2.8-10.3,3.4-15.9,5.3c-6.7,2.3-8.5,6.3-11.2,12.3C249.2,829.1,245.4,831.4,238,834.3z"/>
		<path class="st2" d="M355.2,973.3c1.7,3.1,28.9,55.8,28.7,58.5s-36.5,44-37.3,42.9C345.9,1073.6,355.2,973.3,355.2,973.3z"/>
		<path class="st1" d="M363.6,1057.8c0,0,9.9,18.2,25.2,19.6c15.2,1.4,22.1-14,26.7-38.5c4.6-24.5,4.2-51.2,4.2-51.2
			s24.9-7.6,28.9-13.2s7.8-15.4,5.2-16.4c0,0,1.6-5-2.6-5.4c0,0-0.2-5.8-5.2-4.4c0,0-1.6-5.2-8.4,3s-17.3,17.1-20.9,13.5
			s4.8-12-0.8-13.7s-12.4,16.4-13,26.7c-0.6,10.2-10.9,55-10.9,55s-20.4,4.5-21.2,4.8S363.6,1057.8,363.6,1057.8z"/>
		<path class="st1" d="M280.9,1333.4c-1.6,6.8-3.4,14.5-5.4,22.9c-6.3,27.4-13.8,62.1-21.3,97.6c-7.8,7.8-15.7,15.8-23.5,23.7
			c-11.9,12-23.7,24-35,35.5l13.3-82.7l15.6-97H280.9z"/>
		<path class="st1" d="M309.7,1683.9c-1.5-4.5-0.9-13.8,0.3-23.4c0.7-5.5,1.6-11,2.4-15.8c0,0,0.5-224.2-6.5-311.3h58.2
			c-1,120.4-5.3,258-6.5,295.2c0,0.6,0.1,1.2,0.1,1.9c0,2.2-0.2,5.1-0.4,7.8c-0.3,4.8-0.8,9.3-0.7,9.9c0.1,0.6,11.6,5.5,24.6,12.1
			c16.6,8.3,35.8,19.3,37.3,27.2C421.3,1701.7,313.4,1695.3,309.7,1683.9z"/>
		
			<rect x="271.8" y="921.3" transform="matrix(-1 -4.425450e-11 4.425450e-11 -1 573.0364 1898.5309)" class="st1" width="29.4" height="55.9"/>
		<path class="st1" d="M337.8,869.7c-0.4,1.1,1.4,25.6-6.5,44.5c-3.7,8.7-9.4,16.3-18.4,19.8c-4.6,1.8-10,2.5-16.4,1.8
			c0,0-31.6,3.5-44.6-32.9c0,0-13.3,0.2-16.5-13.8c-3.2-14,6.8-19.8,14.4-12.6c0,0,4.8-42.8,43.2-42
			C331.3,835.2,337.8,869.7,337.8,869.7z"/>
		<path class="st0" d="M267.2,876.3c-0.5-0.6-0.5-1.6,0.2-2.1c6.3-5.4,12.3-2.6,14.3-1.7c0.1,0.1,0.3,0.1,0.3,0.2
			c0.4,0,0.7,0.2,1,0.5c0.5,0.6,0.5,1.6-0.2,2.1c-0.8,0.7-1.7,0.3-2.5-0.1c-1.9-0.9-6.2-2.9-11.1,1.2c-0.3,0.2-0.6,0.4-1,0.4
			C267.9,876.8,267.5,876.7,267.2,876.3z M280.9,873L280.9,873L280.9,873z M280.9,873L280.9,873L280.9,873z M280.9,873
			C280.9,873,280.9,873,280.9,873C280.9,873,280.9,873,280.9,873z M280.9,873C280.9,873,280.9,873,280.9,873L280.9,873z M280.9,873
			C280.9,873,280.9,873,280.9,873C280.9,873,280.9,873,280.9,873z M280.9,873C280.9,873,280.9,873,280.9,873
			C280.9,873,280.9,873,280.9,873z M280.9,873C280.9,873,280.9,873,280.9,873C280.9,873,280.9,873,280.9,873z M280.9,873L280.9,873
			L280.9,873z M281,873C281,873,281,873,281,873S281,873,281,873z M281,873L281,873L281,873z M281,873C281,873,281,873,281,873
			C281,873,281,873,281,873z M281,873C281,873,281,873,281,873C281,873,281,873,281,873z M281,873L281,873L281,873z"/>
		<path class="st0" d="M329.5,882.2c0.3,0,0.6-0.1,0.9-0.3c0.7-0.5,0.8-1.4,0.3-2.1c-0.2-0.3-5.6-7.5-15.1-4.8c-0.8,0.2-1.3,1-1,1.8
			s1,1.3,1.8,1c7.6-2.1,11.9,3.7,11.9,3.7C328.6,882,329.1,882.2,329.5,882.2z"/>
		<path class="st0" d="M296.9,913.7c-0.8-0.1-1.3-0.9-1.2-1.7c0.1-0.8,0.8-1.4,1.6-1.3c0.1,0,2.3,0.2,4.1-3.3
			c1.5-2.9-1.9-8.3-3.2-10.3c-0.7-1.1-0.9-1.4-0.8-2c0.1-0.8,0.8-1.4,1.6-1.3c0.6,0.1,1.1,0.5,1.3,1c0.1,0.2,0.2,0.4,0.4,0.7
			c1.6,2.6,5.5,8.8,3.3,13.2c-2.2,4.5-5.5,5-6.7,5C297.1,913.7,297,913.7,296.9,913.7z M300.4,895.4
			C300.4,895.4,300.4,895.3,300.4,895.4C300.4,895.3,300.4,895.4,300.4,895.4z M300.4,895.3C300.4,895.3,300.4,895.3,300.4,895.3
			S300.4,895.3,300.4,895.3z"/>
		<path class="st0" d="M294.6,924.9c-3.3-0.1-7.7-1.6-10.4-8.1c-0.3-0.8,0.1-1.6,0.8-1.9c0.8-0.3,1.6,0.1,1.9,0.8
			c1.3,3.3,3.2,5.3,5.7,6c3.6,1,7.2-0.9,7.8-1.3c0.4-0.4,1.1-0.6,1.7-0.3c0.8,0.3,1.1,1.2,0.7,2c-0.5,1.1-4.5,2.9-8.2,2.9
			C294.8,924.9,294.7,924.9,294.6,924.9z M300.3,920.7C300.3,920.7,300.3,920.7,300.3,920.7C300.3,920.7,300.3,920.7,300.3,920.7z
			 M300.3,920.7C300.3,920.7,300.3,920.7,300.3,920.7C300.3,920.7,300.3,920.7,300.3,920.7z"/>
		
			<ellipse transform="matrix(0.103 -0.9947 0.9947 0.103 -635.8006 1071.2206)" class="st0" cx="276.1" cy="888.1" rx="6.2" ry="5.4"/>
		<circle class="st2" cx="274.7" cy="886.3" r="2.5"/>
		
			<ellipse transform="matrix(0.103 -0.9947 0.9947 0.103 -600.6544 1119.3673)" class="st0" cx="320.3" cy="892.7" rx="6.2" ry="5.4"/>
		<circle class="st2" cx="319" cy="890.9" r="2.5"/>
		<path class="st2" d="M359.3,1062.9c-0.1,2.6-0.1,5.1-0.2,7.6c-1,35-2.5,66.4-2.5,66.4l-28.4,7.9L284,1157l-7.5-3.8l-41.1-21.2
			c0,0-4.1-28.2-7.6-60.9v-0.1c-4.5-41.7-8.2-90.8-1.5-98.4c10.6-12.1,21.6-8.8,29.7-14.1c1-0.7,2-1.5,3-2.5
			c8.3-8.9,10.9-17.3,10.9-17.3c1,0.6,20,13.7,34.9,7.1c0,0-4.2,13.7,8.9,14.9c3.9,0.3,9,0.4,14.3,0.9c10.2,0.9,21.4,3.2,27,11.6
			c0,0.1,0.1,0.1,0.1,0.2c1.1,1.7,2,3.6,2.6,5.8C360.4,988.4,360.2,1026.5,359.3,1062.9z"/>
		<path class="st0" d="M309.7,1683.9c-1.5-4.5-0.9-13.8,0.3-23.4c17.1,6.5,57.5,14.9,65.1,9.2c3.8-2.9,5.5-6.3,6.1-9.4
			c16.6,8.3,35.8,19.3,37.3,27.2C421.3,1701.7,313.4,1695.3,309.7,1683.9z"/>
		<path class="st0" d="M302.3,1655.9c0-0.2,0-0.3,0.1-0.4C302.4,1655.5,302.4,1655.6,302.3,1655.9z"/>
		<path class="st0" d="M235.5,1132c0,0,83.3-9.1,121.1,4.9c0,0,14.1,20.8,17.9,64.5c7.7,88.7-7.9,155.1-8.3,153.5l-153.7,1.1
			c0,0-7.2-135.7,3-166.9C225.6,1157.7,235.5,1132,235.5,1132z"/>
		<path class="st0" d="M287.7,970.8c-5.1,0-9.8-1.2-13.4-2.9c-2.8-1.4-6-3.6-6.2-5.7c-0.1-0.5,0.3-1,0.9-1.1c0.5-0.1,1,0.3,1.1,0.9
			c0.1,0.7,1.5,2.4,5.1,4.1c7.2,3.4,18.6,4.6,29.1-2.2c0.5-0.3,1.1-0.2,1.3,0.3c0.3,0.5,0.2,1.1-0.3,1.3
			C299.4,969.4,293.3,970.8,287.7,970.8z"/>
		<path class="st2" d="M320.3,1145.1h-38c-0.5,0-1-0.4-1-1c0-0.5,0.4-1,1-1h38c0.5,0,1,0.4,1,1
			C321.3,1144.7,320.9,1145.1,320.3,1145.1z"/>
		<path class="st1" d="M275.5,1356.2c-6.3,27.4-13.8,62.1-21.3,97.6c-7.8,7.8-15.7,15.8-23.5,23.7c-11.9,12-23.7,24-35,35.5
			c-47,47.7-85.9,87.8-85.9,87.8l-4.2,6.9c0,0,7,14.9,13.4,31.1c0,0,0,0,0,0c7.1,17.8,13.6,37.2,9.6,40.3
			c-7.6,6-82.7-56.6-80.5-69.3c1.2-6.7,9.3-15,17.3-21.9c2.4-2.1,4.8-4,6.9-5.8c0.7-1,1.6-1.6,1.6-1.6l135-150.3L275.5,1356.2z"/>
		<path class="st0" d="M128.6,1679.2c-7.6,5.9-82.7-56.6-80.5-69.3c1.2-6.7,9.3-15,17.3-21.9c6.4,11.1,26,43.3,39.7,49.9
			c6.7,3.2,11.1,2.7,13.9,0.9C126.1,1656.6,132.6,1676.1,128.6,1679.2z"/>
		
			<rect x="293.3" y="992.6" transform="matrix(0.8746 -0.4848 0.4848 0.8746 -467.4536 295.601)" class="st0" width="88.9" height="117.9"/>
		<path class="st3" d="M318.3,979.7c-5-6.9-14.5-9.1-22.1-4.9c-3.8,2.1-6.5,5.5-7.8,9.3c-1.3,3.8-1.3,8.1,0.3,12l-11.2,6.2
			l12.3,22.1l52-28.8l-12.3-22.1L318.3,979.7z M307,994.4c-3.4,1.9-7.7,0.7-9.6-2.8s-0.7-7.7,2.8-9.6s7.7-0.7,9.6,2.8
			C311.7,988.2,310.4,992.5,307,994.4z"/>
		<path class="st1" d="M285.8,1067.7c0,0,2.6-25.4,8.8-30.1c6.2-4.7,26.1-14.1,26.1-14.1s5.9,1.3,2.8,6.3c0,0,5.2-1.7,6.5,2.9
			c1.3,4.6-1.4,4.9-1.4,4.9s7.8,3.9,0.4,9.9c0,0,5.4,2.2-1.4,8.3c-6.9,6.1-16.2,12.9-16.2,12.9s-0.5,12.8-5.8,16.2
			c-5.2,3.3-8.7,4.1-9,4.9c-0.2,0.7-29.3,46.4-52.4,43.7c-23.2-2.7-31.4-55.5-31.4-55.5s38.8-11,39-10.3c0.2,0.7,4.3,25.6,4.3,25.6
			L285.8,1067.7z"/>
		<path class="st0" d="M301.2,1042.6c0.3,0.1,0.6,0.1,0.8-0.1c7.8-4.2,19.7-10.4,20.5-10.8c0.5-0.2,0.8-0.8,0.6-1.3
			c-0.2-0.6-0.8-0.9-1.3-0.7c-0.1,0-0.5,0.2-20.8,10.9c-0.5,0.3-0.7,0.9-0.4,1.5C300.7,1042.4,300.9,1042.5,301.2,1042.6z"/>
		<path class="st0" d="M306.1,1048.8c0.2,0.1,0.5,0.1,0.8-0.1c8-3.8,20.1-9.4,20.8-9.7c0.5-0.2,0.8-0.8,0.6-1.3
			c-0.2-0.6-0.8-0.9-1.3-0.7c-0.1,0-0.3,0.1-21,9.8c-0.5,0.3-0.8,0.9-0.5,1.4C305.6,1048.5,305.8,1048.7,306.1,1048.8z"/>
		<path class="st0" d="M312.4,1055.2c0.2,0.1,0.5,0.1,0.7,0c5.4-2.2,13.6-5.6,14-5.7c0.5-0.2,0.8-0.8,0.7-1.4
			c-0.2-0.6-0.8-0.9-1.3-0.7c-0.3,0.1-9,3.6-14.2,5.8c-0.6,0.2-0.8,0.9-0.6,1.4C311.8,1054.9,312.1,1055.1,312.4,1055.2z"/>
		<path class="st2" d="M222.7,970c0,0-29.9,21.9-27.1,55.2c2.7,32.6,9,55,10.5,55.7c1.5,0.7,62.3-13.6,63-14.7
			c0.7-1.1,0.7-42.3-6.4-58.3C256.6,994,235.9,965.2,222.7,970z"/>
		<path class="st0" d="M248.4,881.6c3.3,1.1,6.2-2.6,7.5-5.8s2.6-7.3,6-8c3.2-0.7,6.3,2,9.6,2c6.6,0,9-9.9,15.4-11.3
			c5.9-1.3,12.4,5.4,17.5,2.1c1.2-0.7,2-1.9,3.2-2.7c3.5-2.3,8.1,0.2,11.4,2.8c3.3,2.6,7.4,5.5,11.3,3.9c1.5-0.6,2.6-1.8,4.1-2.3
			c2.7-1,5.6,0.3,8.2,1.6c2.7-4.8,1.1-11.6-3.4-14.7c-1.9-1.4-4.3-2.1-6-3.7c-3.7-3.6-2.8-9.8-5-14.5c-2.1-4.3-7.1-7.1-11.8-6.5
			c-3,0.4-5.9,1.9-8.8,1.4c-2.3-0.4-4.2-1.9-6.3-3c-5.4-2.7-12.3-2.1-17,1.6c-2,1.5-3.6,3.5-5.8,4.7c-4.6,2.5-10.9,0.9-15.2,3.9
			c-5,3.5-4.7,11.4-9,15.7c-2.4,2.4-6,3.5-7.7,6.3C244.1,859.4,242.4,879.6,248.4,881.6z"/>
		<path class="st0" d="M1524.6,1634.5v12.2l-43.7,25.7v17.4h100.3c0,0-8.7-73.1-6.6-72.5c2.1,0.5-43.5,0-43.5,0L1524.6,1634.5z"/>
		<polygon class="st0" points="1619.1,1621 1619.1,1689.8 1702.6,1686.4 1702.6,1664.1 1664.8,1642.2 1662.8,1617.2 		"/>
		
			<rect x="1846.3" y="1447.7" transform="matrix(0.9899 -0.142 0.142 0.9899 -204.1834 278.701)" class="st0" width="10" height="245.4"/>
		
			<rect x="1718.4" y="1447.7" transform="matrix(0.9899 -0.142 0.142 0.9899 -205.478 260.5539)" class="st0" width="10" height="245.4"/>
		
			<rect x="1709.2" y="1447.7" transform="matrix(-0.9899 -0.142 0.142 -0.9899 3188.074 3368.304)" class="st0" width="10" height="245.4"/>
		<path class="st3" d="M1607.9,1375.8l-89.1,45.9c0,0-14.1,5.1-12.2,27c1.9,21.9,18,182.6,18,182.6l61.7-3.9l-11.8-152.4
			c0,0,105.6-24.4,108.2-26.4c2.6-1.9,16.7-72.9,16.7-72.9l-46.3-26.8L1607.9,1375.8z"/>
		<polygon class="st3" points="1614.3,1481.5 1616.3,1631.3 1667.3,1631.3 1685.3,1481.5 		"/>
		<path class="st0" d="M1608.1,1454l-5.1,35.7l-29.1,202.9l-9.9-1.4l28.9-201.5l4.9-34.3c2-0.4,4.1-0.7,6.4-1
			C1605.5,1454.2,1606.8,1454.1,1608.1,1454z"/>
		<path class="st0" d="M1480.9,1217.3l-31.6,32.3c0,0,41.3,84.2,74.4,86.4s62.4-66.1,62.4-66.1l21.8,105.9h171.3
			c0,0-51.8-200.6-75.9-220.9l-33.1,3.8l-9-18l-47,6v15.8c0,0-52.2,12-52.2,14.3s-37.6,85.7-37.6,85.7L1480.9,1217.3z"/>
		<path class="st1" d="M1566.1,1060.6c1.8-0.4-3.4,57,8.2,70.9c10.8,12.9,31.5,15.5,31.5,15.5l47-6l-15.1-90.8
			C1637.7,1050.2,1563.4,1061.1,1566.1,1060.6z"/>
		<path class="st4" d="M1952,1190.5l-81.7,299.2h-293.6c0,0-11.8-27.5,21.2-34.3c2-0.4,4.1-0.7,6.4-1c1.3-0.1,2.6-0.3,3.9-0.4
			c38-3.8,54-1.2,69-49.3c15.5-49.7,31.1-198.6,74-208.6c19.3-4.5,106-5.5,106-5.5C1910,1189.4,1952,1190.5,1952,1190.5z"/>
		<path class="st2" d="M1614.3,1146.6v-27.8c0,0,22.2-21.6,7.4-30.3s-19.3,5.7-19.3,5.7l-7-28.6h-35.7c0,0-21.2-56.1,33.5-65.8
			c54.7-9.6,78.3,9.9,87,40.2c8.8,30.3,52.5,153.6,52.5,153.6s-115.2,40.4-111.1,41.1S1614.3,1146.6,1614.3,1146.6z"/>
		<path class="st1" d="M867,1268.8c0.9-0.9,46.5,2,61.5,14.6c14.9,12.6,17.6,20.4,17.6,20.4h-52.9c0,0,9.5,11.2,3.7,16.3
			c-5.7,5.2-22.1-16.7-22.1-16.7l-6.3-12.8L867,1268.8z"/>
		<polygon class="st0" points="1463.6,1343.5 536.9,1343.5 538.9,1297.2 1465.6,1297.2 		"/>
		<path class="st0" d="M1123.9,1630.5v12.2l-43.7,25.7v17.4h100.3c0,0-8.7-73.1-6.6-72.5c2.1,0.5-43.5,0-43.5,0L1123.9,1630.5z"/>
		<polygon class="st0" points="1218.4,1617 1218.4,1685.8 1301.9,1682.3 1301.9,1660 1264,1638.2 1262.1,1613.2 		"/>
		
			<rect x="1445.6" y="1443.7" transform="matrix(0.9899 -0.142 0.142 0.9899 -207.6687 221.7785)" class="st0" width="10" height="245.5"/>
		
			<rect x="1317.7" y="1443.7" transform="matrix(0.9899 -0.142 0.142 0.9899 -208.9633 203.6304)" class="st0" width="10" height="245.5"/>
		
			<rect x="1308.5" y="1443.7" transform="matrix(-0.9899 -0.142 0.142 -0.9899 2391.2847 3303.3955)" class="st0" width="10" height="245.5"/>
		<path class="st0" d="M1207.2,1371.8l-89.1,45.9c0,0-14.1,5.1-12.2,27s18,182.6,18,182.6l61.7-3.9l-11.8-152.4
			c0,0,105.6-24.4,108.2-26.4s16.7-72.9,16.7-72.9l-46.3-26.8L1207.2,1371.8z"/>
		<polygon class="st0" points="1213.6,1477.4 1215.6,1627.2 1266.6,1627.2 1284.6,1477.4 		"/>
		<path class="st0" d="M1207.4,1449.9l-5.1,35.7l-29.1,202.9l-9.9-1.4l28.9-201.5l4.9-34.3c2-0.4,4.1-0.7,6.4-1
			C1204.8,1450.2,1206.1,1450.1,1207.4,1449.9z"/>
		<path class="st3" d="M1080.2,1213.2l-31.6,32.3c0,0,41.3,84.2,74.4,86.4c33.1,2.3,62.4-66.1,62.4-66.1l21.8,106h171.3
			c0,0-51.8-200.6-75.9-220.9l-33.1,3.8l-9-18l-47,6v15.8c0,0-52.2,12-52.2,14.3s-37.6,85.7-37.6,85.7L1080.2,1213.2z"/>
		<path class="st1" d="M1080.2,1213.2c0,0-21.7-55.9-29-52.4c-7.3,3.5,0,20.5,0,20.5s-22.9-27.2-39.1-17.5
			c-13.3,7.9-16.3,27.6-2.5,39.3s42.5,38.8,42.5,38.8L1080.2,1213.2z"/>
		<path class="st1" d="M1173.9,1056.2c1.8-0.4-11.5,66.3,3.2,74.7c14.6,8.4,36.6,11.7,36.6,11.7l47-6l-15.1-90.8
			C1245.4,1045.8,1171.2,1056.8,1173.9,1056.2z"/>
		<path class="st0" d="M1255.9,1029.1c0,0,37.1-1,36,20.4c-1,21.4-31.4,87.1-31.4,87.1l-47,6c0,0-19.7-23.2-11.9-35.2
			c7.8-12,17.2-24.5,6.7-30.9c-9.6-5.9-14.7,13.8-14.7,13.8l-19.9-33.9c0,0-16.7,10.4-22.9-10.4c-6.3-20.9,23-48,56.9-50.1
			C1241.8,993.6,1257.4,1011.3,1255.9,1029.1z"/>
		<path class="st4" d="M1551.3,1186.5l-81.7,299.2h-293.7c0,0-11.8-27.5,21.2-34.3c2-0.4,4.1-0.7,6.4-1c1.3-0.1,2.6-0.3,3.9-0.4
			c38-3.8,54-1.2,69-49.3c15.5-49.7,31.1-198.7,74-208.7c19.3-4.5,106-5.5,106-5.5C1509.3,1185.4,1551.3,1186.5,1551.3,1186.5z"/>
		<path class="st3" d="M782.8,1633.4v12.2l43.7,25.7v17.4H726.2c0,0,8.7-73.1,6.6-72.5c-2.1,0.5,43.5,0,43.5,0L782.8,1633.4z"/>
		<polygon class="st3" points="688.3,1619.9 688.3,1688.7 604.8,1685.3 604.8,1663 642.6,1641.1 644.6,1616.2 		"/>
		
			<rect x="451.1" y="1446.6" transform="matrix(-0.9899 -0.142 0.142 -0.9899 684.8441 3187.5737)" class="st0" width="10" height="245.5"/>
		
			<rect x="579" y="1446.6" transform="matrix(-0.9899 -0.142 0.142 -0.9899 939.2386 3205.7219)" class="st0" width="10" height="245.5"/>
		
			<rect x="588.2" y="1446.6" transform="matrix(0.9899 -0.142 0.142 0.9899 -216.7707 100.1032)" class="st0" width="10" height="245.5"/>
		<path class="st0" d="M699.5,1374.7l89.1,45.9c0,0,14.1,5.1,12.2,27c-1.9,21.9-18,182.6-18,182.6l-61.7-3.9l11.8-152.4
			c0,0-105.6-24.4-108.2-26.4c-2.6-1.9-16.7-72.9-16.7-72.9l46.3-26.8L699.5,1374.7z"/>
		<polygon class="st0" points="693.1,1480.4 691.1,1630.2 640.1,1630.2 622.1,1480.4 		"/>
		<path class="st0" d="M699.3,1452.9l5.1,35.7l29.1,202.9l9.9-1.4l-28.9-201.5l-4.9-34.3c-2-0.4-4.1-0.7-6.4-1
			C701.9,1453.1,700.6,1453,699.3,1452.9z"/>
		<path class="st3" d="M872,1263.5l2.7,39.9c0,0-49.1-0.5-82.2,0.4c-33.1,0.9-71.3-35.1-71.3-35.1l-21.8,106H528.2
			c0,0,51.8-200.6,75.9-220.9l33.1,3.8l9-18l47,6v15.8c0,0,52.2,12,52.2,14.3s50.2,76,50.2,76L872,1263.5z"/>
		<path class="st1" d="M732.8,1059.2c-1.8-0.4,11.5,66.3-3.2,74.7c-14.6,8.4-36.6,11.7-36.6,11.7l-47-6l15.1-90.8
			C661.3,1048.8,735.5,1059.7,732.8,1059.2z"/>
		<path class="st4" d="M355.4,1189.4l81.7,299.2h293.7c0,0,11.8-27.5-21.2-34.3c-2-0.4-4.1-0.7-6.4-1c-1.3-0.1-2.6-0.3-3.9-0.4
			c-38-3.8-54-1.2-69-49.3c-15.5-49.7-31.1-198.7-74-208.7c-19.3-4.5-106-5.5-106-5.5C397.4,1188.3,355.4,1189.4,355.4,1189.4z"/>
		<path class="st0" d="M698.9,998.6c-33.9-2.1-49.6,15.7-48,33.4c0,0-36.5-1-36,19.9l-9.7,134.6c-0.8,11,6.6,20.9,17.4,23.3
			l45.2,9.8c14.1,3.1,27.3-7.9,26.9-22.3l-1.5-51.7c0,0,19.7-23.2,11.9-35.2c-7.8-12-17.2-24.5-6.7-30.9
			c9.6-5.9,14.7,13.8,14.7,13.8l19.9-33.9c0,0,11.8,3.7,11.5-18.1C744.1,1021.2,732.8,1000.7,698.9,998.6z"/>
		
			<rect x="929" y="430.5" transform="matrix(-1 -6.195723e-11 6.195723e-11 -1 1906.5256 1190.4941)" class="st0" width="48.6" height="329.4"/>
		
			<rect x="733.5" y="551.4" transform="matrix(-1 -3.930823e-11 3.930823e-11 -1 1515.5267 1311.3429)" class="st0" width="48.6" height="208.6"/>
		<rect x="829.9" y="501.1" class="st0" width="48.6" height="258.9"/>
		
			<rect x="647.7" y="607.6" transform="matrix(-1 -2.860124e-11 2.860124e-11 -1 1343.9315 1367.5894)" class="st0" width="48.6" height="152.4"/>
	</g>
</g>
<g id="Layer_7">
</g>
<g id="Layer_8">
</g>
<g id="Layer_9">
</g>
<g id="Layer_10">
</g>
</svg>
