<?xml version="1.0" encoding="utf-8"?>
<!-- Generator: Adobe Illustrator 23.0.5, SVG Export Plug-In . SVG Version: 6.00 Build 0)  -->
<svg version="1.1" xmlns="http://www.w3.org/2000/svg" xmlns:xlink="http://www.w3.org/1999/xlink" x="0px" y="0px"
	 viewBox="0 0 2000 2000" style="enable-background:new 0 0 2000 2000;" xml:space="preserve">
<style type="text/css">
	.st0{fill:#252734;}
	.st1{fill:#F1BAA4;}
	.st2{fill:#EFDDBF;}
	.st3{fill:#445E77;}
	.st4{fill:#E66F55;}
</style>
<g id="Layer_1">
</g>
<g id="Layer_2">
</g>
<g id="Layer_3">
</g>
<g id="Layer_4">
</g>
<g id="Layer_5">
</g>
<g id="Layer_6">
</g>
<g id="Layer_7">
</g>
<g id="Layer_8">
</g>
<g id="Layer_9">
	<g>
		<rect x="771.6" y="235.7" class="st2" width="871.6" height="451.6"/>
		<path class="st3" d="M1004.6,325.7v281.8C930.2,603.6,871,542,871,466.6S930.2,329.5,1004.6,325.7z"/>
		<path class="st4" d="M1067.2,405.2c-18.2,17.2-36.4,34.5-47.7,45.2V325.7c35,1.8,66.6,16.4,90.4,39.2c-0.7,0.6-1.3,1.2-2,1.9
			C1096.8,377.2,1082,391.2,1067.2,405.2z"/>
		<path class="st0" d="M1019.5,474.1H1153c-3.8,72-61.5,129.7-133.5,133.4V474.1z"/>
		<path class="st4" d="M1032,459.1c30.7-29.2,67.4-63.9,88.1-83.4c19.2,22.8,31.3,51.7,32.9,83.4H1032z"/>
		<path class="st3" d="M1417.7,325.7v281.8c-74.4-3.9-133.6-65.4-133.6-140.9S1343.2,329.5,1417.7,325.7z"/>
		<g>
			<path class="st0" d="M1432.6,474.1h133.5c-3.8,72-61.5,129.7-133.5,133.4V474.1z"/>
		</g>
		<g>
			<path class="st4" d="M1432.6,459.1h133.5c-3.8-72-61.5-129.7-133.5-133.4V459.1z"/>
		</g>
		<path class="st1" d="M1388.2,1058.3c4.7,0.2,5.6-3.4,5.6-3.4s1.2,5.6,4.9,7.2c3.7,1.6,6.7-6.8,6.7-6.8s0.4,3.9,6,3.8
			c5.6-0.1,7.2-9.8,7.2-9.8c3.6,8.1,9.6,1.4,9.6,1.4s4.5-28.2,6.3-27.2c1.8,1,11-3.7,22.9-15.5c11.4-11.4,10.7-26.3,11.3-27.9
			c-6.3-7-14.4-18.9-19.3-26.7c-6.4,5.1-45.8,36.6-51.5,43.9c-6.2,8-11,33-12.8,42.5C1383.2,1049.3,1383.6,1058.1,1388.2,1058.3z"/>
		<path class="st0" d="M1394,1052.7c0.1-0.1,0.2-0.1,0.3-0.2c0.3-0.4,0.4-0.8,0.3-1.2c0.1-2,3.5-15.7,5.8-24.7
			c3.4-13.6,3.5-14.2,3.4-14.8c-0.1-0.8-0.8-1.3-1.6-1.2c-0.7,0.1-1.2,0.7-1.3,1.4c-0.1,1-1.8,7.5-3.3,13.9
			c-6.4,25.9-6.3,25.9-5.3,26.8C1392.7,1053.1,1393.4,1053.1,1394,1052.7z"/>
		<path class="st0" d="M1405.8,1052.6c0.3-0.2,0.5-0.5,0.6-0.9c2-10.7,5.5-28.2,6.1-30.1c0.2-0.3,0.2-0.7,0.2-1
			c-0.2-0.8-0.9-1.3-1.7-1.1c-1.2,0.3-1.4,0.3-7.4,31.7c-0.1,0.8,0.4,1.5,1.1,1.7C1405.1,1052.9,1405.5,1052.8,1405.8,1052.6z"/>
		<path class="st0" d="M1419.3,1047.5c0.3-0.2,0.6-0.6,0.6-1c0.8-5.6,3.1-20.4,3.6-22.2c0.2-0.8-0.3-1.6-1-1.8
			c-0.8-0.2-1.6,0.3-1.8,1c-0.6,2.3-3.5,21.7-3.7,22.5c-0.1,0.8,0.4,1.5,1.2,1.6C1418.6,1047.7,1419,1047.7,1419.3,1047.5z"/>
		
			<rect x="1671" y="554.6" transform="matrix(0.9994 3.472257e-02 -3.472257e-02 0.9994 21.6731 -58.3988)" class="st1" width="42.3" height="80.4"/>
		<path class="st2" d="M1585.1,725.2c0.7,68.3,4.8,155.5,4.8,155.5l35.7,9.9l69,19.1l2.3,0.7l60.8-31.3l10.8-5.6
			c0,0,3.8-26.6,8.1-62.1c2.7-23.2,5.7-50.1,7.8-75.8c3.8-46.5,5-88.9-2.4-97.3c-1.6-1.8-3.2-3.5-4.8-4.9
			c-15.9-13.7-31.9-7.9-43.1-19.3c-0.1-0.1-0.3-0.2-0.4-0.4c-12.3-13.2-16.1-25.5-16.1-25.5c-0.2,0.1-1.2,0.8-2.7,1.7
			c-7,4.3-26.2,14.6-43.4,10.6c-1.8-0.4-3.6-1-5.4-1.8c0,0,5.2,17-8.9,21.1c-1.3,0.4-2.7,0.7-4.3,0.8c-13.9,1.3-37.5,0.2-52.5,10.2
			c-0.3,0.1-0.5,0.3-0.8,0.5c-5.4,3.8-9.6,9.1-11.7,16.5c-0.3,1.2-0.7,2.7-0.9,4.5c-0.5,3.5-1,8.2-1.3,13.8l0,0.5
			C1585,681.6,1584.8,702.3,1585.1,725.2z"/>
		<path class="st0" d="M1768.6,873.6c0,0,100.7,730.2,96.3,731.7c-4.3,1.4-10,37.3-81.7,5.7c0,0-87.8-496.2-96.4-490.5
			c-8.6,5.7-26.4,493.7-26.4,493.7s-24.7,30.9-86.4-0.7c0,0-9-688.3,16-732.8L1768.6,873.6z"/>
		<path class="st0" d="M1762.5,504.6c0,0,16-40.9-0.3-70.2c-16.3-29.4-39.3-12-39.3-12s-58.2-16.9-84.3-6s-14.8,37.2-14.8,37.2
			l131.5,61.1L1762.5,504.6z"/>
		<path class="st1" d="M1623.3,489.6c0.9,2.6-10.8,102.1,56.1,97.2c0,0,45.3,6.6,65.7-45.1c0,0,19.1,1,24.5-19s-8.8-28.8-20-18.8
			c0,0-4.8-61.8-60.1-62.6C1634.3,440.3,1623.3,489.6,1623.3,489.6z"/>
		<path class="st0" d="M1749.6,503.9l-4.1,20.6c0,0-16.4-39.8-18.1-58.1c0,0-69.1,34.6-72.9,5.9c0,0-17.6,33.9-36.5,30.7
			c-18.9-3.2-8.8-54.7,36.4-69.5s83.4-3.6,97,18.8C1765,474.6,1747.5,505.5,1749.6,503.9z"/>
		<path class="st0" d="M1723,507.5c-0.3,0-0.6-0.1-0.9-0.4c-6.9-6.4-13.5-3.6-16.3-2.4c-1.1,0.5-1.9,0.8-2.7,0.1
			c-0.6-0.5-0.6-1.4-0.1-1.9c0.3-0.3,0.7-0.5,1.1-0.4c0,0,0,0,0,0c0.2-0.1,0.4-0.2,0.6-0.3c3-1.3,11-4.7,19.2,2.9
			c0.6,0.5,0.6,1.4,0.1,1.9C1723.7,507.3,1723.3,507.5,1723,507.5z"/>
		<path class="st0" d="M1636.5,512c-0.3,0-0.6-0.1-0.8-0.3c-0.6-0.5-0.7-1.3-0.2-1.9c0.1-0.1,7.9-9.8,20.8-5.8
			c0.7,0.2,1.1,1,0.9,1.7c-0.2,0.7-1,1.1-1.7,0.9c-11.1-3.5-17.7,4.8-17.8,4.9C1637.4,511.8,1637,512,1636.5,512z"/>
		<path class="st0" d="M1680.5,555.2c-0.2,0-3.8,0.2-6.3-5.3c-2.1-4.6,3.1-12.2,5-15.1c1-1.4,1.2-1.7,1.1-2.3c0-0.8-0.7-1.3-1.5-1.3
			c-0.6,0-1.1,0.4-1.2,1c-0.1,0.2-0.4,0.6-0.7,1.1c-2.4,3.5-8,11.8-5.2,17.8c2.8,6.1,6.9,6.8,8.5,6.9c0.3,0,0.5,0,0.6,0
			c0.7-0.1,1.3-0.7,1.2-1.5C1681.9,555.7,1681.2,555.1,1680.5,555.2z"/>
		<path class="st0" d="M1683.3,573.8c-5.2-0.2-10.2-2.9-10.7-4.1c-0.3-0.7,0-1.5,0.7-1.8c0.6-0.2,1.2-0.1,1.6,0.4
			c0.7,0.6,6.1,3.6,11.4,2.5c3.9-0.9,6.9-3.8,9.1-8.6c0.3-0.7,1.1-1,1.8-0.7c0.7,0.3,1,1.1,0.7,1.8c-3.8,8.8-9.9,10.6-14.3,10.5
			C1683.5,573.8,1683.4,573.8,1683.3,573.8z"/>
		
			<ellipse transform="matrix(0.9977 -6.843802e-02 6.843802e-02 0.9977 -31.8313 118.3618)" class="st0" cx="1711.5" cy="523.7" rx="7.6" ry="8.8"/>
		<circle class="st2" cx="1713.5" cy="521.3" r="3.5"/>
		
			<ellipse transform="matrix(0.9977 -6.843802e-02 6.843802e-02 0.9977 -32.2717 114.0901)" class="st0" cx="1649" cy="528" rx="7.6" ry="8.8"/>
		<circle class="st2" cx="1650.9" cy="525.5" r="3.5"/>
		<path class="st3" d="M1434,939.1c0,0,15,47.7,50.3,61c0,0,68.8-104,99.8-171.3l0.5,14.7c0,0-27.1,169.4-28.1,173.2
			c-0.9,3.8,60.8,5.7,60.8,5.7s0-0.6,0.1-1.7c0.2,1.3,0.3,2.1,0.3,2.1l41.1-123l37.6,121.6c0,0.6,0,1,0,1h0.3l0.1,0.4
			c0,0,0.4-0.2,1-0.4h113l-26.9-144.9l-6.3-34.1l1.3-17.5c15.5-14.9,23.9-82.6,27.3-111.4c1.8-15.3,3.7-36.1,0.6-52.6
			c-1.2-6.2-3-11.7-5.8-16.2c-4.1-6.5-10.2-10.6-19.2-10.8c-1.6-0.8-3.3-1.5-4.9-2c-15.8-13.7-31.9-7.9-43.1-19.3
			c-5.4,5.8-12.5,14.9-19.2,28.7c-0.4,0.8-0.7,1.5-1.1,2.4c-4.3,9.4-8.4,21-11.5,35c-5.2,9.5-11.4,21.2-17.5,32.8
			c-13.3,25.1-26,49.6-26,49.6s-9.2-64-12.7-91.1c-0.9-6.8-1.3-11.3-1.2-11.8c6.2-24.6,12.4-39.6,12.4-39.6
			c-1.3,0.4-2.7,0.7-4.3,0.8c-13.9,1.3-37.5,0.2-52.5,10.2c-0.3,0.1-0.5,0.3-0.8,0.5c-1.6,1.1-14.5,10.3-14.5,10.3
			c-0.9,0-8.9,1.4-40.9,82.8C1511.9,805.7,1434,939.1,1434,939.1z"/>
		<path class="st0" d="M1711,1701.7c4.7,13.5,147.7-4.1,155.1-21.6c3.9-9.2,0.5-26-3.9-40.9c-3.9-13.4-8.7-25.4-9.5-29.2l-55.3-4.7
			l-0.7,26.3c0,0-20.5,12.9-41.5,27.8c0,0,0,0,0,0C1732.1,1675.7,1708.5,1694.6,1711,1701.7z"/>
		<path class="st0" d="M1659.1,1687.5c2.1-6.7,1.3-20.4-0.5-34.5c-2.7-21.4-7.6-43.7-7.6-43.7s-57.3-4.1-61.1-6.8
			c-3.7-2.7,0.4,30.4,0,32.4c-0.1,0.9-17.1,8.2-36.3,17.8c-24.5,12.3-52.8,28.5-55.1,40.2
			C1494.5,1713.8,1653.7,1704.4,1659.1,1687.5z"/>
		<path class="st0" d="M1669.9,1646.3c0.1-0.2,0-0.5-0.1-0.7C1669.9,1645.7,1669.9,1645.9,1669.9,1646.3z"/>
		<path class="st1" d="M1537.5,763.9c1,4.6,4.7,4.6,4.7,4.6s-5.2,2.6-5.8,6.6c-0.6,4,8.3,4.8,8.3,4.8s-3.7,1.4-2.2,6.8
			c1.5,5.5,11.4,4.6,11.4,4.6c-7,5.6,1.1,9.7,1.1,9.7s28.7-2.8,28.2-0.7c-0.5,2,6.4,9.8,21,18.4c14,8.3,28.4,3.8,30.1,4
			c5.3-7.9,14.8-18.9,21.1-25.6c-6.6-5-47.3-35.4-55.9-39.1c-9.4-4-35-2.4-44.7-1.7C1545.1,756.8,1536.6,759.3,1537.5,763.9z"/>
		<path class="st0" d="M1544.7,767.9c-0.4-0.3-0.5-0.9-0.3-1.4c0.5-0.9,0.6-1.1,27.2-1.4c6.8-0.1,13.8-0.2,14.5-0.3
			c0.6-0.2,1.1,0.1,1.4,0.6c0.2,0.6-0.1,1.3-0.7,1.5c-0.5,0.2-1.7,0.2-15.2,0.4c-9.5,0.1-23.9,0.3-25.7,0.7c-0.3,0.2-0.7,0.2-1,0
			C1544.8,768,1544.8,767.9,1544.7,767.9z"/>
		<path class="st0" d="M1547.8,779.4c-0.2-0.2-0.4-0.5-0.4-0.8c0-0.6,0.4-1.2,1-1.2c32-2.1,32.1-1.9,32.5-1c0.3,0.6,0,1.2-0.5,1.5
			c-0.3,0.1-0.6,0.1-0.8,0.1c-1.9-0.1-19.9,0.9-31,1.7C1548.3,779.7,1548,779.6,1547.8,779.4z"/>
		<path class="st0" d="M1556.3,791.3c-0.2-0.2-0.3-0.4-0.4-0.7c-0.1-0.6,0.4-1.2,1-1.2c0.8-0.1,20.5-2.1,22.9-2.1
			c0.6,0,1.1,0.5,1.1,1.1c0,0.6-0.5,1.1-1.1,1.1c-1.8,0-15.6,1.4-22.6,2.1C1556.8,791.6,1556.5,791.5,1556.3,791.3z"/>
		<path class="st0" d="M1696.2,641.8c0.5-2.6-41.5-9.7-43.3-1.5s11.2,31,12.7,31C1667,671.3,1694.7,648.9,1696.2,641.8z"/>
		<path class="st0" d="M1645.7,671c3.4,27.1,12.7,91.1,12.7,91.1s12.7-24.5,26-49.6c-4-23.1-9.1-51.7-10-55.4c0,0-13.5-6.5-13.9-7.6
			C1660.3,649,1653.5,659.3,1645.7,671z"/>
		<path class="st0" d="M1718.7,788.6c0.3,0,0.6-0.1,0.8-0.2c0.3-0.2,0.5-0.6,0.6-1c0.1-0.7,9.6-72.4,14.9-94.3
			c5-20.8,25-46.2,27.6-48.1c0.6-0.3,0.9-0.9,0.8-1.6c-0.2-0.7-0.9-1.2-1.7-1c-2.5,0.6-23.9,27.6-29.3,50
			c-4.9,20.2-13.4,82.6-14.8,93.1l-47.9-11c-0.8-0.2-1.5,0.3-1.6,1c-0.2,0.7,0.3,1.5,1,1.6l49.4,11.3
			C1718.5,788.5,1718.6,788.6,1718.7,788.6z"/>
		<path class="st0" d="M1730,866.1c2.2,0,4.2-0.2,5.9-0.6c20.4-4.7,28.8-18.5,33.8-26.7c1.2-2,2.3-3.7,3.3-4.9
			c0.5-0.6,0.4-1.5-0.2-1.9c-0.6-0.5-1.5-0.4-1.9,0.2c-1.1,1.3-2.2,3.1-3.5,5.2c-5.1,8.3-12.8,20.9-32.1,25.4
			c-24,5.6-98-33.5-98.7-33.9c-0.7-0.4-1.5-0.1-1.9,0.6c-0.4,0.7-0.1,1.5,0.6,1.9C1638.2,832.9,1701.1,866.1,1730,866.1z"/>
		<path class="st0" d="M1581.1,747.8c0.1,0,0.2,0,0.2,0c0.7-0.1,1.3-0.8,1.1-1.6c-0.7-4.2,6.2-94,7-97.9c0.2-0.7-0.3-1.5-1.1-1.6
			c-0.7-0.2-1.5,0.3-1.6,1.1c-0.9,4.2-7.8,94.2-7,98.9C1579.8,747.3,1580.4,747.8,1581.1,747.8z"/>
		
			<rect x="611.9" y="944.7" transform="matrix(-1 -4.506629e-11 4.506629e-11 -1 1252.2925 2086.2739)" class="st0" width="28.4" height="196.9"/>
		<path class="st3" d="M605.8,969.1h65.5c39.5,0,71.5-32,71.5-71.5v-14.3c0-39.5-32-71.5-71.5-71.5h-65.5c-39.5,0-71.5,32-71.5,71.5
			v14.3C534.4,937,566.4,969.1,605.8,969.1z"/>
		<circle class="st0" cx="769.7" cy="1449.7" r="27.3"/>
		<circle class="st0" cx="562.1" cy="1449.7" r="27.3"/>
		
			<rect x="652.7" y="1194.9" transform="matrix(-1 -4.475588e-11 4.475588e-11 -1 1331.8329 2492.7832)" class="st0" width="26.3" height="103.1"/>
		<circle class="st0" cx="665.9" cy="1451.6" r="27.3"/>
		<path class="st3" d="M734.9,1449.7h69.6c0-15.9-10.7-29.3-25.2-33.5V1395l-85.8-54.1v-42.7h-55.2v42.7l-85.8,54.1v21.3
			c-14.6,4.2-25.2,17.6-25.2,33.5h69.6c0-16.1-10.9-29.7-25.8-33.6v-7.1l83.9-53v62.6c-13.9,4.6-23.9,17.6-23.9,33.1h69.6
			c0-15.4-10-28.5-23.9-33.1V1356l83.9,53v7.1C745.9,1420,734.9,1433.6,734.9,1449.7z"/>
		<path class="st3" d="M613.8,1214.9h203.9c23.8,0,43.1-19.3,43.1-43.1l0,0c0-23.8-19.3-43.1-43.1-43.1H613.8
			c-23.8,0-43.1,19.3-43.1,43.1l0,0C570.7,1195.7,590,1214.9,613.8,1214.9z"/>
		<path class="st3" d="M844.9,1406.5c0,0-38.6,52.5-16,57.2c22.6,4.7,171.3,9.5,170.8-3.7c-0.5-13.1-15.8-12.6-33.1-16.3
			c-17.3-3.7-81.2-32.9-81.2-32.9L844.9,1406.5z"/>
		<path class="st0" d="M849.6,1420.9l35.2-7.6c0,0,108.4-214.7,127.9-268.9c19.5-54.2,1.1-70.5-28.2-86.7
			c-29.3-16.3-130.1-40.1-130.1-40.1l-110.9,10.9l132.6,115.9L849.6,1420.9z"/>
		<path class="st0" d="M674.5,1051.8c0.9,2.6,3.4,88,73.3,89.7c69.9,1.7,81.9,0,81.9,0l-20.7,275.1l40.5,4.3
			c0,0,122.5-285.5,88-332.1c-34.5-46.6-124.2-51.7-124.2-51.7l-69.9-8.6L674.5,1051.8z"/>
		<path class="st3" d="M809.1,1416.6c0,0-38.6,52.5-16,57.2c22.6,4.7,171.3,9.5,170.8-3.7c-0.5-13.1-15.8-12.6-33.1-16.3
			c-17.3-3.7-81.2-32.9-81.2-32.9L809.1,1416.6z"/>
		<path class="st2" d="M856.8,1407l-2.3-1c11.3-27.2,39.8-97.9,61.2-165.6c11.9-37.6,19.9-69,23.8-93.4c4.7-29.1,3.7-48.4-3-57.4
			c-17.6-23.8-50.1-36.4-74.3-42.9c-26.3-7-48.7-8.4-48.9-8.4l0.1-2.5c0.2,0,22.9,1.4,49.4,8.4c24.6,6.5,57.7,19.5,75.7,43.8
			c13,17.5,6.1,69-20.5,153.1C896.7,1309,868.1,1379.8,856.8,1407z"/>
		<path class="st0" d="M961.1,1464.1c-0.5,0-1-0.3-1.2-0.8c-1.8-4.7-7.8-5.3-16.3-6.2c-3.1-0.3-6.6-0.7-10.2-1.3
			c-13.5-2.4-74.1-29-74.7-29.3c-0.6-0.3-0.9-1-0.6-1.7c0.3-0.6,1-0.9,1.7-0.6c0.6,0.3,61.2,26.8,74.1,29.1c3.5,0.6,6.8,1,10,1.3
			c9,0.9,16.1,1.7,18.4,7.8c0.2,0.7-0.1,1.4-0.7,1.6C961.4,1464,961.3,1464.1,961.1,1464.1z"/>
		<path class="st1" d="M1013.2,1064.5c0,0,4.2,6.5-1.7,9.9c-5.9,3.4-7.2-0.2-7.2-0.2s-2.6,12.1-13.4,4c0,0-1.1,8.2-11.9,1
			c-10.8-7.3-23.4-17.6-23.4-17.6s-17.8,3.8-24.2-2.2c-6.4-6-8.8-10.5-9.9-10.5c-1.1,0-74-23.7-78.4-56.4s3.9-128.5,3.9-128.5
			s32.4,1.2,31.6,1.8c-0.5,0.3,23.8,128.7,23.8,128.7l45.6,31.9c0,0,35.8-5.4,44.4,1.5c5,4,13.7,13.6,20.2,21.1
			c4.8,5.4,8.3,9.7,8.3,9.7s0,0.4,0,0.9C1020.6,1061.5,1019.4,1066.5,1013.2,1064.5z"/>
		<path class="st0" d="M822.1,651.4c21.6,8.2,24.8-94.2-59.6-96.9c-82.5-2.6-92,68.4-86.2,106.8s19.9,70.8,52.5,64.4
			C761.4,719.4,822.1,651.4,822.1,651.4z"/>
		
			<rect x="728.8" y="714.4" transform="matrix(-1 -4.444102e-11 4.444102e-11 -1 1499.1826 1507.8136)" class="st1" width="41.6" height="79.1"/>
		<path class="st1" d="M822.1,641.3c-0.6,1.5,2,36.2-9.2,63c-5.2,12.4-13.3,23-26,28c-6.5,2.5-14.1,3.6-23.2,2.6
			c0,0-17.3,1.9-34.8-9c0,0,0,0,0,0c-10.6-6.7-21.3-18.1-28.2-37.5c0,0-15.4,0.3-21.7-14.3c-0.7-1.5-1.2-3.3-1.7-5.2
			c-4.6-19.8,9.7-28,20.3-17.8c0,0,6.8-60.5,61.1-59.5C812.9,592.5,822.1,641.3,822.1,641.3z"/>
		<path class="st0" d="M722.3,650.7c-0.8-0.9-0.7-2.2,0.2-3c8.9-7.7,17.4-3.7,20.2-2.4c0.2,0.1,0.4,0.2,0.5,0.2
			c0.5,0,1.1,0.3,1.4,0.7c0.8,0.9,0.7,2.2-0.2,3c-1.1,1-2.4,0.4-3.5-0.1c-2.6-1.2-8.8-4.1-15.7,1.8c-0.4,0.3-0.9,0.5-1.4,0.5
			C723.3,651.4,722.7,651.2,722.3,650.7z M741.7,646.1L741.7,646.1L741.7,646.1z M741.7,646L741.7,646L741.7,646z M741.7,646
			C741.7,646,741.7,646,741.7,646C741.7,646,741.7,646,741.7,646z M741.7,646C741.7,646,741.7,646,741.7,646L741.7,646z M741.7,646
			C741.7,646,741.7,646,741.7,646C741.7,646,741.7,646,741.7,646z M741.7,646C741.7,646,741.7,646,741.7,646
			C741.7,646,741.7,646,741.7,646z M741.7,646C741.7,646,741.7,646,741.7,646C741.7,646,741.7,646,741.7,646z M741.7,646L741.7,646
			L741.7,646z M741.7,646C741.7,646,741.7,646,741.7,646S741.7,646,741.7,646z M741.7,646L741.7,646L741.7,646z M741.7,646
			C741.7,646,741.7,646,741.7,646C741.7,646,741.7,646,741.7,646z M741.7,646C741.7,646,741.7,646,741.7,646
			C741.7,646,741.7,646,741.7,646z M741.7,646L741.7,646L741.7,646z"/>
		<path class="st0" d="M810.5,659c0.4,0,0.9-0.1,1.2-0.4c0.9-0.7,1.1-2,0.5-3c-0.3-0.4-7.9-10.5-21.4-6.8c-1.1,0.3-1.8,1.5-1.5,2.6
			c0.3,1.1,1.5,1.8,2.6,1.5c10.7-3,16.8,5.2,16.9,5.2C809.2,658.7,809.8,659,810.5,659z"/>
		<path class="st0" d="M764.3,703.5c-1.1-0.2-1.9-1.2-1.8-2.3c0.1-1.1,1.2-2,2.3-1.8c0.1,0,3.3,0.3,5.8-4.7
			c2.1-4.2-2.7-11.8-4.5-14.6c-0.9-1.5-1.3-2-1.2-2.9c0.1-1.2,1.2-2,2.3-1.9c0.9,0.1,1.6,0.7,1.8,1.5c0.1,0.2,0.3,0.6,0.6,1
			c2.3,3.7,7.8,12.4,4.7,18.7c-3.2,6.4-7.7,7-9.4,7C764.6,703.6,764.4,703.5,764.3,703.5z M769.2,677.6
			C769.2,677.6,769.2,677.6,769.2,677.6C769.2,677.6,769.2,677.6,769.2,677.6z M769.2,677.6C769.2,677.6,769.2,677.6,769.2,677.6
			S769.2,677.6,769.2,677.6z"/>
		<path class="st0" d="M761,719.4c-4.6-0.1-11-2.2-14.6-11.5c-0.4-1.1,0.1-2.3,1.2-2.7c1.1-0.4,2.3,0.1,2.7,1.2
			c1.8,4.6,4.6,7.5,8.1,8.5c5,1.4,10.2-1.3,11.1-1.9c0.6-0.6,1.6-0.8,2.4-0.5c1.1,0.5,1.5,1.7,1.1,2.8c-0.7,1.6-6.4,4.1-11.6,4.1
			C761.3,719.4,761.2,719.4,761,719.4z M769.1,713.5C769.1,713.5,769.1,713.5,769.1,713.5C769.1,713.5,769.1,713.5,769.1,713.5z
			 M769.1,713.5C769.1,713.5,769.1,713.5,769.1,713.5C769.1,713.5,769.1,713.5,769.1,713.5z"/>
		
			<ellipse transform="matrix(0.103 -0.9947 0.9947 0.103 -4.7836 1329.5284)" class="st0" cx="734.8" cy="667.4" rx="8.8" ry="7.6"/>
		<circle class="st2" cx="732.9" cy="664.8" r="3.5"/>
		
			<ellipse transform="matrix(0.103 -0.9947 0.9947 0.103 44.9493 1397.6572)" class="st0" cx="797.4" cy="673.9" rx="8.8" ry="7.6"/>
		<circle class="st2" cx="795.5" cy="671.3" r="3.5"/>
		<path class="st4" d="M853.4,856.7c0,3.7,0,7.4-0.1,11.3c-0.1,6.1-0.1,12.4-0.2,18.8c-0.1,3.8-0.1,7.6-0.2,11.4
			c-0.1,4.9-0.2,9.9-0.3,14.8c0,0.6,0,1.2,0,1.8c-0.1,2.6-0.1,5.1-0.2,7.7c0,1-0.1,2.1-0.1,3.1c-0.1,2.8-0.2,5.6-0.2,8.4
			c-0.2,6.4-0.4,12.8-0.6,18.9c-0.1,4-0.3,7.8-0.4,11.6c-1.1,31.7-2.3,55.1-2.3,55.1l-28.1,7.8c-47.9,13.3-101.9,47.4-146.1,24.6
			c0,0,1.1-51.1-1.2-69.3c-0.4-3.4-0.9-7.1-1.4-11c-0.9-7.1-1.8-14.8-2.8-23c-0.4-3.6-0.9-7.3-1.3-11.1c-0.4-3.7-0.8-7.4-1.2-11.2
			v-0.1c-0.1-1.4-0.3-2.7-0.4-4.1h0c-0.4-3.3-0.7-6.7-1-10.1c-0.4-3.7-0.7-7.4-1.1-11.1c-0.7-7.7-1.4-15.3-2-22.9
			c-0.3-3.8-0.6-7.5-0.8-11.2c-0.7-9.5-1.2-18.7-1.5-27.3c-0.1-3.9-0.2-7.6-0.3-11.2c-0.1-8,0-15.2,0.4-21.4c0.3-4,0.7-7.6,1.2-10.6
			c0.8-4.5,2-7.8,3.5-9.6c5.9-6.8,12-10.2,17.8-12.2h0c8.9-3.1,17.3-3.2,24.3-7.8c1.5-1,2.9-2.1,4.2-3.5
			c11.8-12.7,15.5-24.4,15.5-24.4c1.4,0.9,28.3,19.4,49.4,10.1c0,0-5.9,19.4,12.6,21.1c5.5,0.5,12.7,0.6,20.2,1.3
			c14.5,1.3,30.3,4.5,38.2,16.4c0.1,0.1,0.1,0.1,0.1,0.2c1,1.4,1.8,3,2.5,4.7c0.1,0.2,0.1,0.3,0.2,0.5c0,0,0,0,0,0s0,0,0,0
			c0.4,1,0.7,2,1,3c0.5,1.6,0.8,3.8,1.2,6.6c0.6,4.7,1,11,1.3,18.4c0.1,3.5,0.2,7.3,0.3,11.3C853.4,839.9,853.5,848,853.4,856.7z"/>
		<path class="st0" d="M751.3,784.4c-7.2,0-13.8-1.7-19-4.1c-4-1.9-8.4-5-8.8-8c-0.1-0.8,0.5-1.4,1.2-1.5c0.8-0.1,1.4,0.5,1.5,1.2
			c0.1,1,2.2,3.4,7.2,5.8c10.1,4.8,26.2,6.5,41.2-3.1c0.6-0.4,1.5-0.2,1.9,0.4c0.4,0.6,0.2,1.5-0.4,1.9
			C767.8,782.3,759.2,784.4,751.3,784.4z"/>
		<path class="st0" d="M697.5,650.9l2.3,24.4c0,0,26.1-64.7,27.4-63.7c1.3,1,94.9,39.9,94.9,39.9s13.9-71-65.8-68.6
			C676.7,585.1,697.5,650.9,697.5,650.9z"/>
		<path class="st2" d="M811,771.6c0,0,58,6,70.8,51.2c15.1,53.6,18.5,82.3,18.5,82.3l-58.5,9.1L811,771.6z"/>
		
			<rect x="805.3" y="796.5" transform="matrix(0.9987 -5.023726e-02 5.023726e-02 0.9987 -43.3735 44.937)" class="st0" width="134" height="177.6"/>
		<path class="st3" d="M893.5,775.2c-2.2-12.6-13.5-21.9-26.6-21.2c-6.6,0.3-12.4,3.1-16.7,7.4c-4.4,4.3-7.2,10.1-7.6,16.4l-19.2,1
			l1.9,38l89.5-4.5l-1.9-38L893.5,775.2z M868.6,787.6c-5.9,0.3-10.9-4.2-11.2-10.1c-0.3-5.9,4.2-10.9,10.1-11.2
			c5.9-0.3,10.9,4.2,11.2,10.1C879,782.3,874.4,787.3,868.6,787.6z"/>
		<path class="st1" d="M842.6,864.7c-5.3-7.1-29.2,3.5-29.2,3.5s14.4-6.4,11.6-13.1c-2.8-6.7-14.5,1.8-18.7,5.3
			c-4.2,3.5-16.2,32.3-16.2,32.3l-138.2,35.6c0,0,89.5-116.2,43.2-136.7c-31.3-13.8-46.9,8.8-53.8,25c-4.7,11.1-9.9,22-16,32.4
			c-19.3,32.9-53.2,101.2-20.5,127.3c43.9,34.9,194.3-52.9,194.3-52.9s44.6-14.2,51-18.8C856.4,900.1,847.9,871.8,842.6,864.7z"/>
		<path class="st4" d="M582.8,895.3c0-3.2,85.2,17.8,85.2,17.8s95.2-115.3,18.8-132.6S582.8,898,582.8,895.3z"/>
		<path class="st3" d="M674.5,915.4c-0.3,0-0.7-0.1-0.9-0.4c-0.5-0.5-0.5-1.3,0-1.8c0.3-0.3,33.4-33.4,40.7-80.9
			c2.6-17.2-0.6-29.8-9.7-37.5c-7.4-6.3-16.9-7.8-21.5-8.5c-2.3-0.4-3.2-0.5-3.7-1.1c-0.5-0.5-0.4-1.3,0.1-1.8
			c0.5-0.4,1.1-0.4,1.6-0.1c0.3,0.1,1.4,0.3,2.4,0.4c4.8,0.8,14.8,2.3,22.7,9.1c9.8,8.3,13.3,21.7,10.5,39.8
			c-3.9,25.3-14.9,46.3-23.5,59.5c-9.3,14.3-17.8,22.7-17.9,22.8C675.2,915.3,674.9,915.4,674.5,915.4z M681.3,783.5
			C681.3,783.5,681.3,783.5,681.3,783.5C681.3,783.5,681.3,783.5,681.3,783.5z"/>
		<g>
			<path class="st1" d="M717.2,1677.8c-5.7-3.8-13.5-14.7-20.9-26.5c-11.1-17.9-21.1-37.9-21.1-37.9s41-38.3,42.2-42.7
				c1.2-4.3,18.4,23.3,19.9,24.6c0.7,0.6,18-4.3,38.5-8.8c26.2-5.7,57.6-10.9,66.5-3.4C858.4,1596.5,731.7,1687.3,717.2,1677.8z"/>
			<path class="st0" d="M717.2,1677.8c-5.7-3.8-13.5-14.7-20.9-26.5c25.1-8.2,77.9-35.4,81.2-48.7c1.7-6.7,0.4-12-1.7-16.1
				c26.2-5.7,57.6-10.9,66.5-3.4C858.4,1596.5,731.7,1687.3,717.2,1677.8z"/>
			<path class="st1" d="M524.7,1718.5c-2.1-6.5-1.3-19.9,0.5-33.7c2.7-20.9,7.4-42.7,7.4-42.7s56-4,59.7-6.6
				c3.6-2.6-0.4,29.7,0,31.6c0.1,0.9,16.7,8,35.5,17.4c23.9,12,51.6,27.8,53.8,39.3C685.5,1744.2,530,1735,524.7,1718.5z"/>
			<path class="st0" d="M524.7,1718.5c-2.1-6.5-1.3-19.9,0.5-33.7c24.7,9.4,82.8,21.5,93.8,13.3c5.5-4.2,7.9-9.1,8.8-13.6
				c23.9,12,51.6,27.8,53.8,39.3C685.5,1744.2,530,1735,524.7,1718.5z"/>
		</g>
		<circle class="st0" cx="475.9" cy="1734.8" r="27.5"/>
		<circle class="st0" cx="266.8" cy="1734.8" r="27.5"/>
		
			<rect x="358.1" y="1405.5" transform="matrix(-1 -7.655267e-11 7.655267e-11 -1 742.6653 2987.4563)" class="st0" width="26.5" height="176.5"/>
		<circle class="st0" cx="371.3" cy="1736.8" r="27.5"/>
		<rect x="260.6" y="1201.9" class="st0" width="22.4" height="207.5"/>
		<polygon class="st0" points="772.5,1572.2 640.6,1643.6 519.9,1420.7 628.5,1361.9 		"/>
		<path class="st3" d="M491.6,1469.3H274.4c-19.6,0-35.5-15.9-35.5-35.5v-4.9c0-19.6,15.9-35.5,35.5-35.5h217.2
			c19.6,0,35.5,15.9,35.5,35.5v4.9C527.1,1453.4,511.2,1469.3,491.6,1469.3z"/>
		<path class="st2" d="M486.8,1317.8c-2.5-34.9-22.4-160.6-22.4-160.6c77.3-7.9,8.5-99.3-19.4-148.8c-0.2-0.4-0.6-0.7-0.9-1
			c-16.4-18.2-39-29.8-63.3-32.1c-13.6-1.3-16.3-5.6-26.3,2.3c-11.3,8.9-29.4,32.4-33.1,55c-14.1,86.5-0.4,279.2-2.9,285.2H486.8z"
			/>
		<path class="st1" d="M448,825.3c0,0,7.4,6.7,9.1,22c1.8,15.3,11.4,37.7,26.1,44.7l-8.1,14c0,0,1.6,46-24.3,50.6
			c-25.9,4.6-30.6,0.7-30.6,0.7l-10.3,37.3c-4.1,15-19.4,24.1-34.6,20.6h0c-16.8-3.9-26.6-21.5-21-37.8
			c8.3-24.3,18.6-54.4,18.7-55.6c0.2-2.1-27-44.4,7.5-75C415.1,816.3,448,825.3,448,825.3z"/>
		<path class="st0" d="M387.3,910.7l0.2-5.8c0,0-27.2-21.6-15.1-41.4c12.2-19.8,20.7,7.7,20.7,7.7l79.8-22.8c0,0-1.9-69.6-85.5-55.7
			s-67.6,94.7-58.2,116.1c9.4,21.3,34.4,44.3,34.4,44.3h0C378,943.6,386.8,927.8,387.3,910.7z"/>
		<ellipse transform="matrix(0.9698 -0.244 0.244 0.9698 -201.8269 134.6948)" class="st0" cx="442.8" cy="882" rx="7.4" ry="8.5"/>
		<circle class="st2" cx="444.2" cy="879.3" r="3.4"/>
		<path class="st0" d="M447.4,934.5c-3.2-2.3-5.5-6.4-5.2-7.8c0.2-0.9,1-1.4,1.9-1.2c0.7,0.1,1.2,0.7,1.3,1.4
			c0.3,0.8,2.2,4.7,5.9,6.2c2.6,1,5.6,0.5,8.8-1.5c0.8-0.5,1.7-0.2,2.2,0.5c0.5,0.8,0.2,1.7-0.5,2.2c-6.5,4.1-11.3,2.5-14.2,0.4
			C447.5,934.6,447.4,934.5,447.4,934.5z M445.3,927.4C445.3,927.4,445.3,927.4,445.3,927.4C445.3,927.4,445.3,927.4,445.3,927.4z
			 M445.3,927.4C445.3,927.4,445.3,927.4,445.3,927.4C445.3,927.4,445.3,927.4,445.3,927.4z"/>
		<path class="st0" d="M428.6,876.7c-0.5,0.1-1,0-1.4-0.3c-1.2-0.6-1.6-2-1-3.2c0.3-0.5,7.1-12.9,22.6-11c1.3,0.2,2.2,1.3,2,2.6
			c-0.2,1.3-1.3,2.2-2.6,2c-12.4-1.6-17.8,8.4-17.9,8.5C430,876.2,429.3,876.6,428.6,876.7z"/>
		<path class="st1" d="M344.9,1039c-0.3,0-0.4,0-0.5,0c0,0,0,0,0,0C344.5,1039,344.7,1039,344.9,1039z"/>
		<path class="st0" d="M507.2,1298.2H316.9v0c0,63.8,51.8,115.6,115.6,115.6h62.8l-24.1,236.4h170.1v-236.4v0
			c0-63.8-51.8-115.6-115.6-115.6H507.2z"/>
		<path class="st3" d="M641.3,1633.3c-1,0-1.7-0.8-1.7-1.7v-225.8c0-1,0.8-1.7,1.7-1.7s1.7,0.8,1.7,1.7v225.8
			C643,1632.5,642.3,1633.3,641.3,1633.3z"/>
		<path class="st3" d="M272.4,1233.6h-1.2c-17.2,0-31.2-14-31.2-31.2v-127.4c0-17.2,14-31.2,31.2-31.2h1.2c17.2,0,31.2,14,31.2,31.2
			v127.4C303.6,1219.6,289.6,1233.6,272.4,1233.6z"/>
		<path class="st3" d="M440.8,1734.8h70.1c0-16-10.7-29.5-25.4-33.7v-21.4l-86.4-54.5v-43h-55.5v43l-86.4,54.5v21.4
			c-14.7,4.2-25.4,17.7-25.4,33.7h70.1c0-16.2-11-29.9-26-33.9v-7.2l84.5-53.3v63c-14,4.6-24.1,17.8-24.1,33.3h70.1
			c0-15.5-10.1-28.7-24.1-33.3v-63l84.5,53.3v7.2C451.8,1704.9,440.8,1718.6,440.8,1734.8z"/>
		<path class="st0" d="M364.7,822c0,0-48.6-56.2-88-12.5c-39.4,43.7-26.5,131.6-99.9,150.3c-41.6,10.6-60.8,82.7-28.1,113.5
			c45.2,42.5,131-16.1,129-16.7c-2.1-0.5-72.3-27.3-23.8-52.5c48.5-25.3,35.9-164.2,54.3-167c18.4-2.8,44.7,2.3,44.7,2.3L364.7,822z
			"/>
		<path class="st1" d="M598.9,1284.7c0,0,7.7,4.3,3.5,10.9c-4.2,6.6-7.4,3.6-7.4,3.6s3.8,13.6-11.4,11.1c0,0,3.3,8.9-11.5,7.3
			c-14.8-1.6-33-5.3-33-5.3s-15.9,13.4-25.6,10.7c-9.7-2.6-14.4-5.9-15.6-5.4c-1.1,0.6-87.3,15.6-109.3-15.1
			c-21.9-30.6-24-146-24-146l49.4-3.8l10.1,117l88.4,11c0,0,33.2-24.6,45.6-22.2c7.1,1.4,21.1,6.4,31.6,10.5
			c7.7,3,13.6,5.4,13.6,5.4s0.2,0.4,0.5,1C604.7,1277.7,606.3,1283.3,598.9,1284.7z"/>
		<path class="st0" d="M559.3,1271.9c0.2,0.4,0.5,0.7,1,0.9c13.5,4.8,33.9,12.1,35.2,12.7c0.8,0.4,1.8,0.1,2.3-0.7
			c0.5-0.8,0.2-1.9-0.6-2.4c-0.2-0.1-0.7-0.4-35.7-12.9c-0.9-0.3-1.9,0.1-2.2,1.1C559.1,1271,559.1,1271.5,559.3,1271.9z"/>
		<path class="st0" d="M555.9,1283.9c0.2,0.4,0.5,0.7,0.9,0.8c13.2,5.5,33.1,13.8,34.2,14.3c0.8,0.4,1.8,0.1,2.3-0.7
			c0.5-0.8,0.2-1.9-0.6-2.4c-0.1-0.1-0.5-0.3-34.5-14.4c-0.9-0.4-1.9,0.1-2.3,0.9C555.6,1282.9,555.7,1283.5,555.9,1283.9z"/>
		<path class="st0" d="M340.5,1156.8c-0.3-0.1-0.6-0.3-0.8-0.6c-0.4-0.7-9.6-16.4-6.6-46.9c0.1-0.8,0.8-1.4,1.7-1.4
			c0.8,0.1,1.4,0.8,1.4,1.7c-2.6,25.8,4,40.9,5.7,44.3l82.9-1.2c8.8-55.3,4.3-89.2,4.2-89.5c-0.1-0.8,0.5-1.6,1.3-1.7
			c0.8-0.1,1.6,0.5,1.7,1.3c0,0.3,4.7,35.1-4.4,91.7c-0.1,0.7-0.7,1.3-1.5,1.3l-85.1,1.3C340.9,1156.9,340.7,1156.9,340.5,1156.8z"
			/>
		<path class="st0" d="M545,1295.4c0.2,0.4,0.5,0.7,0.9,0.8c13.2,5.5,33.1,13.8,34.2,14.3c0.8,0.4,1.8,0.1,2.3-0.7
			c0.5-0.8,0.2-1.9-0.6-2.4c-0.1-0.1-0.5-0.3-34.5-14.4c-0.9-0.4-1.9,0.1-2.3,0.9C544.8,1294.5,544.8,1295,545,1295.4z"/>
	</g>
</g>
<g id="Layer_10">
</g>
</svg>
