<?xml version="1.0" encoding="utf-8"?>
<!-- Generator: Adobe Illustrator 23.0.5, SVG Export Plug-In . SVG Version: 6.00 Build 0)  -->
<svg version="1.1" xmlns="http://www.w3.org/2000/svg" xmlns:xlink="http://www.w3.org/1999/xlink" x="0px" y="0px"
	 viewBox="0 0 2000 2000" style="enable-background:new 0 0 2000 2000;" xml:space="preserve">
<style type="text/css">
	.st0{fill:#252734;}
	.st1{fill:#F1BAA4;}
	.st2{fill:#EFDDBF;}
	.st3{fill:#445E77;}
	.st4{fill:#E66F55;}
</style>
<g id="Layer_1">
	<g>
		<path class="st0" d="M352.9,1425.2c0,2.9,0,50.8,0,50.8s-29.2,10.1-67.5,16.8s-64.6-0.5-65.1,0c-0.5,0.5-3.8-17.2,10.1-25.9
			c13.9-8.6,52.7-24.4,52.7-24.4s3.8-23,5.3-23C289.7,1419.5,352.9,1425.2,352.9,1425.2z"/>
		<path class="st0" d="M492,1425.2c0,2.9,0,50.8,0,50.8s29.2,10.1,67.5,16.8c38.3,6.7,64.6-0.5,65.1,0c0.5,0.5,3.8-17.2-10.1-25.9
			c-13.9-8.6-52.7-24.4-52.7-24.4s-3.8-23-5.3-23S492,1425.2,492,1425.2z"/>
		<path class="st0" d="M302.3,727c0,0-10.4,65.3-13.3,151c-3,85.7-15.8,552.3-15.8,552.3s65.8,21.7,90-5.9c0,0,2.5-522.8,40.9-531.6
			s80.7,533.6,80.7,533.6s48.2,20.7,88.6-8.9c0,0-57.1-668.8-78.7-693.3c-21.7-24.4-121.1-33.3-125-31.3
			C365.8,694.9,302.3,727,302.3,727z"/>
		<path class="st1" d="M583,602.3c0.6-0.7,10.4,11.9,10.4,11.9s31.6-74.1,40.9-83c0,0,2.8-68.5-5.6-81.6
			c-8.4-13.1,13.1-7.5,15.5,5.6c2.3,13.1,3.8,21.1,3.8,21.1s55.3-45.9,59.1-40.5s-32.8,32.6-29.5,37.3c3.3,4.7,50.2-25.7,55.8-14.7
			c5.6,11-47.8,22.2-46.9,28.8c0.9,6.6,53.9-8.9,54.9,2.3c0.9,11.3-53.9,5.6-53.5,13.6c0.5,8,46.4,2.3,43.1,10.8
			c-3.3,8.4-39.4,5.6-39.4,5.6s-21.6,20.6-32.8,21.6c0,0-10.3,95.7-37.5,117.2c-27.2,21.6-51,20.6-79.4-26.3S583,602.3,583,602.3z"
			/>
		<path class="st0" d="M440.3,326.7c0,0,14.9-42.5-2.8-72.1s-40.8-10.9-40.8-10.9s-60.3-15.2-86.8-3.1
			c-26.4,12.1-13.9,38.7-13.9,38.7l137.1,58L440.3,326.7z"/>
		<rect x="353.3" y="398.3" class="st1" width="43.5" height="82.6"/>
		<path class="st2" d="M505.6,661.3c-2.8,34.8-6.7,61-10.8,62.9c-12.6,6-174.5,15.9-198.9,0c-5.9-3.8-8.9-5.8-10.1-8.1
			c-1.8-3.2-0.2-6.9,1.2-17.2l0-0.2c0.6-4.8,1.2-11.1,1.3-19.3c0.2-13.2-0.7-31.6-4.2-57.7c-13.9-102.4-35.7-136.8-21.2-145.4
			c4.7-2.8,12-5.2,20.2-7.1c9.3-2.2,19.8-3.9,29.3-5c8.2-1,15.8-1.6,21.2-1.8c1.3-0.1,63.4-1.9,112.1,0.2c11.8,0.5,22.8,1.3,32,2.3
			c12.2,1.4,21.2,3.4,24.5,6.1C512.7,480,511.4,589.2,505.6,661.3z"/>
		<path class="st1" d="M296.9,316.4c1.1,2.7-7.4,105.2,61.1,97.7c0,0,46.7,5.2,65.9-48.7c0,0,19.7,0.3,24.4-20.4
			s-10.1-29.2-21.2-18.6c0,0-7.2-63.2-63.9-62.2S296.9,316.4,296.9,316.4z"/>
		<path class="st2" d="M502,471.1c0,0,66,57,91.4,118.1c0,0-28.2,42.1-61.5,44.9c0,0-43.9-41.6-41.6-42.1
			C492.6,591.5,502,471.1,502,471.1z"/>
		<path class="st2" d="M335.5,441c4.1-5,11.2-6.4,17.1-3.9c4.9,2.1,10.9,5.1,13.4,7.6c4.8,4.8,6.3,35.9,0,36.2
			c-6.3,0.3-40-6-37.6-19.2C329.3,457.3,333.4,443.5,335.5,441z"/>
		<path class="st2" d="M408.1,441c-4.1-5-11.2-6.4-17.1-3.9c-4.9,2.1-10.9,5.1-13.4,7.6c-4.8,4.8-6.3,35.9,0,36.2
			c6.3,0.3,37.8-7.1,35.4-20.2C412.1,456.3,410.1,443.5,408.1,441z"/>
		<path class="st0" d="M427.1,326.5l-3.5,21.3c0,0-18.2-40.3-20.6-59c0,0-69.6,38-74.6,8.6c0,0-16.8,35.4-36.3,32.8
			c-19.5-2.6-11-55.8,34.9-72.6s85.5-6.7,100.2,15.8S425,328.2,427.1,326.5z"/>
		<path class="st0" d="M399.9,331.1c-0.3,0-0.7-0.1-0.9-0.3c-7.4-6.3-14-3.2-16.8-1.9c-1.1,0.5-2,0.9-2.8,0.2
			c-0.6-0.5-0.7-1.4-0.1-2c0.3-0.3,0.7-0.5,1.1-0.5c0,0,0,0,0,0c0.2-0.1,0.4-0.2,0.7-0.3c3-1.4,11.1-5.2,19.9,2.3
			c0.6,0.5,0.7,1.4,0.1,2C400.7,331,400.3,331.1,399.9,331.1z"/>
		<path class="st0" d="M311.3,338.8c-0.3,0-0.6-0.1-0.8-0.3c-0.6-0.5-0.8-1.3-0.3-2c0.1-0.1,7.8-10.4,21.1-6.7c0.7,0.2,1.2,1,1,1.7
			c-0.2,0.7-1,1.2-1.7,1c-11.5-3.2-18,5.6-18.1,5.7C312.2,338.6,311.8,338.8,311.3,338.8z"/>
		<path class="st0" d="M357.8,384.5c-1.6,0-5.9-0.6-9-6.8c-3-6.1,2.4-14.7,4.7-18.4c0.3-0.5,0.6-0.9,0.7-1.2c0.1-0.6,0.6-1,1.2-1
			c0.8-0.1,1.5,0.5,1.5,1.3c0.1,0.6-0.2,1-1.1,2.4c-1.9,3-6.9,11-4.6,15.7c2.8,5.6,6.5,5.2,6.6,5.2c0.7-0.1,1.5,0.4,1.6,1.2
			c0.1,0.8-0.4,1.5-1.2,1.6C358.4,384.4,358.2,384.5,357.8,384.5z M355.6,358.6L355.6,358.6L355.6,358.6z"/>
		<path class="st0" d="M361.5,400.6c-5.4,0-10.6-2.7-11.1-3.8c-0.3-0.7,0-1.5,0.7-1.9c0.6-0.3,1.2-0.1,1.6,0.4
			c0.8,0.6,6.4,3.5,11.8,2.1c4-1,7-4.1,9-9.2c0.3-0.7,1.1-1.1,1.8-0.8c0.7,0.3,1.1,1.1,0.8,1.8c-3.6,9.2-9.8,11.2-14.3,11.3
			C361.7,400.6,361.6,400.6,361.5,400.6z"/>
		<ellipse transform="matrix(0.9947 -0.103 0.103 0.9947 -33.8123 41.9068)" class="st0" cx="388.7" cy="348.2" rx="7.8" ry="9"/>
		<circle class="st2" cx="390.7" cy="345.6" r="3.6"/>
		<ellipse transform="matrix(0.9947 -0.103 0.103 0.9947 -34.8371 35.341)" class="st0" cx="324.7" cy="354.9" rx="7.8" ry="9"/>
		<circle class="st2" cx="326.6" cy="352.2" r="3.6"/>
		<path class="st2" d="M259.6,479.5l-64,108.8c0,0,22,50.4,57.2,42.4c0,0,37.6-45.6,39.2-45.2C293.5,585.9,259.6,479.5,259.6,479.5z
			"/>
		<path class="st2" d="M396.7,823.5c-1.6,0-3.2-0.1-4.8-0.4c-0.8-0.1-1.3-0.8-1.2-1.6c0.1-0.8,0.8-1.3,1.6-1.2
			c7.5,1.2,13.8-0.7,18.5-5.6c14.7-15.2,11.1-53.1,11-53.5c-0.2-0.8,0.3-1.5,1.1-1.7c0.7-0.2,1.5,0.3,1.7,1.1
			c0.1,0.4,4,39.6-11.7,56C408.6,821.2,403.1,823.5,396.7,823.5z"/>
		<path class="st2" d="M392.1,872.3C392.1,872.3,392.1,872.3,392.1,872.3c-0.8,0-1.4-0.6-1.4-1.4c0.1-36.9,0.2-107.5,0-109.8
			c-0.1-0.8,0.5-1.5,1.3-1.5c0.8-0.1,1.5,0.5,1.5,1.3c0.3,3.1,0,105.7,0,110.1C393.6,871.7,392.9,872.3,392.1,872.3z"/>
		<path class="st2" d="M409.5,753.5c-36.8,0-73.4-2.9-90.2-4.3c-4.2-0.3-7.2-0.6-7.9-0.6c-0.8,0-1.4-0.6-1.4-1.4
			c0-0.8,0.6-1.4,1.4-1.4c0.8,0,3.6,0.2,8.2,0.6c78.9,6.3,134.1,5.5,164.1-2.5c0.8-0.2,1.5,0.2,1.7,1c0.2,0.7-0.2,1.5-1,1.7
			C464.7,751.9,437.1,753.5,409.5,753.5z"/>
		<path class="st0" d="M349.3,483.1c4.1-2.2,55.3-3.9,55.3-2.2s-23.5,37.9-23.5,37.9L349.3,483.1z"/>
		<path class="st0" d="M393.2,497.3c0,2.7,26.8,174.6,26.8,174.6s-32.3,45.8-34.2,46.5c-1.9,0.8-43.1-44.2-43.1-44.2L365.4,495
			L393.2,497.3z"/>
		
			<rect x="148.4" y="372.4" transform="matrix(0.8746 -0.4848 0.4848 0.8746 -192.7981 157.4987)" class="st0" width="119.4" height="158.3"/>
		<path class="st3" d="M181.9,355c-6.7-9.2-19.4-12.2-29.7-6.5c-5.1,2.8-8.7,7.3-10.5,12.5c-1.8,5.1-1.8,10.9,0.4,16.2l-15,8.3
			l16.5,29.7l69.8-38.7l-16.5-29.7L181.9,355z M166.8,374.7c-4.6,2.5-10.4,0.9-12.9-3.7s-0.9-10.4,3.7-12.9
			c4.6-2.5,10.4-0.9,12.9,3.7S171.4,372.2,166.8,374.7z"/>
		<path class="st1" d="M200.3,597.2l-8,11.3c0,0-2-19.3-13.8-48.4c-11.9-29.1-23.2-38-18.8-45.9c4.4-7.9,38.2-22.2,35.9-38.5
			s-13.7-30.6-28-26.2c-14.3,4.4-19.3,7-19.3,7s5.4-27.3-3-25.8c-8.4,1.5-8.9,33.1-9.9,58.8c-1,25.7-1,25.7-1,25.7
			s-1,101.8,23.2,130.9s51.9,26.2,68.2,8.9c16.3-17.3,17.9-23.4,17.9-23.4L200.3,597.2z"/>
		<path class="st0" d="M155.8,468.6c-0.6,0-1.1-0.4-1.3-0.9c-0.3-0.7,0.1-1.5,0.9-1.8l24.7-8.5c0.7-0.3,1.5,0.1,1.8,0.9
			c0.3,0.7-0.1,1.5-0.9,1.8l-24.7,8.5C156.1,468.6,156,468.6,155.8,468.6z"/>
		<path class="st0" d="M159.9,478.4c-0.6,0-1.1-0.4-1.3-1c-0.2-0.7,0.2-1.5,0.9-1.8l26.5-8.6c0.7-0.2,1.5,0.2,1.8,0.9
			c0.2,0.7-0.2,1.5-0.9,1.8l-26.5,8.6C160.1,478.4,160,478.4,159.9,478.4z"/>
		<path class="st0" d="M169.8,489.3c-0.5,0-1-0.3-1.3-0.8c-0.3-0.7,0-1.5,0.7-1.9l20.3-9.6c0.7-0.3,1.5,0,1.9,0.7
			c0.3,0.7,0,1.5-0.7,1.9l-20.3,9.6C170.2,489.3,170,489.3,169.8,489.3z"/>
		<g>
			
				<rect x="1656.8" y="1222.4" transform="matrix(-0.9994 3.472257e-02 -3.472257e-02 -0.9994 3421.3596 2507.356)" class="st1" width="64.2" height="122.1"/>
			<path class="st3" d="M1852.7,1484.2c-1,103-7.3,234.4-7.3,234.4l-53.8,15l-104,28.9l-3.5,1l-91.7-47.2l-16.3-8.4
				c0,0-5.8-40.2-12.2-93.6c-4.1-34.9-8.5-75.5-11.7-114.2c-5.7-70.1-15.3-129.3,3.6-146.8c23.6-21.9,81-25.3,84.2-25.8
				c26.8-4.1,11.3-37.1,11.3-37.1c0.3,0.2,76.7-0.5,79.3-1.7c0,0-8,30.8,13.2,37c1.9,0.6,4.1,1,6.4,1.2c21,1.9,56.6,0.3,79.1,15.4
				c0.4,0.2,0.8,0.5,1.2,0.8c8.1,5.7,14.5,13.7,17.6,24.9c0.5,1.8,1,4.1,1.4,6.9c0.8,5.3,1.5,12.4,1.9,20.7l0,0.8
				C1852.8,1418.3,1853,1449.7,1852.7,1484.2z"/>
			<path class="st0" d="M1792.9,1069.1c0.2-0.6,16.9-40-22.5-56.4c-39.7-16.6-128,9-128,9s-35-26.4-59.6,18.2
				c-20.1,36.4-7.7,84.4-2.4,100.8l23.7,63.9c31,78.5,104.4,66.7,104.4,66.7c79.6,5.9,85.9-85.6,85.6-127.4c2.5,0.4,5.1,0.4,7.6,0
				C1821.8,1140.5,1820,1100.3,1792.9,1069.1z"/>
			<path class="st4" d="M1702,1438.8L1702,1438.8c-99.7,0-180.4,80.8-180.4,180.4v237.6h360.9v-237.6
				C1882.5,1519.6,1801.7,1438.8,1702,1438.8z"/>
		</g>
		<g>
			
				<rect x="748.2" y="1222.4" transform="matrix(-0.9994 3.472257e-02 -3.472257e-02 -0.9994 1604.6825 2538.9053)" class="st1" width="64.2" height="122.1"/>
			<path class="st2" d="M944.1,1484.2c-1,103-7.3,234.4-7.3,234.4l-53.8,15l-104,28.9l-3.5,1l-91.7-47.2l-16.3-8.4
				c0,0-5.8-40.2-12.2-93.6c-4.1-34.9-8.5-75.5-11.7-114.2c-5.7-70.1-15.3-129.3,3.6-146.8c23.6-21.9,81-25.3,84.2-25.8
				c26.8-4.1,11.3-37.1,11.3-37.1c0.3,0.2,76.7-0.5,79.3-1.7c0,0-8,30.8,13.2,37c1.9,0.6,4.1,1,6.4,1.2c21,1.9,56.6,0.3,79.1,15.4
				c0.4,0.2,0.8,0.5,1.2,0.8c8.1,5.7,14.5,13.7,17.6,24.9c0.5,1.8,1,4.1,1.4,6.9c0.8,5.3,1.5,12.4,1.9,20.7l0,0.8
				C944.1,1418.3,944.4,1449.7,944.1,1484.2z"/>
			<path class="st4" d="M793.4,1438.8L793.4,1438.8c-99.7,0-180.4,80.8-180.4,180.4v237.6h360.9v-237.6
				C973.9,1519.6,893.1,1438.8,793.4,1438.8z"/>
			<path class="st0" d="M780.3,1008.3L780.3,1008.3c-62.3,0-112.8,50.5-112.8,112.8v150.2h225.7v-150.2
				C893.1,1058.8,842.6,1008.3,780.3,1008.3z"/>
		</g>
		
			<rect x="1202.5" y="1222.4" transform="matrix(-0.9994 3.472257e-02 -3.472257e-02 -0.9994 2513.021 2523.1306)" class="st1" width="64.2" height="122.1"/>
		<path class="st0" d="M1398.4,1484.2c-1,103-7.3,234.4-7.3,234.4l-53.8,15l-104,28.9l-3.5,1l-91.7-47.2l-16.3-8.4
			c0,0-5.8-40.2-12.2-93.6c-4.1-34.9-8.5-75.5-11.7-114.2c-5.7-70.1-15.3-129.3,3.6-146.8c23.6-21.9,81-25.3,84.2-25.8
			c26.8-4.1,11.3-37.1,11.3-37.1c0.3,0.2,76.7-0.5,79.3-1.7c0,0-8,30.8,13.2,37c1.9,0.6,4.1,1,6.4,1.2c21,1.9,56.6,0.3,79.1,15.4
			c0.4,0.2,0.8,0.5,1.2,0.8c8.1,5.7,14.5,13.7,17.6,24.9c0.5,1.8,1,4.1,1.4,6.9c0.8,5.3,1.5,12.4,1.9,20.7l0,0.8
			C1398.4,1418.3,1398.7,1449.7,1398.4,1484.2z"/>
		<path class="st4" d="M1247.7,1438.8L1247.7,1438.8c-99.7,0-180.4,80.8-180.4,180.4v237.6h360.9v-237.6
			C1428.2,1519.6,1347.4,1438.8,1247.7,1438.8z"/>
		<path class="st0" d="M1092.5,1074.1c3.7,11.2-8.7,20.3-16,29.4c-14.7,18.4-7.9,49.6,13,60.2c3.9,2,8.2,3.4,11.6,6.2
			c12.2,10.3,7.2,34.7,22,40.8c4.1,1.7,8.8,1.3,13.1,2.7c18.8,6.3,16.6,41.1,36.2,44.1c9.6,1.4,18.1-6.6,27.8-7.8
			c20.2-2.6,37.8,24.5,56.7,16.9c9.1-3.6,13.6-14,22-19c9.1-5.4,20.4-3.5,31-3c10.5,0.5,23.1-1.8,27.5-11.3c3.3-7.1,0.9-15.6,3.3-23
			c6.5-19.6,41.5-20.3,43.4-40.9c1.4-15.6-19.2-26.3-18.7-42c0.5-15.4,20.8-24.2,21.7-39.6c0.9-14.4-15.9-24.7-17-39.1
			c-0.8-10.2,6.5-19.2,8.4-29.3c2.3-12.3-4-25.2-13.9-32.8s-22.8-10.5-35.3-10.2c-6.9,0.2-14.1,1.2-20.5-1.3
			c-11.2-4.3-16.1-17-20.9-28c-4.8-11-13.3-22.9-25.3-22.3c-7.5,0.4-13.8,5.8-21.1,7.9c-14.6,4.2-29.2-5.5-42.5-12.8
			c-20.7-11.4-32.9,4.6-42.3,26.7c-7.7,18.2-42.7,10-49.4,28.5c-6.2,17.2,7.6,38.6-5.6,53.2c-6.1,6.8-19.3,11.5-21.1,21.6
			C1078.7,1061.3,1089.4,1064.7,1092.5,1074.1z"/>
		<rect x="798.1" y="143.2" class="st2" width="1025.6" height="632.6"/>
		<rect x="1402.6" y="351.3" class="st4" width="64.9" height="362.7"/>
		<rect x="1182.9" y="493.4" class="st4" width="64.9" height="220.6"/>
		<rect x="1292.7" y="424.3" class="st4" width="64.9" height="289.7"/>
		<rect x="1073" y="554.7" class="st4" width="64.9" height="159.3"/>
		<rect x="963.1" y="634.3" class="st4" width="64.9" height="79.7"/>
		<polygon class="st0" points="1710.9,220 1708.1,356.4 1676.7,330 1567.4,460 1567.4,625.7 1447.6,714 1307,714 1484,583.6 
			1484,429.6 1612.8,276.3 1577,246.2 		"/>
	</g>
</g>
<g id="Layer_2">
</g>
<g id="Layer_3">
</g>
<g id="Layer_4">
</g>
<g id="Layer_5">
</g>
<g id="Layer_6">
</g>
<g id="Layer_7">
</g>
<g id="Layer_8">
</g>
<g id="Layer_9">
</g>
<g id="Layer_10">
</g>
</svg>
