<?xml version="1.0" encoding="utf-8"?>
<!-- Generator: Adobe Illustrator 23.0.5, SVG Export Plug-In . SVG Version: 6.00 Build 0)  -->
<svg version="1.1" xmlns="http://www.w3.org/2000/svg" xmlns:xlink="http://www.w3.org/1999/xlink" x="0px" y="0px"
	 viewBox="0 0 2000 2000" style="enable-background:new 0 0 2000 2000;" xml:space="preserve">
<style type="text/css">
	.st0{fill:#252734;}
	.st1{fill:#F1BAA4;}
	.st2{fill:#EFDDBF;}
	.st3{fill:#445E77;}
	.st4{fill:#E66F55;}
</style>
<g id="Layer_1">
</g>
<g id="Layer_2">
</g>
<g id="Layer_3">
</g>
<g id="Layer_4">
	<g>
		<rect x="295.1" y="1655" class="st0" width="1504.9" height="52.8"/>
		<g>
			
				<rect x="1667.7" y="1360.1" transform="matrix(-0.9994 3.472257e-02 -3.472257e-02 -0.9994 3433.4966 2755.9219)" class="st1" width="50.2" height="95.4"/>
			<path class="st3" d="M1820.8,1564.7c-0.8,80.5-5.7,183.2-5.7,183.2l-42,11.7l-81.3,22.6l-2.8,0.8l-71.7-36.9l-12.8-6.6
				c0,0-4.5-31.4-9.5-73.1c-3.2-27.3-6.7-59-9.2-89.3c-4.5-54.8-12-101.1,2.8-114.7c18.5-17.1,63.3-19.8,65.8-20.2
				c20.9-3.2,8.9-29,8.9-29c0.3,0.2,59.9-0.4,62-1.3c0,0-6.2,24.1,10.4,28.9c1.5,0.5,3.2,0.8,5,0.9c16.4,1.5,44.2,0.3,61.8,12
				c0.3,0.2,0.6,0.4,0.9,0.6c6.3,4.5,11.3,10.7,13.8,19.5c0.4,1.4,0.8,3.2,1.1,5.4c0.6,4.2,1.1,9.7,1.5,16.2l0,0.6
				C1820.9,1513.3,1821.1,1537.8,1820.8,1564.7z"/>
			<path class="st0" d="M1774.1,1240.3c0.2-0.4,13.2-31.3-17.6-44.1c-31-12.9-100.1,7.1-100.1,7.1s-27.3-20.6-46.6,14.2
				c-15.7,28.4-6,65.9-1.9,78.8l18.5,49.9c24.2,61.4,81.6,52.2,81.6,52.2c62.2,4.6,67.1-66.9,66.9-99.6c2,0.3,4,0.3,6,0
				C1796.7,1296.1,1795.3,1264.6,1774.1,1240.3z"/>
			<path class="st4" d="M1703.1,1529.2L1703.1,1529.2c-77.9,0-141,63.1-141,141V1856h282.1v-185.7
				C1844.1,1592.4,1781,1529.2,1703.1,1529.2z"/>
		</g>
		
			<rect x="957.5" y="1360.1" transform="matrix(-0.9994 3.472257e-02 -3.472257e-02 -0.9994 2013.4059 2780.5837)" class="st1" width="50.2" height="95.4"/>
		<path class="st2" d="M1110.6,1564.7c-0.8,80.5-5.7,183.2-5.7,183.2l-42,11.7l-81.3,22.6l-2.8,0.8l-71.6-36.9l-12.8-6.6
			c0,0-4.5-31.4-9.5-73.1c-3.2-27.3-6.7-59-9.2-89.3c-4.5-54.8-12-101.1,2.8-114.7c11.2-10.3,32-15.4,47.2-17.9
			c10-1.6,17.6-2.1,18.5-2.3c20.9-3.2,8.9-29,8.9-29c0.3,0.2,59.9-0.4,62-1.3c0,0-6.2,24,10.4,28.9c1.5,0.5,3.2,0.8,5,0.9
			c4.9,0.5,10.7,0.7,17.1,1c15,0.9,32.4,2.7,44.8,11c0.3,0.2,0.6,0.4,0.9,0.6c6.3,4.5,11.3,10.7,13.8,19.5c0.4,1.4,0.8,3.2,1.1,5.4
			c0.6,4.2,1.1,9.7,1.5,16.2l0,0.6C1110.6,1513.3,1110.8,1537.8,1110.6,1564.7z"/>
		<path class="st4" d="M992.8,1529.2L992.8,1529.2c-77.9,0-141,63.1-141,141V1856h282.1v-185.7
			C1133.9,1592.4,1070.7,1529.2,992.8,1529.2z"/>
		<path class="st0" d="M982.6,1192.7L982.6,1192.7c-48.7,0-88.2,39.5-88.2,88.2v117.4h176.4v-117.4
			C1070.8,1232.2,1031.3,1192.7,982.6,1192.7z"/>
		
			<rect x="1312.6" y="1360.1" transform="matrix(-0.9994 3.472257e-02 -3.472257e-02 -0.9994 2723.4512 2768.2527)" class="st1" width="50.2" height="95.4"/>
		<path class="st0" d="M1465.7,1564.7c-0.8,80.5-5.7,183.2-5.7,183.2l-42,11.7l-81.3,22.6l-2.8,0.8l-71.7-36.9l-12.8-6.6
			c0,0-4.5-31.4-9.5-73.1c-3.2-27.3-6.7-59-9.2-89.3c-4.5-54.8-12-101.1,2.8-114.7c18.5-17.1,63.3-19.8,65.8-20.2
			c20.9-3.2,8.9-29,8.9-29c0.3,0.2,59.9-0.4,62-1.3c0,0-6.2,24.1,10.4,28.9c1.5,0.5,3.2,0.8,5,0.9c16.4,1.5,44.2,0.3,61.8,12
			c0.3,0.2,0.6,0.4,0.9,0.6c6.3,4.5,11.3,10.7,13.8,19.5c0.4,1.4,0.8,3.2,1.1,5.4c0.6,4.2,1.1,9.7,1.5,16.2l0,0.6
			C1465.8,1513.3,1466,1537.8,1465.7,1564.7z"/>
		<path class="st4" d="M1348,1529.2L1348,1529.2c-77.9,0-141,63.1-141,141V1856H1489v-185.7C1489,1592.4,1425.9,1529.2,1348,1529.2z
			"/>
		<path class="st0" d="M1226.6,1244.2c2.9,8.7-6.8,15.8-12.5,23c-11.5,14.3-6.2,38.7,10.2,47.1c3.1,1.6,6.4,2.6,9.1,4.8
			c9.6,8,5.7,27.1,17.2,31.9c3.2,1.3,6.9,1,10.2,2.1c14.7,4.9,13,32.2,28.3,34.5c7.5,1.1,14.2-5.1,21.7-6.1
			c15.8-2,29.5,19.1,44.3,13.2c7.1-2.8,10.6-11,17.2-14.9c7.1-4.2,16-2.7,24.2-2.3s18-1.4,21.5-8.8c2.6-5.5,0.7-12.2,2.6-18
			c5.1-15.3,32.4-15.9,33.9-32c1.1-12.2-15-20.6-14.6-32.8c0.4-12,16.3-19,17-30.9c0.7-11.3-12.4-19.3-13.3-30.6
			c-0.6-8,5.1-15,6.5-22.9c1.8-9.6-3.1-19.7-10.8-25.6c-7.7-6-17.8-8.2-27.6-8c-5.4,0.1-11,0.9-16-1c-8.8-3.3-12.6-13.3-16.4-21.9
			c-3.8-8.6-10.4-17.9-19.8-17.5c-5.9,0.3-10.8,4.5-16.5,6.2c-11.4,3.3-22.8-4.3-33.3-10c-16.2-8.9-25.7,3.6-33.1,20.8
			c-6,14.2-33.4,7.8-38.6,22.3c-4.8,13.4,6,30.2-4.3,41.6c-4.8,5.3-15.1,9-16.5,16.9C1215.9,1234.1,1224.2,1236.9,1226.6,1244.2z"/>
		
			<rect x="616.7" y="1360.1" transform="matrix(-0.9994 3.472257e-02 -3.472257e-02 -0.9994 1332.0474 2792.4165)" class="st1" width="50.2" height="95.4"/>
		<path class="st2" d="M769.8,1564.7c-0.8,80.5-5.7,183.2-5.7,183.2l-42,11.7l-81.3,22.6l-2.8,0.8l-71.7-36.9l-12.8-6.6
			c0,0-4.5-31.4-9.5-73.1c-3.2-27.3-6.7-59-9.2-89.3c-4.5-54.8-12-101.1,2.8-114.7c18.5-17.1,63.3-19.8,65.8-20.2
			c20.9-3.2,8.9-29,8.9-29c0.3,0.2,59.9-0.4,62-1.3c0,0-6.2,24.1,10.4,28.9c1.5,0.5,3.2,0.8,5,0.9c16.4,1.5,44.2,0.3,61.8,12
			c0.3,0.2,0.6,0.4,0.9,0.6c6.3,4.5,11.3,10.7,13.8,19.5c0.4,1.4,0.8,3.2,1.1,5.4c0.6,4.2,1.1,9.7,1.5,16.2l0,0.6
			C769.9,1513.3,770.1,1537.8,769.8,1564.7z"/>
		<path class="st0" d="M723,1240.3c0.2-0.4,13.2-31.3-17.6-44.1c-31-12.9-100.1,7.1-100.1,7.1s-27.3-20.6-46.6,14.2
			c-15.7,28.4-6,65.9-1.9,78.8l18.5,49.9c24.2,61.4,81.6,52.2,81.6,52.2c62.2,4.6,67.1-66.9,66.9-99.6c2,0.3,4,0.3,6,0
			C745.7,1296.1,744.3,1264.6,723,1240.3z"/>
		<path class="st4" d="M652,1529.2L652,1529.2c-77.9,0-141,63.1-141,141V1856h282.1v-185.7C793.1,1592.4,729.9,1529.2,652,1529.2z"
			/>
		
			<rect x="261.6" y="1360.1" transform="matrix(-0.9994 3.472257e-02 -3.472257e-02 -0.9994 622.002 2804.7476)" class="st1" width="50.2" height="95.4"/>
		<path class="st0" d="M414.7,1564.7c-0.8,80.5-5.7,183.2-5.7,183.2l-42,11.7l-81.3,22.6l-2.8,0.8l-71.7-36.9l-12.8-6.6
			c0,0-4.5-31.4-9.5-73.1c-3.2-27.3-6.7-59-9.2-89.3c-4.5-54.8-12-101.1,2.8-114.7c18.5-17.1,63.3-19.8,65.8-20.2
			c20.9-3.2,8.9-29,8.9-29c0.3,0.2,59.9-0.4,62-1.3c0,0-6.2,24.1,10.4,28.9c1.5,0.5,3.2,0.8,5,0.9c16.4,1.5,44.2,0.3,61.8,12
			c0.3,0.2,0.6,0.4,0.9,0.6c6.3,4.5,11.3,10.7,13.8,19.5c0.4,1.4,0.8,3.2,1.1,5.4c0.6,4.2,1.1,9.7,1.5,16.2l0,0.6
			C414.7,1513.3,414.9,1537.8,414.7,1564.7z"/>
		<path class="st4" d="M296.9,1529.2L296.9,1529.2c-77.9,0-141,63.1-141,141V1856H438v-185.7C438,1592.4,374.8,1529.2,296.9,1529.2z
			"/>
		<path class="st2" d="M375,1613.6H213.6v-315.9c0-44.5,36.1-80.7,80.7-80.7h0c44.5,0,80.7,36.1,80.7,80.7V1613.6z"/>
		<path class="st0" d="M1047.6,1442.7l-57.4,62.5l-64.5-60.8c10-1.6,17.6-2.1,18.5-2.3c20.9-3.2,8.9-29,8.9-29
			c0.3,0.2,59.9-0.4,62-1.3c0,0-6.2,24,10.4,28.9c1.5,0.5,3.2,0.8,5,0.9C1035.4,1442.2,1041.3,1442.4,1047.6,1442.7z"/>
		
			<rect x="421.7" y="259.1" transform="matrix(-0.9994 3.472257e-02 -3.472257e-02 -0.9994 887.5225 568.011)" class="st1" width="34.3" height="65.3"/>
		<path class="st2" d="M525.8,397.6c-0.6,55.4-3.9,126.2-3.9,126.2l-29,8.1l-56,15.5l-1.9,0.5l-49.3-25.4l-8.8-4.5
			c0,0-3.1-21.6-6.5-50.4c-2.2-18.8-4.6-40.7-6.3-61.5c-3.1-37.8-4-72.1,1.9-79c1.3-1.5,2.6-2.8,3.9-3.9
			c12.9-11.1,25.9-6.4,34.9-15.7c0.1-0.1,0.2-0.2,0.3-0.3c10-10.7,13.1-20.7,13.1-20.7c0.2,0.1,1,0.7,2.2,1.4
			c5.7,3.5,21.2,11.9,35.2,8.6c1.5-0.3,2.9-0.8,4.4-1.4c0,0-4.2,13.8,7.2,17.2c1,0.3,2.2,0.5,3.5,0.7c11.3,1,30.4,0.2,42.6,8.3
			c0.2,0.1,0.4,0.3,0.6,0.4c4.4,3.1,7.8,7.4,9.5,13.4c0.3,1,0.5,2.2,0.7,3.7c0.4,2.9,0.8,6.7,1,11.2l0,0.4
			C525.8,362.1,525.9,379,525.8,397.6z"/>
		<path class="st0" d="M376.9,517.9c0,0-81.7,592.5-78.2,593.7s8.1,30.3,66.3,4.7c0,0,71.3-402.6,78.3-398
			c7,4.7,21.4,400.6,21.4,400.6s20,25.1,70.1-0.5c0,0,7.3-558.5-13-594.6L376.9,517.9z"/>
		<path class="st0" d="M381.8,218.5c0,0-13-33.2,0.2-57s31.9-9.7,31.9-9.7s47.2-13.7,68.4-4.8s12,30.2,12,30.2l-106.7,49.6
			L381.8,218.5z"/>
		<path class="st1" d="M494.7,206.4c-0.8,2.1,8.8,82.8-45.6,78.9c0,0-36.8,5.4-53.3-36.6c0,0-15.5,0.8-19.9-15.4
			c-4.3-16.2,7.2-23.3,16.3-15.3c0,0,3.9-50.1,48.7-50.8S494.7,206.4,494.7,206.4z"/>
		<path class="st0" d="M392.2,217.9l3.3,16.7c0,0,13.3-32.3,14.7-47.2c0,0,56,28.1,59.2,4.8c0,0,14.2,27.5,29.6,24.9
			s7.1-44.4-29.5-56.4s-67.7-3-78.7,15.2S394,219.3,392.2,217.9z"/>
		<path class="st0" d="M413.9,220.9c0.3,0,0.5-0.1,0.7-0.3c5.6-5.2,11-2.9,13.2-2c0.9,0.4,1.6,0.7,2.2,0.1c0.5-0.4,0.5-1.1,0.1-1.6
			c-0.2-0.2-0.5-0.4-0.9-0.4c0,0,0,0,0,0c-0.1,0-0.3-0.1-0.5-0.2c-2.4-1-8.9-3.8-15.6,2.4c-0.5,0.4-0.5,1.1-0.1,1.6
			C413.2,220.8,413.6,220.9,413.9,220.9z"/>
		<path class="st0" d="M484,224.5c0.2,0,0.5-0.1,0.6-0.2c0.5-0.4,0.6-1.1,0.2-1.6c-0.1-0.1-6.4-8-16.8-4.7c-0.6,0.2-0.9,0.8-0.7,1.4
			c0.2,0.6,0.8,0.9,1.4,0.7c9-2.8,14.4,3.9,14.4,4C483.3,224.4,483.7,224.5,484,224.5z"/>
		<path class="st0" d="M447.1,260.6c-0.1,0.6,0.4,1.2,1,1.2c0,0,0.2,0,0.5,0c1.3,0,4.6-0.6,6.9-5.6c2.2-4.9-2.3-11.6-4.2-14.4
			c-0.3-0.4-0.5-0.7-0.6-0.9c-0.1-0.4-0.5-0.8-1-0.8c-0.6,0-1.1,0.4-1.2,1c0,0.5,0.1,0.8,0.9,1.9c1.6,2.3,5.8,8.5,4.1,12.3
			c-2.1,4.5-5,4.3-5.1,4.3C447.7,259.5,447.2,260,447.1,260.6z"/>
		<path class="st0" d="M446.1,274.7c4.2-0.1,8.3-2.4,8.7-3.3c0.2-0.6,0-1.2-0.6-1.4c-0.5-0.2-1,0-1.3,0.3c-0.6,0.5-4.9,3-9.3,2
			c-3.2-0.7-5.6-3-7.4-7c-0.2-0.6-0.9-0.8-1.5-0.6c-0.6,0.2-0.8,0.9-0.6,1.5c3.1,7.1,8,8.6,11.6,8.5
			C445.9,274.7,446,274.7,446.1,274.7z"/>
		
			<ellipse transform="matrix(6.843802e-02 -0.9977 0.9977 6.843802e-02 160.6673 640.1967)" class="st0" cx="423.1" cy="234.1" rx="7.1" ry="6.2"/>
		<circle class="st2" cx="421.5" cy="232" r="2.8"/>
		
			<ellipse transform="matrix(6.843802e-02 -0.9977 0.9977 6.843802e-02 204.4845 694.0876)" class="st0" cx="473.9" cy="237.5" rx="7.1" ry="6.2"/>
		<circle class="st2" cx="472.3" cy="235.5" r="2.8"/>
		<path class="st3" d="M648.4,571.1c0,0-12.2,38.7-40.8,49.5c0,0-55.8-84.4-81-139l-0.4,11.9c0,0,22,137.5,22.8,140.6
			c0.8,3.1-49.3,4.6-49.3,4.6s0-0.5-0.1-1.4c-0.2,1.1-0.2,1.7-0.2,1.7L466,539.2l-30.5,98.7c0,0.5,0,0.8,0,0.8h-0.2l-0.1,0.3
			c0,0-0.3-0.1-0.8-0.3h-91.7l21.8-117.6l5.1-27.6l-1-14.2c-12.6-12.1-19.4-67-22.2-90.4c-1.5-12.4-3-29.3-0.5-42.6
			c0.9-5,2.4-9.5,4.7-13.1c3.3-5.3,8.3-8.6,15.6-8.7c1.3-0.6,2.7-1.2,4-1.6c12.9-11.1,25.9-6.4,34.9-15.7
			c4.4,4.7,10.2,12.1,15.6,23.3c0.3,0.6,0.6,1.2,0.9,1.9c3.5,7.7,6.8,17,9.3,28.4c4.2,7.7,9.3,17.2,14.2,26.6
			c10.8,20.4,21.1,40.2,21.1,40.2s7.5-51.9,10.3-73.9c0.7-5.5,1.1-9.1,1-9.6c-5.1-20-10.1-32.1-10.1-32.1c1,0.3,2.2,0.5,3.5,0.6
			c11.3,1,30.4,0.2,42.6,8.3c0.2,0.1,0.4,0.3,0.6,0.4c1.3,0.9,11.7,8.3,11.7,8.3c0.7,0,7.2,1.1,33.2,67.2
			C585.1,462.9,648.4,571.1,648.4,571.1z"/>
		<path class="st0" d="M618.3,664.8c-2.8-7.3,0.9-15.5,8.2-18.3l68-26.1c7.3-2.8,15.5,0.9,18.3,8.2l11.4,29.8l-94.5,36.2
			L618.3,664.8z M707.6,640.3c-2.8-7.3-11-11-18.3-8.2l-51.1,19.6c-7.3,2.8-11,11-8.2,18.3l4.9,12.9l77.6-29.7L707.6,640.3z"/>
		<path class="st0" d="M641.4,660.4l51.2-19.6c2.9-1.1,4.3-4.4,3.2-7.2l-5.9-15.3c-1.1-2.9-4.4-4.3-7.2-3.2l-51.2,19.6
			c-2.9,1.1-4.3,4.4-3.2,7.2l5.9,15.3C635.3,660.1,638.6,661.5,641.4,660.4z"/>
		<path class="st3" d="M577.1,716.3l36.2,94.6c4.6,12,18.1,18,30.1,13.4l157.3-60.2c12-4.6,18-18.1,13.4-30.1l-36.2-94.6
			c-4.6-12-18.1-18-30.1-13.4l-157.3,60.2C578.5,690.8,572.5,704.3,577.1,716.3z"/>
		<path class="st0" d="M634.5,763.5c-11.7,0-22.6-6.9-27-18.3l-21.2-55.4c-0.4-1.2,0.1-2.4,1.3-2.9c1.1-0.4,2.4,0.1,2.9,1.3
			l21.2,55.4c4.8,12.5,19.1,18.6,31.8,13.7l112.3-43c12.8-4.9,19.3-19,14.5-31.5l-21.2-55.4c-0.4-1.2,0.1-2.4,1.3-2.9
			c1.1-0.4,2.4,0.1,2.9,1.3l21.2,55.4c5.7,14.8-2,31.5-17.1,37.2l-112.3,43C641.7,762.9,638.1,763.5,634.5,763.5z"/>
		<path class="st0" d="M683.2,754l41-15.7c2.4-0.9,3.5-3.5,2.6-5.9L722,720c-0.9-2.4-3.5-3.5-5.9-2.6l-41,15.7
			c-2.4,0.9-3.5,3.5-2.6,5.9l4.8,12.5C678.2,753.8,680.8,754.9,683.2,754z"/>
		<path class="st1" d="M685.5,667.8c-3.8,0.2-4.5-2.8-4.5-2.8s-0.9,4.5-4,5.8c-3,1.3-5.4-5.5-5.4-5.5s-0.3,3.1-4.9,3.1
			c-4.5,0-5.9-8-5.9-8c-2.9,6.6-7.8,1.1-7.8,1.1s-3.6-22.9-5.1-22.1c-1.5,0.8-8.9-3-18.6-12.6c-9.3-9.2-8.7-21.4-9.2-22.6
			c5.1-5.7,11.7-15.3,15.7-21.6c5.2,4.2,37.1,29.7,41.8,35.6c5,6.5,8.9,26.8,10.4,34.5C689.5,660.5,689.3,667.7,685.5,667.8z"/>
		<path class="st0" d="M680.8,663.3c-0.1-0.1-0.1-0.1-0.2-0.2c-0.3-0.3-0.3-0.7-0.3-1c-0.1-1.6-2.8-12.7-4.7-20.1
			c-2.7-11.1-2.8-11.6-2.8-12c0.1-0.6,0.7-1.1,1.3-1c0.6,0.1,1,0.6,1,1.1c0.1,0.8,1.4,6.1,2.7,11.3c5.2,21,5.1,21,4.3,21.7
			C681.8,663.6,681.3,663.6,680.8,663.3z"/>
		<path class="st0" d="M671.2,663.2c-0.2-0.2-0.4-0.4-0.5-0.7c-1.7-8.7-4.4-22.9-5-24.4c-0.1-0.2-0.2-0.5-0.1-0.8
			c0.1-0.6,0.8-1,1.4-0.9c1,0.2,1.1,0.2,6,25.7c0.1,0.6-0.3,1.2-0.9,1.4C671.8,663.5,671.4,663.4,671.2,663.2z"/>
		<path class="st0" d="M660.3,659c-0.3-0.2-0.4-0.5-0.5-0.8c-0.7-4.5-2.5-16.6-2.9-18c-0.2-0.6,0.2-1.3,0.8-1.4
			c0.6-0.2,1.3,0.2,1.4,0.8c0.5,1.9,2.9,17.6,3,18.3c0.1,0.6-0.3,1.2-1,1.3C660.8,659.3,660.5,659.2,660.3,659z"/>
		<path class="st0" d="M423.6,1189.9c-3.8,10.9-119.9-3.3-125.9-17.5c-3.2-7.5-0.4-21.1,3.2-33.2c3.2-10.9,7-20.6,7.7-23.7l44.9-3.8
			l0.5,21.4c0,0,16.7,10.4,33.7,22.5c0,0,0,0,0,0C406.5,1168.8,425.6,1184.1,423.6,1189.9z"/>
		<path class="st0" d="M465.7,1178.4c-1.7-5.4-1-16.6,0.4-28c2.2-17.4,6.2-35.5,6.2-35.5s46.5-3.3,49.6-5.5c3-2.2-0.3,24.6,0,26.3
			c0.1,0.7,13.8,6.6,29.4,14.5c19.9,10,42.8,23.1,44.7,32.6C599.2,1199.7,470.1,1192.1,465.7,1178.4z"/>
		<path class="st0" d="M456.9,1145c0-0.2,0-0.4,0.1-0.5C457,1144.4,456.9,1144.6,456.9,1145z"/>
		<path class="st1" d="M564.3,429c-0.8,3.7-3.8,3.7-3.8,3.7s4.2,2.1,4.7,5.4c0.5,3.3-6.7,3.9-6.7,3.9s3,1.1,1.8,5.5
			c-1.2,4.4-9.3,3.7-9.3,3.7c5.7,4.5-0.9,7.9-0.9,7.9s-23.3-2.3-22.8-0.6c0.4,1.7-5.2,8-17,14.9c-11.4,6.7-23.1,3.1-24.4,3.2
			c-4.3-6.4-12-15.3-17.1-20.8c5.4-4,38.4-28.7,45.3-31.7c7.6-3.3,28.4-1.9,36.3-1.4C558.2,423.2,565.1,425.2,564.3,429z"/>
		<path class="st0" d="M558.5,432.2c0.3-0.3,0.4-0.7,0.2-1.1c-0.4-0.7-0.5-0.9-22.1-1.1c-5.5-0.1-11.2-0.1-11.8-0.2
			c-0.5-0.2-0.9,0.1-1.1,0.5c-0.2,0.5,0.1,1,0.6,1.2c0.4,0.2,1.4,0.2,12.3,0.3c7.7,0.1,19.4,0.2,20.8,0.5c0.3,0.1,0.6,0.2,0.8,0
			C558.4,432.3,558.5,432.2,558.5,432.2z"/>
		<path class="st0" d="M556,441.5c0.2-0.2,0.3-0.4,0.3-0.6c0-0.5-0.3-0.9-0.8-1c-26-1.7-26-1.5-26.4-0.8c-0.2,0.5,0,1,0.4,1.2
			c0.2,0.1,0.5,0.1,0.7,0.1c1.5-0.1,16.2,0.8,25.2,1.4C555.6,441.8,555.8,441.7,556,441.5z"/>
		<path class="st0" d="M549.1,451.1c0.2-0.1,0.3-0.4,0.3-0.6c0.1-0.5-0.3-0.9-0.8-1c-0.7-0.1-16.6-1.7-18.6-1.7
			c-0.5,0-0.9,0.4-0.9,0.9c0,0.5,0.4,0.9,0.9,0.9c1.5,0,12.7,1.1,18.4,1.7C548.7,451.4,549,451.3,549.1,451.1z"/>
		<path class="st0" d="M435.6,329.9c-0.4-2.1,33.7-7.9,35.2-1.2c1.5,6.7-9.1,25.2-10.3,25.2S436.8,335.6,435.6,329.9z"/>
		<path class="st0" d="M476.6,353.6c-2.8,22-10.3,73.9-10.3,73.9s-10.3-19.9-21.1-40.2c3.3-18.7,7.4-41.9,8.1-44.9
			c0,0,11-5.3,11.3-6.2C464.7,335.7,470.2,344,476.6,353.6z"/>
		<path class="st0" d="M417.3,448.9c-0.2,0-0.4-0.1-0.6-0.2c-0.3-0.2-0.4-0.5-0.5-0.8c-0.1-0.6-7.8-58.7-12.1-76.5
			c-4.1-16.9-20.3-37.5-22.4-39c-0.5-0.2-0.8-0.8-0.6-1.3c0.2-0.6,0.7-1,1.4-0.8c2,0.5,19.4,22.4,23.8,40.6c4,16.4,10.8,67,12,75.5
			l38.9-8.9c0.6-0.1,1.2,0.2,1.3,0.8c0.1,0.6-0.2,1.2-0.8,1.3l-40.1,9.2C417.5,448.9,417.4,448.9,417.3,448.9z"/>
		<path class="st0" d="M408.1,511.9c-1.8,0-3.4-0.2-4.8-0.5c-16.6-3.9-23.4-15-27.4-21.6c-1-1.6-1.9-3-2.6-4
			c-0.4-0.5-0.3-1.2,0.2-1.6c0.5-0.4,1.2-0.3,1.6,0.2c0.9,1.1,1.8,2.5,2.8,4.2c4.1,6.8,10.4,17,26,20.6
			c19.5,4.5,79.5-27.2,80.1-27.5c0.5-0.3,1.2-0.1,1.5,0.5c0.3,0.5,0.1,1.2-0.5,1.5C482.6,484.9,431.6,511.9,408.1,511.9z"/>
		<path class="st0" d="M529,415.9c-0.1,0-0.1,0-0.2,0c-0.6-0.1-1-0.7-0.9-1.3c0.6-3.4-5-76.3-5.7-79.4c-0.1-0.6,0.3-1.2,0.9-1.3
			c0.6-0.1,1.2,0.3,1.3,0.9c0.7,3.4,6.3,76.4,5.7,80.2C530,415.5,529.5,415.9,529,415.9z"/>
		<polygon class="st0" points="779.3,174.7 777.9,240.9 762.7,228.1 709.7,291.2 709.7,371.6 651.5,414.4 583.3,414.4 669.2,351.1 
			669.2,276.4 731.7,202 714.3,187.4 		"/>
		<rect x="982.1" y="273.4" class="st2" width="745.4" height="459.8"/>
		<path class="st0" d="M1396.6,261.4v-1c0-23.1-18.7-41.8-41.8-41.8l0,0c-23.1,0-41.8,18.7-41.8,41.8v1h-153.6
			c-16.8,0-30.5,13.7-30.5,30.5v0h451.7v0c0-16.8-13.7-30.5-30.5-30.5H1396.6z"/>
		<rect x="1106.9" y="723.6" class="st0" width="495.8" height="23.3"/>
		<polygon class="st0" points="1530.1,1170.7 1371.6,735.3 1361.9,735.3 1347.8,735.3 1338,735.3 1179.6,1170.7 1203.4,1170.7 
			1354.8,754.6 1506.3,1170.7 		"/>
		<rect x="1392.8" y="429.7" class="st4" width="37.6" height="210"/>
		<rect x="1265.6" y="512" class="st4" width="37.6" height="127.8"/>
		<rect x="1329.2" y="472" class="st4" width="37.6" height="167.8"/>
		<rect x="1201.9" y="547.5" class="st4" width="37.6" height="92.3"/>
		<rect x="1138.3" y="593.6" class="st4" width="37.6" height="46.1"/>
		<polygon class="st0" points="1571.4,353.7 1569.7,432.7 1551.5,417.4 1488.3,492.7 1488.3,588.6 1418.9,639.8 1337.4,639.8 
			1439.9,564.2 1439.9,475.1 1514.5,386.3 1493.8,368.9 		"/>
	</g>
</g>
<g id="Layer_5">
</g>
<g id="Layer_6">
</g>
<g id="Layer_7">
</g>
<g id="Layer_8">
</g>
<g id="Layer_9">
</g>
<g id="Layer_10">
</g>
</svg>
