<?xml version="1.0" encoding="utf-8"?>
<!-- Generator: Adobe Illustrator 23.0.5, SVG Export Plug-In . SVG Version: 6.00 Build 0)  -->
<svg version="1.1" xmlns="http://www.w3.org/2000/svg" xmlns:xlink="http://www.w3.org/1999/xlink" x="0px" y="0px"
	 viewBox="0 0 2000 2000" style="enable-background:new 0 0 2000 2000;" xml:space="preserve">
<style type="text/css">
	.st0{fill:#252734;}
	.st1{fill:#F1BAA4;}
	.st2{fill:#EFDDBF;}
	.st3{fill:#445E77;}
	.st4{fill:#E66F55;}
</style>
<g id="Layer_1">
</g>
<g id="Layer_2">
</g>
<g id="Layer_3">
</g>
<g id="Layer_4">
</g>
<g id="Layer_5">
</g>
<g id="Layer_6">
</g>
<g id="Layer_7">
</g>
<g id="Layer_8">
</g>
<g id="Layer_9">
</g>
<g id="Layer_10">
	<g>
		<rect x="367.3" y="130.3" class="st2" width="1296.9" height="800"/>
		<path class="st3" d="M558.6,840.4c-1.8,0-3.6-0.3-5.4-0.8c-9.3-3-14.4-12.9-11.4-22.2l107.2-335l81.6,189.8l56.2-83.5l28.3,36.9
			l68.1-219.4l16.2,57.3c23.3,82.2,49.5,171.7,65.8,222.7c8.1-24.1,18.4-55.5,28.5-86.3c92.9-282.9,95.8-283.9,108.3-288.4
			c5.3-1.9,11.1-1.3,15.8,1.7c4.2,2.7,11.9,7.6,101.9,173.3l111.2-258.8l141.5,135c7.1,6.7,7.3,17.9,0.6,25
			c-6.7,7.1-17.9,7.3-25,0.6l-104.7-99.9l-119.9,279.2l-17.4-32.2c-34.8-64.6-73.8-135.2-95.1-171.3c-19.6,52-58.4,170.1-83.5,246.8
			c-43.9,133.7-44.3,134.1-49,138.8l-7.2,7.2l-10.1-2.5c-12.2-3.2-14.4-3.7-56.8-147.3c-8-27.1-15.9-54.2-22.5-77l-53.2,171.1
			l-39.9-52.1l-65,96.4l-69.9-162.5l-78.4,245C573,835.6,566,840.4,558.6,840.4z"/>
		<path class="st1" d="M1049.3,1481.5c-1.7-9.6-24.8-23.2-44.7-33.5c-15.7-8.1-29.4-14.3-29.6-15c-0.1-0.7,0.5-6.2,1-12
			c0.3-3.3,0.5-6.8,0.6-9.4c0-0.8,0-1.6,0-2.3c2.1-45,9.5-211.3,12.6-356.9l-70.3-0.9c7.1,105.4,2.9,376.5,2.9,376.5
			c-1.1,5.8-2.3,12.5-3.2,19.1c-1.6,11.5-2.5,22.8-0.8,28.3C922,1489.2,1052.4,1498.7,1049.3,1481.5z"/>
		<path class="st0" d="M917.7,1475.3c-1.7-5.5-0.8-16.7,0.8-28.3c20.6,8.2,69.3,19,78.5,12.2c4.7-3.4,6.7-7.6,7.5-11.3
			c19.9,10.4,43,23.9,44.7,33.5C1052.4,1498.7,922,1489.2,917.7,1475.3z"/>
		<path class="st0" d="M909.3,1441.5c0-0.2,0-0.4,0.1-0.5C909.3,1440.9,909.3,1441.1,909.3,1441.5z"/>
		<g>
			
				<rect x="1667.7" y="1364" transform="matrix(-0.9994 3.472257e-02 -3.472257e-02 -0.9994 3433.6326 2763.748)" class="st1" width="50.2" height="95.4"/>
			<path class="st3" d="M1820.8,1568.6c-0.8,80.5-5.7,183.2-5.7,183.2l-42,11.7l-81.3,22.6l-2.8,0.8l-71.7-36.9l-12.8-6.6
				c0,0-4.5-31.4-9.5-73.1c-3.2-27.3-6.7-59-9.2-89.3c-4.5-54.8-12-101.1,2.8-114.7c18.5-17.1,63.3-19.8,65.8-20.2
				c20.9-3.2,8.9-29,8.9-29c0.3,0.2,59.9-0.4,62-1.3c0,0-6.2,24.1,10.4,28.9c1.5,0.5,3.2,0.8,5,0.9c16.4,1.5,44.2,0.3,61.8,12
				c0.3,0.2,0.6,0.4,0.9,0.6c6.3,4.5,11.3,10.7,13.8,19.5c0.4,1.4,0.8,3.2,1.1,5.4c0.6,4.2,1.1,9.7,1.5,16.2l0,0.6
				C1820.9,1517.2,1821.1,1541.7,1820.8,1568.6z"/>
			<path class="st0" d="M1774.1,1244.2c0.2-0.4,13.2-31.3-17.6-44.1c-31-12.9-100.1,7.1-100.1,7.1s-27.3-20.6-46.6,14.2
				c-15.7,28.4-6,65.9-1.9,78.8l18.5,49.9c24.2,61.4,81.6,52.2,81.6,52.2c62.2,4.6,67.1-66.9,66.9-99.6c2,0.3,4,0.3,6,0
				C1796.7,1300,1795.3,1268.5,1774.1,1244.2z"/>
			<path class="st4" d="M1703.1,1533.2L1703.1,1533.2c-77.9,0-141,63.1-141,141v185.7h282.1v-185.7
				C1844.1,1596.3,1781,1533.2,1703.1,1533.2z"/>
		</g>
		
			<rect x="1349.2" y="1373.7" transform="matrix(-0.9994 3.472257e-02 -3.472257e-02 -0.9994 2797.1321 2794.2798)" class="st1" width="50.2" height="95.4"/>
		<path class="st2" d="M1502.3,1578.4c-0.8,80.5-5.7,183.2-5.7,183.2l-42,11.7l-81.3,22.6l-2.8,0.8l-71.6-36.9l-12.8-6.6
			c0,0-4.5-31.4-9.5-73.1c-3.2-27.3-6.7-59-9.2-89.3c-4.5-54.8-12-101.1,2.8-114.7c11.2-10.3,32-15.4,47.2-17.9
			c10-1.6,17.6-2.1,18.5-2.3c20.9-3.2,8.9-29,8.9-29c0.3,0.2,59.9-0.4,62-1.3c0,0-6.2,24,10.4,28.9c1.5,0.5,3.2,0.8,5,0.9
			c4.9,0.5,10.7,0.7,17.1,1c15,0.9,32.4,2.7,44.8,11c0.3,0.2,0.6,0.4,0.9,0.6c6.3,4.5,11.3,10.7,13.8,19.5c0.4,1.4,0.8,3.2,1.1,5.4
			c0.6,4.2,1.1,9.7,1.5,16.2l0,0.6C1502.4,1526.9,1502.6,1551.4,1502.3,1578.4z"/>
		<path class="st4" d="M1384.6,1542.9L1384.6,1542.9c-77.9,0-141,63.1-141,141v185.7h282.1v-185.7
			C1525.6,1606,1462.5,1542.9,1384.6,1542.9z"/>
		<path class="st0" d="M1374.3,1206.4L1374.3,1206.4c-48.7,0-88.2,39.5-88.2,88.2V1412h176.4v-117.4
			C1462.5,1245.9,1423,1206.4,1374.3,1206.4z"/>
		
			<rect x="572" y="1369.3" transform="matrix(-0.9994 3.472257e-02 -3.472257e-02 -0.9994 1243.062 2812.4802)" class="st1" width="50.2" height="95.4"/>
		<path class="st2" d="M725.1,1574c-0.8,80.5-5.7,183.2-5.7,183.2l-42,11.7l-81.3,22.6l-2.8,0.8l-71.7-36.9l-12.8-6.6
			c0,0-4.5-31.4-9.5-73.1c-3.2-27.3-6.7-59-9.2-89.3c-4.5-54.8-12-101.1,2.8-114.7c18.5-17.1,63.3-19.8,65.8-20.2
			c20.9-3.2,8.9-29,8.9-29c0.3,0.2,59.9-0.4,62-1.3c0,0-6.2,24.1,10.4,28.9c1.5,0.5,3.2,0.8,5,0.9c16.4,1.5,44.2,0.3,61.8,12
			c0.3,0.2,0.6,0.4,0.9,0.6c6.3,4.5,11.3,10.7,13.8,19.5c0.4,1.4,0.8,3.2,1.1,5.4c0.6,4.2,1.1,9.7,1.5,16.2l0,0.6
			C725.2,1522.5,725.4,1547,725.1,1574z"/>
		<path class="st0" d="M678.4,1249.5c0.2-0.4,13.2-31.3-17.6-44.1c-31-12.9-100.1,7.1-100.1,7.1s-27.3-20.6-46.6,14.2
			c-15.7,28.4-6,65.9-1.9,78.8l18.5,49.9c24.2,61.4,81.6,52.2,81.6,52.2c62.2,4.6,67.1-66.9,66.9-99.6c2,0.3,4,0.3,6,0
			C701,1305.4,699.6,1273.9,678.4,1249.5z"/>
		<path class="st4" d="M607.4,1538.5L607.4,1538.5c-77.9,0-141,63.1-141,141v185.7h282.1v-185.7
			C748.4,1601.7,685.3,1538.5,607.4,1538.5z"/>
		
			<rect x="261.6" y="1364" transform="matrix(-0.9994 3.472257e-02 -3.472257e-02 -0.9994 622.1379 2812.574)" class="st1" width="50.2" height="95.4"/>
		<path class="st0" d="M414.7,1568.6c-0.8,80.5-5.7,183.2-5.7,183.2l-42,11.7l-81.3,22.6l-2.8,0.8l-71.7-36.9l-12.8-6.6
			c0,0-4.5-31.4-9.5-73.1c-3.2-27.3-6.7-59-9.2-89.3c-4.5-54.8-12-101.1,2.8-114.7c18.5-17.1,63.3-19.8,65.8-20.2
			c20.9-3.2,8.9-29,8.9-29c0.3,0.2,59.9-0.4,62-1.3c0,0-6.2,24.1,10.4,28.9c1.5,0.5,3.2,0.8,5,0.9c16.4,1.5,44.2,0.3,61.8,12
			c0.3,0.2,0.6,0.4,0.9,0.6c6.3,4.5,11.3,10.7,13.8,19.5c0.4,1.4,0.8,3.2,1.1,5.4c0.6,4.2,1.1,9.7,1.5,16.2l0,0.6
			C414.7,1517.2,414.9,1541.7,414.7,1568.6z"/>
		<path class="st4" d="M296.9,1533.2L296.9,1533.2c-77.9,0-141,63.1-141,141v185.7H438v-185.7C438,1596.3,374.8,1533.2,296.9,1533.2
			z"/>
		<path class="st2" d="M375,1617.5H213.6v-315.9c0-44.5,36.1-80.7,80.7-80.7h0c44.5,0,80.7,36.1,80.7,80.7V1617.5z"/>
		<path class="st0" d="M1439.3,1456.4l-57.4,62.5l-64.5-60.8c10-1.6,17.6-2.1,18.5-2.3c20.9-3.2,8.9-29,8.9-29
			c0.3,0.2,59.9-0.4,62-1.3c0,0-6.2,24,10.4,28.9c1.5,0.5,3.2,0.8,5,0.9C1427.1,1455.8,1433,1456,1439.3,1456.4z"/>
		<path class="st1" d="M1149.6,1474.9c-1.7-9.6-24.8-23.2-44.7-33.5c-15.7-8.1-29.4-14.3-29.6-15c-0.1-0.7,0.5-6.2,1-12
			c0.3-3.3,0.5-6.8,0.6-9.4c0-0.8,0-1.6,0-2.3c2.1-45,9.5-211.3,12.6-356.9l-70.3-0.9c7.1,105.4,2.9,376.5,2.9,376.5
			c-1.1,5.8-2.3,12.5-3.2,19.1c-1.6,11.5-2.5,22.8-0.8,28.3C1022.3,1482.6,1152.7,1492.1,1149.6,1474.9z"/>
		<path class="st0" d="M1019,418.7c2.5,0.8,56.3-13.8,63.5,46.5s4,117.2,2.2,115.8c-1.8-1.4-190.1-2-188.2-2.5
			C898.2,578,928.5,388.5,1019,418.7z"/>
		
			<rect x="984.1" y="546.2" transform="matrix(-0.9999 -1.337309e-02 1.337309e-02 -0.9999 1995.9589 1173.248)" class="st1" width="35.5" height="67.6"/>
		<path class="st2" d="M1089.2,684.5c-0.3,11-0.7,22.6-1.1,34c-0.1,3.1-0.2,6.2-0.4,9.2c-1.8,42.3-4.1,80.2-4.1,80.2l0,0l-30.6,8.1
			l-3.9,1l-51.1,13.5l-2.4,0.6l-9-4.8l-49.3-26.3l0,0c0,0-3.9-29.8-7.5-66c-0.3-2.6-0.5-5.2-0.8-7.8l0-0.1
			c-4.8-50.5-8.4-109.9-0.2-119.1c13-14.5,26.2-10.3,36.2-16.6c1.3-0.8,2.5-1.8,3.7-3c10.2-10.7,13.5-20.7,13.5-20.7
			c1.2,0.7,24,16.9,42.1,9.2c0,0-4.6,14.3,7.6,17.6c0.9,0.3,1.8,0.4,2.9,0.6c4.7,0.5,10.9,0.7,17.3,1.3c9.4,0.9,19.3,2.9,26.5,8.2
			c0,0,0.1,0.1,0.2,0.1c2.2,1.6,4.2,3.7,5.8,6.1c0,0.1,0.1,0.1,0.1,0.2c1.3,2.1,2.4,4.4,3.1,7.1C1089.9,625.6,1090,653,1089.2,684.5
			z"/>
		<path class="st0" d="M1018,1468.7c-1.7-5.5-0.8-16.7,0.8-28.3c20.6,8.2,69.3,19,78.5,12.2c4.7-3.4,6.7-7.6,7.5-11.3
			c19.9,10.4,43,23.9,44.7,33.5C1152.7,1492.1,1022.3,1482.6,1018,1468.7z"/>
		<path class="st0" d="M1009.6,1434.8c0-0.2,0-0.4,0.1-0.5C1009.7,1434.3,1009.6,1434.5,1009.6,1434.8z"/>
		<path class="st0" d="M937.2,800.1c0,0,100.9-9.7,146.4,7.8c0,0,16.7,25.4,20.6,78.2c7.9,107.4-12.1,187.5-12.5,185.5l-185.9-1.2
			c0,0-6.5-164.2,6.3-201.8C924.9,831,937.2,800.1,937.2,800.1z"/>
		<path class="st4" d="M977.9,858.1c0,0-80.8,2.9-83.4,3.5c-2.6,0.6,26.9-67.4,27.4-70c0.2-0.9,0.6-14.9,1.1-32.8
			c0.3-10.3,0.6-21.8,0.9-32.9c0.7-25.3,1.3-48.2,1.3-48.2L892,703.4l24.6,10.1l-4,10.6L902,751.9l-4.3,11.3
			c0,0-74.7-15.8-80.9-38.8c-6.2-23,48.7-85.8,65.8-103.2c17.2-17.4,70.2-28.6,70.2-28.6s19.6,31.2,24.2,66.3
			c1.6,12.2,2.2,40,2.2,71c0,7.6,0,15.5,0,23.3C979.1,805.3,977.9,858.1,977.9,858.1z"/>
		<path class="st1" d="M1286.4,558.2c1.6-0.4,24.5-24.2,30.4-19.9c6,4.3-3.5,12.3-3.5,12.3s46.9-20.1,49.4-13.5
			c2.5,6.5-28,16-28,17.4c0,1.4,8.4,22.1-1.8,29.4c-10.2,7.4-46.5,15.1-46.5,15.1V558.2z"/>
		<path class="st1" d="M1065.2,484.5c-0.5,1.3,1.3,31-8.6,53.7c-4.6,10.5-11.6,19.5-22.5,23.6c-5.6,2.1-12.1,2.9-19.9,1.9
			c0,0-38.3,3.7-53.4-40.5c0,0-16.1,0.1-19.8-16.9c-3.7-17,8.6-23.8,17.6-15c0,0,6.5-51.6,52.9-50.1
			C1057.9,442.7,1065.2,484.5,1065.2,484.5z"/>
		<path class="st0" d="M979.8,491.4c-0.6-0.8-0.5-1.9,0.2-2.5c7.7-6.5,14.9-3,17.3-1.8c0.2,0.1,0.3,0.1,0.4,0.2
			c0.5,0,0.9,0.3,1.2,0.6c0.6,0.8,0.5,1.9-0.2,2.5c-1,0.8-2,0.3-3-0.1c-2.2-1.1-7.5-3.6-13.4,1.3c-0.3,0.3-0.8,0.4-1.2,0.4
			C980.6,492.1,980.1,491.8,979.8,491.4z M996.4,487.7L996.4,487.7L996.4,487.7z M996.4,487.7L996.4,487.7L996.4,487.7z
			 M996.4,487.7C996.4,487.7,996.4,487.7,996.4,487.7C996.4,487.7,996.4,487.7,996.4,487.7z M996.4,487.7
			C996.4,487.7,996.4,487.7,996.4,487.7L996.4,487.7z M996.4,487.7C996.4,487.7,996.4,487.7,996.4,487.7
			C996.4,487.7,996.4,487.7,996.4,487.7z M996.4,487.7C996.4,487.7,996.4,487.7,996.4,487.7C996.4,487.7,996.4,487.7,996.4,487.7z
			 M996.4,487.7C996.4,487.7,996.4,487.7,996.4,487.7C996.4,487.7,996.4,487.7,996.4,487.7z M996.4,487.7L996.4,487.7L996.4,487.7z
			 M996.4,487.7C996.4,487.7,996.4,487.7,996.4,487.7S996.4,487.7,996.4,487.7z M996.4,487.7L996.4,487.7L996.4,487.7z M996.4,487.7
			C996.4,487.7,996.4,487.7,996.4,487.7C996.4,487.7,996.4,487.7,996.4,487.7z M996.4,487.7C996.4,487.7,996.4,487.7,996.4,487.7
			C996.4,487.7,996.4,487.7,996.4,487.7z M996.4,487.7L996.4,487.7L996.4,487.7z"/>
		<path class="st0" d="M1055,499.5c0.4,0,0.7-0.1,1.1-0.3c0.8-0.6,1-1.7,0.4-2.5c-0.3-0.4-6.6-9.1-18.2-6.1c-1,0.3-1.5,1.2-1.3,2.2
			c0.3,1,1.2,1.5,2.2,1.3c9.2-2.4,14.3,4.6,14.4,4.7C1053.9,499.2,1054.5,499.5,1055,499.5z"/>
		<path class="st0" d="M1015.1,537.1c-1-0.2-1.6-1.1-1.5-2c0.1-1,1-1.7,2-1.5c0.1,0,2.8,0.3,5-3.9c1.8-3.5-2.2-10.1-3.6-12.5
			c-0.8-1.3-1.1-1.7-1-2.5c0.1-1,1-1.7,2-1.6c0.7,0.1,1.3,0.6,1.5,1.3c0.1,0.2,0.3,0.5,0.5,0.9c2,3.2,6.5,10.7,3.8,16.1
			c-2.8,5.4-6.7,5.9-8.2,5.9C1015.3,537.1,1015.1,537.1,1015.1,537.1z M1019.6,515C1019.6,515,1019.6,515,1019.6,515
			C1019.6,515,1019.6,515,1019.6,515z M1019.6,515C1019.6,515,1019.6,515,1019.6,515S1019.6,515,1019.6,515z"/>
		<path class="st0" d="M1012.1,550.6c-4-0.1-9.3-2-12.4-10c-0.4-0.9,0.1-2,1-2.3c0.9-0.4,2,0.1,2.3,1c1.5,4,3.8,6.5,6.8,7.3
			c4.3,1.2,8.7-1,9.5-1.5c0.5-0.5,1.3-0.7,2-0.4c0.9,0.4,1.3,1.5,0.9,2.4c-0.6,1.4-5.5,3.5-9.9,3.4
			C1012.3,550.6,1012.2,550.6,1012.1,550.6z M1019,545.6C1019,545.6,1019.1,545.6,1019,545.6C1019.1,545.6,1019,545.6,1019,545.6z
			 M1019.1,545.6C1019.1,545.6,1019.1,545.6,1019.1,545.6C1019.1,545.6,1019.1,545.6,1019.1,545.6z"/>
		
			<ellipse transform="matrix(0.1163 -0.9932 0.9932 0.1163 372.6189 1430.5345)" class="st0" cx="990.2" cy="505.9" rx="7.6" ry="6.5"/>
		<circle class="st2" cx="988.7" cy="503.6" r="3"/>
		
			<ellipse transform="matrix(0.1163 -0.9932 0.9932 0.1163 413.643 1489.1677)" class="st0" cx="1043.7" cy="512.1" rx="7.6" ry="6.5"/>
		<circle class="st2" cx="1042.1" cy="509.9" r="3"/>
		
			<rect x="907.7" y="690.5" transform="matrix(0.8631 0.5051 -0.5051 0.8631 516.4006 -381.3179)" class="st0" width="107.6" height="142.6"/>
		<path class="st3" d="M1024.2,697.2c4.1-9.4,0.5-20.7-8.6-26c-4.6-2.7-9.7-3.4-14.5-2.4c-4.8,0.9-9.2,3.6-12.4,7.7l-13.3-7.8
			L960,695l62.1,36.3l15.4-26.4L1024.2,697.2z M1002,694.5c-4.1-2.4-5.4-7.6-3.1-11.7c2.4-4.1,7.6-5.4,11.7-3.1
			c4.1,2.4,5.4,7.6,3.1,11.7S1006.1,696.9,1002,694.5z"/>
		<path class="st1" d="M989,736.2c0,0-4.2-2.8-9.7-6.3c-7.1-4.5-16.2-10.1-21.1-12.1c-7.2-3-27.4,5.3-34.4,8.3
			c-1.5,0.7-2.4,1.1-2.4,1.1l-8.9-3L902,751.9c1.9,0.1,3,0.1,3.1,0.1c0.9-0.2,3.9,2.9,10.6,6.3c2,1,4.5,1.1,7.2,0.7
			c6.4-1,13.2-4.7,13.2-4.7s12.8,5.5,23.4,8.9c10.6,3.4,9.5-3.7,9.5-3.7c10.8,4.1,10-6.4,10-6.4s0,0.1,0.1,0.1
			c0.5,0.5,2.4,1.9,5.8-1.7c4-4.2-0.9-8.5-0.9-8.5C991.2,743.1,989,736.2,989,736.2z"/>
		<path class="st0" d="M957.1,727.6c0.1,0.3,0.3,0.6,0.6,0.8c9.1,5.6,23,14,23.9,14.6c0.5,0.4,1.3,0.4,1.8-0.2
			c0.5-0.5,0.4-1.4-0.1-1.8c-0.1-0.1-0.5-0.4-24.2-14.9c-0.6-0.4-1.4-0.2-1.8,0.4C957.1,726.9,957,727.3,957.1,727.6z"/>
		<path class="st0" d="M953.7,736.5c0.1,0.3,0.3,0.6,0.5,0.8c8.9,6,22.2,15.1,22.9,15.6c0.5,0.4,1.3,0.4,1.8-0.1
			c0.5-0.5,0.4-1.4-0.1-1.8c-0.1-0.1-0.3-0.3-23.1-15.8c-0.6-0.4-1.4-0.3-1.8,0.3C953.7,735.8,953.6,736.2,953.7,736.5z"/>
		<path class="st0" d="M950.9,747c0.1,0.3,0.2,0.5,0.5,0.7c5.6,4.3,14.2,10.8,14.6,11.1c0.5,0.4,1.4,0.4,1.8-0.2
			c0.5-0.5,0.4-1.3-0.1-1.8c-0.3-0.2-9.3-7.1-14.7-11.2c-0.6-0.4-1.4-0.3-1.8,0.3C950.9,746.2,950.8,746.6,950.9,747z"/>
		<path class="st4" d="M1303.5,607.2l-206.2,74.4l-8.2,2.9l-11.8,4.3l1.1-85.1c0,0,0.1,0.1,0.2,0.1c1.2,0.7,5.8,0.5,12.9-0.4
			c46.8-6,201.6-41.9,201.6-41.9L1303.5,607.2z"/>
		<path class="st4" d="M1125,862.1l-67.8-0.9l-4.3-45.1l-1.5-15.5l-5-52.8l-1.5-15.5l-13.2-138.6c0.9,0.3,1.8,0.4,2.9,0.6
			c4.7,0.5,10.9,0.7,17.3,1.3c9.4,0.9,19.3,2.9,26.5,8.2c0,0,0.1,0.1,0.2,0.1c1.2,0.7,5.8,0.5,12.9-0.4c3.3,28.2,6.6,63.1,6.6,63.1
			s-0.3,5.9-0.8,15.1c-1.7,29.4-5.2,92-5.8,94.9C1090.9,780.3,1125,862.1,1125,862.1z"/>
		<path class="st0" d="M958.6,491.3l3.8,22.9l8.6-36.1c0,0,58.2,18.2,74.6-5.9c0,0,9.8,28.3,18.9,29.4c9.1,1.1,14.8-45.8-12.9-59.9
			c-27.7-14.2-69.4-6.9-79.1,2.5C962.7,453.7,958.6,491.3,958.6,491.3z"/>
	</g>
</g>
</svg>
