<?xml version="1.0" encoding="utf-8"?>
<!-- Generator: Adobe Illustrator 23.0.5, SVG Export Plug-In . SVG Version: 6.00 Build 0)  -->
<svg version="1.1" xmlns="http://www.w3.org/2000/svg" xmlns:xlink="http://www.w3.org/1999/xlink" x="0px" y="0px"
	 viewBox="0 0 2000 2000" style="enable-background:new 0 0 2000 2000;" xml:space="preserve">
<style type="text/css">
	.st0{fill:#F1BAA4;}
	.st1{fill:#C35656;}
	.st2{fill:#362E38;}
	.st3{fill:#EFE5DC;}
</style>
<g id="Layer_1">
</g>
<g id="Layer_2">
</g>
<g id="Layer_3">
</g>
<g id="Layer_4">
</g>
<g id="Layer_5">
</g>
<g id="Layer_6">
</g>
<g id="Layer_7">
</g>
<g id="Layer_8">
</g>
<g id="Layer_9">
</g>
<g id="Layer_10">
	<g>
		<path class="st0" d="M1406.2,638.2c-0.6-1.4-7.2-24.6,1.7-35.7c8.9-11.1,31.3-42.6,33.2-38.8s5.3,13.6-5.3,27.4l48.7-51.5
			c0,0,6.9-3.9,11.1,0c4.2,3.9,0,9.1-3.9,13.8c-3.9,4.7-20.8,27.7-20.8,27.7s16.6-1.1,11.6,13.8c0,0,15.5,3.6,5.3,21.6
			c0,0-20.5,49-34.1,52.3s-28.2-4.4-29.1-4.7C1424,664,1406.2,638.2,1406.2,638.2z"/>
		<path class="st0" d="M1030.9,762.9c4.2,3.9,124.1-11.4,193-17.4c21.4-1.8,47.5-6.5,63.7-20.5l117-93.6l38.4,38.4l-98,105.8
			c-35.2,34.3-71.1,54-119.7,61.4L1090.1,854L1030.9,762.9z"/>
		<path class="st2" d="M1450,612.2c-1.9-1-3.2-3-4-6.3c-0.5-1.9,0.1-5.5,10.2-15.2c4.5-4.3,11-9.8,12.1-10.1
			c0.8-0.3,1.6,0.2,1.9,0.9c0.2,0.7-0.1,1.5-0.8,1.8c-0.8,0.5-6.3,4.9-11.5,9.9c-9.4,9.1-9.1,11.7-9.1,12c0.6,2.4,1.4,3.8,2.5,4.4
			c1,0.5,2.4,0.4,4.5-0.4c4.7-1.9,22.8-13.6,22.9-13.7c0.7-0.5,1.6-0.3,2.1,0.4c0.5,0.7,0.3,1.6-0.4,2.1c-0.8,0.5-18.5,12-23.5,14
			c-1.6,0.6-3,0.9-4.2,0.9C1451.8,612.9,1450.9,612.7,1450,612.2z M1469.3,583.4C1469.3,583.4,1469.3,583.4,1469.3,583.4
			C1469.3,583.4,1469.3,583.4,1469.3,583.4z"/>
		<path class="st2" d="M1457.1,623.9c-2.6-1.4-3.5-3.3-3.7-4.7c-0.8-5.1,5-10.9,5.7-11.6c0.6-0.6,1.5-0.6,2.1,0
			c0.6,0.6,0.6,1.5,0,2.1c-1.5,1.5-5.3,5.9-4.8,9c0.2,1,0.8,1.9,2.1,2.5c5.4,2.8,17.6-4.8,22.2-7.7c2-1.3,2.6-1.6,3.1-1.7
			c0.8-0.2,1.6,0.4,1.8,1.2c0.2,0.8-0.3,1.5-1.1,1.7c-0.3,0.1-1.3,0.8-2.2,1.4c-4.8,3-14,8.8-20.9,8.8
			C1459.7,624.9,1458.3,624.6,1457.1,623.9z M1484.3,614.8C1484.4,614.8,1484.4,614.8,1484.3,614.8
			C1484.4,614.8,1484.4,614.8,1484.3,614.8z"/>
		<path class="st2" d="M1432,631.4c0.4,0,0.9-0.2,1.2-0.5c10.2-12.5,1.7-26.8-0.8-30.4l4.8-8.6c0.4-0.7,0.1-1.6-0.6-2
			c-0.7-0.4-1.6-0.1-2,0.6l-5.3,9.4c-0.3,0.5-0.2,1.2,0.1,1.7c0.5,0.6,11.6,15,1.4,27.5c-0.5,0.6-0.4,1.6,0.2,2.1
			C1431.3,631.3,1431.7,631.4,1432,631.4z"/>
		<polygon class="st3" points="1003.5,757.3 1157.3,747.4 1168.1,875.6 1030.9,931.9 		"/>
		<polygon class="st2" points="1156.7,1772.6 1101.5,1772.6 955.7,1371.9 1010.8,1371.9 		"/>
		<polygon class="st2" points="676.3,1772.6 731.5,1772.6 877.3,1371.9 822.2,1371.9 		"/>
		<path class="st2" d="M778.1,802.6c-12.8,0-138.9-4.1-150.5,116.6s7.9,448.3,171.5,469.5s338.1-22.9,334.5-95
			c-3.6-72.1-184-284.1-189.9-285.5C937.8,1006.7,778.1,802.6,778.1,802.6z"/>
		<path class="st0" d="M1024,1575.8c-1.7,3.4-37,96.1-37,96.1l53.4,18.7l38.5-92L1024,1575.8z"/>
		<path class="st0" d="M1318.1,1423c2,3.2,61.7,82.4,61.7,82.4l44.2-35.3l-57.5-81.5L1318.1,1423z"/>
		<path class="st2" d="M987.7,1634.1l71.7,29.5v27.8c0,0,58.2,32.9,64.1,58.2c5.9,25.3-6.8,38.8-6.8,38.8l-161.2-70L987.7,1634.1z"
			/>
		<path class="st1" d="M799.5,1112.6c1.5,4.6-29,170.9,71.7,190.8s297.6-108.4,297.6-108.4s126.7,274.7,131.3,271.7
			c4.6-3.1,119.1-74.8,119.1-74.8s-167.9-317.5-203-334.3c-35.1-16.8-180.1,19.8-180.1,19.8L799.5,1112.6z"/>
		<path class="st1" d="M1098.6,1208.8c-6.1,9.2-119.1,380.1-119.1,380.1l119.1,30.5l143.5-349.5L1178,1134L1098.6,1208.8z"/>
		<path class="st2" d="M1348.1,1484.7l63.1-45.1l23.6,14.8c0,0,58.8-31.8,83.4-23.4s29.3,26.4,29.3,26.4l-145,99.3L1348.1,1484.7z"
			/>
		<path class="st2" d="M1223.7,1315.4c-1.8,0-5.3-1.9-34.1-54.5c-12.8-23.3-25.2-46.9-28.2-52.6l-73.6,35.1c-0.7,0.4-1.6,0-2-0.7
			s0-1.6,0.7-2l74.9-35.7c0.7-0.3,1.6-0.1,2,0.7c20.4,39,54.2,101.3,60.4,106.6c0.3-0.1,0.6-0.1,1,0.1c0.8,0.3,1.1,1.2,0.8,2
			c-0.3,0.7-0.9,1.2-1.6,1.2C1223.8,1315.4,1223.7,1315.4,1223.7,1315.4z"/>
		<rect x="865.4" y="576.4" class="st2" width="118.7" height="16.4"/>
		<path class="st2" d="M801,600.5C801,600.5,801,600.5,801,600.5c0.7,5,1.6,9.8,2.5,14.6c0.8,3.7,1.6,7.4,2.5,11
			c9.9,39.3,29.1,67.8,65.3,60.8h0c42.4-8.3,120.2-94.3,124.8-99.4c0.1-0.2,0.2-0.2,0.2-0.2c28.9,11,33.3-126.2-79.8-129.8
			C805.9,454,793.3,549.1,801,600.5z"/>
		
			<rect x="871.3" y="671.6" transform="matrix(-1 -4.452895e-11 4.452895e-11 -1 1798.2864 1449.1897)" class="st0" width="55.7" height="105.9"/>
		<path class="st0" d="M801,600.5C801,600.5,801,600.5,801,600.5c0,3,0.3,6.3,1.2,9.9c0.4,1.7,0.8,3.2,1.4,4.7
			c0.3,0.8,0.6,1.5,0.9,2.2c0.8,1.8,1.7,3.5,2.7,5c2.5,3.8,5.5,6.6,8.6,8.7c8.6,5.7,17.8,5.5,17.8,5.5c3.3,9.3,7.2,17.2,11.6,23.9
			c7.9,12.2,17.1,20.6,26.2,26.3c0,0,0,0,0,0s0,0,0,0C894.7,701.6,918,699,918,699c4.2,0.5,8.1,0.6,11.8,0.4
			c7.2-0.3,13.6-1.6,19.3-3.9c17.1-6.6,27.9-20.9,34.9-37.5c10.2-24.4,11.9-53.7,12.2-70.6c0-0.1,0-0.2,0-0.3c0-2.3,0-4.3,0.1-6.1
			c0-4.3,0-7,0.1-7.4c0,0-12.3-65.4-85-66.7c-72.7-1.4-81.9,79.7-81.9,79.7C817,574.8,801.1,581.4,801,600.5z"/>
		<path class="st2" d="M862.6,586.3c-1-1.2-0.9-3,0.3-4c11.9-10.3,23.3-5,27.1-3.2c0.3,0.1,0.5,0.2,0.7,0.3c0.7,0.1,1.4,0.4,1.9,1
			c1,1.2,0.9,3-0.3,4c-1.5,1.3-3.2,0.5-4.7-0.1c-3.5-1.7-11.8-5.5-21,2.4c-0.5,0.5-1.2,0.7-1.8,0.7
			C863.9,587.3,863.1,586.9,862.6,586.3z M888.6,580.1L888.6,580.1L888.6,580.1z M888.6,580.1L888.6,580.1L888.6,580.1z
			 M888.6,580.1C888.6,580.1,888.6,580.1,888.6,580.1C888.6,580.1,888.6,580.1,888.6,580.1z M888.6,580.1
			C888.6,580.1,888.6,580.1,888.6,580.1L888.6,580.1z M888.6,580.1C888.6,580.1,888.6,580.1,888.6,580.1
			C888.6,580.1,888.6,580.1,888.6,580.1z M888.6,580.1C888.6,580.1,888.6,580.1,888.6,580.1C888.6,580.1,888.6,580.1,888.6,580.1z
			 M888.6,580.1C888.6,580.1,888.6,580.1,888.6,580.1C888.6,580.1,888.6,580.1,888.6,580.1z M888.6,580.1L888.6,580.1L888.6,580.1z
			 M888.6,580.1C888.6,580.1,888.6,580.1,888.6,580.1S888.6,580.1,888.6,580.1z M888.6,580.1L888.6,580.1L888.6,580.1z M888.6,580
			C888.6,580,888.6,580,888.6,580C888.6,580,888.6,580,888.6,580z M888.6,580C888.6,580,888.6,580,888.6,580
			C888.6,580,888.6,580,888.6,580z M888.6,580L888.6,580L888.6,580z"/>
		<path class="st2" d="M980.7,597.4c0.6,0,1.2-0.2,1.7-0.5c1.3-0.9,1.5-2.7,0.6-4c-0.4-0.6-10.6-14.1-28.7-9.1c-1.5,0.4-2.4,2-2,3.5
			c0.4,1.5,2,2.4,3.5,2c14.4-4,22.6,6.9,22.6,7C979,597,979.8,597.4,980.7,597.4z"/>
		<path class="st2" d="M918.9,657.1c-1.5-0.2-2.5-1.6-2.4-3.1s1.6-2.6,3.1-2.5c0.2,0,4.4,0.4,7.7-6.3c2.8-5.6-3.6-15.8-6-19.6
			c-1.3-2-1.7-2.7-1.6-3.8c0.2-1.6,1.6-2.7,3.1-2.5c1.2,0.1,2.1,0.9,2.4,2c0.2,0.3,0.5,0.8,0.8,1.4c3.1,5,10.4,16.7,6.3,25.1
			c-4.3,8.6-10.4,9.4-12.7,9.4C919.3,657.2,918.9,657.1,918.9,657.1z M925.5,622.4C925.5,622.4,925.5,622.4,925.5,622.4
			C925.5,622.4,925.5,622.4,925.5,622.4z M925.5,622.4C925.5,622.4,925.5,622.4,925.5,622.4S925.5,622.4,925.5,622.4z"/>
		<path class="st2" d="M914.5,678.3c-6.2-0.1-14.7-2.9-19.6-15.4c-0.6-1.5,0.1-3.1,1.6-3.7c1.4-0.6,3.1,0.1,3.7,1.6
			c2.5,6.2,6.1,10,10.9,11.4c6.7,1.9,13.7-1.7,14.9-2.5c0.8-0.8,2.1-1.1,3.2-0.6c1.4,0.6,2.1,2.3,1.4,3.7c-1,2.2-8.5,5.6-15.5,5.6
			C914.8,678.3,914.7,678.3,914.5,678.3z M925.3,670.4C925.3,670.4,925.3,670.4,925.3,670.4C925.3,670.4,925.3,670.4,925.3,670.4z
			 M925.3,670.4C925.3,670.4,925.3,670.4,925.3,670.4C925.3,670.4,925.3,670.4,925.3,670.4z"/>
		
			<ellipse transform="matrix(0.103 -0.9947 0.9947 0.103 183.2414 1420.6238)" class="st2" cx="879.3" cy="608.7" rx="11.8" ry="10.2"/>
		<circle class="st3" cx="876.8" cy="605.3" r="4.7"/>
		
			<ellipse transform="matrix(0.103 -0.9947 0.9947 0.103 249.8766 1511.907)" class="st2" cx="963.2" cy="617.4" rx="11.8" ry="10.2"/>
		<circle class="st3" cx="960.7" cy="614" r="4.7"/>
		<path class="st3" d="M1038.3,862.3c0,4.9,0,10-0.1,15.1c-0.1,8.2-0.2,16.6-0.3,25.1c-0.1,5.1-0.2,10.2-0.3,15.3
			c-0.1,6.6-0.3,13.2-0.5,19.8c0,0.8,0,1.6-0.1,2.3c-0.1,3.5-0.2,6.9-0.3,10.3c0,1.4-0.1,2.8-0.1,4.2c-0.1,3.8-0.2,7.5-0.3,11.2
			c-0.3,8.6-0.5,17.1-0.8,25.3c-0.2,5.3-0.4,10.5-0.5,15.5c-1.5,42.5-3,73.8-3,73.8l-37.7,10.5c-64.2,17.8-136.5,63.5-195.7,33
			c0,0,1.5-68.5-1.7-92.8c-0.6-4.6-1.2-9.5-1.9-14.7c-1.2-9.5-2.5-19.9-3.8-30.8c-0.6-4.8-1.1-9.8-1.7-14.9c-0.6-4.9-1.1-9.9-1.7-15
			v-0.1c-0.2-1.8-0.4-3.6-0.6-5.4h0c-0.5-4.5-0.9-9-1.4-13.5c-0.5-4.9-1-9.9-1.5-14.9c-1-10.3-1.9-20.6-2.7-30.7
			c-0.4-5-0.8-10-1.1-14.9c-0.9-12.7-1.6-25.1-2-36.5c-0.2-5.2-0.3-10.2-0.4-15c-0.2-10.7,0-20.4,0.6-28.7
			c0.4-5.4,0.9-10.1,1.6-14.1c1.1-6.1,2.6-10.5,4.7-12.9c7.9-9.1,16-13.6,23.8-16.4h0c11.9-4.2,23.2-4.3,32.5-10.4
			c2-1.3,3.9-2.8,5.7-4.7c15.8-17,20.7-32.7,20.7-32.7c1.8,1.1,38,25.9,66.1,13.5c0,0-7.9,26,16.9,28.2c7.4,0.7,17,0.8,27.1,1.7
			c19.4,1.7,40.5,6.1,51.2,21.9c0.1,0.1,0.1,0.2,0.2,0.3c1.3,1.9,2.4,4,3.4,6.3c0.1,0.2,0.2,0.4,0.3,0.7c0,0,0,0,0,0s0,0,0,0
			c0.5,1.3,1,2.6,1.4,4.1c0.6,2.2,1.1,5.1,1.6,8.8c0.8,6.3,1.3,14.7,1.7,24.7c0.2,4.7,0.3,9.8,0.4,15.1
			C1038.3,839.8,1038.3,850.7,1038.3,862.3z"/>
		<path class="st2" d="M901.4,765.4c-9.7,0-18.5-2.3-25.4-5.5c-5.4-2.6-11.3-6.7-11.8-10.7c-0.1-1,0.6-1.9,1.6-2
			c1-0.1,1.9,0.6,2,1.6c0.1,1.3,2.9,4.6,9.7,7.8c13.6,6.4,35.2,8.7,55.1-4.1c0.9-0.5,2-0.3,2.5,0.6c0.5,0.9,0.3,2-0.6,2.5
			C923.6,762.7,912,765.4,901.4,765.4z"/>
		<path class="st2" d="M829.4,586.6l3,32.6c0,0,34.9-86.8,36.7-85.4c1.6,1.2,105.3,44.4,124.2,52.2c1.4,0.6,2.3,1,2.7,1.1
			c0.1,0.1,0.2,0.1,0.2,0.1s0.6-3.1,1-8.2c1.6-23-1.7-86.3-89.1-83.7C801.5,498.5,829.4,586.6,829.4,586.6z"/>
		<path class="st2" d="M1039.8,814.7c-0.5-28.7-11.9-41.4-15.4-44.6c-3.1-2.8-4.4-2.7-4.8-2.7c-1.2,0.1-2.1,1.1-2,2.3
			c0.1,1,0.8,1.8,1.8,1.9c2.7,1.2,15.6,13.2,16.1,43.1c0.6,33.3-0.4,111-0.4,111.7c0,1.2,0.9,2.1,2.1,2.1c0,0,0,0,0,0
			c1.2,0,2.1-0.9,2.1-2.1C1039.4,925.7,1040.3,848.1,1039.8,814.7z"/>
		<path class="st2" d="M871.3,686.9L871.3,686.9C871.3,686.9,871.3,686.9,871.3,686.9L871.3,686.9z"/>
		<polygon class="st2" points="431,652.5 537.3,944.5 249,944.5 142.7,652.5 		"/>
		<polygon class="st3" points="446.5,695 448,699 159.7,699 158.2,695 		"/>
		
			<ellipse transform="matrix(0.6407 -0.7678 0.7678 0.6407 -449.8693 385.4289)" class="st3" cx="186.9" cy="673.4" rx="10.7" ry="15.4"/>
		
			<ellipse transform="matrix(0.6407 -0.7678 0.7678 0.6407 -437.3796 412.1176)" class="st3" cx="221.6" cy="673.4" rx="10.7" ry="15.4"/>
		
			<ellipse transform="matrix(0.6407 -0.7678 0.7678 0.6407 -424.8899 438.8062)" class="st3" cx="256.4" cy="673.4" rx="10.7" ry="15.4"/>
		<polygon class="st2" points="1856.7,409.3 1735.1,743.4 1472.8,743.4 1594.4,409.3 		"/>
		<polygon class="st3" points="1842.7,448 1841.3,451.6 1579,451.6 1580.3,448 		"/>
		
			<ellipse transform="matrix(0.7678 -0.6407 0.6407 0.7678 101.937 1137.8444)" class="st3" cx="1620.8" cy="428.3" rx="14" ry="9.8"/>
		
			<ellipse transform="matrix(0.7678 -0.6407 0.6407 0.7678 109.281 1158.1082)" class="st3" cx="1652.4" cy="428.3" rx="14" ry="9.8"/>
		
			<ellipse transform="matrix(0.7678 -0.6407 0.6407 0.7678 116.625 1178.3719)" class="st3" cx="1684" cy="428.3" rx="14" ry="9.8"/>
		<path class="st3" d="M430.5,823c-3.1-8.4-7.4-16.6-12.5-24.3l15.3-5.4c-10.4-15.3-24.1-29.4-39.6-40.8l-8.1,12.9
			c-7.9-5.8-16.3-10.7-25.1-14.5l2.6-16.1c-16.9-7.5-34.3-11.4-50.4-11.4h-0.1l6.6,18.2c-8.4,0-16.1,1.3-22.9,3.7l-11.7-17.3
			c-13.5,4.8-24.5,13.3-31.8,24.8l17.5,12.8c-3.7,5.8-6.2,12.4-7.4,19.8l-19.1-8.4c-2.3,14.2-0.4,30.2,5.4,46.3l0,0l18.1,0
			c3.1,8.5,7.3,16.6,12.5,24.3l-15.4,5.4c10.3,15.3,24,29.4,39.6,40.8l8.2-12.8c7.9,5.8,16.3,10.7,25,14.6l-2.6,16.1
			c16.9,7.5,34.4,11.4,50.5,11.4h0.3l-6.7-18.2c8.4,0,16.1-1.3,22.9-3.7l11.7,17.3c13.5-4.8,24.5-13.4,31.7-24.8l-17.5-12.8
			c3.7-5.8,6.2-12.5,7.3-19.8l19.1,8.4c2.3-14.2,0.4-30.2-5.5-46.2l0-0.1H430.5z M365.4,868.4c-25,0-52.7-20.3-61.7-45.3
			c-9.1-25,3.8-45.3,28.8-45.3c25,0,52.7,20.3,61.7,45.3C403.3,848.1,390.4,868.4,365.4,868.4z"/>
		<path class="st2" d="M1603.4,336.6c-0.5-4.7-1.7-8.8-3.7-12.4l10.9-7.4c-3.9-7.2-10.2-12.8-18.1-16.2l-7.6,10.3
			c-4-1.7-8.6-2.7-13.5-3l4.6-11c-9.5-0.5-20,1.4-30.4,5.5l-0.1,0l1,10c-5.4,2.1-10.6,4.9-15.4,8.2l-4.4-8.2
			c-9.6,6.5-18.2,14.8-25,24l9,3.8c-3.4,4.7-6.2,9.6-8.3,14.6l-10.8-0.6c-4.1,9.7-5.8,19.6-4.9,28.4l0,0l11.7-4.6
			c0.5,4.7,1.7,8.8,3.7,12.5l-10.9,7.4c3.9,7.2,10.1,12.8,18.1,16.2l7.6-10.3c4,1.7,8.6,2.8,13.5,3l-4.6,11
			c9.5,0.5,20.1-1.4,30.5-5.5l0.2-0.1l-1-10c5.4-2.2,10.6-4.9,15.4-8.2l4.4,8.2c9.6-6.5,18.2-14.8,24.9-24l-9-3.8
			c3.4-4.7,6.2-9.6,8.3-14.6l10.8,0.6c4-9.7,5.7-19.5,4.9-28.4l0-0.1L1603.4,336.6z M1553.3,382.3c-16.1,6.3-30.2,0.3-31.5-13.5
			c-1.3-13.8,10.7-30.1,26.8-36.5c16.1-6.3,30.2-0.3,31.5,13.5C1581.4,359.6,1569.3,376,1553.3,382.3z"/>
		<path class="st2" d="M1836.6,226.7c-0.8-8.1-3-15.3-6.4-21.6l18.8-12.8c-6.8-12.5-17.6-22.2-31.4-28.1l-13.1,17.9
			c-7-3-14.9-4.8-23.4-5.2l8-19.1c-16.5-0.9-34.8,2.4-52.7,9.5l-0.1,0l1.7,17.4c-9.4,3.7-18.4,8.6-26.8,14.2l-7.6-14.2
			c-16.6,11.3-31.6,25.7-43.3,41.6l15.5,6.6c-5.9,8.1-10.8,16.6-14.4,25.3l-18.7-1c-7,16.9-10,33.9-8.5,49.3l0,0l20.3-8
			c0.8,8.1,3,15.3,6.4,21.6l-18.8,12.8c6.7,12.5,17.6,22.3,31.4,28.1l13.1-17.9c7,3,14.9,4.8,23.4,5.2l-8,19.1
			c16.6,0.9,34.8-2.4,52.8-9.5l0.3-0.1l-1.7-17.3c9.4-3.7,18.4-8.6,26.7-14.2l7.7,14.2c16.6-11.3,31.6-25.7,43.2-41.6l-15.5-6.6
			c5.9-8.1,10.8-16.6,14.4-25.3l18.7,1c7-16.8,9.9-33.8,8.4-49.2l0-0.1L1836.6,226.7z M1749.7,306c-27.9,11-52.4,0.5-54.7-23.4
			c-2.3-23.9,18.5-52.2,46.4-63.2s52.4-0.5,54.7,23.4C1798.4,266.7,1777.6,295,1749.7,306z"/>
		<rect x="287.8" y="1057.3" class="st2" width="1390.7" height="77.1"/>
		<rect x="1441.6" y="1107.1" class="st2" width="36.3" height="735.2"/>
		<rect x="520.3" y="1107.1" class="st2" width="36.3" height="735.2"/>
		<path class="st0" d="M991.2,1057.7c-0.2-0.8-0.4-1.3-0.4-1.3s-7-3.9-16.2-8.7c-12.6-6.6-29.4-15-38.1-17.8
			c-15.2-4.8-60.4,21.1-60.4,21.1l-92.3-22.6l-11-2.7c0.6-2.2,14.4-75.5,16.7-99.5c-27-5.8-72.9-12.4-84-16.9
			c-2.3,34.7-0.9,127.3,12.1,150.9c10.9,19.7,41.3,28.7,70.4,32.7c32.5,4.4,63.6,2.6,64.4,2.3c1.5-0.5,7,4.3,18.7,9
			c11.8,4.7,33.7-9.7,33.7-9.7s22.4,7.3,40.7,11.5c18.3,4.1,15.5-7.5,15.5-7.5c18.7,5.3,15.9-12.3,15.9-12.3s3.6,4.2,9.8-3.4
			c6.2-7.6-2.9-14.2-2.9-14.2C993.1,1068,992,1060.7,991.2,1057.7z"/>
		<path class="st2" d="M934.4,1049.5c0.2,0.5,0.6,1,1.1,1.3c16.9,8.4,42.4,21,44.1,22c1,0.6,2.3,0.4,3.1-0.5c0.8-1,0.6-2.4-0.4-3.2
			c-0.2-0.2-0.9-0.7-44.7-22.3c-1.1-0.6-2.5-0.1-3.1,1C934.2,1048.3,934.2,1049,934.4,1049.5z"/>
		<path class="st2" d="M931.7,1065.2c0.2,0.5,0.5,0.9,1,1.2c15.8,8.8,39.5,22.1,40.8,22.9c1,0.6,2.3,0.4,3-0.5
			c0.7-1,0.5-2.3-0.4-3.1c-0.2-0.1-0.6-0.4-41.2-23.2c-1.1-0.6-2.4-0.2-3,0.8C931.6,1063.9,931.5,1064.6,931.7,1065.2z"/>
		<path class="st2" d="M928.5,1083.2c0.2,0.5,0.5,0.9,0.9,1.1c10.1,6.3,25.4,16,26.2,16.5c1,0.7,2.3,0.4,3-0.5c0.7-1,0.5-2.3-0.4-3
			c-0.5-0.4-16.7-10.6-26.4-16.7c-1-0.6-2.4-0.3-3,0.7C928.3,1081.9,928.3,1082.6,928.5,1083.2z"/>
		<path class="st3" d="M675.7,914c0.1-4.3,114.2,23.8,114.2,23.8S917.5,783.3,815,760.2C712.6,737.1,675.7,917.6,675.7,914z"/>
		<path class="st2" d="M797.1,940.8c-0.8-0.8-0.8-2.2,0-3c0.4-0.4,44.7-44.6,54.4-108.2c3.5-22.9-0.8-39.7-12.8-49.9
			c-9.8-8.3-22.5-10.3-28.6-11.3c-3.2-0.5-4.4-0.7-5.2-1.6c-0.8-0.9-0.7-2.2,0.1-3c0.7-0.7,1.9-0.7,2.7-0.2c0.5,0.2,1.9,0.4,3.1,0.6
			c6.5,1,20,3.1,30.7,12.2c13.2,11.2,18,29.3,14.3,53.8c-10,65-55.2,110.1-55.6,110.6c-0.4,0.4-1,0.6-1.5,0.6
			C798,941.4,797.5,941.2,797.1,940.8z M808,764C808,764,808,764,808,764C808,764,808,764,808,764z"/>
		<path class="st2" d="M857,686.9c2.4,1.1,50,26.7,22.3,84.7c0,0,53.8,29.7,33.4,68.1c0,0,34.5-14,31,39.2c0,0,20.2,6.7,4.4,30.5
			c0,0,30.6,12.9,19.7,42.5c-10.9,29.6-10.9,57.2,16.3,52.3c0,0-15.3,29.7-40.4,4c-25.2-25.7,8.5-54.3,8.5-54.3s-21-3.9-18-30.6
			c0,0-21.7,3-17.7-19.7c0,0-39.5,8.9-35-42.4c0,0-47.5-14.5-19.6-79.9c0,0-124.9-21.4-49.9-136L857,686.9z"/>
		<polygon class="st3" points="1574.9,1052.2 1194.4,1052.2 1281,814.2 1661.5,814.2 		"/>
		<rect x="1050.2" y="1039.8" class="st3" width="522.7" height="28.9"/>
		<path class="st2" d="M1461.2,959.7c-5.6,11.8-17.6,19.9-31.6,19.9c-19.3,0-35-15.6-35-35c0-19.3,15.6-35,35-35c0.4,0,0.8,0,1.2,0
			c-2.2,4.6-3.4,9.7-3.4,15C1427.4,943.7,1442.4,959.1,1461.2,959.7z"/>
		<polygon class="st3" points="1799,498.9 1596.8,498.9 1599.7,491 1801.9,491 		"/>
		<polygon class="st3" points="1753.1,621.4 1550.9,621.4 1553.7,613.5 1755.9,613.5 		"/>
		<polygon class="st3" points="1783.7,539.4 1581.5,539.4 1584.4,531.5 1786.5,531.5 		"/>
		<polygon class="st3" points="1769.1,579.8 1566.9,579.8 1569.8,571.9 1772,571.9 		"/>
		<polygon class="st3" points="1737.8,662.9 1535.6,662.9 1538.5,655 1740.7,655 		"/>
	</g>
</g>
</svg>
