<?xml version="1.0" encoding="utf-8"?>
<!-- Generator: Adobe Illustrator 23.0.5, SVG Export Plug-In . SVG Version: 6.00 Build 0)  -->
<svg version="1.1" xmlns="http://www.w3.org/2000/svg" xmlns:xlink="http://www.w3.org/1999/xlink" x="0px" y="0px"
	 viewBox="0 0 2000 2000" style="enable-background:new 0 0 2000 2000;" xml:space="preserve">
<style type="text/css">
	.st0{fill:#F1BAA4;}
	.st1{fill:#C35656;}
	.st2{fill:#362E38;}
	.st3{fill:#EFE5DC;}
</style>
<g id="Layer_1">
</g>
<g id="Layer_2">
	<g>
		<polygon class="st2" points="1257.3,1154.3 1247.3,1154.3 1247.3,348.5 1656.1,348.5 1656.1,943 1552.9,943 1552.9,1102.6 
			1542.9,1102.6 1542.9,933 1646.1,933 1646.1,358.5 1257.3,358.5 		"/>
		<polygon class="st2" points="1329.7,1155.3 1319.7,1155.3 1319.7,829.8 1060.2,829.8 1060.2,211.1 1265.2,211.1 1265.2,683.2 
			1566.8,683.2 1566.8,436.7 1805.3,436.7 1805.3,986.8 1625.9,986.8 1625.9,1130.5 1615.9,1130.5 1615.9,976.8 1795.3,976.8 
			1795.3,446.7 1576.8,446.7 1576.8,693.2 1255.2,693.2 1255.2,221.1 1070.2,221.1 1070.2,819.8 1329.7,819.8 		"/>
		<path class="st0" d="M1027.9,913.9c2.3,0.8,25.7-6.8,25.7-6.8s46-73.9,54.3-70.2c8.3,3.8-23.4,66.4-23.4,66.4s20.4-0.6,18.1,10.6
			c0,0,22.6,6.7,15.8,24.1S1077,1003,1077,1003l-77-10.6L1027.9,913.9z"/>
		<path class="st2" d="M1051.3,968.8c-0.3,0-0.6-0.1-0.9-0.2c-1-0.5-1.4-1.7-0.9-2.7c7.7-15.3-6.5-35.5-6.6-35.7
			c-0.5-0.6-0.5-1.5-0.1-2.2c0.4-0.7,1.2-1.1,2-1c6.1,0.7,23,1.4,28.5-3.5c1.1-1,1.7-2.2,1.7-3.6c0-2.6-0.8-4.6-2.4-6
			c-4.2-3.6-12.3-2.6-12.4-2.5c-1.1,0.1-2.1-0.6-2.3-1.7c-0.2-1.1,0.6-2.1,1.7-2.3c0.4-0.1,10-1.3,15.6,3.5c2.5,2.2,3.8,5.2,3.8,9
			c0,2.6-1,4.8-3,6.6c-6.1,5.4-20.5,5.3-27.6,4.8c4,6.9,11.5,22.8,4.7,36.3C1052.7,968.3,1052,968.8,1051.3,968.8z"/>
		<path class="st2" d="M1089.8,961.2c-0.4,0-0.8-0.1-1.2-0.4c-13.1-9.3,3.3-36.2,4-37.4c0.6-0.9,1.8-1.2,2.8-0.7
			c0.9,0.6,1.2,1.8,0.7,2.8c-4.2,6.9-13.4,26.1-5.1,32c0.9,0.6,1.1,1.9,0.5,2.8C1091,960.9,1090.4,961.2,1089.8,961.2z"/>
		<path class="st2" d="M495,579.5c0,0-50.7-15.8-54.3,55c-3.6,70.9-7.4,104.8,27.2,130.2s111.5,24.7,107.4,0S495,579.5,495,579.5z"
			/>
		<path class="st2" d="M754.9,570.7c0,0-9.2-109.6-113.5-105.3c-104.4,4.3-141,75.9-153,129.6c-11.9,53.7-7.1,174,104.3,175.7
			C704.2,772.4,754.9,570.7,754.9,570.7z"/>
		
			<rect x="593.8" y="739.7" transform="matrix(-1 -4.419277e-11 4.419277e-11 -1 1259.3879 1615.9393)" class="st0" width="71.8" height="136.5"/>
		<path class="st0" d="M754.9,613.5c-1,2.6,3.4,62.5-16,108.8C730,743.6,716,762,694,770.6c-11.2,4.4-24.4,6.1-40.1,4.4
			c0,0-77.3,8.6-108.9-80.4c0,0-32.5,0.6-40.4-33.7c-7.9-34.2,16.7-48.3,35.1-30.7c0,0,11.8-104.5,105.6-102.7
			C739.1,529.2,754.9,613.5,754.9,613.5z"/>
		<path class="st2" d="M582.6,629.7c-1.3-1.5-1.1-3.8,0.4-5.1c15.4-13.2,30.1-6.4,34.9-4.1c0.3,0.2,0.6,0.3,0.9,0.4
			c0.9,0.1,1.8,0.5,2.5,1.3c1.3,1.5,1.1,3.8-0.4,5.1c-2,1.7-4.1,0.7-6-0.2c-4.6-2.1-15.2-7.1-27,3c-0.7,0.6-1.5,0.9-2.4,0.9
			C584.3,631,583.3,630.6,582.6,629.7z M616,621.7L616,621.7L616,621.7z M616,621.7L616,621.7L616,621.7z M616.1,621.7
			C616.1,621.7,616.1,621.7,616.1,621.7C616.1,621.7,616.1,621.7,616.1,621.7z M616.1,621.7C616.1,621.7,616.1,621.7,616.1,621.7
			L616.1,621.7z M616.1,621.7C616.1,621.7,616.1,621.7,616.1,621.7C616.1,621.7,616.1,621.7,616.1,621.7z M616.1,621.7
			C616.1,621.7,616.1,621.7,616.1,621.7C616.1,621.7,616.1,621.7,616.1,621.7z M616.1,621.7C616.1,621.7,616.1,621.7,616.1,621.7
			C616.1,621.7,616.1,621.7,616.1,621.7z M616.1,621.7L616.1,621.7L616.1,621.7z M616.1,621.7C616.1,621.7,616.1,621.7,616.1,621.7
			S616.1,621.7,616.1,621.7z M616.1,621.7L616.1,621.7L616.1,621.7z M616.1,621.7C616.1,621.7,616.1,621.7,616.1,621.7
			C616.1,621.7,616.1,621.7,616.1,621.7z M616.1,621.7C616.1,621.7,616.1,621.7,616.1,621.7C616.1,621.7,616.1,621.7,616.1,621.7z
			 M616.1,621.7L616.1,621.7L616.1,621.7z"/>
		<path class="st2" d="M734.8,644c0.7,0,1.5-0.2,2.2-0.7c1.6-1.2,2-3.5,0.8-5.1c-0.5-0.7-13.7-18.2-37-11.8
			c-1.9,0.5-3.1,2.5-2.5,4.5s2.5,3.1,4.5,2.5c18.5-5.1,29.1,8.9,29.2,9.1C732.6,643.5,733.7,644,734.8,644z"/>
		<path class="st2" d="M655.1,721c-2-0.3-3.3-2.1-3-4.1c0.2-2,2-3.4,4-3.2c0.2,0,5.7,0.5,9.9-8.1c3.6-7.2-4.6-20.3-7.7-25.2
			c-1.6-2.6-2.2-3.5-2-4.9c0.2-2,2-3.4,4-3.3c1.5,0.2,2.7,1.2,3.1,2.5c0.2,0.4,0.6,1,1.1,1.8c4,6.4,13.5,21.5,8.1,32.4
			c-5.5,11-13.4,12.1-16.3,12.1C655.6,721.1,655.2,721,655.1,721z M663.6,676.2C663.6,676.2,663.6,676.2,663.6,676.2
			C663.6,676.2,663.6,676.2,663.6,676.2z M663.6,676.2C663.6,676.2,663.6,676.2,663.6,676.2S663.6,676.2,663.6,676.2z"/>
		<path class="st2" d="M649.5,748.3c-8-0.2-18.9-3.8-25.3-19.9c-0.7-1.9,0.2-4,2.1-4.7c1.9-0.7,4,0.2,4.7,2.1
			c3.2,8,7.9,12.9,14,14.6c8.7,2.4,17.6-2.2,19.1-3.2c1-1.1,2.7-1.4,4.1-0.8c1.8,0.8,2.7,3,1.8,4.8c-1.3,2.8-11,7.2-19.9,7.2
			C649.9,748.3,649.7,748.3,649.5,748.3z M663.4,738.2C663.4,738.2,663.4,738.2,663.4,738.2C663.4,738.2,663.4,738.2,663.4,738.2z
			 M663.4,738.2C663.4,738.2,663.4,738.2,663.4,738.2C663.4,738.2,663.4,738.2,663.4,738.2z"/>
		
			<ellipse transform="matrix(0.103 -0.9947 0.9947 0.103 -113.2332 1191.691)" class="st2" cx="604.1" cy="658.6" rx="15.3" ry="13.2"/>
		<circle class="st3" cx="600.9" cy="654.2" r="6.1"/>
		
			<ellipse transform="matrix(0.103 -0.9947 0.9947 0.103 -27.3611 1309.3268)" class="st2" cx="712.3" cy="669.8" rx="15.3" ry="13.2"/>
		<circle class="st3" cx="709" cy="665.4" r="6.1"/>
		<path class="st3" d="M808.9,1008.7c-1.1,113.2-8,257.6-8,257.6l-59.1,16.4l-114.2,31.7l-3.9,1.1l-100.7-51.9l-18-9.2
			c0,0-6.4-44.1-13.4-102.8c-4.6-38.4-9.4-83-12.9-125.5c-6.3-77.1-8.2-147.3,3.9-161.3c2.7-3,5.4-5.7,8-8.1
			c26.3-22.8,52.9-13,71.3-32c0.2-0.2,0.4-0.4,0.6-0.6c20.3-21.8,26.7-42.2,26.7-42.2c0.4,0.2,2,1.3,4.5,2.8
			c11.7,7.1,43.4,24.2,71.8,17.5c3-0.7,6-1.7,9-2.9c0,0-8.6,28.2,14.7,35c2.1,0.7,4.5,1.1,7.1,1.3c23.1,2.1,62.1,0.4,86.9,16.9
			c0.4,0.2,0.9,0.6,1.3,0.9c8.9,6.3,15.9,15,19.3,27.4c0.6,2,1.1,4.5,1.5,7.5c0.9,5.9,1.6,13.6,2.1,22.8l0,0.9
			C809,936.4,809.3,970.8,808.9,1008.7z"/>
		<path class="st2" d="M539.8,630.2c0,0-12.5,36.6,6.7,30.1c19.2-6.5,42.8-96,42.8-96s143,64.6,165.6,49.3
			c22.6-15.3,3-122.3-76.7-122.3S525.3,585,539.8,630.2z"/>
		<path class="st2" d="M855.6,1720.9H438.4c1.4-55,10.7-279.8,18.4-303.4c24.9-76.5,48.9-139.2,48.9-139.2s203.5-22.2,295.9,11.9
			c0,0,34.4,50.9,43.7,157.5C848.2,1481.3,855,1690.4,855.6,1720.9z"/>
		<path class="st1" d="M855.5,1492.2c1.6,6.3-100.6,9.5-100.6,9.5s-6.7-105.2-13.1-218.9c-5-87.8-9.8-180.6-11.1-233.9
			c-3.2-122.4-41.3-214.4-41.3-214.4c2.1,0.7,4.5,1,7.1,1.3c29.9,3.2,70.9,1.9,86.9,16.9c0.4,0.2,0.9,0.6,1.3,0.9
			c2.7,1.8,9.5,6.5,18.9,12.9l3.7,22.8l1.9,22.4l-0.1,4.6l6.7,95.8l-6.7,193.2C809,1205.3,853.9,1485.9,855.5,1492.2z"/>
		<path class="st1" d="M627.5,1314.5c-1.2,103.2-3.6,187.2-3.6,187.2H434.4l44.6-240l10.5-56.5l-4.2-58.8l-8.4-118.2L466.1,876
			c8.2-6.4,22.7-19.5,22.7-19.5c26.3-22.8,54.7-12.7,73.2-31.7c9,9.6,20.8,24.6,31.8,47.4c0.6,1.3,1.2,2.6,1.8,3.9
			c11.6,25.1,21.9,59.1,26.4,104.7C629,1051.4,629,1195.6,627.5,1314.5z"/>
		<path class="st3" d="M749.4,1220.5c-0.1,0-0.2,0-0.3,0c-1.3-0.2-2.2-1.3-2.1-2.6l22.9-188.1l-30.4-57.5l30-42.3
			c-21.2-30.3-55-77.9-58.6-80.7c-1-0.8-1.3-2.3-0.5-3.3c0.7-1,2.1-1.3,3.2-0.6c4.7,3.1,51.4,69.9,60.8,83.3l1,1.4l-30.2,42.6
			l29.7,56.2l-0.1,0.7l-23,188.8C751.6,1219.7,750.6,1220.5,749.4,1220.5z"/>
		<path class="st3" d="M603.9,1203.9c-1.1,0-2.1-0.8-2.3-2l-28.8-165.2l0.2-0.6c4.1-11.7,23.6-67.5,28.3-76.9
			c-3.9-4.6-30.9-21.2-56-35.4l-1.3-0.7l0.1-1.5c5.8-73.4,6.5-74.8,6.8-75.4c0.6-1.2,2-1.7,3.2-1.1c1.1,0.5,1.6,1.8,1.2,2.9
			c-0.7,3.2-4.1,44.4-6.3,72.4c21.5,12.1,56.2,32.5,57.3,38.1c0.2,0.9,0,1.7-0.6,2.4c-2.2,3.2-18.3,48.1-28,76.1l28.6,164
			c0.2,1.3-0.6,2.5-1.9,2.7C604.2,1203.9,604.1,1203.9,603.9,1203.9z M602,958.1C602,958.1,601.9,958.2,602,958.1
			C601.9,958.2,602,958.1,602,958.1z"/>
		<path class="st2" d="M663.4,875.1c-0.1,0-0.2,0-0.3,0c-0.9-0.1-1.6-0.7-1.9-1.5l-24.3-60.3c-0.5-1.2,0.1-2.6,1.3-3.1
			c1.2-0.5,2.6,0.1,3.1,1.3l22.6,56.2l20.1-29.3c0.7-1.1,2.2-1.3,3.3-0.6c1.1,0.7,1.4,2.2,0.6,3.3l-22.6,33
			C664.9,874.8,664.2,875.1,663.4,875.1z"/>
		<path class="st2" d="M625.6,879.9c-0.5,0-1-0.1-1.4-0.4l-31.7-22.5c-1.1-0.8-1.3-2.2-0.6-3.3c0.8-1.1,2.2-1.3,3.3-0.6l28.8,20.5
			c2.7-12.1,11.8-52.2,12.7-61.3c0.1-1.3,1.4-2.3,2.6-2.1c1.3,0.1,2.3,1.3,2.1,2.6c-1.1,11-13.1,63.1-13.6,65.3
			c-0.2,0.8-0.7,1.4-1.5,1.7C626.2,879.9,625.9,879.9,625.6,879.9z"/>
		<path class="st0" d="M153.1,1604.6c8,0.1,9.4-6.2,9.4-6.2s2.3,9.6,8.9,12.1c6.5,2.5,11.1-12.1,11.1-12.1s0.9,6.6,10.5,6.2
			c9.6-0.4,11.9-17.3,11.9-17.3c6.7,13.7,16.6,1.8,16.6,1.8s6-48.9,9.2-47.3c3.2,1.6,18.7-7.1,38.5-28.1c19-20.3,16.9-46,17.8-48.7
			c-11.2-11.7-26-31.7-34.9-44.8c-10.8,9.2-76.7,65.7-86,78.7c-10.2,14.1-17,57.6-19.5,74C143.9,1589.3,145,1604.4,153.1,1604.6z"/>
		<path class="st2" d="M162.6,1594.6c0.2-0.1,0.3-0.3,0.4-0.4c0.5-0.6,0.7-1.4,0.5-2.2c0.1-3.5,5.1-27.2,8.4-43
			c5-23.7,5.1-24.7,5-25.7c-0.2-1.4-1.5-2.3-2.9-2c-1.2,0.2-2.1,1.3-2.1,2.5c-0.2,1.7-2.6,13.1-4.9,24.2
			c-9.4,44.9-9.3,45.1-7.6,46.5C160.4,1595.2,161.7,1595.2,162.6,1594.6z"/>
		<path class="st2" d="M183,1593.7c0.5-0.4,0.9-0.9,1-1.6c2.9-18.6,7.7-48.9,8.7-52.2c0.3-0.5,0.4-1.1,0.2-1.8
			c-0.3-1.3-1.7-2.1-3-1.8c-2.1,0.5-2.4,0.6-10.8,55.1c-0.2,1.4,0.7,2.6,2.1,2.8C181.9,1594.2,182.5,1594,183,1593.7z"/>
		<path class="st2" d="M205.9,1584c0.5-0.4,0.9-1,1-1.7c1.1-9.6,4.2-35.4,4.9-38.5c0.3-1.3-0.5-2.7-1.9-3c-1.3-0.3-2.7,0.6-3,1.9
			c-0.9,4-4.8,37.6-5,39c-0.2,1.4,0.8,2.6,2.2,2.8C204.8,1584.5,205.4,1584.3,205.9,1584z"/>
		<path class="st1" d="M479.3,875c7,36.2,35.4,177.1,19.2,260c-18.8,96.4-182.8,364.1-182.8,364.1c-61.7-20.8-90.3-102-90.3-102
			s126.3-234.4,176.6-376.6c50.3-142.2,64.1-145,65.5-145.1L479.3,875z"/>
		<path class="st3" d="M487.4,1017.6c-0.3,0-0.6-0.1-0.9-0.2c-1.2-0.5-1.8-1.9-1.3-3.1c25.3-62.2,11.7-105.4,6.6-121.7
			c-1.2-3.7-1.9-5.9-1.9-7.4c0-1.3,1.1-2.4,2.4-2.4s2.4,1.1,2.4,2.4c0,0.8,0.8,3.3,1.6,6c5.3,16.7,19.2,61.1-6.7,124.9
			C489.3,1017.1,488.4,1017.6,487.4,1017.6z"/>
		<path class="st1" d="M1000,992.4c0,3-39.2,80.7-39.2,80.7S843.2,862.3,801,848.7l-50.1-8l56.7,251.4c0,0,48.3,124.9,96.6,144.5
			s74.7,27.5,104.1-12.5c29.4-40,90.4-221.1,90.4-221.1L1000,992.4z"/>
		<path class="st2" d="M904.2,1189.8c-1.1,0-2-0.9-2-2c0-0.7,0.4-1.4,1-1.7c4.2-4.8,35.5-70.4,55.8-113.8c0.5-1,1.7-1.4,2.7-1
			c1,0.5,1.4,1.7,1,2.7c-0.1,0.3-13.6,29-27.2,57.4c-8,16.7-14.5,29.9-19.3,39.5C906.4,1189.8,905.7,1189.8,904.2,1189.8z
			 M904.2,1185.8L904.2,1185.8C904.2,1185.8,904.2,1185.8,904.2,1185.8z"/>
		<rect x="141.1" y="1705.7" class="st3" width="1717.8" height="83.2"/>
		<rect x="1141.3" y="1084.6" class="st2" width="659" height="436.9"/>
		<polygon class="st2" points="1602.5,1667.2 1492,1667.2 1425.5,1484.4 1536,1484.4 		"/>
		<rect x="1394.1" y="1649.9" class="st2" width="304.6" height="55.9"/>
		<path class="st3" d="M1524.7,1324.3c-7.9,16.6-24.9,28.1-44.6,28.1c-27.3,0-49.4-22.1-49.4-49.3s22.1-49.4,49.4-49.4
			c0.6,0,1.1,0,1.7,0c-3.1,6.4-4.8,13.6-4.8,21.2C1477,1301.6,1498.2,1323.4,1524.7,1324.3z"/>
		<rect x="925.8" y="286.9" class="st2" width="431" height="436.5"/>
		<rect x="925.8" y="350.5" class="st3" width="431" height="6"/>
		<circle class="st3" cx="980.5" cy="318.1" r="19.3"/>
		<circle class="st3" cx="1032.5" cy="318.1" r="19.3"/>
		<circle class="st3" cx="1084.4" cy="318.1" r="19.3"/>
		<rect x="1435.3" y="524.4" class="st2" width="272.9" height="344.5"/>
		<rect x="1435.3" y="564.6" class="st3" width="272.9" height="3.8"/>
		<circle class="st3" cx="1469.9" cy="544.1" r="12.2"/>
		<circle class="st3" cx="1502.8" cy="544.1" r="12.2"/>
		<circle class="st3" cx="1535.7" cy="544.1" r="12.2"/>
		<path class="st3" d="M1583.9,731.8c0-6.4-1-12.6-2.8-18.4l13.1-4.1c-3.6-11.6-10.1-22.3-18.8-30.9l-9.7,9.7
			c-4.4-4.4-9.4-8.1-15-11l6.4-12.2c-10.7-5.6-22.9-8.6-35-8.6h-0.1v13.8c-6.4,0-12.6,1-18.4,2.8l-4.1-13.1
			c-11.6,3.6-22.3,10.1-30.9,18.7l9.7,9.7c-4.4,4.4-8.1,9.4-11,15l-12.2-6.4c-5.7,10.8-8.6,22.9-8.6,35.1v0l13.8,0
			c0,6.4,1,12.6,2.8,18.4l-13.1,4.1c3.6,11.6,10.1,22.3,18.7,30.9l9.7-9.7c4.4,4.4,9.4,8.1,15,11l-6.4,12.2
			c10.8,5.7,22.9,8.7,35.1,8.7h0.2l0-13.8c6.4,0,12.6-1,18.4-2.8l4.1,13.1c11.6-3.6,22.3-10.1,30.9-18.8l-9.7-9.7
			c4.4-4.4,8.1-9.4,11-15l12.2,6.4c5.6-10.7,8.6-22.8,8.6-35v-0.1H1583.9z M1522.1,766.2c-18.9,0-34.3-15.4-34.3-34.3
			s15.4-34.3,34.3-34.3c18.9,0,34.3,15.4,34.3,34.3S1541,766.2,1522.1,766.2z"/>
		<path class="st3" d="M1688.6,728.9c0-3.9-0.6-7.6-1.7-11.2l8-2.5c-2.2-7-6.1-13.5-11.4-18.8l-5.9,5.9c-2.7-2.7-5.7-4.9-9.1-6.7
			l3.9-7.4c-6.5-3.4-13.9-5.2-21.3-5.2h0v8.4c-3.9,0-7.6,0.6-11.2,1.7l-2.5-8c-7,2.2-13.5,6.1-18.8,11.4l5.9,5.9
			c-2.7,2.7-4.9,5.7-6.7,9.1l-7.4-3.9c-3.4,6.5-5.3,13.9-5.3,21.3v0l8.4,0c0,3.9,0.6,7.6,1.7,11.2l-8,2.5c2.2,7,6.1,13.5,11.4,18.8
			l5.9-5.9c2.7,2.7,5.7,4.9,9.1,6.7l-3.9,7.4c6.5,3.4,13.9,5.3,21.3,5.3h0.1l0-8.4c3.9,0,7.6-0.6,11.1-1.7l2.5,8
			c7-2.2,13.5-6.2,18.7-11.4l-5.9-5.9c2.7-2.7,4.9-5.7,6.7-9.1l7.4,3.9c3.4-6.5,5.2-13.9,5.2-21.3v-0.1H1688.6z M1651.1,749.7
			c-11.5,0-20.8-9.3-20.8-20.8c0-11.5,9.3-20.8,20.8-20.8c11.5,0,20.8,9.3,20.8,20.8C1671.9,740.4,1662.6,749.7,1651.1,749.7z"/>
		<path class="st3" d="M1634.4,648c0-3.1-0.5-6.2-1.4-9l6.4-2c-1.8-5.7-5-10.9-9.2-15.1l-4.8,4.8c-2.2-2.1-4.6-4-7.3-5.4l3.1-6
			c-5.3-2.8-11.2-4.2-17.2-4.2h0v6.7c-3.1,0-6.2,0.5-9,1.4l-2-6.4c-5.7,1.8-10.9,5-15.2,9.2l4.8,4.8c-2.1,2.2-4,4.6-5.4,7.3l-6-3.1
			c-2.8,5.3-4.2,11.2-4.2,17.2v0l6.7,0c0,3.1,0.5,6.2,1.4,9l-6.4,2c1.8,5.7,5,10.9,9.2,15.2l4.8-4.8c2.2,2.2,4.6,4,7.3,5.4l-3.1,6
			c5.3,2.8,11.2,4.3,17.2,4.3h0.1l0-6.7c3.1,0,6.2-0.5,9-1.4l2,6.4c5.7-1.8,10.9-5,15.1-9.2l-4.8-4.8c2.1-2.2,4-4.6,5.4-7.3l6,3.1
			c2.8-5.3,4.2-11.2,4.2-17.2v0H1634.4z M1604.1,664.9c-9.3,0-16.8-7.5-16.8-16.8c0-9.3,7.5-16.8,16.8-16.8s16.8,7.5,16.8,16.8
			C1620.9,657.3,1613.3,664.9,1604.1,664.9z"/>
		<g>
			<path class="st3" d="M1032.8,417.1h-7.3c-17.4,0-31.5,14.1-31.5,31.5v33.9c0,17.4,14.1,31.5,31.5,31.5h7.3
				c17.4,0,31.5-14.1,31.5-31.5v-33.9C1064.3,431.2,1050.1,417.1,1032.8,417.1z M1047.9,482.5c0,8.3-6.8,15.1-15.1,15.1h-7.3
				c-8.3,0-15.1-6.8-15.1-15.1v-33.9c0-8.3,6.8-15.1,15.1-15.1h7.3c8.3,0,15.1,6.8,15.1,15.1V482.5z"/>
			<polygon class="st3" points="1114.3,515.4 1097.9,515.4 1097.9,437.6 1085.7,441.2 1081.1,425.4 1114.3,415.7 			"/>
			<path class="st3" d="M1170,417.1h-7.3c-17.4,0-31.5,14.1-31.5,31.5v33.9c0,17.4,14.1,31.5,31.5,31.5h7.3
				c17.4,0,31.5-14.1,31.5-31.5v-33.9C1201.5,431.2,1187.4,417.1,1170,417.1z M1185.1,482.5c0,8.3-6.8,15.1-15.1,15.1h-7.3
				c-8.3,0-15.1-6.8-15.1-15.1v-33.9c0-8.3,6.8-15.1,15.1-15.1h7.3c8.3,0,15.1,6.8,15.1,15.1V482.5z"/>
			<path class="st3" d="M1257.2,417.1h-7.3c-17.4,0-31.5,14.1-31.5,31.5v33.9c0,17.4,14.1,31.5,31.5,31.5h7.3
				c17.4,0,31.5-14.1,31.5-31.5v-33.9C1288.7,431.2,1274.6,417.1,1257.2,417.1z M1272.3,482.5c0,8.3-6.8,15.1-15.1,15.1h-7.3
				c-8.3,0-15.1-6.8-15.1-15.1v-33.9c0-8.3,6.8-15.1,15.1-15.1h7.3c8.3,0,15.1,6.8,15.1,15.1V482.5z"/>
			<path class="st3" d="M1032.8,552.6h-7.3c-17.4,0-31.5,14.1-31.5,31.5V618c0,17.4,14.1,31.5,31.5,31.5h7.3
				c17.4,0,31.5-14.1,31.5-31.5v-33.9C1064.3,566.7,1050.1,552.6,1032.8,552.6z M1047.9,618c0,8.3-6.8,15.1-15.1,15.1h-7.3
				c-8.3,0-15.1-6.8-15.1-15.1v-33.9c0-8.3,6.8-15.1,15.1-15.1h7.3c8.3,0,15.1,6.8,15.1,15.1V618z"/>
			<path class="st3" d="M1119.9,552.6h-7.3c-17.4,0-31.5,14.1-31.5,31.5V618c0,17.4,14.1,31.5,31.5,31.5h7.3
				c17.4,0,31.5-14.1,31.5-31.5v-33.9C1151.4,566.7,1137.3,552.6,1119.9,552.6z M1135,618c0,8.3-6.8,15.1-15.1,15.1h-7.3
				c-8.3,0-15.1-6.8-15.1-15.1v-33.9c0-8.3,6.8-15.1,15.1-15.1h7.3c8.3,0,15.1,6.8,15.1,15.1V618z"/>
			<polygon class="st3" points="1201.5,650.9 1185.1,650.9 1185.1,573.1 1172.9,576.7 1168.3,561 1201.5,551.3 			"/>
			<path class="st3" d="M1257.2,552.6h-7.3c-17.4,0-31.5,14.1-31.5,31.5V618c0,17.4,14.1,31.5,31.5,31.5h7.3
				c17.4,0,31.5-14.1,31.5-31.5v-33.9C1288.7,566.7,1274.6,552.6,1257.2,552.6z M1272.3,618c0,8.3-6.8,15.1-15.1,15.1h-7.3
				c-8.3,0-15.1-6.8-15.1-15.1v-33.9c0-8.3,6.8-15.1,15.1-15.1h7.3c8.3,0,15.1,6.8,15.1,15.1V618z"/>
		</g>
	</g>
</g>
<g id="Layer_3">
</g>
<g id="Layer_4">
</g>
<g id="Layer_5">
</g>
<g id="Layer_6">
</g>
<g id="Layer_7">
</g>
<g id="Layer_8">
</g>
<g id="Layer_9">
</g>
<g id="Layer_10">
</g>
</svg>
