<?xml version="1.0" encoding="utf-8"?>
<!-- Generator: Adobe Illustrator 23.0.5, SVG Export Plug-In . SVG Version: 6.00 Build 0)  -->
<svg version="1.1" xmlns="http://www.w3.org/2000/svg" xmlns:xlink="http://www.w3.org/1999/xlink" x="0px" y="0px"
	 viewBox="0 0 2000 2000" style="enable-background:new 0 0 2000 2000;" xml:space="preserve">
<style type="text/css">
	.st0{fill:#F1BAA4;}
	.st1{fill:#C35656;}
	.st2{fill:#362E38;}
	.st3{fill:#EFE5DC;}
</style>
<g id="Layer_1">
</g>
<g id="Layer_2">
</g>
<g id="Layer_3">
</g>
<g id="Layer_4">
</g>
<g id="Layer_5">
	<g>
		<polygon class="st2" points="1814.8,1096.2 279.1,1096.2 279.1,591.6 289.1,591.6 289.1,1086.2 1804.8,1086.2 1804.8,705.5 
			1555.3,705.5 1555.3,583.1 1215,583.1 1215,267.3 740.2,267.3 740.2,101.8 238.6,101.8 238.6,431.3 228.6,431.3 228.6,91.8 
			750.2,91.8 750.2,257.3 1225,257.3 1225,573.1 1565.3,573.1 1565.3,695.5 1814.8,695.5 		"/>
		<polygon class="st2" points="1579,871.8 392.1,871.8 392.1,684.3 402.1,684.3 402.1,861.8 1569,861.8 1569,318 1153.4,318 
			1153.4,81.7 1075.1,81.7 1075.1,368.1 476.2,368.1 476.2,358.1 1065.1,358.1 1065.1,71.7 1163.4,71.7 1163.4,308 1579,308 		"/>
		<rect x="1362" y="371.2" class="st2" width="360.2" height="590.2"/>
		<rect x="1362" y="424.3" class="st3" width="360.2" height="5"/>
		<circle class="st3" cx="1407.6" cy="397.3" r="16.1"/>
		<circle class="st3" cx="1451.1" cy="397.3" r="16.1"/>
		<circle class="st3" cx="1494.5" cy="397.3" r="16.1"/>
		<rect x="185.2" y="274.9" class="st2" width="431" height="436.5"/>
		<rect x="185.2" y="338.4" class="st3" width="431" height="6"/>
		<circle class="st3" cx="239.8" cy="306.1" r="19.3"/>
		<circle class="st3" cx="291.8" cy="306.1" r="19.3"/>
		<circle class="st3" cx="343.7" cy="306.1" r="19.3"/>
		<g>
			<path class="st3" d="M463.9,569.8l-8-15.3l70.8-37.3l-70.8-37.3l8-15.3l85.3,45c2.8,1.5,4.6,4.4,4.6,7.6c0,3.2-1.8,6.1-4.6,7.6
				L463.9,569.8z"/>
			<path class="st3" d="M332.8,569.8l8-15.3L270,517.2l70.8-37.3l-8-15.3l-85.3,45c-2.8,1.5-4.6,4.4-4.6,7.6c0,3.2,1.8,6.1,4.6,7.6
				L332.8,569.8z"/>
			<polygon class="st3" points="384.8,579.3 358.5,579.3 432.1,451.9 458.4,451.9 			"/>
		</g>
		<path class="st0" d="M589.3,648.8c-1.4,0.5-16.2-4.3-16.2-4.3s-29.1-46.7-34.3-44.3c-5.2,2.4,14.8,41.9,14.8,41.9
			s-12.9-0.4-11.4,6.7c0,0-14.3,4.3-10,15.2c4.3,11,26.2,41,26.2,41l48.6-6.7L589.3,648.8z"/>
		<path class="st1" d="M606.9,698.3c0,1.9,24.8,51,24.8,51s74.2-133.1,100.9-141.7l31.6-5.1l-35.8,158.7c0,0-32.2,77.1-57.7,92.8
			c-28,17.3-50.5,15.8-69.1-9.5C583.1,819.3,544.5,705,544.5,705L606.9,698.3z"/>
		<path class="st0" d="M935.2,425.8c0.8,2.9-3.7,67.5-5.5,93.1c-0.9,12.7-7.3,24.5-17.7,31.7c-5.9,4.1-13.6,7.1-23.3,7.1v63.9
			l-68-9.7V401.5C820.6,401.5,913.6,344.6,935.2,425.8z"/>
		<path class="st1" d="M960.9,947.2c-10.5,0-143.1,16.4-144.2,21c-1.1,4.5-79-21-79-21s-11.6,10.6-3.4-22.5
			c8.2-33,8.8-44.4,8.8-76.4c0-50.9-8.8-69-8.8-69s-37.9-133.7-18.8-157.3c19.1-23.6,60.1-38.2,86.8-36c16.2,1.4,60.3,5.6,97.4,12.3
			c24.1,4.3,45.2,9.6,54,15.8c5.7,4,6.5,16.5,4.9,34.2c-1.9,20.6-7.1,48.3-11.5,77.6c-6.8,44.6-11.9,93-1.2,126.4
			C969.6,926.5,971.4,947.2,960.9,947.2z"/>
		<path class="st2" d="M737.7,947.2h223.2l132.4,889.6l-95.1,18.7l-171.5-702.8l-76.4,689.3l-95.1-18.7c0,0,33.8-697.4,38.9-751.7
			C699.4,1017.2,737.7,947.2,737.7,947.2z"/>
		<path class="st3" d="M815.6,1136.2c-0.5,0-1-0.2-1.3-0.7c-18.9-30.2-14.3-76.1-7.2-109.2c7.9-36.7,20.6-66.7,22.7-69.5
			c0.5-0.7,1.4-0.8,2.1-0.3c0.7,0.5,0.8,1.4,0.3,2.1c-3.7,4.9-50.5,119-15.4,175.3c0.4,0.7,0.2,1.6-0.5,2.1
			C816.1,1136.1,815.9,1136.2,815.6,1136.2z"/>
		<path class="st3" d="M789.8,1149.6c-29.7,0-57-19.9-58.3-20.9c-0.7-0.5-0.8-1.4-0.3-2.1s1.4-0.8,2.1-0.3
			c0.3,0.2,32,23.4,63.1,19.9c0.8-0.1,1.6,0.5,1.7,1.3c0.1,0.8-0.5,1.6-1.3,1.7C794.4,1149.5,792.1,1149.6,789.8,1149.6z"/>
		<path class="st3" d="M877.5,1120.3c-0.4,0-0.8-0.2-1.1-0.4l-36.9-37.6c-0.3-0.3-0.5-0.8-0.4-1.3l9.5-57c0.1-0.7,0.7-1.3,1.5-1.3
			h83.2c0.4,0,0.8,0.2,1.1,0.5c0.3,0.3,0.4,0.8,0.4,1.2l-8.3,58.2c-0.1,0.4-0.3,0.7-0.6,1l-47.4,36.4
			C878.1,1120.2,877.8,1120.3,877.5,1120.3z M842.1,1080.7l35.5,36.1l45.9-35.3l8-55.9h-80.2L842.1,1080.7z"/>
		<path class="st3" d="M706.5,1808.6c-0.7,0-1.3-0.5-1.5-1.2c-16.2-77.8,54.9-621.3,57.9-644.4c0.1-0.8,0.9-1.4,1.7-1.3
			c0.8,0.1,1.4,0.9,1.3,1.7c-0.7,5.7-74.1,566.1-58,643.4c0.2,0.8-0.4,1.6-1.2,1.8C706.7,1808.6,706.6,1808.6,706.5,1808.6z"/>
		<path class="st3" d="M1033.4,1808.6c-0.7,0-1.3-0.5-1.5-1.2l-114.4-659c-0.1-0.8,0.4-1.6,1.2-1.7c0.8-0.1,1.6,0.4,1.7,1.2
			l114.4,659c0.1,0.8-0.4,1.6-1.2,1.7C1033.5,1808.6,1033.5,1808.6,1033.4,1808.6z"/>
		<path class="st3" d="M655.4,1823.2c-4.1,2.5-31.3,90.9-31.3,90.9s94.8,20.6,140.5,2.7l-14.1-74.9l-29.7-18.4
			c-16.6-10.3-37.1-11.9-55.1-4.5L655.4,1823.2z"/>
		<path class="st3" d="M998.3,1855.4l1.1-1.1c22.9-24.1,58.3-31.9,89.2-19.5l4.8,1.9l99.7,27c12.9,3.5,23.7,12.2,29.9,24.1l6.2,12
			c3.4,6.6-1.1,14.6-8.5,15.1l-208.5,13.5L998.3,1855.4z"/>
		<path class="st1" d="M1324.9,724.7v67.9c0,0-124.4,17.8-231.6-15.4c-57.7-17.9-110.1-37.2-146.2-51.3
			c-30.9-12.1-49.9-20.2-49.9-20.2l42.2-68.4l14.3-23.2c0,0,13.2,5.8,33.4,14.5c54.4,23.6,159.6,68.6,193.6,79.4
			C1227.4,722.8,1324.9,724.7,1324.9,724.7z"/>
		<path class="st2" d="M937.9,376.5c17.2,10.9,24.9,32.5,17.6,51.5c-3.4,9-9.5,16.1-20.2,15.7c-28.5-0.9-37.7,35.2-48.4,26
			c-10.7-9.3-50.6-1.4-20.9,32.2c0,0,19.3,17.8,12,41c-7.3,23.2,48.3,246.7,48.3,246.7s-152.1,43-202.1-12.4
			c-50.1-55.3,10.2-330.7,54.7-384.5C818.1,345.4,884.3,342.5,937.9,376.5z"/>
		<path class="st2" d="M987.2,628.6c-20.2-8.7-33.4-14.5-33.4-14.5c-8.8-6.2-30-11.5-54-15.8c-0.9-1.7-1.7-3.5-2.5-5.3
			c-17.2-43.2-23.6-123.7,24.7-157.9c1.6-1.1-46.4,111.5-4.5,134.7C946.7,585.9,976.1,605.1,987.2,628.6z"/>
		<rect x="1008.7" y="143.9" class="st2" width="302.8" height="306.6"/>
		<rect x="1008.7" y="188.5" class="st3" width="302.8" height="4.2"/>
		<circle class="st3" cx="1047.1" cy="165.8" r="13.5"/>
		<circle class="st3" cx="1083.6" cy="165.8" r="13.5"/>
		<circle class="st3" cx="1120.1" cy="165.8" r="13.5"/>
		<path class="st3" d="M1208.1,363.1h-105.3V262.3c0-29,23.6-52.7,52.7-52.7c29,0,52.7,23.6,52.7,52.7V363.1z M1121.6,344.2h67.6
			v-81.9c0-18.6-15.2-33.8-33.8-33.8c-18.6,0-33.8,15.2-33.8,33.8V344.2z"/>
		<path class="st1" d="M1220.8,428.4H1090c-6.3,0-11.4-5.1-11.4-11.4v-85.1c0-6.3,5.1-11.4,11.4-11.4h130.8
			c6.3,0,11.4,5.1,11.4,11.4V417C1232.2,423.3,1227.1,428.4,1220.8,428.4z"/>
		<path class="st2" d="M1171.8,376.5c0-9-7.3-16.4-16.4-16.4s-16.4,7.3-16.4,16.4c0,6.7,4,12.5,9.8,15v24.1h13.1v-24.1
			C1167.8,388.9,1171.8,383.2,1171.8,376.5z"/>
		<rect x="1374.3" y="484.4" class="st3" width="260.5" height="13.3"/>
		<rect x="1429.4" y="544" class="st3" width="78.1" height="6.6"/>
		<rect x="1532.4" y="544" class="st3" width="43.2" height="6.6"/>
		<rect x="1600.5" y="544" class="st3" width="102.6" height="6.6"/>
		<rect x="1429.4" y="573.7" class="st3" width="273.8" height="6.6"/>
		<rect x="1429.4" y="603.5" class="st3" width="22.9" height="6.6"/>
		<rect x="1477.2" y="603.5" class="st3" width="98.3" height="6.6"/>
		<rect x="1600.5" y="603.5" class="st3" width="102.6" height="6.6"/>
		<rect x="1429.4" y="633.3" class="st3" width="78.1" height="6.6"/>
		<rect x="1532.4" y="633.3" class="st3" width="116" height="6.6"/>
		<circle class="st3" cx="1394.7" cy="550.6" r="10.2"/>
		<rect x="1374.3" y="692.7" class="st3" width="260.5" height="13.3"/>
		<rect x="1429.4" y="752.3" class="st3" width="78.1" height="6.6"/>
		<rect x="1532.4" y="752.3" class="st3" width="43.2" height="6.6"/>
		<rect x="1600.5" y="752.3" class="st3" width="102.6" height="6.6"/>
		<rect x="1429.4" y="782.1" class="st3" width="273.8" height="6.6"/>
		<rect x="1429.4" y="811.9" class="st3" width="22.9" height="6.6"/>
		<rect x="1477.2" y="811.9" class="st3" width="98.3" height="6.6"/>
		<rect x="1600.5" y="811.9" class="st3" width="102.6" height="6.6"/>
		<rect x="1429.4" y="841.6" class="st3" width="78.1" height="6.6"/>
		<rect x="1532.4" y="841.6" class="st3" width="116" height="6.6"/>
		<circle class="st3" cx="1394.7" cy="759" r="10.2"/>
		<path class="st0" d="M1324.9,724.7c0,0,126.1-28.5,131.5-19c5.4,9.5-53.9,19-53.9,19s-2.7,53.4-27.9,52.1
			c-25.2-1.4-49.7-4.7-49.7-4.7L1324.9,724.7z"/>
	</g>
</g>
<g id="Layer_6">
</g>
<g id="Layer_7">
</g>
<g id="Layer_8">
</g>
<g id="Layer_9">
</g>
<g id="Layer_10">
</g>
</svg>
