<?xml version="1.0" encoding="utf-8"?>
<!-- Generator: Adobe Illustrator 23.0.5, SVG Export Plug-In . SVG Version: 6.00 Build 0)  -->
<svg version="1.1" xmlns="http://www.w3.org/2000/svg" xmlns:xlink="http://www.w3.org/1999/xlink" x="0px" y="0px"
	 viewBox="0 0 2000 2000" style="enable-background:new 0 0 2000 2000;" xml:space="preserve">
<style type="text/css">
	.st0{fill:#F1BAA4;}
	.st1{fill:#C35656;}
	.st2{fill:#362E38;}
	.st3{fill:#EFE5DC;}
</style>
<g id="Layer_1">
</g>
<g id="Layer_2">
</g>
<g id="Layer_3">
</g>
<g id="Layer_4">
</g>
<g id="Layer_5">
</g>
<g id="Layer_6">
	<g>
		<path class="st2" d="M1071.4,1794.8c0,3.5,0,61.8,0,61.8s-35.6,12.2-82.2,20.4c-46.6,8.2-78.7-0.6-79.3,0
			c-0.6,0.6-4.7-21,12.2-31.5s64.1-29.7,64.1-29.7s4.7-28,6.4-28S1071.4,1794.8,1071.4,1794.8z"/>
		<path class="st2" d="M1240.8,1794.8c0,3.5,0,61.8,0,61.8s35.6,12.2,82.2,20.4c46.6,8.2,78.7-0.6,79.3,0c0.6,0.6,4.7-21-12.2-31.5
			s-64.1-29.7-64.1-29.7s-4.7-28-6.4-28C1317.7,1787.8,1240.8,1794.8,1240.8,1794.8z"/>
		<path class="st2" d="M1009.8,944.9c0,0-12.6,79.5-16.2,183.8S974.4,1801,974.4,1801s80.1,26.4,109.5-7.2c0,0,3.1-636.4,49.8-647.1
			s98.3,649.5,98.3,649.5s58.7,25.2,107.9-10.8c0,0-69.5-814.2-95.9-843.9c-26.4-29.7-147.4-40.5-152.2-38.1
			S1009.8,944.9,1009.8,944.9z"/>
		<path class="st3" d="M1124.8,1062.3c-1.9,0-3.8-0.2-5.9-0.5c-0.9-0.2-1.6-1-1.4-2c0.1-0.9,1-1.6,2-1.4c9.2,1.5,16.8-0.8,22.6-6.8
			c17.8-18.5,13.5-64.6,13.4-65.1c-0.2-0.9,0.4-1.8,1.3-2c0.9-0.2,1.8,0.4,2,1.3c0.1,0.4,4.9,48.2-14.3,68.1
			C1139.2,1059.5,1132.6,1062.3,1124.8,1062.3z"/>
		<path class="st3" d="M1119.2,1121.8C1119.2,1121.8,1119.2,1121.8,1119.2,1121.8c-0.9,0-1.7-0.8-1.7-1.7c0.1-45,0.3-130.8,0-133.7
			c-0.1-0.9,0.6-1.8,1.6-1.9c0.9-0.1,1.8,0.6,1.9,1.6c0.3,3.7,0,128.7,0,134C1120.9,1121,1120.1,1121.8,1119.2,1121.8z"/>
		<path class="st3" d="M1140.3,977.1c-44.8,0-89.3-3.6-109.8-5.2c-5.1-0.4-8.8-0.7-9.7-0.7c-0.9,0-1.7-0.8-1.7-1.7s0.8-1.7,1.7-1.7
			c1,0,4.4,0.3,9.9,0.7c96,7.7,163.2,6.7,199.8-3c0.9-0.2,1.9,0.3,2.1,1.2c0.2,0.9-0.3,1.9-1.2,2.1
			C1207.5,975.1,1173.9,977.1,1140.3,977.1z"/>
		<path class="st2" d="M1076.8,506.2c0,0-17.4-49.5,3.3-83.9s47.5-12.7,47.5-12.7s70.2-17.7,101-3.6c30.8,14.1,16.2,45.1,16.2,45.1
			l-159.6,67.6L1076.8,506.2z"/>
		
			<rect x="1127.5" y="589.5" transform="matrix(-1 -4.448898e-11 4.448898e-11 -1 2305.585 1275.1477)" class="st0" width="50.6" height="96.1"/>
		<path class="st1" d="M994,875.3c3.3,40.5,7.8,71,12.6,73.2c14.6,6.9,203.1,18.5,231.5,0c6.9-4.5,10.3-6.8,11.8-9.4
			c2.1-3.7,0.2-8-1.3-20l0-0.2c-0.7-5.6-1.4-12.9-1.5-22.5c-0.2-15.4,0.8-36.8,4.9-67.2c16.2-119.2,41.5-159.3,24.6-169.3
			c-5.5-3.3-13.9-6-23.6-8.3c-10.8-2.6-23-4.5-34.1-5.8c-9.6-1.1-18.3-1.8-24.6-2.1c-1.6-0.1-73.8-2.3-130.5,0.2
			c-13.7,0.6-26.5,1.5-37.2,2.7c-14.2,1.6-24.7,3.9-28.5,7.1C985.7,664.3,987.2,791.4,994,875.3z"/>
		<path class="st0" d="M1243.7,494.1c-1.2,3.1,8.7,122.4-71.1,113.8c0,0-54.4,6-76.7-56.7c0,0-22.9,0.4-28.4-23.7
			c-5.6-24.1,11.7-34,24.7-21.6c0,0,8.3-73.6,74.3-72.3C1232.6,434.8,1243.7,494.1,1243.7,494.1z"/>
		<path class="st2" d="M1191.6,625.5c-4.8-5.9-13-7.5-19.9-4.5c-5.7,2.5-12.6,5.9-15.6,8.9c-5.6,5.6-7.3,41.7,0,42.1
			c7.3,0.3,46.5-7,43.7-22.3C1198.8,644.6,1194,628.5,1191.6,625.5z"/>
		<path class="st2" d="M1108.5,628.6c4.8-5.9,13-7.5,19.9-4.5c5.7,2.5,12.6,5.9,15.6,8.9c5.6,5.6,7.3,41.7,0,42.1
			c-7.3,0.3-44-8.2-41.2-23.5C1103.8,646.5,1106.1,631.6,1108.5,628.6z"/>
		<path class="st2" d="M1092.2,505.9l4.1,24.8c0,0,21.2-46.9,24-68.7c0,0,81.1,44.2,86.9,10.1c0,0,19.6,41.2,42.3,38.2
			c22.7-3,12.8-65-40.6-84.5c-53.4-19.5-99.5-7.8-116.6,18.4C1075.1,470.4,1094.7,507.9,1092.2,505.9z"/>
		<path class="st2" d="M1122.3,505.6c-0.9-1.1-0.8-2.7,0.3-3.6c10.8-9.3,21.2-4.5,24.6-2.9c0.2,0.1,0.4,0.2,0.6,0.3
			c0.7,0.1,1.3,0.3,1.7,0.9c0.9,1.1,0.8,2.7-0.3,3.6c-1.4,1.2-2.9,0.5-4.3-0.1c-3.2-1.5-10.7-5-19.1,2.1c-0.5,0.4-1.1,0.6-1.7,0.6
			C1123.6,506.5,1122.8,506.2,1122.3,505.6z M1145.9,500L1145.9,500L1145.9,500z M1145.9,500L1145.9,500L1145.9,500z M1145.9,499.9
			C1145.9,499.9,1145.9,499.9,1145.9,499.9C1145.9,499.9,1145.9,499.9,1145.9,499.9z M1145.9,499.9
			C1145.9,499.9,1145.9,499.9,1145.9,499.9L1145.9,499.9z M1145.9,499.9C1145.9,499.9,1145.9,499.9,1145.9,499.9
			C1145.9,499.9,1145.9,499.9,1145.9,499.9z M1145.9,499.9C1145.9,499.9,1145.9,499.9,1145.9,499.9
			C1145.9,499.9,1145.9,499.9,1145.9,499.9z M1145.9,499.9C1145.9,499.9,1145.9,499.9,1145.9,499.9
			C1145.9,499.9,1145.9,499.9,1145.9,499.9z M1145.9,499.9L1145.9,499.9L1145.9,499.9z M1145.9,499.9
			C1145.9,499.9,1145.9,499.9,1145.9,499.9S1145.9,499.9,1145.9,499.9z M1145.9,499.9L1145.9,499.9L1145.9,499.9z M1145.9,499.9
			C1146,499.9,1146,499.9,1145.9,499.9C1146,499.9,1146,499.9,1145.9,499.9z M1146,499.9C1146,499.9,1146,499.9,1146,499.9
			C1146,499.9,1146,499.9,1146,499.9z M1146,499.9L1146,499.9L1146,499.9z"/>
		<path class="st2" d="M1229.6,515.7c0.5,0,1.1-0.2,1.5-0.5c1.1-0.8,1.4-2.4,0.6-3.6c-0.4-0.5-9.6-12.8-26.1-8.3
			c-1.4,0.4-2.2,1.8-1.8,3.2c0.4,1.4,1.8,2.2,3.2,1.8c13.1-3.6,20.5,6.3,20.6,6.4C1228,515.3,1228.8,515.7,1229.6,515.7z"/>
		<path class="st2" d="M1173.4,569.9c-1.4-0.2-2.3-1.5-2.1-2.9c0.2-1.4,1.4-2.4,2.8-2.2c0.2,0,4,0.3,7-5.7
			c2.5-5.1-3.3-14.3-5.4-17.8c-1.1-1.8-1.5-2.4-1.4-3.5c0.1-1.4,1.4-2.4,2.8-2.3c1.1,0.1,1.9,0.8,2.2,1.8c0.2,0.3,0.4,0.7,0.8,1.2
			c2.8,4.5,9.5,15.1,5.7,22.8c-3.9,7.8-9.4,8.6-11.5,8.6C1173.8,569.9,1173.5,569.9,1173.4,569.9z M1179.4,538.3
			C1179.4,538.3,1179.4,538.3,1179.4,538.3C1179.4,538.3,1179.4,538.3,1179.4,538.3z M1179.4,538.3
			C1179.4,538.3,1179.4,538.3,1179.4,538.3S1179.4,538.3,1179.4,538.3z"/>
		<path class="st2" d="M1169.5,589.1c-5.7-0.1-13.3-2.7-17.8-14c-0.5-1.3,0.1-2.8,1.4-3.3c1.3-0.5,2.8,0.1,3.3,1.4
			c2.2,5.6,5.6,9.1,9.9,10.3c6.1,1.7,12.4-1.5,13.5-2.3c0.7-0.8,1.9-1,2.9-0.6c1.3,0.6,1.9,2.1,1.3,3.4c-0.9,2-7.7,5-14.1,5
			C1169.8,589.1,1169.6,589.1,1169.5,589.1z M1179.3,582C1179.3,582,1179.3,582,1179.3,582C1179.3,582,1179.3,582,1179.3,582z
			 M1179.3,582C1179.3,582,1179.3,582,1179.3,582C1179.3,582,1179.3,582,1179.3,582z"/>
		
			<ellipse transform="matrix(0.103 -0.9947 0.9947 0.103 497.1781 1603.2194)" class="st2" cx="1137.5" cy="525.9" rx="10.7" ry="9.3"/>
		<circle class="st3" cx="1135.2" cy="522.8" r="4.3"/>
		
			<ellipse transform="matrix(0.103 -0.9947 0.9947 0.103 557.6634 1686.0778)" class="st2" cx="1213.7" cy="533.8" rx="10.7" ry="9.3"/>
		<circle class="st3" cx="1211.4" cy="530.7" r="4.3"/>
		<path class="st0" d="M1413.5,696.8c1.5,0.5,17-4.5,17-4.5s30.4-48.9,35.9-46.4c5.5,2.5-15.5,43.9-15.5,43.9s13.5-0.4,12,7
			c0,0,15,4.5,10.5,15.9s-27.4,42.9-27.4,42.9l-50.9-7L1413.5,696.8z"/>
		<path class="st2" d="M1428.9,733c-0.2,0-0.4,0-0.6-0.1c-0.7-0.3-0.9-1.1-0.6-1.8c5.1-10.1-4.3-23.5-4.4-23.6
			c-0.3-0.4-0.3-1-0.1-1.4c0.3-0.5,0.8-0.7,1.3-0.6c4,0.5,15.2,0.9,18.9-2.3c0.8-0.7,1.1-1.4,1.1-2.4c0-1.7-0.5-3-1.6-3.9
			c-2.8-2.4-8.2-1.7-8.2-1.7c-0.7,0.1-1.4-0.4-1.5-1.1c-0.1-0.7,0.4-1.4,1.1-1.5c0.3,0,6.6-0.9,10.3,2.3c1.7,1.4,2.5,3.4,2.5,5.9
			c0,1.7-0.7,3.2-2,4.4c-4,3.6-13.5,3.5-18.2,3.2c2.7,4.6,7.6,15.1,3.1,24C1429.9,732.8,1429.4,733,1428.9,733z"/>
		<path class="st2" d="M1454.4,728c-0.3,0-0.5-0.1-0.8-0.2c-8.7-6.1,2.2-24,2.6-24.7c0.4-0.6,1.2-0.8,1.8-0.4
			c0.6,0.4,0.8,1.2,0.4,1.8c-2.8,4.6-8.9,17.3-3.4,21.2c0.6,0.4,0.7,1.2,0.3,1.8C1455.2,727.8,1454.8,728,1454.4,728z"/>
		<path class="st1" d="M1395,748.7c0,2-25.9,53.4-25.9,53.4s-70.2-130-97.1-145.3c-10.2-5.8-39.9-8.9-39.9-8.9l25.2,147
			c0,0,42.5,102.3,74.4,115.3c31.9,13,49.4,18.2,68.8-8.2c19.5-26.4,59.8-146.2,59.8-146.2L1395,748.7z"/>
		<path class="st2" d="M1331.6,879.2c-0.7,0-1.3-0.6-1.3-1.3c0-0.5,0.3-0.9,0.7-1.1c2.8-3.2,23.5-46.6,36.9-75.2
			c0.3-0.7,1.1-0.9,1.8-0.6c0.7,0.3,0.9,1.1,0.6,1.8c-0.1,0.2-9,19.2-18,37.9c-5.3,11-9.6,19.8-12.8,26.1
			C1333.1,879.2,1332.7,879.2,1331.6,879.2z M1331.6,876.5L1331.6,876.5C1331.6,876.5,1331.6,876.5,1331.6,876.5z"/>
		<path class="st0" d="M670.3,532.6c0.5-1.3,6.6-22.4-1.5-32.5c-8.1-10.1-28.5-38.8-30.3-35.3c-1.8,3.5-4.8,12.4,4.8,25l-44.4-46.9
			c0,0-6.3-3.5-10.1,0s0,8.3,3.5,12.6s18.9,25.2,18.9,25.2s-15.1-1-10.6,12.6c0,0-14.1,3.3-4.8,19.7c0,0,18.7,44.6,31,47.7
			s25.7-4,26.5-4.3C654.2,556.1,670.3,532.6,670.3,532.6z"/>
		<path class="st1" d="M1059.7,644.3c-3.9,3.6-160.5-8.6-223.3-14c-19.5-1.7-37.9-9.5-52.7-22.2l-103.9-89.7l-55.2,55.2l88.8,86.6
			c32,31.2,73,51.7,117.3,58.5l163.6,27.5L1059.7,644.3z"/>
		<path class="st2" d="M627.9,509.5c-1.1,0-2.4-0.3-3.8-0.9c-4.6-1.8-20.7-12.3-21.4-12.7c-0.6-0.4-0.8-1.3-0.4-1.9s1.3-0.8,1.9-0.4
			c0.2,0.1,16.6,10.8,20.9,12.5c1.8,0.7,3.2,0.8,4.1,0.4c1-0.5,1.7-1.8,2.2-4c0.1-0.2,0.3-2.6-8.2-10.9c-4.7-4.6-9.7-8.5-10.4-9
			c-0.6-0.3-0.9-1-0.7-1.7c0.2-0.7,1-1.1,1.7-0.9c0.9,0.3,6.9,5.3,11,9.2c9.3,8.8,9.8,12.1,9.3,13.8c-0.8,3-1.9,4.9-3.6,5.8
			C629.7,509.3,628.8,509.5,627.9,509.5z M612.9,482.7C612.9,482.7,612.9,482.7,612.9,482.7C612.9,482.7,612.9,482.7,612.9,482.7z"
			/>
		<path class="st2" d="M620.2,520.4c-6.3,0-14.7-5.2-19.1-8c-0.9-0.5-1.8-1.1-2-1.2c-0.7-0.2-1.1-0.9-1-1.6c0.1-0.7,0.9-1.2,1.6-1.1
			c0.5,0.1,1,0.4,2.8,1.6c4.2,2.6,15.3,9.6,20.2,7c1.1-0.6,1.8-1.3,1.9-2.3c0.4-2.8-3-6.9-4.4-8.2c-0.5-0.5-0.5-1.4,0-1.9
			c0.5-0.5,1.4-0.5,1.9,0c0.6,0.6,5.9,5.9,5.2,10.6c-0.2,1.3-0.9,3.1-3.3,4.3C622.9,520.2,621.6,520.4,620.2,520.4z M599.1,511.2
			C599.1,511.2,599.1,511.2,599.1,511.2C599.1,511.2,599.1,511.2,599.1,511.2z"/>
		<path class="st2" d="M646.9,526.4c-0.4,0-0.8-0.2-1.1-0.5c-9.3-11.4-1.5-24.5,0.7-27.7l-4.4-7.8c-0.4-0.7-0.1-1.5,0.5-1.9
			c0.7-0.4,1.5-0.1,1.9,0.5l4.8,8.6c0.3,0.5,0.2,1.1-0.1,1.5c-0.4,0.6-10.5,13.7-1.3,25c0.5,0.6,0.4,1.4-0.2,1.9
			C647.5,526.3,647.2,526.4,646.9,526.4z"/>
		<path class="st2" d="M300.2,798v10h157.3v-10H300.2z M300.2,798v10h157.3v-10H300.2z M300.2,798v10h157.3v-10H300.2z M140.9,335.2
			V808h741.2V335.2H140.9z M872.1,798H150.9V345.2h721.2V798z M300.2,798v10h157.3v-10H300.2z M300.2,798v10h157.3v-10H300.2z
			 M300.2,798v10h157.3v-10H300.2z"/>
		<circle class="st2" cx="184.2" cy="366.1" r="12.4"/>
		<circle class="st2" cx="217.7" cy="366.1" r="12.4"/>
		<circle class="st2" cx="251.3" cy="366.1" r="12.4"/>
		<g>
			<path class="st2" d="M298.2,494.1l-4.5-8.5l39.3-20.7l-39.3-20.7l4.5-8.5l47.4,25c1.6,0.8,2.6,2.5,2.6,4.2s-1,3.4-2.6,4.2
				L298.2,494.1z"/>
			<path class="st2" d="M225.4,494.1l4.5-8.5l-39.3-20.7l39.3-20.7l-4.5-8.5l-47.4,25c-1.6,0.8-2.6,2.5-2.6,4.2s1,3.4,2.6,4.2
				L225.4,494.1z"/>
			<polygon class="st2" points="254.3,499.4 239.7,499.4 280.6,428.6 295.2,428.6 			"/>
		</g>
		<circle class="st2" cx="376.8" cy="491.3" r="8.1"/>
		<circle class="st2" cx="398.7" cy="491.3" r="8.1"/>
		<circle class="st2" cx="420.5" cy="491.3" r="8.1"/>
		<rect x="147.6" y="392.3" class="st2" width="725.9" height="10"/>
		<path class="st2" d="M1452.2,1026.7v10h210.5v-10H1452.2z M1452.2,1026.7v10h210.5v-10H1452.2z M1452.2,1036.7h210.5v-10h-210.5
			V1036.7z M1515.3,436.5v10h147.3v-10H1515.3z M1505.3,436.5h-132.5v432.1h10V446.5h122.5V436.5z M1372.8,436.5v600.2H1743V436.5
			H1372.8z M1733,1026.7h-350.2V446.5H1733V1026.7z M1452.2,1026.7v10h210.5v-10H1452.2z M1452.2,1026.7v10h210.5v-10H1452.2z
			 M1452.2,1026.7v10h210.5v-10H1452.2z"/>
		<rect x="1377.8" y="494.6" class="st2" width="360.2" height="5"/>
		<circle class="st2" cx="1423.5" cy="467.6" r="16.1"/>
		<circle class="st2" cx="1466.9" cy="467.6" r="16.1"/>
		<circle class="st2" cx="1510.4" cy="467.6" r="16.1"/>
		<rect x="1417.2" y="572.7" class="st2" width="270.4" height="10.5"/>
		<rect x="1417.2" y="656.8" class="st2" width="270.4" height="10.5"/>
		<rect x="1417.2" y="740.9" class="st2" width="270.4" height="10.5"/>
		<path class="st2" d="M741.4,954.9v10h94.3v-10H741.4z M741.4,954.9v10h94.3v-10H741.4z M528.6,954.9V1329h374.1V954.9H528.6z
			 M892.7,1319H538.6V964.9h354.1V1319z M741.4,954.9v10h94.3v-10H741.4z M741.4,954.9v10h94.3v-10H741.4z"/>
		<rect x="533.6" y="1036.9" class="st2" width="362.6" height="10"/>
		<circle class="st2" cx="571.1" cy="1000.5" r="19.3"/>
		<circle class="st2" cx="623.1" cy="1000.5" r="19.3"/>
		<circle class="st2" cx="675" cy="1000.5" r="19.3"/>
		<g>
			<path class="st2" d="M617.8,1090h-6c-14.3,0-25.9,11.6-25.9,25.9v27.9c0,14.3,11.6,25.9,25.9,25.9h6c14.3,0,25.9-11.6,25.9-25.9
				v-27.9C643.6,1101.6,632,1090,617.8,1090z M630.2,1143.7c0,6.8-5.6,12.4-12.4,12.4h-6c-6.8,0-12.4-5.6-12.4-12.4v-27.9
				c0-6.8,5.6-12.4,12.4-12.4h6c6.8,0,12.4,5.6,12.4,12.4V1143.7z"/>
			<path class="st2" d="M689.4,1090h-6c-14.3,0-25.9,11.6-25.9,25.9v27.9c0,14.3,11.6,25.9,25.9,25.9h6c14.3,0,25.9-11.6,25.9-25.9
				v-27.9C715.3,1101.6,703.7,1090,689.4,1090z M701.9,1143.7c0,6.8-5.6,12.4-12.4,12.4h-6c-6.8,0-12.4-5.6-12.4-12.4v-27.9
				c0-6.8,5.6-12.4,12.4-12.4h6c6.8,0,12.4,5.6,12.4,12.4V1143.7z"/>
			<polygon class="st2" points="756.5,1170.8 743,1170.8 743,1106.8 733,1109.8 729.2,1096.8 756.5,1088.9 			"/>
			<path class="st2" d="M802.3,1090h-6c-14.3,0-25.9,11.6-25.9,25.9v27.9c0,14.3,11.6,25.9,25.9,25.9h6c14.3,0,25.9-11.6,25.9-25.9
				v-27.9C828.2,1101.6,816.6,1090,802.3,1090z M814.7,1143.7c0,6.8-5.6,12.4-12.4,12.4h-6c-6.9,0-12.4-5.6-12.4-12.4v-27.9
				c0-6.8,5.6-12.4,12.4-12.4h6c6.8,0,12.4,5.6,12.4,12.4V1143.7z"/>
			<path class="st2" d="M617.8,1200.7h-6c-14.3,0-25.9,11.6-25.9,25.9v27.9c0,14.3,11.6,25.9,25.9,25.9h6
				c14.3,0,25.9-11.6,25.9-25.9v-27.9C643.6,1212.3,632,1200.7,617.8,1200.7z M630.2,1254.4c0,6.8-5.6,12.4-12.4,12.4h-6
				c-6.8,0-12.4-5.6-12.4-12.4v-27.9c0-6.9,5.6-12.4,12.4-12.4h6c6.8,0,12.4,5.6,12.4,12.4V1254.4z"/>
			<polygon class="st2" points="684.8,1281.5 671.3,1281.5 671.3,1217.5 661.3,1220.5 657.5,1207.5 684.8,1199.6 			"/>
			<path class="st2" d="M730.6,1200.7h-6c-14.3,0-25.9,11.6-25.9,25.9v27.9c0,14.3,11.6,25.9,25.9,25.9h6
				c14.3,0,25.9-11.6,25.9-25.9v-27.9C756.5,1212.3,744.9,1200.7,730.6,1200.7z M743,1254.4c0,6.8-5.6,12.4-12.4,12.4h-6
				c-6.8,0-12.4-5.6-12.4-12.4v-27.9c0-6.9,5.6-12.4,12.4-12.4h6c6.8,0,12.4,5.6,12.4,12.4V1254.4z"/>
			<path class="st2" d="M802.3,1200.7h-6c-14.3,0-25.9,11.6-25.9,25.9v27.9c0,14.3,11.6,25.9,25.9,25.9h6
				c14.3,0,25.9-11.6,25.9-25.9v-27.9C828.2,1212.3,816.6,1200.7,802.3,1200.7z M814.7,1254.4c0,6.8-5.6,12.4-12.4,12.4h-6
				c-6.9,0-12.4-5.6-12.4-12.4v-27.9c0-6.9,5.6-12.4,12.4-12.4h6c6.8,0,12.4,5.6,12.4,12.4V1254.4z"/>
		</g>
		<path class="st2" d="M1486.1,1121.6v176.9h10v-166.9h176.6v-10H1486.1z M1486.1,1121.6v176.9h10v-166.9h176.6v-10H1486.1z
			 M1486.1,1121.6v176.9h10v-166.9h176.6v-10H1486.1z M1486.1,1121.6v166.9h10v-156.9h291.3v-10H1486.1z M1486.1,1121.6v377.6h373
			v-377.6H1486.1z M1849.1,1489.2h-353v-357.6h353V1489.2z M1486.1,1121.6v166.9h10v-156.9h291.3v-10H1486.1z M1486.1,1121.6v176.9
			h10v-166.9h176.6v-10H1486.1z M1486.1,1121.6v176.9h10v-166.9h176.6v-10H1486.1z"/>
		<rect x="1491.1" y="1180.1" class="st2" width="363" height="5"/>
		<circle class="st2" cx="1537.1" cy="1152.9" r="16.2"/>
		<circle class="st2" cx="1580.9" cy="1152.9" r="16.2"/>
		<circle class="st2" cx="1624.6" cy="1152.9" r="16.2"/>
		<path class="st2" d="M1712,1369.9h-78.8v-75.4c0-21.7,17.7-39.4,39.4-39.4c21.7,0,39.4,17.7,39.4,39.4V1369.9z M1647.3,1355.8
			h50.6v-61.3c0-13.9-11.3-25.3-25.3-25.3c-14,0-25.3,11.3-25.3,25.3V1355.8z"/>
		<path class="st1" d="M1718.7,1418.7h-92.2c-6.3,0-11.4-5.1-11.4-11.4v-58c0-6.3,5.1-11.4,11.4-11.4h92.2c6.3,0,11.4,5.1,11.4,11.4
			v58C1730,1413.6,1724.9,1418.7,1718.7,1418.7z"/>
		<path class="st2" d="M1684.8,1379.9c0-6.8-5.5-12.2-12.2-12.2c-6.8,0-12.2,5.5-12.2,12.2c0,5,3,9.3,7.3,11.2v18h9.8v-18
			C1681.8,1389.2,1684.8,1384.9,1684.8,1379.9z"/>
		<path class="st2" d="M731.4,858.6v106.3h10v-96.3h641.4v-10H731.4z M1662.7,1026.7v94.9h10v-94.9H1662.7z M1452.2,1288.5v-261.8
			h-10v271.8h43.9v-10H1452.2z M1662.7,1026.7v94.9h10v-94.9H1662.7z M1452.2,1288.5v-261.8h-10v271.8h43.9v-10H1452.2z
			 M538.6,1012.7v-10h-71.1V798h-10v204.7H300.2V798h-10v214.7h167.3v161.4h81.1v-10h-71.1v-151.4H538.6z M1662.7,1026.7v94.9h10
			v-94.9H1662.7z M731.4,858.6v106.3h10v-96.3h641.4v-10H731.4z M1515.3,296.5V194.8h-342.5v-75.3H622.4v75.3H478.6v150.4h10V204.8
			h133.8v140.4h10V204.8h530.4v101.7h342.5v140h10v-140h147.3v140h10v-150H1515.3z M1162.8,194.8H632.4v-65.3h530.4V194.8z
			 M1172.8,296.5v-91.7h332.5v91.7H1172.8z M731.4,964.9h10v-96.3h631.4v-10H731.4V964.9z M1662.7,1026.7v104.9h10v-104.9H1662.7z
			 M1733,710.2v10h54.4v411.4h10V710.2H1733z M1662.7,1121.6h10v-94.9h-10V1121.6z M1452.2,1288.5v-261.8h-10v271.8h53.9v-10H1452.2
			z M699.9,1442v-123h-10v133h806.2v-10H699.9z M1452.2,1288.5v-261.8h-10v271.8h53.9v-10H1452.2z M1452.2,1288.5v-261.8h-10v271.8
			h53.9v-10H1452.2z M731.4,858.6v106.3h10v-96.3h641.4v-10H731.4z M1662.7,1026.7v94.9h10v-94.9H1662.7z M1452.2,1288.5v-261.8h-10
			v271.8h43.9v-10H1452.2z M1662.7,1026.7v94.9h10v-94.9H1662.7z"/>
		<rect x="174" y="554.3" class="st2" width="141.3" height="9.8"/>
		<rect x="346.7" y="554.3" class="st2" width="246.1" height="9.8"/>
		<rect x="624.2" y="554.3" class="st2" width="153.6" height="9.8"/>
		<rect x="809.1" y="554.3" class="st2" width="28.7" height="9.8"/>
		<rect x="174" y="594.3" class="st2" width="326.3" height="9.8"/>
		<rect x="531.7" y="594.3" class="st2" width="306.1" height="9.8"/>
		<rect x="174" y="674.5" class="st2" width="48.9" height="9.8"/>
		<rect x="254.3" y="674.5" class="st2" width="338.6" height="9.8"/>
		<rect x="624.2" y="674.5" class="st2" width="213.6" height="9.8"/>
		<rect x="174" y="714.6" class="st2" width="233.8" height="9.8"/>
		<rect x="439.2" y="714.6" class="st2" width="398.6" height="9.8"/>
		<rect x="174" y="634.4" class="st2" width="663.7" height="9.8"/>
		<rect x="174" y="754.7" class="st2" width="511.2" height="9.8"/>
		<rect x="716.6" y="754.7" class="st2" width="121.2" height="9.8"/>
		<rect x="1417.2" y="825" class="st2" width="270.4" height="10.5"/>
		<rect x="1417.2" y="909.1" class="st2" width="270.4" height="10.5"/>
	</g>
</g>
<g id="Layer_7">
</g>
<g id="Layer_8">
</g>
<g id="Layer_9">
</g>
<g id="Layer_10">
</g>
</svg>
