<?xml version="1.0" encoding="utf-8"?>
<!-- Generator: Adobe Illustrator 23.0.5, SVG Export Plug-In . SVG Version: 6.00 Build 0)  -->
<svg version="1.1" xmlns="http://www.w3.org/2000/svg" xmlns:xlink="http://www.w3.org/1999/xlink" x="0px" y="0px"
	 viewBox="0 0 2000 2000" style="enable-background:new 0 0 2000 2000;" xml:space="preserve">
<style type="text/css">
	.st0{fill:#F1BAA4;}
	.st1{fill:#C35656;}
	.st2{fill:#362E38;}
	.st3{fill:#EFE5DC;}
</style>
<g id="Layer_1">
</g>
<g id="Layer_2">
</g>
<g id="Layer_3">
</g>
<g id="Layer_4">
	<g>
		<path class="st2" d="M1349.5,1006.3c-1.7,0-3.2-0.6-4.3-2.1c-0.4-0.6-2.2-3.3,0.2-6.5c3.9-16.3,3-220,1.5-354.5l10-0.1
			c0,0.9,1,88.7,1.2,176.2c0.1,51.4,0,92.6-0.5,122.5c-0.4,29.3-1,44.2-1.8,52.2c8.2-3.5,22.2-10.2,34.9-16.6l186.7-113.4V301.9
			c-35.9,20.7-185.1,106.3-208.6,114.7l-3.4-9.4c25.3-9,212.6-117.2,214.5-118.3l7.5-4.3v585l-192,116.6
			c-0.1,0.1-10.8,5.5-21.6,10.5c-6.4,3-11.5,5.3-15.3,6.9C1355,1005,1352,1006.3,1349.5,1006.3z M1345.2,998.1L1345.2,998.1
			L1345.2,998.1z"/>
		<polygon class="st2" points="411.6,766.6 396.2,558.6 399,557.1 1224.6,94.3 1224.6,293.2 1214.6,293.2 1214.6,111.4 406.6,564.3 
			421.6,765.9 		"/>
		<rect x="537.1" y="1075" class="st2" width="37.4" height="267.6"/>
		<rect x="537.1" y="1402.8" class="st2" width="37.4" height="402.6"/>
		<rect x="864.4" y="1476.2" class="st2" width="37.4" height="402.6"/>
		<rect x="789.7" y="1337.9" class="st2" width="37.4" height="402.6"/>
		<rect x="1074.8" y="1322.8" class="st2" width="37.4" height="402.6"/>
		<polygon class="st2" points="537.1,1342.6 537.1,1402.8 883.1,1487.2 1044.8,1429 1007,1322.8 		"/>
		<polygon class="st3" points="537.1,1342.6 883.1,1429 1028.8,1379.8 719.7,1281.4 		"/>
		<path class="st3" d="M795.9,1106.7H520.1c-36.5,0-66.1-29.6-66.1-66.1V922.3c0-36.5,29.6-66.1,66.1-66.1h275.8
			c36.5,0,66.1,29.6,66.1,66.1v118.4C862,1077.2,832.4,1106.7,795.9,1106.7z"/>
		<path class="st2" d="M1361.1,1716.2l2,65.5c0,0,103.8,111.3,187.9,90.6c84.1-20.8,59.6-54.8,46.1-68.3
			c-13.5-13.5-83.3-48.4-83.3-48.4l-59.5-72.5C1454.3,1683.1,1386.2,1648.4,1361.1,1716.2z"/>
		<path class="st2" d="M1213,1747l2,65.5c0,0,103.8,111.3,187.9,90.6s59.6-54.8,46.1-68.3s-83.3-48.4-83.3-48.4l-59.5-72.5
			C1306.2,1713.9,1238,1679.2,1213,1747z"/>
		<path class="st2" d="M802,1173.1c1.2,4.9-40.5,139.8,76,152s245.2-31.9,269.7,11c24.5,42.9,190.2,388.3,190.2,388.3l116.3-41.3
			c0,0-141-442.6-199.9-475.7s-331.4-56.3-337.6-52.6C910.8,1158.5,802,1173.1,802,1173.1z"/>
		<path class="st0" d="M1151.2,1126.4c0,0,7.8,8.6-0.1,15.1c-8,6.5-10.7,1.4-10.7,1.4s-0.9,18.6-18.9,9.2c0,0,0.4,12.5-17.5,4.4
			c-17.8-8.2-39.1-20.5-39.1-20.5s-25.5,10-36.6,2.7c-11-7.4-15.6-13.5-17.2-13.3c-1.7,0.2-115.9-17.2-130.5-64.8
			c-14.6-47.6,18.1-122.5,18.1-122.5s69.6-13.3,68.5-12.3c-0.7,0.6,2.1,123.2,2.1,123.2l75.6,36.3c0,0,51.9-16.8,66.4-8.7
			c8.4,4.7,23.7,16.9,35.2,26.4c8.4,6.9,14.7,12.4,14.7,12.4s0.1,0.5,0.2,1.4C1161.5,1120.1,1161.1,1127.8,1151.2,1126.4z"/>
		<path class="st2" d="M651.3,1134.9c1.2,4.9-37.9,208.8,78.6,221c116.5,12.3,211.2-22.3,235.7,20.6l201.5,386.8l139-49.4
			c0,0-141-442.6-199.9-475.7c-58.9-33.1-271-76-277.1-72.3S651.3,1134.9,651.3,1134.9z"/>
		
			<rect x="736.1" y="694.9" transform="matrix(-1 -4.426516e-11 4.426516e-11 -1 1534.8916 1509.0548)" class="st0" width="62.7" height="119.2"/>
		<path class="st1" d="M924.1,909.5c0,5.5,0,11.2-0.1,17c-0.1,9.2-0.2,18.7-0.4,28.3c-0.1,5.7-0.2,11.5-0.3,17.2
			c-0.2,7.4-0.3,14.9-0.5,22.3c0,0.9,0,1.8-0.1,2.6c-0.1,3.9-0.2,7.8-0.3,11.6c0,1.6-0.1,3.1-0.1,4.7c-0.1,4.2-0.2,8.4-0.4,12.6
			c-0.3,9.7-0.6,19.3-0.9,28.4c-0.2,6-0.4,11.8-0.6,17.4c-1.7,47.8-3.4,83.1-3.4,83.1l-42.4,11.8c-72.2,20.1-149.4,12.2-216-22.2h0
			c0,0-2.6-17.7-6.1-45.1c-0.7-5.2-1.4-10.7-2.1-16.6c-1.3-10.7-2.8-22.4-4.2-34.7c-0.6-5.5-1.3-11-1.9-16.7
			c-0.6-5.5-1.3-11.2-1.9-16.9v-0.2c-0.2-2-0.4-4.1-0.7-6.1h0c-0.5-5-1.1-10.1-1.6-15.2c-0.6-5.6-1.1-11.2-1.6-16.8
			c-1.1-11.6-2.1-23.1-3.1-34.5c-0.5-5.7-0.9-11.3-1.3-16.8c-1-14.3-1.8-28.2-2.3-41.1c-0.2-5.8-0.4-11.5-0.5-16.9
			c-0.2-12.1,0-23,0.6-32.3c0.4-6,1-11.4,1.8-15.9c1.2-6.9,3-11.8,5.3-14.5c8.9-10.3,18-15.3,26.8-18.5h0
			c13.4-4.7,26.1-4.9,36.6-11.7c2.2-1.5,4.3-3.2,6.4-5.3c17.8-19.1,23.3-36.8,23.3-36.8c2.1,1.3,42.7,29.2,74.4,15.2
			c0,0-8.9,29.2,19,31.8c8.4,0.7,19.2,0.9,30.5,1.9c21.9,1.9,45.6,6.8,57.6,24.7c0.1,0.1,0.2,0.2,0.2,0.3c1.5,2.2,2.7,4.5,3.8,7.1
			c0.1,0.2,0.2,0.5,0.3,0.7c0,0,0,0,0,0s0,0,0,0c0.6,1.4,1.1,3,1.5,4.6c0.7,2.4,1.3,5.8,1.8,9.9c0.9,7.1,1.5,16.6,1.9,27.8
			c0.2,5.3,0.4,11,0.5,17C924,884.1,924.1,896.5,924.1,909.5z"/>
		<path class="st2" d="M770,800.5c-10.9,0-20.8-2.6-28.6-6.2c-6.1-2.9-12.7-7.6-13.2-12.1c-0.1-1.1,0.7-2.2,1.8-2.3
			c1.2-0.1,2.2,0.7,2.3,1.8c0.2,1.5,3.3,5.2,10.9,8.8c15.3,7.2,39.6,9.8,62.1-4.6c1-0.6,2.2-0.3,2.9,0.6c0.6,1,0.3,2.2-0.6,2.9
			C795,797.4,781.9,800.5,770,800.5z"/>
		<path class="st3" d="M1188.5,1388.4c-0.7,0-1.5-0.4-1.8-1.2c-36.3-87.8-63.7-137.4-81.4-147.4c-3-1.7-6.6-3.5-10.6-5.3
			c-0.9-0.4-1.4-1.4-1.2-2.3c0.3-1.2,1.6-1.7,2.6-1.2c4.1,1.9,7.8,3.7,11,5.5c18.5,10.4,46.6,60.9,83.4,150.1
			C1190.2,1387.9,1189.4,1388.4,1188.5,1388.4z"/>
		<polygon class="st3" points="941,1250.4 994.9,1013.7 1295.1,1002.3 1237.7,1217.7 		"/>
		<polygon class="st3" points="941,1250.4 776.4,1215.6 1007,1180.8 		"/>
		<path class="st0" d="M893.2,1200.5c0,0,8,8.4,0.2,15.1c-7.8,6.7-10.7,1.7-10.7,1.7s-0.5,18.6-18.7,9.6c0,0,0.7,12.5-17.4,4.8
			c-18-7.7-39.6-19.5-39.6-19.5s-25.3,10.7-36.5,3.6c-11.2-7.1-15.9-13.1-17.6-12.8c-1.6,0.3-146.5-36-162.3-83.2
			c-15.8-47.2-16.2-138-16.2-138s91.1,10.1,90,11.1c-0.6,0.6,2.1,98.8,2.1,98.8l119.2,70.4c0,0,51.5-18.1,66.2-10.3
			c8.5,4.5,24.1,16.3,35.8,25.5c8.6,6.7,15,12,15,12s0.1,0.5,0.2,1.4C903.3,1193.9,903,1201.6,893.2,1200.5z"/>
		<path class="st2" d="M848.2,1168.9c0.1,0.6,0.4,1.1,0.9,1.5c15.1,11.3,38,28.5,39.5,29.7c0.9,0.8,2.2,0.8,3.1,0
			c0.9-0.9,1-2.3,0.1-3.2c-0.2-0.2-0.7-0.8-40-30.2c-1-0.8-2.5-0.6-3.2,0.5C848.3,1167.7,848.1,1168.3,848.2,1168.9z"/>
		<path class="st2" d="M840.8,1184c0.1,0.5,0.4,1,0.8,1.4c14.5,12.1,36.5,30.3,37.6,31.3c0.9,0.8,2.2,0.9,3.1,0
			c0.9-0.9,1-2.3,0.1-3.2c-0.1-0.2-0.5-0.6-38-31.7c-1-0.8-2.4-0.7-3.2,0.3C840.9,1182.7,840.7,1183.3,840.8,1184z"/>
		<path class="st2" d="M834.1,1201.9c0.1,0.5,0.3,1,0.7,1.3c9.2,8.4,23.1,21.3,23.8,21.9c0.9,0.9,2.3,0.9,3.2,0
			c0.9-0.9,1-2.3,0.1-3.2c-0.4-0.5-15.2-14.1-24-22.2c-0.9-0.9-2.4-0.8-3.2,0.1C834.1,1200.5,834,1201.2,834.1,1201.9z"/>
		<path class="st1" d="M719,908.3c-1.2,11.4-3.7,24.5-6.8,37.3c-1.2,5-2.5,10-3.8,14.9c-3.2,11.8-6.6,22.8-9.5,31.6
			c-2,6.1-3.8,11.1-5.2,14.6c-1.2,3.2-2.1,5.1-2.4,5.3c-0.9,0.7-23.2-1.2-49.7-3.9h0c-22.8-2.3-48.5-5.2-66.2-7.4
			c-12.4-1.6-20.8-2.9-21.4-3.5c-0.6-0.6-0.9-3.9-0.7-9.6c0.2-7.4,1.3-18.8,3.3-33.3c0.7-5.1,1.6-10.5,2.5-16.3
			c1.6-9.1,3.5-19.1,5.7-29.7c1.1-5.1,2.3-10.3,3.5-15.6c1.2-4.9,2.4-9.9,3.7-15c1.9-7.4,4.5-14.3,7.6-20.6
			c2.3-4.7,4.8-9.1,7.6-13.3c5.5-8.3,11.7-15.5,18.3-21.8c4.1-3.9,8.3-7.5,12.5-10.7c23.9-18.3,47.5-25.5,47.5-25.5h0.2
			c18.6,0.1,33.9,28.2,43.3,57.1c1.8,5.5,3.4,11,4.8,16.4c3,11.7,4.9,22.5,5.5,30.8c0.1,0.9,0.1,1.9,0.2,2.9
			C719.8,897.6,719.6,902.8,719,908.3z"/>
		<path class="st2" d="M673.4,1009.5c-0.1,0-0.2,0-0.3,0c-1-0.2-1.8-1.1-1.6-2.2c0.1-0.8,11.1-77.4,8.7-131.2
			c-2.4-52.7-20.7-68-23.4-68.5c-1.1-0.1-1.8-1-1.8-2c0.1-1.1,1-1.8,2-1.8c3.2,0.2,9.4,5.8,14.5,15.8c4.9,9.5,11.1,27.1,12.4,56.3
			c2.5,54.1-8.6,131.1-8.7,131.9C675.2,1008.8,674.4,1009.5,673.4,1009.5z"/>
		<path class="st1" d="M876.8,783.8c3,0.7,77.4-10.8,96.7,49.3c19.2,60.1,15,110.6,13.2,110c-1.8-0.6-86.6,19.2-87.2,17.4
			S876.8,783.8,876.8,783.8z"/>
		<path class="st2" d="M921.3,987.2C921.3,987.2,921.3,987.2,921.3,987.2c-1.1,0-1.9-0.9-1.9-1.9c0.6-74.9-9.4-157.9-10-160.6
			c-0.3-1,0.3-2,1.2-2.3c1-0.3,2.1,0.2,2.4,1.2c0.9,2.6,10.7,88,10.1,161.7C923.2,986.4,922.3,987.2,921.3,987.2z M909.4,824.8
			C909.4,824.8,909.4,824.8,909.4,824.8C909.4,824.8,909.4,824.8,909.4,824.8z"/>
		<path class="st2" d="M1158.9,1128.9c-6.1,12.7-19,21.5-34,21.5c-20.8,0-37.7-16.9-37.7-37.7c0-20.8,16.9-37.7,37.7-37.7
			c0.4,0,0.8,0,1.3,0c-2.3,4.9-3.7,10.4-3.7,16.2C1122.4,1111.6,1138.6,1128.3,1158.9,1128.9z"/>
		<path class="st2" d="M665.7,601.5c0,0-22.9-58.6,0.4-100.8s56.4-17.2,56.4-17.2s83.5-24.2,121-8.6s21.3,53.4,21.3,53.4
			l-188.6,87.7L665.7,601.5z"/>
		<path class="st0" d="M865.4,580.1c-1.4,3.8,15.5,146.5-80.6,139.5c0,0-65,9.5-94.3-64.8c0,0-27.4,1.4-35.1-27.3s12.7-41.3,28.8-27
			c0,0,6.9-88.6,86.2-89.9C849.6,509.4,865.4,580.1,865.4,580.1z"/>
		<path class="st2" d="M684.2,600.5l5.9,29.6c0,0,23.5-57.2,25.9-83.4c0,0,99.1,49.7,104.6,8.4c0,0,25.2,48.6,52.3,44
			c27.1-4.5,12.6-78.5-52.2-99.7s-119.7-5.2-139.2,27C662.1,558.6,687.2,602.9,684.2,600.5z"/>
		<path class="st2" d="M722.4,605.7c0.5,0,0.9-0.2,1.3-0.5c10-9.2,19.4-5.2,23.4-3.5c1.6,0.7,2.8,1.2,3.9,0.2c0.8-0.7,0.8-2,0.1-2.8
			c-0.4-0.4-1-0.7-1.5-0.6c0,0,0,0,0,0c-0.2-0.1-0.5-0.2-0.9-0.4c-4.3-1.8-15.8-6.7-27.6,4.2c-0.8,0.7-0.8,2-0.1,2.8
			C721.3,605.5,721.9,605.7,722.4,605.7z"/>
		<path class="st2" d="M846.4,612.2c0.4,0,0.8-0.2,1.1-0.4c0.9-0.7,1-1.9,0.3-2.8c-0.1-0.1-11.4-14.1-29.8-8.3
			c-1,0.3-1.6,1.4-1.3,2.5c0.3,1,1.4,1.6,2.5,1.3c15.9-5,25.4,6.9,25.5,7C845.2,611.9,845.8,612.2,846.4,612.2z"/>
		<path class="st2" d="M781.2,676c-0.1,1.1,0.7,2.1,1.7,2.2c0.1,0,0.4,0,0.8,0c2.2-0.1,8.2-1.1,12.2-9.9c3.9-8.6-4.1-20.4-7.5-25.5
			c-0.5-0.7-0.8-1.3-1-1.6c-0.2-0.8-0.9-1.4-1.8-1.4c-1.1-0.1-2,0.7-2.1,1.8c0,0.9,0.3,1.3,1.6,3.4c2.8,4.1,10.2,15.1,7.2,21.7
			c-3.7,8-8.8,7.6-9.1,7.6C782.3,674.1,781.3,674.9,781.2,676z"/>
		<path class="st2" d="M779.4,700.9c7.5-0.3,14.7-4.2,15.3-5.8c0.4-1-0.1-2.2-1.1-2.6c-0.8-0.3-1.7-0.1-2.3,0.6
			c-1.1,0.8-8.7,5.2-16.4,3.5c-5.6-1.2-10-5.4-13-12.4c-0.4-1-1.6-1.5-2.6-1c-1,0.4-1.5,1.6-1,2.6c5.5,12.6,14.2,15.2,20.5,15.1
			C779,700.9,779.2,700.9,779.4,700.9z"/>
		
			<ellipse transform="matrix(6.843802e-02 -0.9977 0.9977 6.843802e-02 60.6698 1323.0944)" class="st2" cx="738.8" cy="629.1" rx="12.6" ry="10.9"/>
		<circle class="st3" cx="736" cy="625.5" r="5"/>
		
			<ellipse transform="matrix(6.843802e-02 -0.9977 0.9977 6.843802e-02 138.1615 1418.4017)" class="st2" cx="828.6" cy="635.2" rx="12.6" ry="10.9"/>
		<circle class="st3" cx="825.8" cy="631.6" r="5"/>
		<polygon class="st2" points="1393.2,127.6 1393.2,760.6 1006.8,983.6 1006.8,350.6 		"/>
		<polygon class="st3" points="1393.2,184.6 1393.2,189.9 1006.8,413 1006.8,407.6 		"/>
		
			<ellipse transform="matrix(0.6011 -0.7992 0.7992 0.6011 141.2179 983.5163)" class="st3" cx="1055.8" cy="350.3" rx="22.9" ry="13"/>
		
			<ellipse transform="matrix(0.6011 -0.7992 0.7992 0.6011 181.2855 1010.0107)" class="st3" cx="1102.4" cy="323.4" rx="22.9" ry="13"/>
		
			<ellipse transform="matrix(0.6011 -0.7992 0.7992 0.6011 221.3531 1036.5052)" class="st3" cx="1149" cy="296.5" rx="22.9" ry="13"/>
		<polygon class="st3" points="1315.7,304.5 1025.7,471.9 1025.7,460.6 1315.7,293.2 		"/>
		<polygon class="st3" points="1138.6,446 1138.6,451.6 1072.4,489.8 1072.4,484.2 		"/>
		<polygon class="st3" points="1196.3,412.7 1196.3,418.3 1159.7,439.4 1159.7,433.8 		"/>
		<polygon class="st3" points="1362.4,316.8 1362.4,322.4 1217.4,406.1 1217.4,400.5 		"/>
		<polygon class="st3" points="1315.7,368.9 1315.7,374.5 1072.4,515 1072.4,509.4 		"/>
		<polygon class="st3" points="1362.4,342 1362.4,347.6 1336.9,362.3 1336.9,356.7 		"/>
		<polygon class="st3" points="1072.4,534.6 1091.8,523.4 1091.8,529 1072.4,540.2 		"/>
		<polygon class="st3" points="1196.3,463.1 1196.3,468.7 1113,516.8 1113,511.2 		"/>
		<polygon class="st3" points="1362.4,367.2 1362.4,372.8 1217.4,456.5 1217.4,450.9 		"/>
		<polygon class="st3" points="1138.6,521.6 1138.6,527.2 1072.4,565.5 1072.4,559.9 		"/>
		<polygon class="st3" points="1258,452.7 1258,458.3 1159.7,515.1 1159.7,509.4 		"/>
		<polygon class="st3" points="1362.4,392.4 1362.4,398 1279.1,446.1 1279.1,440.5 		"/>
		
			<ellipse transform="matrix(0.6011 -0.7992 0.7992 0.6011 11.047 1035.6964)" class="st3" cx="1043" cy="506.8" rx="11.5" ry="6.5"/>
		<polygon class="st3" points="1217.4,425.7 1217.4,431.3 1196.3,443.5 1196.3,437.9 		"/>
		<polygon class="st3" points="1315.7,481 1025.7,648.5 1025.7,637.2 1315.7,469.7 		"/>
		<polygon class="st3" points="1138.6,622.5 1138.6,628.1 1072.4,666.4 1072.4,660.7 		"/>
		<polygon class="st3" points="1196.3,589.2 1196.3,594.8 1159.7,615.9 1159.7,610.3 		"/>
		<polygon class="st3" points="1362.4,493.3 1362.4,498.9 1217.4,582.6 1217.4,577 		"/>
		<polygon class="st3" points="1315.7,545.5 1315.7,551.1 1072.4,691.6 1072.4,686 		"/>
		<polygon class="st3" points="1362.4,518.5 1362.4,524.1 1336.9,538.9 1336.9,533.3 		"/>
		<polygon class="st3" points="1072.4,711.2 1091.8,700 1091.8,705.6 1072.4,716.8 		"/>
		<polygon class="st3" points="1196.3,639.7 1196.3,645.3 1113,693.4 1113,687.8 		"/>
		<polygon class="st3" points="1362.4,543.8 1362.4,549.4 1217.4,633.1 1217.4,627.5 		"/>
		<polygon class="st3" points="1138.6,698.2 1138.6,703.8 1072.4,742 1072.4,736.4 		"/>
		<polygon class="st3" points="1258,629.2 1258,634.8 1159.7,691.6 1159.7,686 		"/>
		<polygon class="st3" points="1362.4,569 1362.4,574.6 1279.1,622.6 1279.1,617 		"/>
		
			<ellipse transform="matrix(0.6011 -0.7992 0.7992 0.6011 -130.0409 1106.1189)" class="st3" cx="1043" cy="683.3" rx="11.5" ry="6.5"/>
		<polygon class="st3" points="1217.4,602.3 1217.4,607.9 1196.3,620 1196.3,614.4 		"/>
		<polygon class="st2" points="1696.3,323.4 1696.3,590.9 1432.2,743.4 1432.2,475.9 		"/>
		<polygon class="st3" points="1696.3,362.3 1696.3,366 1432.2,518.5 1432.2,514.8 		"/>
		
			<ellipse transform="matrix(0.6011 -0.7992 0.7992 0.6011 204.5304 1361.0858)" class="st3" cx="1465.7" cy="475.7" rx="15.7" ry="8.9"/>
		
			<ellipse transform="matrix(0.6011 -0.7992 0.7992 0.6011 231.9232 1379.1992)" class="st3" cx="1497.5" cy="457.3" rx="15.7" ry="8.9"/>
		
			<ellipse transform="matrix(0.6011 -0.7992 0.7992 0.6011 259.3161 1397.3125)" class="st3" cx="1529.4" cy="438.9" rx="15.7" ry="8.9"/>
		<polygon class="st2" points="1702.4,661.8 1702.4,1050.7 1318.4,1272.3 1318.4,883.5 		"/>
		<polygon class="st3" points="1702.4,718.4 1702.4,723.7 1318.4,945.4 1318.4,940.1 		"/>
		
			<ellipse transform="matrix(0.6011 -0.7992 0.7992 0.6011 -160.4233 1444.8322)" class="st3" cx="1367.1" cy="883.1" rx="22.8" ry="12.9"/>
		
			<ellipse transform="matrix(0.6011 -0.7992 0.7992 0.6011 -120.5991 1471.1656)" class="st3" cx="1413.4" cy="856.4" rx="22.8" ry="12.9"/>
		
			<ellipse transform="matrix(0.6011 -0.7992 0.7992 0.6011 -80.7748 1497.4991)" class="st3" cx="1459.7" cy="829.7" rx="22.8" ry="12.9"/>
		<path class="st3" d="M1552.1,1005.9l-83.4,48.1v-79.8c0-23,18.7-52.5,41.7-65.8c23-13.3,41.7-5.4,41.7,17.6L1552.1,1005.9z
			 M1483.7,1030.5l53.5-30.9v-64.8c0-14.8-12-19.8-26.8-11.3s-26.8,27.5-26.8,42.2V1030.5z"/>
		<path class="st1" d="M1561,1052.4l-101.3,58.5c-5.6,3.2-10.1,1.3-10.1-4.3v-65.1c0-5.6,4.5-12.7,10.1-16L1561,967
			c5.6-3.2,10.1-1.3,10.1,4.3v65.1C1571.2,1042,1566.6,1049.1,1561,1052.4z"/>
		<path class="st2" d="M1523.4,1033.1c0-7.2-5.8-9.6-13-5.5c-7.2,4.1-13,13.3-13,20.4c0,5.3,3.2,8,7.8,7.4v19l10.4-6v-19
			C1520.2,1044.8,1523.4,1038.4,1523.4,1033.1z"/>
		<polygon class="st2" points="621.1,624.8 621.1,952.5 297.6,1139.2 297.6,811.6 		"/>
		<polygon class="st3" points="621.1,672.5 621.1,677 297.6,863.8 297.6,859.3 		"/>
		
			<ellipse transform="matrix(0.6011 -0.7992 0.7992 0.6011 -513.2983 594.2478)" class="st3" cx="338.6" cy="811.3" rx="19.2" ry="10.9"/>
		
			<ellipse transform="matrix(0.6011 -0.7992 0.7992 0.6011 -479.7442 616.4353)" class="st3" cx="377.6" cy="788.8" rx="19.2" ry="10.9"/>
		
			<ellipse transform="matrix(0.6011 -0.7992 0.7992 0.6011 -446.19 638.6228)" class="st3" cx="416.6" cy="766.3" rx="19.2" ry="10.9"/>
		<g>
			<path class="st3" d="M367.3,865.6l-3.8,2.2c-9,5.2-16.3,16.8-16.3,25.8v17.6c0,9,7.3,12.1,16.3,6.9l3.8-2.2
				c9-5.2,16.4-16.8,16.4-25.8v-17.6C383.7,863.5,376.4,860.4,367.3,865.6z M375.2,895c0,4.3-3.5,9.9-7.8,12.4l-3.8,2.2
				c-4.3,2.5-7.8,1-7.8-3.3v-17.6c0-4.3,3.5-9.9,7.8-12.3l3.8-2.2c4.3-2.5,7.8-1,7.8,3.3V895z"/>
			<polygon class="st3" points="409.7,892.1 401.2,897 401.2,856.7 394.9,862.2 392.5,855.4 409.7,840.4 			"/>
			<path class="st3" d="M438.6,824.4l-3.8,2.2c-9,5.2-16.4,16.8-16.4,25.8V870c0,9,7.3,12.1,16.4,6.9l3.8-2.2
				c9-5.2,16.4-16.8,16.4-25.8v-17.6C455,822.3,447.6,819.2,438.6,824.4z M446.5,853.8c0,4.3-3.5,9.9-7.8,12.4l-3.8,2.2
				c-4.3,2.5-7.8,1-7.8-3.3v-17.6c0-4.3,3.5-9.9,7.8-12.4l3.8-2.2c4.3-2.5,7.8-1,7.8,3.3V853.8z"/>
			<path class="st3" d="M483.9,798.3l-3.8,2.2c-9,5.2-16.4,16.8-16.4,25.8v17.6c0,9,7.3,12.1,16.4,6.9l3.8-2.2
				c9-5.2,16.4-16.8,16.4-25.8v-17.6C500.2,796.2,492.9,793.1,483.9,798.3z M491.7,827.7c0,4.3-3.5,9.9-7.8,12.3l-3.8,2.2
				c-4.3,2.5-7.8,1-7.8-3.3v-17.6c0-4.3,3.5-9.9,7.8-12.4l3.8-2.2c4.3-2.5,7.8-1,7.8,3.3V827.7z"/>
			<path class="st3" d="M529.2,772.1l-3.8,2.2c-9,5.2-16.4,16.8-16.4,25.8v17.6c0,9,7.3,12.1,16.4,6.9l3.8-2.2
				c9-5.2,16.4-16.8,16.4-25.8v-17.6C545.5,770,538.2,766.9,529.2,772.1z M537,801.6c0,4.3-3.5,9.9-7.8,12.4l-3.8,2.2
				c-4.3,2.5-7.8,1-7.8-3.3v-17.6c0-4.3,3.5-9.9,7.8-12.4l3.8-2.2c4.3-2.5,7.8-1,7.8,3.3V801.6z"/>
			<polygon class="st3" points="571.5,798.7 563,803.6 563,763.3 556.7,768.8 554.3,762 571.5,747 			"/>
			<path class="st3" d="M367.3,935.9l-3.8,2.2c-9,5.2-16.3,16.8-16.3,25.8v17.6c0,9,7.3,12.1,16.3,6.9l3.8-2.2
				c9-5.2,16.4-16.8,16.4-25.8v-17.6C383.7,933.8,376.4,930.7,367.3,935.9z M375.2,965.4c0,4.3-3.5,9.9-7.8,12.3l-3.8,2.2
				c-4.3,2.5-7.8,1-7.8-3.3V959c0-4.3,3.5-9.9,7.8-12.4l3.8-2.2c4.3-2.5,7.8-1,7.8,3.3V965.4z"/>
			<path class="st3" d="M412.6,909.8l-3.8,2.2c-9,5.2-16.3,16.8-16.3,25.8v17.6c0,9,7.3,12.1,16.3,6.9l3.8-2.2
				c9-5.2,16.4-16.8,16.4-25.8v-17.6C429,907.7,421.6,904.6,412.6,909.8z M420.4,939.2c0,4.3-3.5,9.9-7.8,12.4l-3.8,2.2
				c-4.3,2.5-7.8,1-7.8-3.3v-17.6c0-4.3,3.5-9.9,7.8-12.4l3.8-2.2c4.3-2.5,7.8-1,7.8,3.3V939.2z"/>
			<polygon class="st3" points="455,936.3 446.5,941.3 446.5,900.9 440.1,906.4 437.7,899.6 455,884.6 			"/>
			<path class="st3" d="M483.9,868.6l-3.8,2.2c-9,5.2-16.4,16.8-16.4,25.8v17.6c0,9,7.3,12.1,16.4,6.9l3.8-2.2
				c9-5.2,16.4-16.8,16.4-25.8v-17.6C500.2,866.5,492.9,863.4,483.9,868.6z M491.7,898.1c0,4.3-3.5,9.9-7.8,12.4l-3.8,2.2
				c-4.3,2.5-7.8,1-7.8-3.3v-17.6c0-4.3,3.5-9.9,7.8-12.4l3.8-2.2c4.3-2.5,7.8-1,7.8,3.3V898.1z"/>
			<polygon class="st3" points="526.2,895.2 517.7,900.1 517.7,859.7 511.4,865.3 509,858.5 526.2,843.5 			"/>
			<path class="st3" d="M555.2,827.5l-3.8,2.2c-9,5.2-16.3,16.8-16.3,25.8v17.6c0,9,7.3,12.1,16.3,6.9l3.8-2.2
				c9-5.2,16.4-16.8,16.4-25.8v-17.6C571.5,825.4,564.2,822.3,555.2,827.5z M563,856.9c0,4.3-3.5,9.9-7.8,12.4l-3.8,2.2
				c-4.3,2.5-7.8,1-7.8-3.3v-17.6c0-4.3,3.5-9.9,7.8-12.3l3.8-2.2c4.3-2.5,7.8-1,7.8,3.3V856.9z"/>
		</g>
		<g>
			<path class="st3" d="M367.3,1005.8l-3.8,2.2c-9,5.2-16.3,16.8-16.3,25.8v17.6c0,9,7.3,12.1,16.3,6.9l3.8-2.2
				c9-5.2,16.4-16.8,16.4-25.8v-17.6C383.7,1003.7,376.4,1000.6,367.3,1005.8z M375.2,1035.3c0,4.3-3.5,9.9-7.8,12.4l-3.8,2.2
				c-4.3,2.5-7.8,1-7.8-3.3v-17.6c0-4.3,3.5-9.9,7.8-12.4l3.8-2.2c4.3-2.5,7.8-1,7.8,3.3V1035.3z"/>
			<polygon class="st3" points="409.7,1032.4 401.2,1037.3 401.2,996.9 394.9,1002.4 392.5,995.7 409.7,980.7 			"/>
			<path class="st3" d="M438.6,964.7l-3.8,2.2c-9,5.2-16.4,16.8-16.4,25.8v17.6c0,9,7.3,12.1,16.4,6.9l3.8-2.2
				c9-5.2,16.4-16.8,16.4-25.8v-17.6C455,962.6,447.6,959.5,438.6,964.7z M446.5,994.1c0,4.3-3.5,9.9-7.8,12.4l-3.8,2.2
				c-4.3,2.5-7.8,1-7.8-3.3v-17.6c0-4.3,3.5-9.9,7.8-12.4l3.8-2.2c4.3-2.5,7.8-1,7.8,3.3V994.1z"/>
			<path class="st3" d="M483.9,938.5l-3.8,2.2c-9,5.2-16.4,16.8-16.4,25.8v17.6c0,9,7.3,12.1,16.4,6.9l3.8-2.2
				c9-5.2,16.4-16.8,16.4-25.8v-17.6C500.2,936.4,492.9,933.3,483.9,938.5z M491.7,968c0,4.3-3.5,9.9-7.8,12.4l-3.8,2.2
				c-4.3,2.5-7.8,1-7.8-3.3v-17.6c0-4.3,3.5-9.9,7.8-12.4l3.8-2.2c4.3-2.5,7.8-1,7.8,3.3V968z"/>
			<path class="st3" d="M529.2,912.4l-3.8,2.2c-9,5.2-16.4,16.8-16.4,25.8V958c0,9,7.3,12.1,16.4,6.9l3.8-2.2
				c9-5.2,16.4-16.8,16.4-25.8v-17.6C545.5,910.3,538.2,907.2,529.2,912.4z M537,941.8c0,4.3-3.5,9.9-7.8,12.4l-3.8,2.2
				c-4.3,2.5-7.8,1-7.8-3.3v-17.6c0-4.3,3.5-9.9,7.8-12.4l3.8-2.2c4.3-2.5,7.8-1,7.8,3.3V941.8z"/>
			<polygon class="st3" points="571.5,939 563,943.9 563,903.5 556.7,909 554.3,902.2 571.5,887.2 			"/>
		</g>
		<g>
			<path class="st3" d="M1494,521l-4.7,2.7c-11.2,6.5-20.4,20.9-20.4,32.2v21.9c0,11.2,9.1,15.1,20.4,8.6l4.7-2.7
				c11.3-6.5,20.4-20.9,20.4-32.2v-21.9C1514.4,518.3,1505.2,514.5,1494,521z M1503.7,557.7c0,5.4-4.4,12.3-9.8,15.4l-4.7,2.7
				c-5.4,3.1-9.8,1.3-9.8-4.1v-21.9c0-5.4,4.4-12.3,9.8-15.4l4.7-2.7c5.4-3.1,9.8-1.3,9.8,4.1V557.7z"/>
			<polygon class="st3" points="1546.8,554.1 1536.2,560.2 1536.2,509.9 1528.3,516.8 1525.3,508.3 1546.8,489.6 			"/>
			<path class="st3" d="M1582.8,469.7l-4.7,2.7c-11.3,6.5-20.4,20.9-20.4,32.2v21.9c0,11.2,9.1,15.1,20.4,8.6l4.7-2.7
				c11.2-6.5,20.4-20.9,20.4-32.1v-21.9C1603.2,467,1594.1,463.2,1582.8,469.7z M1592.6,506.4c0,5.4-4.4,12.3-9.8,15.4l-4.7,2.7
				c-5.4,3.1-9.8,1.2-9.8-4.1v-21.9c0-5.4,4.4-12.3,9.8-15.4l4.7-2.7c5.4-3.1,9.8-1.2,9.8,4.1V506.4z"/>
			<path class="st3" d="M1639.3,437.1l-4.7,2.7c-11.3,6.5-20.4,20.9-20.4,32.2v21.9c0,11.2,9.1,15.1,20.4,8.6l4.7-2.7
				c11.3-6.5,20.4-20.9,20.4-32.2v-21.9C1659.7,434.5,1650.5,430.6,1639.3,437.1z M1649.1,473.8c0,5.4-4.4,12.3-9.8,15.4l-4.7,2.7
				c-5.4,3.1-9.8,1.3-9.8-4.1v-21.9c0-5.4,4.4-12.3,9.8-15.4l4.7-2.7c5.4-3.1,9.8-1.3,9.8,4.1V473.8z"/>
			<path class="st3" d="M1494,608.7l-4.7,2.7c-11.2,6.5-20.4,20.9-20.4,32.2v21.9c0,11.2,9.1,15.1,20.4,8.6l4.7-2.7
				c11.3-6.5,20.4-20.9,20.4-32.2v-21.9C1514.4,606.1,1505.2,602.2,1494,608.7z M1503.7,645.4c0,5.4-4.4,12.3-9.8,15.4l-4.7,2.7
				c-5.4,3.1-9.8,1.3-9.8-4.1v-21.9c0-5.4,4.4-12.3,9.8-15.4l4.7-2.7c5.4-3.1,9.8-1.3,9.8,4.1V645.4z"/>
			<path class="st3" d="M1550.4,576.1l-4.7,2.7c-11.2,6.5-20.4,20.9-20.4,32.2v21.9c0,11.2,9.1,15.1,20.4,8.6l4.7-2.7
				c11.3-6.5,20.4-20.9,20.4-32.1v-21.9C1570.8,573.5,1561.7,569.6,1550.4,576.1z M1560.2,612.8c0,5.4-4.4,12.3-9.8,15.4l-4.7,2.7
				c-5.4,3.1-9.8,1.3-9.8-4.1v-21.9c0-5.4,4.4-12.3,9.8-15.4l4.7-2.7c5.4-3.1,9.8-1.2,9.8,4.1V612.8z"/>
			<polygon class="st3" points="1603.2,609.2 1592.6,615.3 1592.6,565 1584.7,571.9 1581.7,563.4 1603.2,544.7 			"/>
			<path class="st3" d="M1639.3,524.8l-4.7,2.7c-11.3,6.5-20.4,20.9-20.4,32.1v21.9c0,11.2,9.1,15.1,20.4,8.6l4.7-2.7
				c11.3-6.5,20.4-20.9,20.4-32.2v-21.9C1659.7,522.2,1650.5,518.3,1639.3,524.8z M1649.1,561.5c0,5.4-4.4,12.3-9.8,15.4l-4.7,2.7
				c-5.4,3.1-9.8,1.3-9.8-4.1v-21.9c0-5.4,4.4-12.3,9.8-15.4l4.7-2.7c5.4-3.1,9.8-1.3,9.8,4.1V561.5z"/>
		</g>
	</g>
</g>
<g id="Layer_5">
</g>
<g id="Layer_6">
</g>
<g id="Layer_7">
</g>
<g id="Layer_8">
</g>
<g id="Layer_9">
</g>
<g id="Layer_10">
</g>
</svg>
