<?xml version="1.0" encoding="utf-8"?>
<!-- Generator: Adobe Illustrator 23.0.5, SVG Export Plug-In . SVG Version: 6.00 Build 0)  -->
<svg version="1.1" xmlns="http://www.w3.org/2000/svg" xmlns:xlink="http://www.w3.org/1999/xlink" x="0px" y="0px"
	 viewBox="0 0 2000 2000" style="enable-background:new 0 0 2000 2000;" xml:space="preserve">
<style type="text/css">
	.st0{fill:#F1BAA4;}
	.st1{fill:#C35656;}
	.st2{fill:#362E38;}
	.st3{fill:#EFE5DC;}
</style>
<g id="Layer_1">
</g>
<g id="Layer_2">
</g>
<g id="Layer_3">
</g>
<g id="Layer_4">
</g>
<g id="Layer_5">
</g>
<g id="Layer_6">
</g>
<g id="Layer_7">
</g>
<g id="Layer_8">
</g>
<g id="Layer_9">
	<g>
		<path class="st2" d="M572.9,1093.7L318.3,932.9l0.1-2.8c0-1.1,3-110,4.5-220.4c0-1.1,0-2.1,0-3.2l-165.8-91.6V327l123,54.8V164.9
			l119.8,66.9l-7.6,202l-10-0.4l7.4-195.9L290.1,182v215.3l-123-54.8V609l155.9,86.2c2.4-187.4-1.8-217.1-3.7-221.1
			c0,0,0.1,0.3,0.5,0.6l7.1-7.1c3.2,3.2,9,9,6.1,233l244.4,135.1L572.9,1093.7z M328.4,927.5l234.8,148.3l4.1-234.2L332.8,712
			C331.4,811.8,328.9,909.7,328.4,927.5z"/>
		<path class="st2" d="M898.1,403.4c-1,5.1-50.6,318.6-50.6,318.6s224.4-31.8,222.7-31.8s-14-329.4-17.1-327.7
			S898.1,403.4,898.1,403.4z"/>
		<path class="st0" d="M936.4,1443.8c-30.6,145.2-59.8,290.3-59.8,290.3l0.4,13.8c0,0,23.9,15,48.3,32.3c0,0,0,0,0,0
			c26.8,19,54.2,41,51.4,49.2c-5.5,15.7-171.8-4.7-180.4-25.1c-4.5-10.7-0.5-30.2,4.6-47.6c1.5-5.2,3.1-10.2,4.7-14.8
			c0.1-2.1,0.7-3.8,0.7-3.8l84.7-526.5h96.7C974.2,1267.4,955,1355.6,936.4,1443.8z"/>
		<path class="st0" d="M1037,1813.1c-2.5-7.8-1.5-23.7,0.6-40.1c1.2-9.4,2.7-18.9,4.2-27.2c0,0,0.8-384.7-11.2-534h99.8
			c-1.7,206.6-9.1,442.6-11.1,506.4c0.1,1,0.1,2,0.1,3.2c0,3.8-0.3,8.7-0.6,13.4c-0.6,8.2-1.4,16-1.2,17c0.2,1.1,19.8,9.5,42.2,20.7
			c28.5,14.3,61.4,33.1,64.1,46.7C1228.4,1843.6,1043.3,1832.7,1037,1813.1z"/>
		<path class="st2" d="M1085.1,386.3c0,0-6.4-77-79.7-74s-99,53.3-107.4,91c-8.4,37.7-5,122.1,73.2,123.3S1085.1,386.3,1085.1,386.3
			z"/>
		
			<rect x="972" y="505" transform="matrix(-1 -4.459689e-11 4.459689e-11 -1 1994.4888 1105.8636)" class="st0" width="50.4" height="95.8"/>
		<path class="st0" d="M1085.2,416.4c-0.7,1.8,2.4,43.9-11.2,76.4c-6.3,15-16.1,27.9-31.5,33.9c-7.8,3.1-17.1,4.3-28.2,3.1
			c0,0-54.3,6-76.4-56.5c0,0-22.8,0.4-28.4-23.6c-5.5-24,11.7-33.9,24.7-21.6c0,0,8.3-73.3,74.1-72.1
			C1074,357.2,1085.2,416.4,1085.2,416.4z"/>
		<path class="st2" d="M964.2,427.8c-0.9-1.1-0.8-2.7,0.3-3.6c10.8-9.3,21.1-4.5,24.5-2.9c0.2,0.1,0.4,0.2,0.6,0.3
			c0.6,0.1,1.3,0.3,1.7,0.9c0.9,1.1,0.8,2.7-0.3,3.6c-1.4,1.2-2.9,0.5-4.2-0.1c-3.2-1.5-10.7-5-19,2.1c-0.5,0.4-1.1,0.6-1.7,0.6
			C965.4,428.7,964.7,428.4,964.2,427.8z M987.7,422.2L987.7,422.2L987.7,422.2z M987.7,422.2L987.7,422.2L987.7,422.2z
			 M987.7,422.2C987.7,422.2,987.7,422.2,987.7,422.2C987.7,422.2,987.7,422.2,987.7,422.2z M987.7,422.2
			C987.7,422.2,987.7,422.2,987.7,422.2L987.7,422.2z M987.7,422.2C987.7,422.2,987.7,422.2,987.7,422.2
			C987.7,422.2,987.7,422.2,987.7,422.2z M987.7,422.2C987.7,422.2,987.7,422.2,987.7,422.2C987.7,422.2,987.7,422.2,987.7,422.2z
			 M987.7,422.2C987.7,422.2,987.7,422.2,987.7,422.2C987.7,422.2,987.7,422.2,987.7,422.2z M987.7,422.2L987.7,422.2L987.7,422.2z
			 M987.7,422.2C987.7,422.2,987.7,422.2,987.7,422.2S987.7,422.2,987.7,422.2z M987.7,422.2L987.7,422.2L987.7,422.2z M987.7,422.1
			C987.7,422.1,987.7,422.1,987.7,422.1C987.7,422.1,987.7,422.1,987.7,422.1z M987.7,422.1C987.7,422.1,987.7,422.1,987.7,422.1
			C987.7,422.1,987.7,422.1,987.7,422.1z M987.7,422.1L987.7,422.1L987.7,422.1z"/>
		<path class="st2" d="M1071,437.8c0.5,0,1.1-0.2,1.5-0.5c1.1-0.8,1.4-2.4,0.6-3.6c-0.4-0.5-9.6-12.8-26-8.3
			c-1.4,0.4-2.2,1.8-1.8,3.1s1.8,2.2,3.1,1.8c13-3.6,20.4,6.3,20.5,6.4C1069.5,437.5,1070.3,437.8,1071,437.8z"/>
		<path class="st2" d="M1015.1,491.9c-1.4-0.2-2.3-1.5-2.1-2.8c0.2-1.4,1.4-2.4,2.8-2.2c0.1,0,4,0.3,7-5.7
			c2.5-5.1-3.2-14.3-5.4-17.7c-1.1-1.8-1.5-2.4-1.4-3.5c0.1-1.4,1.4-2.4,2.8-2.3c1.1,0.1,1.9,0.8,2.2,1.8c0.1,0.3,0.4,0.7,0.8,1.2
			c2.8,4.5,9.5,15.1,5.7,22.7c-3.9,7.7-9.4,8.5-11.5,8.5C1015.5,491.9,1015.2,491.9,1015.1,491.9z M1021.1,460.4
			C1021.1,460.4,1021.1,460.4,1021.1,460.4C1021.1,460.4,1021.1,460.4,1021.1,460.4z M1021.1,460.4
			C1021.1,460.4,1021.1,460.4,1021.1,460.4S1021.1,460.4,1021.1,460.4z"/>
		<path class="st2" d="M1011.1,511.1c-5.6-0.1-13.3-2.7-17.8-14c-0.5-1.3,0.1-2.8,1.4-3.3c1.3-0.5,2.8,0.1,3.3,1.4
			c2.2,5.6,5.5,9.1,9.8,10.3c6.1,1.7,12.4-1.5,13.4-2.3c0.7-0.8,1.9-1,2.9-0.6c1.3,0.6,1.9,2.1,1.3,3.4c-0.9,2-7.7,5-14,5
			C1011.4,511.1,1011.3,511.1,1011.1,511.1z M1020.9,503.9C1020.9,503.9,1020.9,503.9,1020.9,503.9
			C1020.9,503.9,1020.9,503.9,1020.9,503.9z M1020.9,503.9C1020.9,503.9,1020.9,503.9,1020.9,503.9
			C1020.9,503.9,1020.9,503.9,1020.9,503.9z"/>
		
			<ellipse transform="matrix(0.103 -0.9947 0.9947 0.103 432.7015 1376.0034)" class="st2" cx="979.3" cy="448.1" rx="10.7" ry="9.3"/>
		<circle class="st3" cx="977" cy="445" r="4.3"/>
		
			<ellipse transform="matrix(0.103 -0.9947 0.9947 0.103 492.9916 1458.5945)" class="st2" cx="1055.2" cy="455.9" rx="10.7" ry="9.3"/>
		<circle class="st3" cx="1053" cy="452.8" r="4.3"/>
		<path class="st2" d="M934.1,428.1v24.7c0,0,16.7-30.6,17.3-42.9h40.5l13.6-15.5l4,15.5l22.2,3.2l7-31l10,31.6l36.4,8.5
			c0,0,13.3-0.5,0-35.8s-53.7-47.1-88.4-42.3c-34.7,4.8-62.8,40.8-62.6,53.9S934.1,428.1,934.1,428.1z"/>
		<path class="st3" d="M1122,747.8c-0.1,4.4-0.2,8.8-0.4,13.1c-1.7,60-4.3,113.8-4.3,113.8l-48.8,13.6l-75.6,21l-12.8-6.6
			l-70.5-36.3c0,0-7-48.4-13.1-104.5v-0.1c-7.8-71.6-14-155.7-2.6-168.9c18.1-20.8,37-15.1,51-24.3c1.8-1.2,3.5-2.6,5.1-4.3
			c14.3-15.3,18.7-29.6,18.7-29.6c1.7,1,34.3,23.5,59.8,12.2c0,0-7.1,23.5,15.3,25.5c6.7,0.6,15.4,0.8,24.5,1.6
			c17.6,1.5,36.7,5.5,46.3,19.8c0.1,0.1,0.1,0.2,0.2,0.3c1.9,2.9,3.5,6.2,4.5,10C1124.1,620.1,1123.6,685.4,1122,747.8z"/>
		<path class="st2" d="M976.6,1829.5c-5.5,15.7-171.8-4.7-180.4-25.1c-4.5-10.7-0.5-30.2,4.6-47.6c19.6,10,77.7,38.2,103.6,35
			c12.7-1.6,18.5-6.4,20.8-11.5C952.1,1799.3,979.5,1821.3,976.6,1829.5z"/>
		<path class="st2" d="M1037,1813.1c-2.5-7.8-1.5-23.7,0.6-40.1c29.4,11.2,98.6,25.6,111.6,15.8c6.6-5,9.4-10.8,10.5-16.1
			c28.5,14.3,61.4,33.1,64.1,46.7C1228.4,1843.6,1043.3,1832.7,1037,1813.1z"/>
		<path class="st2" d="M1024.3,1765.2c-0.1-0.3,0-0.5,0.1-0.8C1024.4,1764.4,1024.4,1764.7,1024.3,1765.2z"/>
		<path class="st2" d="M909.7,866.4c0,0,142.9-15.6,207.8,8.3c0,0,24.1,35.8,30.7,110.6c13.3,152.1-13.6,266.1-14.2,263.3
			l-263.6,1.8c0,0-12.4-232.7,5.1-286.4C892.8,910.4,909.7,866.4,909.7,866.4z"/>
		<path class="st1" d="M990,722.1c-4.1-77.7-43.8-151.4-44.9-153.4c-14,9.1-52,4.6-70.4,29.4l0,0l21.9,163.9l-18,171.4l99-10.3
			c0,0,1-7.6,2.5-20.2C984.6,864.8,993.2,781.2,990,722.1z"/>
		<path class="st1" d="M1140.6,603C1140.6,603,1140.7,602.7,1140.6,603c-9.7-14.3-54.5-27.4-72.1-28.9c0,0-9,54.2-9,127.7
			c0,51.8,5.2,139.4,9.1,186.6c1.6,19.8,3,32.4,3.7,32.4c2.3,0,72,0,72,0l-21.6-158.6C1121.9,709.1,1140.6,603,1140.6,603z"/>
		<path class="st2" d="M999.3,589.9c-8.7,0-16.7-2.1-23-5c-4.9-2.3-10.2-6.1-10.7-9.7c-0.1-0.9,0.6-1.7,1.5-1.8
			c0.9-0.1,1.7,0.5,1.8,1.5c0.1,1.2,2.6,4.2,8.8,7.1c12.3,5.8,31.8,7.9,49.9-3.7c0.8-0.5,1.8-0.3,2.3,0.5c0.5,0.8,0.3,1.8-0.5,2.3
			C1019.4,587.4,1008.9,589.9,999.3,589.9z"/>
		<path class="st3" d="M1055.2,888.9H990c-0.9,0-1.7-0.7-1.7-1.7c0-0.9,0.7-1.7,1.7-1.7h65.2c0.9,0,1.7,0.7,1.7,1.7
			C1056.9,888.2,1056.2,888.9,1055.2,888.9z"/>
		<path class="st0" d="M1266.4,630.4c1.4,0.5,16.2-4.3,16.2-4.3s29.1-46.8,34.4-44.4c5.3,2.4-14.8,42-14.8,42s12.9-0.4,11.5,6.7
			c0,0,14.3,4.3,10,15.2c-4.3,11-26.3,41.1-26.3,41.1l-48.7-6.7L1266.4,630.4z"/>
		<path class="st2" d="M1281.2,665.1c-0.2,0-0.4,0-0.6-0.1c-0.6-0.3-0.9-1.1-0.6-1.7c4.8-9.7-4.1-22.4-4.2-22.6
			c-0.3-0.4-0.3-0.9-0.1-1.4c0.3-0.4,0.7-0.7,1.2-0.6c3.8,0.4,14.5,0.9,18.1-2.2c0.7-0.6,1.1-1.4,1.1-2.3c0-1.6-0.5-2.9-1.5-3.8
			c-2.6-2.3-7.8-1.6-7.9-1.6c-0.7,0.1-1.3-0.4-1.4-1.1c-0.1-0.7,0.4-1.3,1.1-1.4c0.3,0,6.3-0.9,9.9,2.2c1.6,1.4,2.4,3.3,2.4,5.7
			c0,1.6-0.6,3-1.9,4.2c-3.8,3.4-13,3.3-17.5,3.1c2.6,4.4,7.3,14.4,3,23C1282.1,664.8,1281.7,665.1,1281.2,665.1z"/>
		<path class="st2" d="M1305.6,660.3c-0.3,0-0.5-0.1-0.7-0.2c-8.3-5.9,2.1-22.9,2.5-23.7c0.4-0.6,1.1-0.8,1.7-0.4
			c0.6,0.4,0.8,1.1,0.4,1.7c-2.7,4.4-8.5,16.5-3.2,20.3c0.6,0.4,0.7,1.2,0.3,1.8C1306.3,660.1,1306,660.3,1305.6,660.3z"/>
		<path class="st1" d="M1248.7,680c0,1.9-24.8,51.1-24.8,51.1s-74.4-133.5-101.1-142.1l-31.7-5.1l35.9,159.1c0,0,30.6,79,61.1,91.5
			c30.6,12.4,47.3,17.4,65.9-7.9c18.6-25.3,57.2-139.9,57.2-139.9L1248.7,680z"/>
		<path class="st2" d="M1188.1,805c-0.7,0-1.3-0.6-1.3-1.3c0-0.5,0.3-0.9,0.6-1.1c2.6-3.1,22.5-44.6,35.3-72c0.3-0.6,1-0.9,1.7-0.6
			c0.6,0.3,0.9,1,0.6,1.7c-0.1,0.2-8.6,18.4-17.2,36.3c-5.1,10.5-9.2,18.9-12.2,25C1189.5,805,1189.1,805,1188.1,805z M1188.1,802.5
			L1188.1,802.5C1188.1,802.5,1188.1,802.5,1188.1,802.5z"/>
		<path class="st0" d="M537.4,462.7c0.5-1.3,6.6-22.4-1.5-32.5c-8.1-10.1-28.5-38.8-30.3-35.3c-1.8,3.5-4.8,12.4,4.8,25l-44.4-46.9
			c0,0-6.3-3.5-10.1,0c-3.8,3.5,0,8.3,3.5,12.6c3.5,4.3,18.9,25.2,18.9,25.2s-15.1-1-10.6,12.6c0,0-14.1,3.3-4.8,19.7
			c0,0,18.7,44.6,31,47.7c12.4,3,25.7-4,26.5-4.3C521.3,486.2,537.4,462.7,537.4,462.7z"/>
		<path class="st1" d="M926.8,574.4c-3.9,3.6-160.5-8.6-223.3-14c-19.5-1.7-37.9-9.5-52.7-22.2L547,448.5l-55.2,55.2l88.8,86.6
			c32,31.2,73,51.7,117.3,58.5l193.7,36.4L926.8,574.4z"/>
		<path class="st2" d="M495.1,439.6c-1.1,0-2.4-0.3-3.8-0.9c-4.6-1.8-20.7-12.3-21.4-12.7c-0.6-0.4-0.8-1.3-0.4-1.9
			c0.4-0.6,1.3-0.8,1.9-0.4c0.2,0.1,16.6,10.8,20.9,12.5c1.8,0.7,3.2,0.8,4.1,0.4c1-0.5,1.7-1.8,2.2-4c0.1-0.2,0.3-2.6-8.2-10.9
			c-4.7-4.6-9.7-8.5-10.4-9c-0.6-0.3-0.9-1-0.7-1.7c0.2-0.7,1-1.1,1.7-0.9c0.9,0.3,6.9,5.3,11,9.2c9.3,8.8,9.8,12.1,9.3,13.8
			c-0.8,3-1.9,4.9-3.6,5.8C496.8,439.4,496,439.6,495.1,439.6z M480,412.8C480,412.8,480,412.8,480,412.8
			C480,412.8,480,412.8,480,412.8z"/>
		<path class="st2" d="M487.3,450.5c-6.3,0-14.7-5.2-19.1-8c-0.9-0.5-1.8-1.1-2-1.2c-0.7-0.2-1.1-0.9-1-1.6c0.1-0.7,0.9-1.2,1.6-1.1
			c0.5,0.1,1,0.4,2.8,1.6c4.2,2.6,15.3,9.6,20.2,7c1.1-0.6,1.8-1.3,1.9-2.3c0.4-2.8-3-6.9-4.4-8.2c-0.5-0.5-0.5-1.4,0-1.9
			c0.5-0.5,1.4-0.5,1.9,0c0.6,0.6,5.9,5.9,5.2,10.6c-0.2,1.3-0.9,3.1-3.3,4.3C490,450.3,488.7,450.5,487.3,450.5z M466.2,441.3
			C466.3,441.3,466.3,441.3,466.2,441.3C466.3,441.3,466.3,441.3,466.2,441.3z"/>
		<path class="st2" d="M514,456.5c-0.4,0-0.8-0.2-1.1-0.5c-9.3-11.4-1.5-24.5,0.7-27.7l-4.4-7.8c-0.4-0.7-0.1-1.5,0.5-1.9
			c0.7-0.4,1.5-0.1,1.9,0.5l4.8,8.6c0.3,0.5,0.2,1.1-0.1,1.5c-0.4,0.6-10.5,13.7-1.3,25c0.5,0.6,0.4,1.4-0.2,1.9
			C514.6,456.4,514.3,456.5,514,456.5z"/>
		<path class="st2" d="M1593.3,818.9c-1.6,0-3-0.6-4.2-2.1c-1.1-1.4-1.6-3.8-0.1-6.1c2.6-13.4,2.1-156,1-249.9l10-0.1
			c0,0.6,0.7,62.7,0.8,124.5c0.1,36.3,0,65.5-0.3,86.6c-0.3,17.9-0.6,28.3-1.1,34.5c5.9-2.6,14.6-6.8,22.3-10.7L1753,716V322
			c-28.8,16.6-129.2,74.1-145.5,79.9l-3.4-9.4c14.2-5.1,105.2-56.8,151.4-83.5l7.5-4.3v416.9l-136.5,82.9c-0.1,0-7.7,3.9-15.3,7.5
			c-4.5,2.1-8.2,3.8-10.9,4.9C1597.9,817.9,1595.4,818.9,1593.3,818.9z M1589.9,809.7C1589.9,809.7,1589.9,809.7,1589.9,809.7
			C1589.9,809.7,1589.9,809.7,1589.9,809.7z"/>
		<polygon class="st2" points="1624.3,196.3 1624.3,643.7 1351.2,801.4 1351.2,354 		"/>
		<polygon class="st3" points="1624.3,236.6 1624.3,240.4 1351.2,398 1351.2,394.2 		"/>
		
			<ellipse transform="matrix(0.6011 -0.7992 0.7992 0.6011 270.1281 1248.6158)" class="st3" cx="1385.8" cy="353.7" rx="16.2" ry="9.2"/>
		
			<ellipse transform="matrix(0.6011 -0.7992 0.7992 0.6011 298.4492 1267.3429)" class="st3" cx="1418.8" cy="334.7" rx="16.2" ry="9.2"/>
		
			<ellipse transform="matrix(0.6011 -0.7992 0.7992 0.6011 326.7702 1286.0701)" class="st3" cx="1451.7" cy="315.7" rx="16.2" ry="9.2"/>
		<polygon class="st3" points="1590.7,319 1385.7,437.3 1385.7,429.3 1590.7,311 		"/>
		<polygon class="st3" points="1590.7,432.5 1385.7,550.8 1385.7,542.8 1590.7,424.5 		"/>
		<polygon class="st3" points="1590.7,546 1385.7,664.3 1385.7,656.3 1590.7,538 		"/>
		<polygon class="st2" points="1838.6,334.7 1838.6,523.8 1651.9,631.6 1651.9,442.5 		"/>
		<polygon class="st3" points="1838.6,362.2 1838.6,364.8 1651.9,472.6 1651.9,470 		"/>
		
			<ellipse transform="matrix(0.6011 -0.7992 0.7992 0.6011 314.8793 1515.4937)" class="st3" cx="1675.5" cy="442.3" rx="11.1" ry="6.3"/>
		
			<ellipse transform="matrix(0.6011 -0.7992 0.7992 0.6011 334.2415 1528.2968)" class="st3" cx="1698.1" cy="429.3" rx="11.1" ry="6.3"/>
		
			<ellipse transform="matrix(0.6011 -0.7992 0.7992 0.6011 353.6036 1541.0999)" class="st3" cx="1720.6" cy="416.3" rx="11.1" ry="6.3"/>
		<g>
			<path class="st3" d="M1705.5,469.4l-3.1,1.8c-7.2,4.2-13.1,13.5-13.1,20.7V506c0,7.2,5.9,9.7,13.1,5.5l3.1-1.8
				c7.2-4.2,13.1-13.5,13.1-20.7v-14.1C1718.7,467.7,1712.8,465.2,1705.5,469.4z M1711.8,493c0,3.5-2.8,7.9-6.3,9.9l-3.1,1.8
				c-3.5,2-6.3,0.8-6.3-2.7v-14.1c0-3.5,2.8-7.9,6.3-9.9l3.1-1.8c3.5-2,6.3-0.8,6.3,2.7V493z"/>
			<polygon class="st3" points="1739.6,490.7 1732.7,494.6 1732.7,462.2 1727.6,466.6 1725.7,461.2 1739.6,449.1 			"/>
			<path class="st3" d="M1762.8,436.3l-3.1,1.8c-7.2,4.2-13.1,13.5-13.1,20.7v14.2c0,7.2,5.9,9.7,13.1,5.5l3.1-1.8
				c7.2-4.2,13.1-13.5,13.1-20.7v-14.2C1775.9,434.6,1770,432.1,1762.8,436.3z M1769.1,459.9c0,3.5-2.8,7.9-6.3,9.9l-3.1,1.8
				c-3.5,2-6.3,0.8-6.3-2.7v-14.1c0-3.5,2.8-7.9,6.3-9.9l3.1-1.8c3.5-2,6.3-0.8,6.3,2.7V459.9z"/>
			<path class="st3" d="M1799.2,415.3l-3.1,1.8c-7.3,4.2-13.1,13.5-13.1,20.7v14.1c0,7.3,5.9,9.7,13.1,5.6l3.1-1.8
				c7.2-4.2,13.1-13.5,13.1-20.7v-14.1C1812.3,413.6,1806.4,411.1,1799.2,415.3z M1805.5,438.9c0,3.5-2.8,7.9-6.3,9.9l-3.1,1.8
				c-3.5,2-6.3,0.8-6.3-2.7v-14.1c0-3.5,2.8-7.9,6.3-9.9l3.1-1.8c3.5-2,6.3-0.8,6.3,2.6V438.9z"/>
			<path class="st3" d="M1705.5,525.9l-3.1,1.8c-7.2,4.2-13.1,13.5-13.1,20.7v14.1c0,7.2,5.9,9.7,13.1,5.6l3.1-1.8
				c7.2-4.2,13.1-13.5,13.1-20.7v-14.1C1718.7,524.2,1712.8,521.7,1705.5,525.9z M1711.8,549.5c0,3.5-2.8,7.9-6.3,9.9l-3.1,1.8
				c-3.5,2-6.3,0.8-6.3-2.6v-14.2c0-3.5,2.8-7.9,6.3-9.9l3.1-1.8c3.5-2,6.3-0.8,6.3,2.7V549.5z"/>
			<path class="st3" d="M1741.9,504.9l-3.1,1.8c-7.2,4.2-13.1,13.5-13.1,20.7v14.2c0,7.2,5.9,9.7,13.1,5.5l3.1-1.8
				c7.2-4.2,13.1-13.5,13.1-20.7v-14.1C1755,503.2,1749.1,500.7,1741.9,504.9z M1748.2,528.5c0,3.5-2.8,7.9-6.3,9.9l-3.1,1.8
				c-3.5,2-6.3,0.8-6.3-2.7v-14.1c0-3.5,2.8-7.9,6.3-9.9l3.1-1.8c3.5-2,6.3-0.8,6.3,2.6V528.5z"/>
			<polygon class="st3" points="1775.9,526.2 1769.1,530.2 1769.1,497.7 1764,502.2 1762.1,496.7 1775.9,484.7 			"/>
			<path class="st3" d="M1799.2,471.8l-3.1,1.8c-7.3,4.2-13.1,13.5-13.1,20.7v14.2c0,7.2,5.9,9.7,13.1,5.5l3.1-1.8
				c7.2-4.2,13.1-13.5,13.1-20.7v-14.1C1812.3,470.1,1806.4,467.6,1799.2,471.8z M1805.5,495.5c0,3.5-2.8,7.9-6.3,9.9l-3.1,1.8
				c-3.5,2-6.3,0.8-6.3-2.7v-14.1c0-3.5,2.8-7.9,6.3-9.9l3.1-1.8c3.5-2,6.3-0.8,6.3,2.6V495.5z"/>
		</g>
		<polygon class="st2" points="1842.9,573.9 1842.9,848.7 1571.5,1005.4 1571.5,730.6 		"/>
		<polygon class="st3" points="1842.9,613.9 1842.9,617.7 1571.5,774.3 1571.5,770.6 		"/>
		
			<ellipse transform="matrix(0.6011 -0.7992 0.7992 0.6011 56.9189 1574.6881)" class="st3" cx="1605.9" cy="730.3" rx="16.1" ry="9.1"/>
		
			<ellipse transform="matrix(0.6011 -0.7992 0.7992 0.6011 85.0679 1593.3014)" class="st3" cx="1638.6" cy="711.4" rx="16.1" ry="9.1"/>
		
			<ellipse transform="matrix(0.6011 -0.7992 0.7992 0.6011 113.2169 1611.9148)" class="st3" cx="1671.3" cy="692.5" rx="16.1" ry="9.1"/>
		<path class="st3" d="M1736.6,817.1l-58.9,34v-56.4c0-16.2,13.2-37.1,29.5-46.5c16.2-9.4,29.5-3.8,29.5,12.5V817.1z M1688.2,834.5
			l37.8-21.8v-45.8c0-10.4-8.5-14-18.9-8c-10.4,6-18.9,19.4-18.9,29.8V834.5z"/>
		<path class="st1" d="M1742.9,850l-71.6,41.3c-4,2.3-7.2,0.9-7.2-3v-46c0-4,3.2-9,7.2-11.3l71.6-41.3c4-2.3,7.2-0.9,7.2,3v46
			C1750.1,842.6,1746.9,847.7,1742.9,850z"/>
		<path class="st2" d="M1716.3,836.3c0-5.1-4.1-6.8-9.2-3.9c-5.1,2.9-9.2,9.4-9.2,14.4c0,3.8,2.3,5.7,5.5,5.2v13.5l7.3-4.2v-13.5
			C1714,844.6,1716.3,840.1,1716.3,836.3z"/>
		<polygon class="st2" points="689,699.9 689,992.1 447.2,852.5 447.2,560.3 		"/>
		<polygon class="st3" points="689,735.6 689,739 447.2,599.3 447.2,596 		"/>
		
			<ellipse transform="matrix(0.7992 -0.6011 0.6011 0.7992 -262.0018 406.8216)" class="st3" cx="477.8" cy="595.5" rx="8.1" ry="14.4"/>
		
			<ellipse transform="matrix(0.7992 -0.6011 0.6011 0.7992 -266.265 427.7282)" class="st3" cx="507" cy="612.3" rx="8.1" ry="14.4"/>
		
			<ellipse transform="matrix(0.7992 -0.6011 0.6011 0.7992 -270.5282 448.6348)" class="st3" cx="536.1" cy="629.2" rx="8.1" ry="14.4"/>
		<polygon class="st3" points="658.9,768.3 477.3,663.5 477.3,656.4 658.9,761.2 		"/>
		<polygon class="st3" points="658.9,816.2 477.3,711.4 477.3,704.4 658.9,809.2 		"/>
		<polygon class="st2" points="433.1,346.9 433.1,578.2 249.9,472.4 249.9,241.1 		"/>
		<polygon class="st3" points="433.1,373.9 433.1,376.4 249.9,270.6 249.9,268.1 		"/>
		
			<ellipse transform="matrix(0.7992 -0.6011 0.6011 0.7992 -106.0858 217.9693)" class="st3" cx="273.2" cy="267.7" rx="6.2" ry="10.9"/>
		
			<ellipse transform="matrix(0.7992 -0.6011 0.6011 0.7992 -109.3152 233.8067)" class="st3" cx="295.2" cy="280.5" rx="6.2" ry="10.9"/>
		
			<ellipse transform="matrix(0.7992 -0.6011 0.6011 0.7992 -112.5447 249.6441)" class="st3" cx="317.3" cy="293.3" rx="6.2" ry="10.9"/>
		<path class="st3" d="M387.8,451.5c0-4.8-0.7-9.8-2.1-15l9.8,2.6c-2.7-10.2-7.6-21-14.1-31.2l-7.3,3.1c-3.3-5.2-7.1-10.1-11.2-14.7
			l4.8-6.4c-8-8.9-17.1-16.3-26.2-21.6l0,0v10.3c-4.8-2.8-9.4-4.7-13.8-5.8l-3.1-11.6c-8.7-2.3-16.7-2.1-23.1,0.7l7.3,11.5
			c-3.3,1.4-6.1,3.6-8.3,6.4l-9.1-10.1c-4.2,5.6-6.5,13.4-6.5,22.5v0l10.3,5.9c0,4.8,0.7,9.8,2.1,15l-9.8-2.6
			c2.7,10.2,7.6,21,14,31.2l7.3-3.1c3.3,5.2,7.1,10.2,11.2,14.7l-4.8,6.3c8.1,8.9,17.1,16.4,26.3,21.7l0.1,0.1l0-10.3
			c4.8,2.8,9.4,4.7,13.7,5.8l3.1,11.6c8.7,2.3,16.7,2,23.1-0.7l-7.3-11.5c3.3-1.4,6.1-3.6,8.2-6.5l9.1,10.1
			c4.2-5.6,6.4-13.4,6.4-22.5v-0.1L387.8,451.5z M341.5,450.5c-14.2-8.2-25.7-26.3-25.7-40.5s11.5-19,25.7-10.9
			c14.2,8.2,25.7,26.3,25.7,40.5S355.7,458.7,341.5,450.5z"/>
		<polygon class="st2" points="401.8,626.5 401.8,814.2 216.5,707.2 216.5,519.5 		"/>
		<polygon class="st3" points="401.8,653.8 401.8,656.4 216.5,549.4 216.5,546.8 		"/>
		
			<ellipse transform="matrix(0.7992 -0.6011 0.6011 0.7992 -280.2742 253.9851)" class="st3" cx="240" cy="546.4" rx="6.2" ry="11"/>
		
			<ellipse transform="matrix(0.7992 -0.6011 0.6011 0.7992 -283.542 270.0107)" class="st3" cx="262.3" cy="559.3" rx="6.2" ry="11"/>
		
			<ellipse transform="matrix(0.7992 -0.6011 0.6011 0.7992 -286.8099 286.0363)" class="st3" cx="284.7" cy="572.2" rx="6.2" ry="11"/>
		<path class="st3" d="M255.5,640.3l-3.5-2c-8.2-4.8-14.9-15.3-14.9-23.6l0-16.1c0-8.2,6.7-11.1,14.9-6.3l3.5,2
			c8.2,4.8,14.9,15.3,14.9,23.6V634C270.5,642.2,263.8,645,255.5,640.3z M252,600.1c-3.9-2.3-7.2-0.9-7.2,3v16.1
			c0,3.9,3.2,9,7.2,11.3l3.5,2c3.9,2.3,7.2,0.9,7.2-3v-16.1c0-3.9-3.2-9-7.2-11.3L252,600.1z"/>
		<polygon class="st3" points="294.2,663.3 286.5,658.8 286.5,621.9 280.7,620.2 278.5,611.5 294.2,616 		"/>
		<path class="st3" d="M320.7,677.9l-3.5-2c-8.2-4.8-14.9-15.3-14.9-23.6v-16.1c0-8.2,6.7-11.1,14.9-6.3l3.5,2
			c8.2,4.8,14.9,15.3,14.9,23.6v16.1C335.6,679.8,328.9,682.6,320.7,677.9z M317.2,637.7c-3.9-2.3-7.2-0.9-7.2,3v16.1
			c0,3.9,3.2,9,7.2,11.3l3.5,2c3.9,2.3,7.2,0.9,7.2-3V651c0-3.9-3.2-9-7.2-11.3L317.2,637.7z"/>
		<path class="st3" d="M362.1,701.8l-3.5-2c-8.2-4.8-14.9-15.3-14.9-23.6v-16.1c0-8.2,6.7-11.1,14.9-6.3l3.5,2
			c8.2,4.8,14.9,15.3,14.9,23.6v16.1C377,703.7,370.3,706.5,362.1,701.8z M358.6,661.6c-3.9-2.3-7.2-0.9-7.2,3v16.1
			c0,3.9,3.2,9,7.2,11.3l3.5,2c3.9,2.3,7.2,0.9,7.2-3v-16.1c0-3.9-3.2-9-7.2-11.3L358.6,661.6z"/>
		<path class="st3" d="M255.5,704.6l-3.5-2c-8.2-4.8-14.9-15.3-14.9-23.6v-16.1c0-8.2,6.7-11.1,14.9-6.3l3.5,2
			c8.2,4.8,14.9,15.3,14.9,23.6v16.1C270.5,706.5,263.8,709.3,255.5,704.6z M252,664.4c-3.9-2.3-7.2-0.9-7.2,3l0,16.1
			c0,3.9,3.2,9,7.2,11.3l3.5,2c3.9,2.3,7.2,0.9,7.2-3v-16.1c0-3.9-3.2-9-7.2-11.3L252,664.4z"/>
		<path class="st3" d="M296.9,728.5l-3.5-2c-8.2-4.8-14.9-15.3-14.9-23.6l0-16.1c0-8.2,6.7-11.1,14.9-6.3l3.5,2
			c8.2,4.8,14.9,15.3,14.9,23.6v16.1C311.8,730.4,305.1,733.2,296.9,728.5z M293.4,688.3c-3.9-2.3-7.2-0.9-7.2,3v16.1
			c0,3.9,3.2,9,7.2,11.3l3.5,2c3.9,2.3,7.2,0.9,7.2-3l0-16.1c0-3.9-3.2-9-7.2-11.3L293.4,688.3z"/>
		<polygon class="st3" points="335.6,751.5 327.8,747 327.8,710.1 322,708.4 319.9,699.7 335.6,704.2 		"/>
		<path class="st3" d="M362.1,766.1l-3.5-2c-8.2-4.8-14.9-15.3-14.9-23.6v-16.1c0-8.2,6.7-11.1,14.9-6.3l3.5,2
			c8.2,4.8,14.9,15.3,14.9,23.6v16.1C377,768,370.3,770.8,362.1,766.1z M358.6,725.9c-3.9-2.3-7.2-0.9-7.2,3V745
			c0,3.9,3.2,9,7.2,11.3l3.5,2c3.9,2.3,7.2,0.9,7.2-3l0-16.1c0-3.9-3.2-9-7.2-11.3L358.6,725.9z"/>
		<polygon class="st3" points="658.9,864.2 477.3,759.4 477.3,752.3 658.9,857.1 		"/>
		<polygon class="st3" points="658.9,912.2 477.3,807.3 477.3,800.3 658.9,905.1 		"/>
		<polygon class="st3" points="1590.7,489.2 1385.7,607.6 1385.7,599.6 1590.7,481.2 		"/>
		<polygon class="st3" points="1590.7,375.7 1385.7,494.1 1385.7,486.1 1590.7,367.7 		"/>
		<polygon class="st3" points="1590.7,602.7 1385.7,721.1 1385.7,713.1 1590.7,594.7 		"/>
	</g>
</g>
<g id="Layer_10">
</g>
</svg>
