<?xml version="1.0" encoding="utf-8"?>
<!-- Generator: Adobe Illustrator 23.0.5, SVG Export Plug-In . SVG Version: 6.00 Build 0)  -->
<svg version="1.1" xmlns="http://www.w3.org/2000/svg" xmlns:xlink="http://www.w3.org/1999/xlink" x="0px" y="0px"
	 viewBox="0 0 2000 2000" style="enable-background:new 0 0 2000 2000;" xml:space="preserve">
<style type="text/css">
	.st0{fill:#F1BAA4;}
	.st1{fill:#C35656;}
	.st2{fill:#362E38;}
	.st3{fill:#EFE5DC;}
</style>
<g id="Layer_1">
</g>
<g id="Layer_2">
</g>
<g id="Layer_3">
	<g>
		<polygon class="st2" points="1556.5,1737.8 1001.4,1737.8 1001.4,1558.7 1011.4,1558.7 1011.4,1727.8 1546.5,1727.8 1546.5,645.7 
			1196.7,645.7 1196.7,1332.4 968.6,1332.4 968.6,911.4 1054.2,911.4 1054.2,656.6 1055.7,655.2 1284.7,426.1 1284.7,125.8 
			1717.1,125.8 1717.1,870.1 1707.1,870.1 1707.1,135.8 1294.7,135.8 1294.7,430.3 1064.2,660.8 1064.2,921.4 978.6,921.4 
			978.6,1322.4 1186.7,1322.4 1186.7,635.7 1556.5,635.7 		"/>
		<path class="st2" d="M1272.7,707.2v11.6h11.6v-11.6H1272.7z M1272.7,707.2v11.6h11.6v-11.6H1272.7z M1272.7,707.2v11.6h11.6v-11.6
			H1272.7z M1272.7,707.2v11.6h11.6v-11.6H1272.7z M1272.7,707.2v11.6h11.6v-11.6H1272.7z M989.3,239.6v479.3h806.3V239.6H989.3z
			 M1784,707.2h-783v-456h783V707.2z M1272.7,707.2v11.6h100.7v-11.6H1272.7z M1284.3,239.6v11.6h89.1v-11.6H1284.3z M1385,239.6
			v11.6h309.1v-11.6H1385z M1272.7,707.2v11.6h11.6v-11.6H1272.7z M1272.7,707.2v11.6h11.6v-11.6H1272.7z M1272.7,707.2v11.6h11.6
			v-11.6H1272.7z M1272.7,707.2v11.6h11.6v-11.6H1272.7z"/>
		<rect x="1000.9" y="251.2" class="st3" width="783" height="456"/>
		<rect x="995.5" y="337.6" class="st2" width="792.5" height="11.6"/>
		<rect x="1143.5" y="413.4" class="st1" width="448.9" height="17.5"/>
		<rect x="1215.7" y="491.6" class="st2" width="102.5" height="8.7"/>
		<rect x="1350.9" y="491.6" class="st2" width="56.6" height="8.7"/>
		<rect x="1440.2" y="491.6" class="st2" width="224.5" height="8.7"/>
		<rect x="1215.7" y="530.6" class="st2" width="376.7" height="8.7"/>
		<rect x="1625.1" y="530.6" class="st2" width="39.5" height="8.7"/>
		<rect x="1215.7" y="569.6" class="st2" width="30.1" height="8.7"/>
		<rect x="1278.5" y="569.6" class="st2" width="129" height="8.7"/>
		<rect x="1440.2" y="569.6" class="st2" width="224.5" height="8.7"/>
		<rect x="1215.7" y="608.7" class="st2" width="102.5" height="8.7"/>
		<rect x="1350.9" y="608.7" class="st2" width="152.2" height="8.7"/>
		<rect x="1535.8" y="608.7" class="st2" width="128.9" height="8.7"/>
		<circle class="st2" cx="1170.2" cy="500.3" r="13.4"/>
		<circle class="st2" cx="1057.4" cy="292.7" r="22.4"/>
		<circle class="st2" cx="1117.8" cy="292.7" r="22.4"/>
		<circle class="st2" cx="1178.1" cy="292.7" r="22.4"/>
		<path class="st2" d="M1584.5,798.8v11.6h109.6v-11.6H1584.5z M1584.5,798.8v11.6h109.6v-11.6H1584.5z M1337.3,798.8v434.6h434.6
			V798.8H1337.3z M1760.3,1221.8h-411.4V810.4h411.4V1221.8z M1584.5,798.8v11.6h109.6v-11.6H1584.5z M1584.5,798.8v11.6h109.6
			v-11.6H1584.5z"/>
		<rect x="1348.9" y="810.4" class="st3" width="411.4" height="411.4"/>
		<rect x="1343.1" y="894.1" class="st2" width="421.3" height="11.6"/>
		<circle class="st2" cx="1386.7" cy="851.7" r="22.4"/>
		<circle class="st2" cx="1447" cy="851.7" r="22.4"/>
		<circle class="st2" cx="1507.4" cy="851.7" r="22.4"/>
		<path class="st2" d="M1444.6,942.1h-7.6c-18.1,0-32.9,14.8-32.9,32.9v35.4c0,18.1,14.8,32.9,32.9,32.9h7.6
			c18.1,0,32.9-14.8,32.9-32.9V975C1477.5,956.9,1462.8,942.1,1444.6,942.1z M1460.4,1010.4c0,8.7-7.1,15.8-15.8,15.8h-7.6
			c-8.7,0-15.8-7.1-15.8-15.8V975c0-8.7,7.1-15.8,15.8-15.8h7.6c8.7,0,15.8,7.1,15.8,15.8V1010.4z"/>
		<polygon class="st2" points="1529.9,1044.8 1512.7,1044.8 1512.7,963.5 1500,967.3 1495.2,950.8 1529.9,940.7 		"/>
		<path class="st2" d="M1588.1,942.1h-7.7c-18.1,0-32.9,14.8-32.9,32.9v35.4c0,18.1,14.8,32.9,32.9,32.9h7.7
			c18.1,0,32.9-14.8,32.9-32.9V975C1621,956.9,1606.2,942.1,1588.1,942.1z M1603.8,1010.4c0,8.7-7.1,15.8-15.8,15.8h-7.7
			c-8.7,0-15.8-7.1-15.8-15.8V975c0-8.7,7.1-15.8,15.8-15.8h7.7c8.7,0,15.8,7.1,15.8,15.8V1010.4z"/>
		<path class="st2" d="M1679.2,942.1h-7.6c-18.1,0-32.9,14.8-32.9,32.9v35.4c0,18.1,14.8,32.9,32.9,32.9h7.6
			c18.1,0,32.9-14.8,32.9-32.9V975C1712.1,956.9,1697.3,942.1,1679.2,942.1z M1694.9,1010.4c0,8.7-7.1,15.8-15.8,15.8h-7.6
			c-8.7,0-15.8-7.1-15.8-15.8V975c0-8.7,7.1-15.8,15.8-15.8h7.6c8.7,0,15.8,7.1,15.8,15.8V1010.4z"/>
		<path class="st2" d="M1444.6,1083.7h-7.6c-18.1,0-32.9,14.8-32.9,32.9v35.4c0,18.1,14.8,32.9,32.9,32.9h7.6
			c18.1,0,32.9-14.8,32.9-32.9v-35.4C1477.5,1098.4,1462.8,1083.7,1444.6,1083.7z M1460.4,1152c0,8.7-7.1,15.8-15.8,15.8h-7.6
			c-8.7,0-15.8-7.1-15.8-15.8v-35.4c0-8.7,7.1-15.8,15.8-15.8h7.6c8.7,0,15.8,7.1,15.8,15.8V1152z"/>
		<path class="st2" d="M1535.7,1083.7h-7.7c-18.1,0-32.9,14.8-32.9,32.9v35.4c0,18.1,14.8,32.9,32.9,32.9h7.7
			c18.1,0,32.9-14.8,32.9-32.9v-35.4C1568.6,1098.4,1553.9,1083.7,1535.7,1083.7z M1551.5,1152c0,8.7-7.1,15.8-15.8,15.8h-7.7
			c-8.7,0-15.8-7.1-15.8-15.8v-35.4c0-8.7,7.1-15.8,15.8-15.8h7.7c8.7,0,15.8,7.1,15.8,15.8V1152z"/>
		<polygon class="st2" points="1621,1186.3 1603.8,1186.3 1603.8,1105.1 1591.1,1108.8 1586.3,1092.4 1621,1082.3 		"/>
		<path class="st2" d="M1679.2,1083.7h-7.6c-18.1,0-32.9,14.8-32.9,32.9v35.4c0,18.1,14.8,32.9,32.9,32.9h7.6
			c18.1,0,32.9-14.8,32.9-32.9v-35.4C1712.1,1098.4,1697.3,1083.7,1679.2,1083.7z M1694.9,1152c0,8.7-7.1,15.8-15.8,15.8h-7.6
			c-8.7,0-15.8-7.1-15.8-15.8v-35.4c0-8.7,7.1-15.8,15.8-15.8h7.6c8.7,0,15.8,7.1,15.8,15.8V1152z"/>
		<path class="st2" d="M1005.4,1021v11.6h11.6V1021H1005.4z M1005.4,1021v11.6h11.6V1021H1005.4z M1102.4,949.4v71.6H908.5v-71.6
			h-11.6v83.2h217.1v-83.2H1102.4z M1102.4,949.4v71.6H908.5v-71.6h-11.6v83.2h217.1v-83.2H1102.4z M1102.4,949.4v71.6H908.5v-71.6
			h-11.6v83.2h217.1v-83.2H1102.4z M896.9,815.5v217.1h217.1V815.5H896.9z M1102.4,1021H908.5V827.2h193.9V1021z M1102.4,949.4v71.6
			H908.5v-71.6h-11.6v83.2h217.1v-83.2H1102.4z M1102.4,949.4v71.6H908.5v-71.6h-11.6v83.2h217.1v-83.2H1102.4z M1102.4,949.4v71.6
			H908.5v-71.6h-11.6v83.2h217.1v-83.2H1102.4z M1102.4,949.4v71.6H908.5v-71.6h-11.6v83.2h217.1v-83.2H1102.4z M1005.4,1021v11.6
			h11.6V1021H1005.4z"/>
		<rect x="908.5" y="827.2" class="st3" width="193.9" height="193.9"/>
		<rect x="902.7" y="861.8" class="st2" width="204.7" height="11.6"/>
		<circle class="st2" cx="928.9" cy="842.5" r="12.2"/>
		<circle class="st2" cx="961.9" cy="842.5" r="12.2"/>
		<circle class="st2" cx="994.9" cy="842.5" r="12.2"/>
		<g>
			<path class="st2" d="M1038.8,975.2l-4-7.6l35.3-18.6l-35.3-18.6l4-7.6l42.5,22.4c1.4,0.7,2.3,2.2,2.3,3.8c0,1.6-0.9,3.1-2.3,3.8
				L1038.8,975.2z"/>
			<path class="st2" d="M973.5,975.2l4-7.6L942.2,949l35.3-18.6l-4-7.6L931,945.2c-1.4,0.7-2.3,2.2-2.3,3.8c0,1.6,0.9,3.1,2.3,3.8
				L973.5,975.2z"/>
			<polygon class="st2" points="999.4,979.9 986.3,979.9 1023,916.4 1036.1,916.4 			"/>
		</g>
		<path class="st2" d="M1162.7,1147.8v11.6h73.2v423.9h-73.2v11.6h84.8v-447.1H1162.7z M1162.7,1147.8v11.6h73.2v423.9h-73.2v11.6
			h84.8v-447.1H1162.7z M1162.7,1147.8v11.6h73.2v423.9h-73.2v11.6h84.8v-447.1H1162.7z M1162.7,1147.8v11.6h73.2v423.9h-73.2v11.6
			h84.8v-447.1H1162.7z M800.3,1147.8V1595h447.1v-447.1H800.3z M1235.8,1583.4H811.9v-423.9h423.9V1583.4z M1162.7,1147.8v11.6
			h73.2v423.9h-73.2v11.6h84.8v-447.1H1162.7z M1162.7,1147.8v11.6h73.2v423.9h-73.2v11.6h84.8v-447.1H1162.7z M1162.7,1147.8v11.6
			h73.2v423.9h-73.2v11.6h84.8v-447.1H1162.7z M1162.7,1147.8v11.6h73.2v423.9h-73.2v11.6h84.8v-447.1H1162.7z"/>
		<rect x="811.9" y="1159.5" class="st3" width="423.9" height="423.9"/>
		<rect x="806.1" y="1245.9" class="st2" width="433.7" height="11.6"/>
		<circle class="st2" cx="851" cy="1202.2" r="23"/>
		<circle class="st2" cx="913.1" cy="1202.2" r="23"/>
		<circle class="st2" cx="975.3" cy="1202.2" r="23"/>
		<rect x="854.3" y="1314.2" class="st1" width="337.5" height="13.1"/>
		<path class="st0" d="M1038.5,502.4c-0.5-1.2-6.3-21.4,1.4-31.1c7.7-9.6,27.2-37.1,28.9-33.7c1.7,3.4,4.6,11.8-4.6,23.8l42.4-44.8
			c0,0,6-3.4,9.6,0c3.6,3.4,0,7.9-3.4,12c-3.4,4.1-18.1,24.1-18.1,24.1s14.5-1,10.1,12c0,0,13.5,3.1,4.6,18.8
			c0,0-17.8,42.6-29.6,45.5c-11.8,2.9-24.6-3.9-25.3-4.1S1038.5,502.4,1038.5,502.4z"/>
		<path class="st0" d="M682.8,608.6c3.7,3.4,137.1-7.7,197-12.9c18.6-1.6,41.3-5.6,55.4-17.8l101.7-81.4l33.4,33.4l-85.2,92
			c-30.6,29.8-61.8,47-104.1,53.4L763.6,690L682.8,608.6z"/>
		<path class="st2" d="M1076.6,479.8c-1.6-0.8-2.7-2.6-3.5-5.5c-0.4-1.6,0.1-4.8,8.9-13.2c3.9-3.7,9.6-8.5,10.5-8.8
			c0.7-0.2,1.4,0.1,1.6,0.8c0.2,0.6-0.1,1.3-0.7,1.6c-0.7,0.4-5.4,4.2-10,8.6c-8.2,7.9-7.9,10.2-7.9,10.4c0.5,2.1,1.2,3.3,2.1,3.8
			c0.9,0.4,2.1,0.3,3.9-0.4c4.1-1.6,19.8-11.8,20-11.9c0.6-0.4,1.4-0.2,1.8,0.4c0.4,0.6,0.2,1.4-0.4,1.8
			c-0.7,0.4-16.1,10.4-20.4,12.2c-1.4,0.5-2.6,0.8-3.6,0.8C1078.1,480.3,1077.3,480.2,1076.6,479.8z M1093.3,454.7
			C1093.3,454.7,1093.3,454.7,1093.3,454.7C1093.3,454.7,1093.3,454.7,1093.3,454.7z"/>
		<path class="st2" d="M1082.7,490c-2.3-1.2-3-2.9-3.2-4.1c-0.7-4.5,4.4-9.5,4.9-10.1c0.5-0.5,1.3-0.5,1.8,0c0.5,0.5,0.5,1.3,0,1.8
			c-1.3,1.3-4.6,5.2-4.2,7.8c0.1,0.9,0.7,1.6,1.8,2.2c4.7,2.4,15.3-4.2,19.3-6.7c1.8-1.1,2.3-1.4,2.7-1.5c0.7-0.1,1.4,0.3,1.5,1
			c0.1,0.7-0.3,1.3-0.9,1.5c-0.3,0.1-1.1,0.7-2,1.2c-4.2,2.6-12.2,7.6-18.2,7.6C1085,490.8,1083.8,490.5,1082.7,490z M1106.4,482
			C1106.4,482,1106.5,482,1106.4,482C1106.5,482,1106.4,482,1106.4,482z"/>
		<path class="st2" d="M1060.9,496.5c0.4,0,0.8-0.2,1-0.5c8.9-10.9,1.4-23.3-0.7-26.4l4.2-7.5c0.3-0.6,0.1-1.4-0.5-1.8
			c-0.6-0.3-1.4-0.1-1.8,0.5l-4.6,8.2c-0.3,0.5-0.2,1,0.1,1.4c0.4,0.5,10.1,13.1,1.2,23.9c-0.5,0.6-0.4,1.4,0.2,1.8
			C1060.3,496.4,1060.6,496.5,1060.9,496.5z"/>
		<path class="st2" d="M649.6,361.6c0,0-102.1-39.2-136.6,70.1S340.6,613.3,353.7,693.1c13.1,79.9,199.2,63.6,199.2,63.6L705,605.2
			l6.8-136.4C711.7,468.8,735.7,358.1,649.6,361.6z"/>
		<path class="st0" d="M606.7,1248.3c-2.8,11.8-5.9,25.1-9.3,39.5c-10.8,47.4-23.8,107.2-36.8,168.6c-13.4,13.5-27,27.3-40.7,41
			c-20.5,20.7-40.9,41.4-60.5,61.4l23-142.8l26.9-167.6H606.7z"/>
		<path class="st0" d="M656.5,1853.8c-2.5-7.8-1.5-23.9,0.6-40.4c1.2-9.5,2.7-19.1,4.2-27.4c0,0,0.8-387.4-11.3-537.8h100.5
			c-1.7,208.1-9.1,445.8-11.2,510c0.1,1,0.1,2,0.1,3.3c0,3.9-0.3,8.8-0.6,13.5c-0.6,8.3-1.4,16.1-1.2,17.1c0.2,1.1,20,9.6,42.5,20.9
			c28.7,14.4,61.8,33.4,64.5,47.1C849.2,1884.6,662.8,1873.6,656.5,1853.8z"/>
		
			<rect x="591" y="536.4" transform="matrix(-1 -4.438817e-11 4.438817e-11 -1 1232.8428 1169.3966)" class="st0" width="50.8" height="96.5"/>
		<path class="st0" d="M705,447.2c-0.7,1.8,2.4,44.2-11.3,76.9c-6.3,15.1-16.2,28.1-31.8,34.2c-7.9,3.1-17.3,4.3-28.4,3.1
			c0,0-54.6,6-77-56.9c0,0-23,0.4-28.6-23.8c-5.6-24.2,11.8-34.2,24.8-21.7c0,0,8.4-73.9,74.6-72.6C693.8,387.6,705,447.2,705,447.2
			z"/>
		<path class="st2" d="M583.1,458.7c-0.9-1.1-0.8-2.7,0.3-3.6c10.9-9.4,21.3-4.5,24.7-2.9c0.2,0.1,0.4,0.2,0.6,0.3
			c0.7,0.1,1.3,0.4,1.8,0.9c0.9,1.1,0.8,2.7-0.3,3.6c-1.4,1.2-2.9,0.5-4.3-0.1c-3.2-1.5-10.8-5-19.1,2.2c-0.5,0.4-1.1,0.6-1.7,0.6
			C584.3,459.6,583.6,459.3,583.1,458.7z M606.8,453L606.8,453L606.8,453z M606.8,453L606.8,453L606.8,453z M606.8,453
			C606.8,453,606.8,453,606.8,453C606.8,453,606.8,453,606.8,453z M606.8,453C606.8,453,606.8,453,606.8,453L606.8,453z M606.8,453
			C606.8,453,606.8,453,606.8,453C606.8,453,606.8,453,606.8,453z M606.8,453C606.8,453,606.8,453,606.8,453
			C606.8,453,606.8,453,606.8,453z M606.8,453C606.8,453,606.8,453,606.8,453C606.8,453,606.8,453,606.8,453z M606.8,453L606.8,453
			L606.8,453z M606.8,453C606.8,453,606.8,453,606.8,453S606.8,453,606.8,453z M606.8,453L606.8,453L606.8,453z M606.8,453
			C606.8,453,606.8,453,606.8,453C606.8,453,606.8,453,606.8,453z M606.8,453C606.8,453,606.8,453,606.8,453
			C606.8,453,606.8,453,606.8,453z M606.8,453L606.8,453L606.8,453z"/>
		<path class="st2" d="M690.8,468.8c0.5,0,1.1-0.2,1.5-0.5c1.1-0.8,1.4-2.5,0.6-3.6c-0.4-0.5-9.7-12.9-26.2-8.3
			c-1.4,0.4-2.2,1.8-1.8,3.2c0.4,1.4,1.8,2.2,3.2,1.8c13.1-3.6,20.6,6.3,20.6,6.4C689.2,468.4,690,468.8,690.8,468.8z"/>
		<path class="st2" d="M634.4,523.2c-1.4-0.2-2.3-1.5-2.1-2.9c0.2-1.4,1.4-2.4,2.8-2.2c0.2,0,4,0.3,7-5.7c2.5-5.1-3.3-14.4-5.5-17.8
			c-1.1-1.8-1.5-2.5-1.4-3.5c0.1-1.4,1.4-2.4,2.8-2.3c1.1,0.1,1.9,0.8,2.2,1.8c0.2,0.3,0.4,0.7,0.8,1.3c2.8,4.5,9.5,15.2,5.7,22.9
			c-3.9,7.8-9.5,8.6-11.5,8.6C634.8,523.2,634.5,523.2,634.4,523.2z M640.4,491.6C640.4,491.6,640.4,491.6,640.4,491.6
			C640.4,491.6,640.4,491.6,640.4,491.6z M640.4,491.5C640.4,491.5,640.4,491.5,640.4,491.5S640.4,491.5,640.4,491.5z"/>
		<path class="st2" d="M630.4,542.5c-5.7-0.1-13.4-2.7-17.9-14.1c-0.5-1.3,0.1-2.8,1.5-3.3c1.3-0.5,2.8,0.1,3.3,1.5
			c2.2,5.7,5.6,9.2,9.9,10.3c6.1,1.7,12.5-1.5,13.5-2.3c0.7-0.8,1.9-1,2.9-0.6c1.3,0.6,1.9,2.1,1.3,3.4c-0.9,2-7.8,5.1-14.1,5.1
			C630.7,542.5,630.6,542.5,630.4,542.5z M640.3,535.4C640.3,535.4,640.3,535.4,640.3,535.4C640.3,535.4,640.3,535.4,640.3,535.4z
			 M640.3,535.4C640.3,535.4,640.3,535.4,640.3,535.4C640.3,535.4,640.3,535.4,640.3,535.4z"/>
		
			<ellipse transform="matrix(0.103 -0.9947 0.9947 0.103 60.1498 1024.9021)" class="st2" cx="598.4" cy="479.1" rx="10.8" ry="9.3"/>
		<circle class="st3" cx="596.1" cy="476" r="4.3"/>
		
			<ellipse transform="matrix(0.103 -0.9947 0.9947 0.103 120.8701 1108.0826)" class="st2" cx="674.8" cy="487" rx="10.8" ry="9.3"/>
		<circle class="st3" cx="672.5" cy="483.9" r="4.3"/>
		<path class="st1" d="M742.1,781c-0.1,4.4-0.2,8.8-0.4,13.2c-1.7,60.4-4.3,114.6-4.3,114.6l-49.1,13.7l-76.2,21.1l-12.9-6.6
			l-71-36.6c0,0-7-48.7-13.2-105.2V795c-7.8-72.1-14.1-156.8-2.6-170.1c18.2-20.9,37.3-15.3,51.4-24.4c1.8-1.2,3.5-2.6,5.2-4.3
			c14.4-15.5,18.9-29.8,18.9-29.8c1.7,1,34.6,23.6,60.3,12.3c0,0-7.2,23.7,15.4,25.7c6.8,0.6,15.5,0.8,24.7,1.6
			c17.7,1.5,36.9,5.5,46.7,20c0.1,0.1,0.1,0.2,0.2,0.3c1.9,2.9,3.5,6.2,4.6,10.1C744.1,652.4,743.7,718.1,742.1,781z"/>
		<path class="st2" d="M656.5,1853.8c-2.5-7.8-1.5-23.9,0.6-40.4c29.6,11.3,99.3,25.8,112.4,15.9c6.6-5,9.4-10.9,10.5-16.3
			c28.7,14.4,61.8,33.4,64.5,47.1C849.2,1884.6,662.8,1873.6,656.5,1853.8z"/>
		<path class="st2" d="M643.7,1805.6c-0.1-0.3,0-0.5,0.1-0.8C643.8,1804.8,643.8,1805.1,643.7,1805.6z"/>
		<path class="st2" d="M528.2,900.4c0,0,143.9-15.7,209.2,8.4c0,0,24.3,36,30.9,111.4c13.4,153.2-13.7,268-14.3,265.2l-265.5,1.8
			c0,0-12.5-234.4,5.2-288.4C511.2,944.7,528.2,900.4,528.2,900.4z"/>
		<path class="st2" d="M618.5,621.9c-8.8,0-16.9-2.1-23.2-5.1c-4.9-2.3-10.3-6.1-10.7-9.8c-0.1-0.9,0.6-1.8,1.5-1.9
			c0.9-0.1,1.7,0.6,1.9,1.5c0.1,1.2,2.7,4.2,8.8,7.1c12.4,5.9,32,8,50.3-3.7c0.8-0.5,1.8-0.3,2.3,0.5c0.5,0.8,0.3,1.8-0.5,2.3
			C638.7,619.4,628.1,621.9,618.5,621.9z"/>
		<path class="st3" d="M674.8,923.1h-65.7c-0.9,0-1.7-0.7-1.7-1.7s0.7-1.7,1.7-1.7h65.7c0.9,0,1.7,0.7,1.7,1.7
			S675.8,923.1,674.8,923.1z"/>
		<path class="st0" d="M597.4,1287.8c-10.8,47.4-23.8,107.2-36.8,168.6c-13.4,13.5-27,27.3-40.7,41c-20.5,20.7-40.9,41.4-60.5,61.4
			c-81.1,82.5-148.5,151.8-148.5,151.8l-7.2,11.9c0,0,12,25.7,23.2,53.7c0,0,0,0,0,0c12.3,30.7,23.5,64.3,16.6,69.7
			c-13.2,10.3-142.9-97.7-139-119.7c2-11.6,16-25.8,29.8-37.8c4.1-3.6,8.2-6.9,12-10c1.2-1.7,2.7-2.8,2.7-2.8l233.3-259.6
			L597.4,1287.8z"/>
		<path class="st2" d="M343.5,1845.7c-13.2,10.3-142.9-97.7-139-119.7c2-11.5,16-25.8,29.8-37.8c11.1,19.2,44.9,74.8,68.6,86.2
			c11.6,5.6,19.1,4.7,23.9,1.6C339.2,1806.8,350.4,1840.3,343.5,1845.7z"/>
		<path class="st0" d="M615.2,789.4c0,0,4.5-44,15.3-52c10.8-8.1,45-24.3,45-24.3s10.2,2.3,4.9,10.9c0,0,8.9-3,11.2,5
			c2.2,8-2.5,8.4-2.5,8.4s13.5,6.8,0.6,17c0,0,9.4,3.8-2.5,14.4s-28,22.3-28,22.3s-0.9,22.2-10,28c-9.1,5.8-15.1,7.1-15.5,8.4
			c-0.4,1.3-50.6,80.2-90.6,75.5S489,807,489,807s67-18.9,67.3-17.8c0.4,1.2,7.3,44.3,7.3,44.3L615.2,789.4z"/>
		<path class="st2" d="M641.8,746c0.5,0.1,1,0.1,1.4-0.1c13.5-7.2,34-18,35.4-18.7c0.9-0.4,1.4-1.3,1.1-2.3c-0.3-1-1.3-1.5-2.3-1.2
			c-0.2,0.1-0.9,0.3-35.9,18.9c-0.9,0.5-1.3,1.6-0.8,2.5C640.9,745.5,641.3,745.8,641.8,746z"/>
		<path class="st2" d="M650.3,756.6c0.4,0.1,0.9,0.1,1.3-0.1c13.9-6.5,34.8-16.3,35.9-16.8c0.9-0.3,1.4-1.3,1.1-2.3
			c-0.3-1-1.3-1.5-2.3-1.2c-0.2,0.1-0.6,0.2-36.3,16.9c-0.9,0.4-1.3,1.5-0.9,2.5C649.4,756.1,649.8,756.5,650.3,756.6z"/>
		<path class="st2" d="M661.1,767.7c0.4,0.1,0.8,0.1,1.2-0.1c9.4-3.8,23.5-9.6,24.3-9.9c0.9-0.3,1.5-1.4,1.1-2.3
			c-0.3-1-1.3-1.5-2.3-1.2c-0.5,0.1-15.6,6.3-24.5,9.9c-1,0.4-1.4,1.5-1,2.4C660.1,767.2,660.6,767.6,661.1,767.7z"/>
		<path class="st1" d="M526.2,613.5c0,0-71.7,44.8-66.9,102.3c4.8,56.4,15.6,95,18.1,96.2c2.5,1.2,107.7-23.6,108.9-25.4
			c1.2-1.9,1.2-73.1-11.1-100.8C564.7,662.1,526.2,613.5,526.2,613.5z"/>
		<path class="st2" d="M552.9,459c0,0,91.1-18.9,105.3-51c0,0,27.8,66.2,62,71.1c0,0,5.6-97.3-63.9-108S557,398.2,552.9,459z"/>
		<polygon class="st1" points="688.2,606 822,597.4 831.4,708.8 730.6,739.8 		"/>
		<rect x="854.3" y="1376.5" class="st1" width="337.5" height="13.1"/>
		<rect x="854.3" y="1438.8" class="st1" width="337.5" height="13.1"/>
		<rect x="854.3" y="1501.1" class="st1" width="337.5" height="13.1"/>
	</g>
</g>
<g id="Layer_4">
</g>
<g id="Layer_5">
</g>
<g id="Layer_6">
</g>
<g id="Layer_7">
</g>
<g id="Layer_8">
</g>
<g id="Layer_9">
</g>
<g id="Layer_10">
</g>
</svg>
