<?xml version="1.0" encoding="utf-8"?>
<!-- Generator: Adobe Illustrator 23.0.5, SVG Export Plug-In . SVG Version: 6.00 Build 0)  -->
<svg version="1.1" xmlns="http://www.w3.org/2000/svg" xmlns:xlink="http://www.w3.org/1999/xlink" x="0px" y="0px"
	 viewBox="0 0 2000 2000" style="enable-background:new 0 0 2000 2000;" xml:space="preserve">
<style type="text/css">
	.st0{fill:#F1BAA4;}
	.st1{fill:#C35656;}
	.st2{fill:#362E38;}
	.st3{fill:#EFE5DC;}
</style>
<g id="Layer_1">
</g>
<g id="Layer_2">
</g>
<g id="Layer_3">
</g>
<g id="Layer_4">
</g>
<g id="Layer_5">
</g>
<g id="Layer_6">
</g>
<g id="Layer_7">
	<g>
		<rect x="170.3" y="159.8" class="st3" width="1273.2" height="802.2"/>
		<path class="st2" d="M160.3,149.8V972h1293.2V149.8H160.3z M1443.5,962H170.3V159.8h1273.2V962z"/>
		<rect x="165.4" y="243.4" class="st2" width="1283.2" height="6.8"/>
		<circle class="st2" cx="232.5" cy="200.4" r="21.8"/>
		<circle class="st2" cx="291.4" cy="200.4" r="21.8"/>
		<circle class="st2" cx="350.3" cy="200.4" r="21.8"/>
		<g>
			<path class="st2" d="M432.7,425l-7.8-14.9l69.1-36.4l-69.1-36.4l7.8-14.9l83.2,43.8c2.8,1.5,4.5,4.3,4.5,7.4c0,3.1-1.7,6-4.5,7.4
				L432.7,425z"/>
			<path class="st2" d="M304.9,425l7.8-14.9l-69.1-36.4l69.1-36.4l-7.8-14.9l-83.2,43.8c-2.8,1.5-4.5,4.3-4.5,7.4
				c0,3.1,1.7,6,4.5,7.4L304.9,425z"/>
			<polygon class="st2" points="355.6,434.3 330,434.3 401.7,310 427.3,310 			"/>
		</g>
		<circle class="st2" cx="570.5" cy="420.1" r="14.2"/>
		<circle class="st2" cx="608.9" cy="420.1" r="14.2"/>
		<circle class="st2" cx="647.3" cy="420.1" r="14.2"/>
		<rect x="1496.7" y="835.4" class="st2" width="100.6" height="13.9"/>
		<polygon class="st2" points="1799.9,1852.6 1757.4,1852.6 1645,1543.8 1687.5,1543.8 		"/>
		<polygon class="st2" points="1429.7,1852.6 1472.2,1852.6 1584.6,1543.8 1542.1,1543.8 		"/>
		<path class="st2" d="M1662.7,1061.9c8.2-3.7,117.6-17.8,161,135.7s-9,313-65.6,340.8s-305.2,31-323.4,0
			c-18.1-31,85.9-340.8,85.9-340.8L1662.7,1061.9z"/>
		<path class="st2" d="M1651.9,855.8C1651.9,855.8,1651.9,855.8,1651.9,855.8c-0.6,4.2-1.3,8.3-2.2,12.4c-0.6,3.2-1.3,6.3-2.1,9.3
			c-8.4,33.3-24.7,57.5-55.3,51.5h0c-35.9-7-101.9-79.9-105.7-84.2c-0.1-0.1-0.2-0.2-0.2-0.2c-24.5,9.4-28.2-106.9,67.6-110
			C1647.7,731.7,1658.4,812.2,1651.9,855.8z"/>
		<rect x="1545.1" y="916.1" class="st0" width="47.2" height="89.7"/>
		<path class="st0" d="M1651.9,855.8C1651.9,855.8,1651.9,855.8,1651.9,855.8c0,2.6-0.3,5.4-1,8.4c-0.3,1.4-0.7,2.7-1.2,4
			c-0.2,0.7-0.5,1.3-0.8,1.9c-0.7,1.6-1.4,3-2.3,4.2c-2.1,3.3-4.7,5.6-7.3,7.4c-7.3,4.8-15,4.7-15,4.7c-2.8,7.9-6.1,14.6-9.8,20.3
			c-6.7,10.3-14.4,17.4-22.2,22.3c0,0,0,0,0,0s0,0,0,0c-19.9,12.4-39.5,10.3-39.5,10.3c-3.5,0.4-6.9,0.5-10,0.4
			c-6.1-0.2-11.5-1.4-16.3-3.3c-14.4-5.6-23.7-17.7-29.5-31.8c-8.7-20.7-10.1-45.5-10.3-59.8c0-0.1,0-0.2,0-0.3c0-1.9,0-3.7,0-5.2
			c0-3.6,0-5.9-0.1-6.3c0,0,10.4-55.4,72-56.6c61.6-1.2,69.4,67.5,69.4,67.5C1638.3,834.1,1651.8,839.6,1651.9,855.8z"/>
		<path class="st2" d="M1597.9,844.6c-0.6,0-1.1-0.2-1.6-0.6c-7.8-6.7-14.8-3.4-17.8-2c-1.3,0.6-2.7,1.2-4,0.1
			c-1-0.9-1.1-2.4-0.3-3.4c0.4-0.5,1-0.8,1.6-0.8c0.2-0.1,0.3-0.2,0.6-0.3c3.2-1.5,12.8-6,22.9,2.7c1,0.9,1.1,2.4,0.2,3.4
			C1599.2,844.3,1598.5,844.6,1597.9,844.6z M1577.7,838.5L1577.7,838.5L1577.7,838.5z M1577.7,838.5L1577.7,838.5L1577.7,838.5z
			 M1577.7,838.5C1577.7,838.5,1577.7,838.5,1577.7,838.5S1577.7,838.5,1577.7,838.5z M1577.7,838.5
			C1577.7,838.5,1577.7,838.5,1577.7,838.5L1577.7,838.5z M1577.7,838.5C1577.7,838.5,1577.7,838.5,1577.7,838.5
			C1577.7,838.5,1577.7,838.5,1577.7,838.5z M1577.6,838.5C1577.7,838.5,1577.7,838.5,1577.6,838.5
			C1577.7,838.5,1577.7,838.5,1577.6,838.5z M1577.6,838.5C1577.6,838.5,1577.6,838.5,1577.6,838.5
			C1577.6,838.5,1577.6,838.5,1577.6,838.5z M1577.6,838.5L1577.6,838.5L1577.6,838.5z M1577.6,838.5
			C1577.6,838.5,1577.6,838.5,1577.6,838.5C1577.6,838.5,1577.6,838.5,1577.6,838.5z M1577.6,838.5L1577.6,838.5L1577.6,838.5z
			 M1577.6,838.5C1577.6,838.5,1577.6,838.5,1577.6,838.5S1577.6,838.5,1577.6,838.5z M1577.6,838.5
			C1577.6,838.5,1577.6,838.5,1577.6,838.5C1577.6,838.5,1577.6,838.5,1577.6,838.5z M1577.6,838.5L1577.6,838.5L1577.6,838.5z"/>
		<path class="st2" d="M1499.6,853.2c-0.5,0-1-0.1-1.4-0.5c-1.1-0.8-1.3-2.3-0.5-3.3c0.4-0.5,9-12,24.3-7.8c1.3,0.4,2,1.7,1.7,2.9
			c-0.4,1.3-1.7,2-2.9,1.7c-12.2-3.4-19.1,5.9-19.2,6C1501,852.8,1500.3,853.2,1499.6,853.2z"/>
		<path class="st2" d="M1551.2,903.8c-1.9,0-7.1-0.7-10.7-8c-3.6-7.1,2.6-17,5.3-21.3c0.3-0.5,0.6-0.9,0.7-1.2
			c0.3-0.9,1.1-1.6,2-1.7c1.3-0.1,2.5,0.8,2.6,2.1c0.1,1-0.3,1.5-1.3,3.2c-2,3.2-7.4,11.9-5.1,16.6c2.8,5.6,6.4,5.3,6.5,5.3
			c1.3-0.1,2.5,0.8,2.6,2.1c0.2,1.3-0.7,2.5-2,2.7C1551.9,903.8,1551.6,903.8,1551.2,903.8z M1546.4,874.3
			C1546.4,874.3,1546.4,874.3,1546.4,874.3C1546.4,874.3,1546.4,874.3,1546.4,874.3z M1546.4,874.3
			C1546.4,874.3,1546.4,874.3,1546.4,874.3C1546.4,874.3,1546.4,874.3,1546.4,874.3z"/>
		<path class="st2" d="M1555.3,921.7c-5.9,0-12.3-2.9-13.1-4.7c-0.5-1.2,0-2.6,1.2-3.2c0.9-0.4,2-0.2,2.7,0.5
			c1,0.7,6.9,3.7,12.6,2.1c4-1.1,7.1-4.3,9.2-9.6c0.5-1.2,1.9-1.8,3.1-1.3c1.2,0.5,1.8,1.9,1.3,3.1c-4.2,10.6-11.4,13-16.6,13.1
			C1555.6,921.7,1555.4,921.7,1555.3,921.7z M1546.5,915.1C1546.5,915.1,1546.5,915.1,1546.5,915.1
			C1546.5,915.1,1546.5,915.1,1546.5,915.1z M1546.5,915.1C1546.5,915.1,1546.5,915.1,1546.5,915.1
			C1546.5,915.1,1546.5,915.1,1546.5,915.1z"/>
		<ellipse transform="matrix(0.9947 -0.103 0.103 0.9947 -80.457 167.9578)" class="st2" cx="1585.5" cy="862.7" rx="8.7" ry="10"/>
		<circle class="st3" cx="1587.6" cy="859.8" r="4"/>
		
			<ellipse transform="matrix(0.9947 -0.103 0.103 0.9947 -81.5945 160.6696)" class="st2" cx="1514.4" cy="870.1" rx="8.7" ry="10"/>
		<circle class="st3" cx="1516.5" cy="867.2" r="4"/>
		<path class="st3" d="M1450.8,1077.6c0,4.2,0,8.5,0.1,12.8c0.1,6.9,0.2,14.1,0.3,21.3c0.1,4.3,0.2,8.6,0.2,13
			c0.1,5.6,0.3,11.2,0.4,16.8c0,0.7,0,1.3,0.1,2c0.1,2.9,0.1,5.8,0.2,8.7c0,1.2,0.1,2.4,0.1,3.5c0.1,3.2,0.2,6.3,0.3,9.5
			c0.2,7.3,0.5,14.5,0.7,21.4c0.2,4.5,0.3,8.9,0.5,13.1c1.3,36,2.6,62.6,2.6,62.6l31.9,8.9c54.4,15.1,115.6,53.8,165.8,28
			c0,0-1.3-58,1.4-78.6c0.5-3.9,1-8.1,1.6-12.5c1-8.1,2.1-16.8,3.2-26.1c0.5-4.1,1-8.3,1.4-12.6c0.5-4.2,0.9-8.4,1.4-12.7v-0.1
			c0.2-1.5,0.3-3.1,0.5-4.6h0c0.4-3.8,0.8-7.6,1.2-11.5c0.4-4.2,0.8-8.4,1.2-12.6c0.8-8.7,1.6-17.4,2.3-26c0.3-4.3,0.7-8.5,1-12.7
			c0.8-10.8,1.4-21.2,1.7-31c0.2-4.4,0.3-8.6,0.3-12.7c0.1-9.1,0-17.3-0.5-24.3c-0.3-4.5-0.8-8.6-1.4-12c-0.9-5.2-2.2-8.9-4-10.9
			c-6.7-7.7-13.6-11.6-20.2-13.9h0c-10.1-3.6-19.7-3.7-27.6-8.8c-1.7-1.1-3.3-2.4-4.8-4c-13.4-14.4-17.5-27.7-17.5-27.7
			c-1.6,1-32.2,22-56,11.5c0,0,6.7,22-14.3,23.9c-6.3,0.6-14.4,0.7-23,1.5c-16.5,1.4-34.3,5.1-43.4,18.6c-0.1,0.1-0.1,0.2-0.2,0.2
			c-1.1,1.6-2,3.4-2.9,5.3c-0.1,0.2-0.2,0.4-0.2,0.6c0,0,0,0,0,0c0,0,0,0,0,0c-0.4,1.1-0.8,2.2-1.2,3.4c-0.5,1.8-1,4.3-1.3,7.4
			c-0.7,5.4-1.1,12.5-1.5,20.9c-0.1,4-0.3,8.3-0.4,12.8C1450.8,1058.5,1450.8,1067.8,1450.8,1077.6z"/>
		<path class="st2" d="M1566.8,995.5c8.2,0,15.7-1.9,21.5-4.7c4.6-2.2,9.6-5.7,10-9.1c0.1-0.9-0.5-1.6-1.4-1.7
			c-0.9-0.1-1.6,0.5-1.7,1.4c-0.1,1.1-2.5,3.9-8.2,6.6c-11.5,5.5-29.8,7.4-46.7-3.5c-0.7-0.5-1.7-0.3-2.2,0.5
			c-0.5,0.7-0.3,1.7,0.5,2.2C1548,993.2,1557.8,995.5,1566.8,995.5z"/>
		<path class="st2" d="M1627.8,844l-2.6,27.7c0,0-29.6-73.5-31.1-72.4c-1.4,1-89.2,37.6-105.3,44.2c-1.2,0.5-2,0.8-2.3,1
			c-0.1,0-0.2,0.1-0.2,0.1s-0.5-2.6-0.8-7c-1.4-19.5,1.5-73.1,75.5-70.9C1651.4,769.4,1627.8,844,1627.8,844z"/>
		<path class="st3" d="M1499,981c0,0-65.9,6.8-80.4,58.1c-17.2,60.8-21,93.5-21,93.5l66.4,10.3L1499,981z"/>
		<path class="st2" d="M1466.7,997.2c-0.4,0-1.5-0.1-4.1,2.3c-3,2.7-12.6,13.4-13.1,37.8c-0.5,28.3,0.3,94.1,0.4,94.8
			c0,1,0.8,1.8,1.8,1.8c0,0,0,0,0,0c1,0,1.8-0.8,1.8-1.8c0-0.7-0.8-66.4-0.4-94.7c0.4-25.4,11.4-35.5,13.7-36.5
			c0.8-0.1,1.5-0.8,1.5-1.7C1468.4,998.1,1467.6,997.3,1466.7,997.2z"/>
		<path class="st0" d="M1218.3,1604.5l-48.1,66.3c0,0-158.6,22.8-168.5,21.6s-10.7,27.9,27.2,37.8c29.1,7.6,107.7,8.1,146.1,32
			c38.4,23.9,61.6-22.8,53.9-58.3l36-65.6L1218.3,1604.5z"/>
		<path class="st0" d="M1391,1713.2v81.9c0,0-115,111.5-123.8,116.4c-8.8,4.8,7.7,28.8,44.2,14.6c28-10.9,91.9-56.7,137.1-59.9
			c45.1-3.2,36.5-54.6,9.4-78.9l-9.4-74.2H1391z"/>
		<path class="st1" d="M1655.8,1293c3.3-4.9,43.9,61.8,40.7,135c-3.3,73.2-20.2,78.1-20.2,78.1l-186.4-8.1v235.9l-123.6-8.1v-201.7
			l-84.6,144.8l-109-52.1l162.7-317.3c0,0,26-47.2,81.3-27.7c55.3,19.5,99.2,11.4,99.2,11.4L1655.8,1293z"/>
		<path class="st2" d="M1366.2,1525.7c-0.9,0-1.6-0.7-1.7-1.6c0-0.6-3.2-55.8-1.6-94.5c0.8-18.5,14.5-36,35.9-45.5
			c18.6-8.3,46.2-10.9,67.7,6.9c37.2,30.7,66.7,74.8,67,75.2c0.5,0.8,0.3,1.8-0.5,2.3c-0.8,0.5-1.8,0.3-2.3-0.5
			c-0.3-0.4-29.6-44.1-66.4-74.5c-20.3-16.8-46.5-14.3-64.2-6.4c-19.9,8.9-33.3,25.6-34,42.6c-1.6,38.5,1.6,93.6,1.6,94.2
			C1367.9,1524.9,1367.2,1525.7,1366.2,1525.7C1366.3,1525.7,1366.3,1525.7,1366.2,1525.7z"/>
		<path class="st2" d="M1489.9,1499.7c-0.8,0-1.6-0.6-1.7-1.5l-4.9-46.3c-0.1-0.9,0.6-1.7,1.5-1.8c0.9-0.1,1.7,0.6,1.8,1.5l4.9,46.3
			c0.1,0.9-0.6,1.7-1.5,1.8C1490,1499.7,1489.9,1499.7,1489.9,1499.7z"/>
		<path class="st2" d="M1284.9,1621.7c-0.3,0-0.6-0.1-0.9-0.3c-29.8-20.1-63.1-40.6-68.1-40.6c0,0-0.1,0-0.1,0
			c-0.7,0.4-1.7,0.1-2.1-0.6c-0.5-0.8-0.3-1.8,0.5-2.3c1.5-1,3.9-2.6,38.6,19.1c16.7,10.5,33,21.5,33.2,21.6c0.8,0.5,1,1.5,0.4,2.3
			C1285.9,1621.5,1285.4,1621.7,1284.9,1621.7z M1215.8,1580.8C1215.8,1580.8,1215.8,1580.8,1215.8,1580.8
			C1215.8,1580.8,1215.8,1580.8,1215.8,1580.8z"/>
		<path class="st2" d="M1468.7,1698.2c-0.1,0-0.2,0-0.3,0l-78.1-13c-0.9-0.2-1.5-1-1.4-1.9c0.2-0.9,1-1.5,1.9-1.4l78.1,13
			c0.9,0.2,1.5,1,1.4,1.9C1470.2,1697.6,1469.5,1698.2,1468.7,1698.2z"/>
		<path class="st2" d="M1633,1346.8c-0.2,0-0.3,0-0.5-0.1l-198.4-61.8c-0.9-0.3-1.4-1.2-1.1-2.1c0.3-0.9,1.2-1.4,2.1-1.1l198.4,61.8
			c0.9,0.3,1.4,1.2,1.1,2.1C1634.4,1346.3,1633.8,1346.8,1633,1346.8z"/>
		<path class="st2" d="M1472.4,1068.1l-241.5,17.2c0,0,36.6,189.2,39.2,189.2s230.8,10.2,231,10.2c0.1,0,62-34.6,62-34.6l-11.3-18.3
			l-61.9,23.5L1472.4,1068.1z"/>
		<path class="st0" d="M1732.1,1104.8c-1.3-2.7-74,0-74,0l30,84.5l-102.6,30.8l-32.7-3.9c0,0-59.5,19.6-56.6,25.4c2.9,5.8,36,0,36,0
			v25.5c0,0-32.5,12.2-24.4,17.6c8.1,5.4,28.2,4.8,30.5,5.4c2.4,0.6,11.7,2.6,22.7,0.9c0,0,5.9,1.6,20.3-3.1c14.4-4.8,8,0.6,7.9,0.5
			c-0.1,0,0-26.6,0-26.6s123.9-19.9,157.3-35.2C1779.9,1211.3,1733.4,1107.5,1732.1,1104.8z"/>
		<path class="st3" d="M1758,1121.4c0-3.7-96.7,20.2-96.7,20.2s-108.1-130.9-21.3-150.5S1758,1124.5,1758,1121.4z"/>
		<path class="st2" d="M1653.9,1144.7c-0.5,0-0.9-0.2-1.3-0.5c-0.4-0.4-38.7-38.6-47.2-93.7c-3.2-20.7,0.9-36,12.1-45.6
			c9.1-7.7,20.5-9.5,26-10.4c1-0.2,2.2-0.3,2.6-0.5c0.7-0.5,1.6-0.4,2.2,0.2c0.7,0.7,0.8,1.8,0.1,2.5c-0.7,0.7-1.7,0.9-4.4,1.3
			c-5.2,0.8-15.9,2.5-24.2,9.6c-10.2,8.7-13.8,22.9-10.9,42.3c8.3,53.9,45.7,91.3,46.1,91.7c0.7,0.7,0.7,1.8,0,2.5
			C1654.8,1144.5,1654.4,1144.7,1653.9,1144.7z M1645.9,994.3C1645.9,994.3,1645.9,994.3,1645.9,994.3
			C1645.9,994.3,1645.9,994.3,1645.9,994.3z"/>
		<path class="st3" d="M1388,1190c-3,10.1-12.3,17.4-23.4,17.4c-13.5,0-24.4-10.9-24.4-24.4c0-12,8.7-21.9,20-24
			c-0.7,2.2-1,4.5-1,6.9c0,13.5,10.9,24.4,24.4,24.4C1385.1,1190.3,1386.6,1190.2,1388,1190z"/>
		<path class="st2" d="M1634.7,987.8c-37.4,31.3-53,114.6-19.2,155.1c0,0-49.1,35.9-68.8-26.1c-19.7-62,46.8-112.5,51.6-135
			c4.8-22.5-6-52.7-6-52.7s0,0,0,0c30.7,6,46.9-18.2,55.3-51.5C1651.8,892.9,1667.8,960.1,1634.7,987.8z"/>
		<path class="st2" d="M1592.3,929L1592.3,929C1592.3,929,1592.3,929,1592.3,929L1592.3,929z"/>
		<path class="st2" d="M1530.9,1141.6c0,0-56.2,30.2-72.1-32.2c-15.9-62.4,20.1-103.3,24.5-148.4c4.4-45.1-5.4-136.9-5.4-136.9
			l7.6,13.6c0.3,4.3,0.8,7,0.8,7s0.1,0,0.2-0.1c0.2,14.3,1.6,39.3,10.3,60.1c5.9,14,15.1,26.2,29.5,31.8c4.8,1.9,10.2,3,16.3,3.3
			l2.4,4.2c0,0-67.6,120.3-46.1,159.7C1520.5,1143.1,1530.9,1141.6,1530.9,1141.6z"/>
		<path class="st2" d="M1454.5,315.2c0-13-2-25.6-5.7-37.4l26.7-8.4c-7.4-23.6-20.6-45.3-38.2-62.8l-19.8,19.8
			c-8.9-8.9-19.2-16.5-30.5-22.4l13-24.8c-21.9-11.5-46.5-17.6-71.3-17.6h-0.1v28c-13,0-25.6,2-37.4,5.7l-8.4-26.7
			c-23.6,7.4-45.3,20.6-62.8,38.1l19.8,19.8c-8.9,8.9-16.5,19.2-22.4,30.4l-24.8-13c-11.5,21.9-17.6,46.6-17.6,71.4v0.1l28,0
			c0,13,2,25.6,5.7,37.4l-26.7,8.3c7.4,23.6,20.5,45.3,38.1,62.9l19.8-19.8c8.9,8.9,19.2,16.5,30.4,22.4l-13,24.8
			c21.9,11.5,46.6,17.6,71.4,17.6h0.4l-0.1-28c13,0,25.5-2,37.3-5.7l8.4,26.7c23.6-7.4,45.3-20.6,62.8-38.2l-19.8-19.7
			c8.9-8.9,16.5-19.2,22.4-30.5l24.8,13c11.5-21.8,17.5-46.5,17.5-71.2v-0.2H1454.5z M1328.8,385.1c-38.5,0-69.8-31.3-69.8-69.8
			s31.3-69.8,69.8-69.8s69.8,31.3,69.8,69.8S1367.3,385.1,1328.8,385.1z"/>
		<path class="st2" d="M1667.6,309.2c0-7.9-1.2-15.5-3.5-22.7l16.2-5.1c-4.5-14.3-12.5-27.5-23.2-38.1l-12,12
			c-5.4-5.4-11.7-10-18.5-13.6l7.9-15c-13.3-7-28.2-10.7-43.3-10.7h-0.1v17c-7.9,0-15.5,1.2-22.7,3.5l-5.1-16.2
			c-14.3,4.5-27.5,12.5-38.2,23.2l12,12c-5.4,5.4-10,11.6-13.6,18.5l-15-7.9c-7,13.3-10.7,28.3-10.7,43.3v0l17,0
			c0,7.9,1.2,15.5,3.5,22.7l-16.2,5.1c4.5,14.3,12.5,27.5,23.1,38.2l12-12c5.4,5.4,11.6,10,18.5,13.6l-7.9,15
			c13.3,7,28.3,10.7,43.4,10.7h0.2l-0.1-17c7.9,0,15.5-1.2,22.7-3.5l5.1,16.2c14.3-4.5,27.5-12.5,38.1-23.2l-12-12
			c5.4-5.4,10-11.7,13.6-18.5l15,7.9c7-13.3,10.6-28.2,10.6-43.2v-0.1H1667.6z M1591.3,351.7c-23.4,0-42.4-19-42.4-42.4
			s19-42.4,42.4-42.4s42.4,19,42.4,42.4S1614.7,351.7,1591.3,351.7z"/>
		<path class="st2" d="M1557.3,144.7c0-6.4-1-12.5-2.8-18.3l13.1-4.1c-3.6-11.6-10.1-22.2-18.7-30.8l-9.7,9.7
			c-4.4-4.4-9.4-8.1-14.9-11l6.4-12.2c-10.7-5.6-22.8-8.6-35-8.6h-0.1v13.7c-6.4,0-12.5,1-18.3,2.8l-4.1-13.1
			c-11.6,3.6-22.2,10.1-30.8,18.7l9.7,9.7c-4.4,4.4-8.1,9.4-11,14.9l-12.1-6.4c-5.6,10.7-8.6,22.8-8.6,35v0l13.7,0
			c0,6.4,1,12.6,2.8,18.4l-13.1,4.1c3.6,11.6,10.1,22.2,18.7,30.8l9.7-9.7c4.4,4.4,9.4,8.1,14.9,11l-6.4,12.1
			c10.7,5.7,22.9,8.6,35,8.6h0.2l0-13.7c6.4,0,12.5-1,18.3-2.8l4.1,13.1c11.6-3.6,22.2-10.1,30.8-18.7l-9.7-9.7
			c4.4-4.4,8.1-9.4,11-15l12.2,6.4c5.6-10.7,8.6-22.8,8.6-34.9v-0.1H1557.3z M1495.6,179c-18.9,0-34.2-15.4-34.2-34.2
			s15.4-34.2,34.2-34.2s34.2,15.4,34.2,34.2S1514.4,179,1495.6,179z"/>
		<path class="st2" d="M890.5,746.5H723.4V586.6c0-46.1,37.5-83.5,83.5-83.5c46.1,0,83.5,37.5,83.5,83.5V746.5z M753.3,716.6h107.2
			V586.6c0-29.6-24.1-53.6-53.6-53.6c-29.6,0-53.6,24.1-53.6,53.6V716.6z"/>
		<path class="st1" d="M917.3,850H696.5c-6.3,0-11.4-5.1-11.4-11.4V690.3c0-6.3,5.1-11.4,11.4-11.4h220.8c6.3,0,11.4,5.1,11.4,11.4
			v148.3C928.7,844.9,923.6,850,917.3,850z"/>
		<path class="st2" d="M832.9,767.7c0-14.3-11.6-26-26-26c-14.3,0-26,11.6-26,26c0,10.6,6.4,19.8,15.6,23.8v38.2h20.8v-38.2
			C826.5,787.5,832.9,778.3,832.9,767.7z"/>
		<rect x="966.2" y="645.4" class="st2" width="430.5" height="26.3"/>
		<rect x="966.2" y="568" class="st2" width="430.5" height="26.3"/>
		<rect x="966.2" y="722.8" class="st2" width="430.5" height="26.3"/>
		<rect x="966.2" y="800.2" class="st2" width="430.5" height="26.3"/>
		<rect x="212.1" y="647.4" class="st2" width="430.5" height="26.3"/>
		<rect x="212.1" y="570" class="st2" width="430.5" height="26.3"/>
		<rect x="212.1" y="724.8" class="st2" width="430.5" height="26.3"/>
		<rect x="212.1" y="802.2" class="st2" width="430.5" height="26.3"/>
	</g>
</g>
<g id="Layer_8">
</g>
<g id="Layer_9">
</g>
<g id="Layer_10">
</g>
</svg>
