<?xml version="1.0" encoding="utf-8"?>
<!-- Generator: Adobe Illustrator 23.0.5, SVG Export Plug-In . SVG Version: 6.00 Build 0)  -->
<svg version="1.1" xmlns="http://www.w3.org/2000/svg" xmlns:xlink="http://www.w3.org/1999/xlink" x="0px" y="0px"
	 viewBox="0 0 2000 2000" style="enable-background:new 0 0 2000 2000;" xml:space="preserve">
<style type="text/css">
	.st0{fill:#F1BAA4;}
	.st1{fill:#C35656;}
	.st2{fill:#362E38;}
	.st3{fill:#EFE5DC;}
</style>
<g id="Layer_1">
	<g>
		<path class="st0" d="M1097.9,1332.4c0,13.8,44.3,227.9,44.3,227.9l-182.2-6l-9.8-185.2L1097.9,1332.4z"/>
		<path class="st1" d="M1142.3,1372.4c0,0-82.9,23.2-130.6,37.3c-1.2,20.9-2.6,41.2-4.2,60.4c0,0.5-0.1,1-0.1,1.4
			c-1.1,14.2-2.4,27.7-3.6,40.5c-6.2,61.9-14,105.2-22,109c-29.9,14.2-414.8,37.7-472.9,0c-4.5-2.9-8.2-5.3-11.3-7.5
			c-6.8-4.7-10.7-8-12.7-11.6c-4.2-7.5-0.4-16.4,2.8-40.8l0.1-0.4c1.3-10.1,2.5-22.9,2.9-39.4c0.1-2.1,0.1-4.3,0.1-6.5
			c0-1.6,0-3.2,0.1-4.9c0.1-8.7-0.1-18.4-0.5-29.1c-0.6-15.8-1.9-33.9-3.9-54.6c-1.6-0.3-3.1-0.7-4.7-1
			c-43.4-9.3-97.2-22.9-115-30.2c-3.5-1.5-5.6-2.7-5.9-3.6c-0.1-0.4-0.3-0.8-0.4-1.2c-2.6-8.3-2.8-22.8-1.4-41.3
			c1.4-18.6,4.6-41.2,8.7-65.7c2.2-12.7,4.6-26,7.3-39.5c4.1-21,8.8-42.6,13.5-63.6c3-13.4,6.1-26.5,9.2-39.1
			c4.2-17.3,8.4-33.5,12.3-47.9c4.1-15.3,8-28.5,11.2-38.7c4.3-13.5,7.5-21.8,9.1-22.7c11.2-6.6,28.5-12.3,48.1-16.8
			c22-5.2,47-9.2,69.6-11.9c19.6-2.3,37.5-3.7,50.3-4.2c3.2-0.1,150.7-4.6,266.5,0.4c28,1.2,54.2,3,76,5.6
			c29.1,3.3,50.4,8,58.2,14.4c0.1,0.1,0.4,0.4,0.7,0.8c1.5,1.5,2.8,3.8,4.1,6.8c3.2,5.8,7.8,14.6,13.4,25.7
			c5.3,10.5,11.4,23,18.1,37c7.2,15.1,15.1,32,23.2,49.8c5.5,12,11,24.5,16.6,37.1c8.4,19.3,16.8,39,24.6,58.4
			c5.1,12.7,10,25.3,14.6,37.4c7.6,20.3,14.1,39.5,19,56.5c4.4,15.2,7.4,28.6,8.7,39.4C1142,1369.7,1142.2,1371.1,1142.3,1372.4z"/>
		<path class="st2" d="M511,748.7c2.7-3.9-1.1-189.5,72.8-210.6c73.9-21.2,192.1,1.1,192.1,1.1s-222.8,236-226.6,243.8
			S511,748.7,511,748.7z"/>
		<path class="st0" d="M697.1,1065.6L697.1,1065.6c28.5,0,51.6-23.1,51.6-51.6V869.3H645.5V1014
			C645.5,1042.5,668.6,1065.6,697.1,1065.6z"/>
		<path class="st0" d="M867.4,721.9c-2.5,6.3,17.7,250.1-145.2,232.4c0,0-111.1,12.3-156.6-115.7c0,0-46.7,0.8-58.1-48.4
			c-11.4-49.3,24-69.5,50.5-44.2c0,0,17-150.3,151.8-147.8C844.7,600.7,867.4,721.9,867.4,721.9z"/>
		<path class="st2" d="M622.8,757c0.8,0,1.6-0.3,2.2-0.8c17.5-15.1,33.3-7.7,40-4.6c2.6,1.2,4.7,2.2,6.6,0.5
			c1.4-1.2,1.6-3.3,0.4-4.7c-0.7-0.8-1.6-1.2-2.5-1.2c0,0,0,0,0,0c-0.4-0.2-0.9-0.4-1.6-0.7c-7.2-3.4-26.4-12.4-47.2,5.5
			c-1.4,1.2-1.6,3.3-0.4,4.7C620.9,756.6,621.8,757,622.8,757z"/>
		<path class="st2" d="M833.2,775.3c0.7,0,1.4-0.2,2-0.6c1.5-1.1,1.8-3.2,0.7-4.7c-0.2-0.2-18.5-24.7-50.2-15.9
			c-1.8,0.5-2.8,2.3-2.3,4.1c0.5,1.8,2.3,2.8,4.1,2.3c27.3-7.5,42.8,13.2,43,13.4C831.2,774.9,832.2,775.3,833.2,775.3z"/>
		<path class="st2" d="M721.3,883.7c-1.8-0.3-3-1.9-2.8-3.8c0.2-1.8,2-3.1,3.7-2.9c0.4,0,9.2,0.9,15.8-12.4
			c5.5-11-6.4-30.1-10.9-37.3c-2.2-3.5-2.7-4.4-2.6-5.8c0.2-1.8,1.8-3.2,3.7-3c1.4,0.2,2.6,1.2,2.9,2.5c0.3,0.6,0.9,1.5,1.7,2.8
			c5.5,8.8,18.4,29.4,11.3,43.8c-7.3,14.7-17.5,16.1-21.3,16.1C721.9,883.8,721.4,883.7,721.3,883.7z M727.9,822.3L727.9,822.3
			L727.9,822.3z"/>
		<path class="st2" d="M714,922.2c12.7,0,25.2-6.3,26.4-9c0.8-1.7,0-3.7-1.7-4.4c-1.4-0.6-2.9-0.2-3.9,0.8c-1.9,1.4-15.1,8.4-28.1,5
			c-9.4-2.4-16.6-9.7-21.4-21.8c-0.7-1.7-2.6-2.6-4.3-1.9c-1.7,0.7-2.6,2.6-1.9,4.3c8.6,21.8,23.2,26.6,34,26.9
			C713.4,922.2,713.7,922.2,714,922.2z"/>
		
			<ellipse transform="matrix(0.103 -0.9947 0.9947 0.103 -211.0984 1361.2897)" class="st2" cx="649.2" cy="797.7" rx="21.5" ry="18.6"/>
		<circle class="st3" cx="644.7" cy="791.4" r="8.5"/>
		
			<ellipse transform="matrix(0.103 -0.9947 0.9947 0.103 -90.1838 1526.9299)" class="st2" cx="801.5" cy="813.5" rx="21.5" ry="18.6"/>
		<circle class="st3" cx="797" cy="807.2" r="8.5"/>
		<path class="st2" d="M558,745.9l56.1-100.9c0,0,136.9,52.3,209.1,22.4l39.5,139.7c0,0,110.4-256.7-122-272.9
			C508.3,518.1,558,745.9,558,745.9z"/>
		<rect x="127.9" y="1568.5" class="st3" width="1740.3" height="87.5"/>
		<path class="st2" d="M1007.5,1395.7c-0.1,0-0.2,0-0.2,0c-2.8-0.1-4.9-2.5-4.8-5.2c6.7-146.4-51.3-316-51.9-317.7
			c-0.9-2.6,0.5-5.5,3.1-6.4c2.6-0.9,5.5,0.5,6.4,3.1c0.1,0.4,15,43.6,28.8,104.4c12.8,56.2,27.2,139.4,23.7,217
			C1012.4,1393.6,1010.2,1395.7,1007.5,1395.7z"/>
		<path class="st2" d="M490.2,1418c-2.8,0-5-2.2-5-5c-0.3-107.4,26.7-323.5,27-325.7c0.3-2.7,2.8-4.7,5.6-4.3
			c2.7,0.3,4.7,2.8,4.3,5.6c-0.3,2.2-27.2,217.6-26.9,324.4C495.2,1415.7,493,1418,490.2,1418C490.2,1418,490.2,1418,490.2,1418z"/>
		<path class="st0" d="M824.4,1556.9c-0.4-1.3-0.7-2.1-0.7-2.1s-11.2-6.2-26.1-14c-20.3-10.6-47.2-24.1-61.3-28.6
			c-24.4-7.7-97.1,34-97.1,34l-148.5-36.4l-17.6-4.3c1-3.6,4.8-41.8,8.5-80.3c-43.4-9.3-97.2-22.9-115-30.2
			c-3.6,55.7-3.3,128.1,17.6,165.9c17.5,31.7,66.4,46.1,113.3,52.5c52.3,7.1,102.2,4.1,103.5,3.7c2.4-0.8,11.2,6.9,30.1,14.5
			c18.9,7.6,54.2-15.6,54.2-15.6s35.9,11.8,65.4,18.4c29.4,6.6,24.9-12.1,24.9-12.1c30,8.4,25.6-19.8,25.6-19.8s5.8,6.8,15.7-5.5
			c9.9-12.3-4.6-22.8-4.6-22.8C827.5,1573.4,825.7,1561.7,824.4,1556.9z"/>
		<path class="st2" d="M733,1543.7c0.3,0.9,0.9,1.6,1.8,2.1c27.1,13.4,68.2,33.8,70.9,35.3c1.6,1,3.8,0.7,4.9-0.9
			c1.2-1.6,0.9-3.9-0.7-5.2c-0.4-0.3-1.4-1.1-71.8-35.9c-1.8-0.9-4-0.2-4.9,1.7C732.7,1541.8,732.7,1542.8,733,1543.7z"/>
		<path class="st2" d="M728.8,1568.9c0.3,0.8,0.8,1.5,1.6,1.9c25.3,14.2,63.6,35.6,65.6,36.9c1.5,1,3.6,0.7,4.8-0.8
			c1.2-1.6,0.9-3.8-0.7-4.9c-0.3-0.2-0.9-0.7-66.3-37.2c-1.7-1-3.9-0.3-4.8,1.4C728.5,1566.9,728.5,1567.9,728.8,1568.9z"/>
		<path class="st2" d="M723.6,1597.8c0.3,0.7,0.7,1.4,1.5,1.8c16.2,10.2,40.9,25.7,42.1,26.5c1.6,1.1,3.8,0.7,4.9-0.8
			c1.1-1.6,0.8-3.7-0.7-4.9c-0.8-0.6-26.9-17-42.5-26.8c-1.7-1-3.8-0.5-4.9,1.1C723.3,1595.7,723.2,1596.8,723.6,1597.8z"/>
		<polygon class="st2" points="1581.5,1551.5 1044.3,1551.5 1166.6,1215.4 1703.8,1215.4 		"/>
		<rect x="840.7" y="1533.9" class="st2" width="737.9" height="40.8"/>
		<path class="st3" d="M1421,1420.9c-7.9,16.6-24.9,28.1-44.6,28.1c-27.3,0-49.4-22.1-49.4-49.3s22.1-49.3,49.4-49.3
			c0.6,0,1.1,0,1.7,0c-3.1,6.4-4.8,13.6-4.8,21.2C1373.3,1398.2,1394.5,1420,1421,1420.9z"/>
		<rect x="992.2" y="344" class="st2" width="945.7" height="598.6"/>
		<rect x="992.2" y="409.3" class="st3" width="945.6" height="5"/>
		<circle class="st3" cx="1041.7" cy="377.6" r="16.1"/>
		<circle class="st3" cx="1085.1" cy="377.6" r="16.1"/>
		<circle class="st3" cx="1128.5" cy="377.6" r="16.1"/>
		<g>
			<path class="st3" d="M1189.2,543.1l-5.8-11l50.9-26.8l-50.9-26.8l5.8-11l61.3,32.3c2,1.1,3.3,3.2,3.3,5.5c0,2.3-1.3,4.4-3.3,5.5
				L1189.2,543.1z"/>
			<path class="st3" d="M1095,543.1l5.8-11l-50.9-26.8l50.9-26.8l-5.8-11l-61.3,32.3c-2,1.1-3.3,3.2-3.3,5.5c0,2.3,1.3,4.4,3.3,5.5
				L1095,543.1z"/>
			<polygon class="st3" points="1132.4,549.9 1113.5,549.9 1166.4,458.4 1185.3,458.4 			"/>
		</g>
		<circle class="st3" cx="1290.8" cy="539.5" r="10.5"/>
		<circle class="st3" cx="1319.1" cy="539.5" r="10.5"/>
		<circle class="st3" cx="1347.4" cy="539.5" r="10.5"/>
		<rect x="1035.2" y="619" class="st3" width="183.3" height="12.6"/>
		<rect x="1259.1" y="619" class="st1" width="319.1" height="12.6"/>
		<rect x="1618.9" y="619" class="st3" width="199.2" height="12.6"/>
		<rect x="1858.8" y="619" class="st3" width="37.2" height="12.6"/>
		<rect x="1035.2" y="671" class="st3" width="423.1" height="12.6"/>
		<rect x="1499" y="671" class="st1" width="397" height="12.6"/>
		<rect x="1035.2" y="775" class="st3" width="63.4" height="12.6"/>
		<rect x="1139.2" y="775" class="st3" width="439.1" height="12.6"/>
		<rect x="1618.9" y="775" class="st3" width="277.1" height="12.6"/>
		<rect x="1035.2" y="826.9" class="st3" width="303.2" height="12.6"/>
		<rect x="1379.1" y="826.9" class="st3" width="516.9" height="12.6"/>
		<rect x="1035.2" y="723" class="st3" width="860.8" height="12.7"/>
		<rect x="1035.2" y="878.9" class="st1" width="663" height="12.6"/>
		<rect x="1738.9" y="878.9" class="st3" width="157.1" height="12.6"/>
		<rect x="62.1" y="361.3" class="st2" width="360.2" height="590.2"/>
		<rect x="62.1" y="414.4" class="st3" width="360.2" height="5"/>
		<circle class="st3" cx="107.8" cy="387.3" r="16.1"/>
		<circle class="st3" cx="151.2" cy="387.3" r="16.1"/>
		<circle class="st3" cx="194.6" cy="387.3" r="16.1"/>
		<rect x="112" y="558.5" class="st3" width="260.5" height="13.3"/>
		<rect x="112" y="622.6" class="st3" width="260.5" height="13.3"/>
		<rect x="112" y="686.7" class="st3" width="260.5" height="13.3"/>
		<rect x="112" y="750.8" class="st3" width="260.5" height="13.3"/>
		<rect x="112" y="814.8" class="st3" width="260.5" height="13.3"/>
	</g>
</g>
<g id="Layer_2">
</g>
<g id="Layer_3">
</g>
<g id="Layer_4">
</g>
<g id="Layer_5">
</g>
<g id="Layer_6">
</g>
<g id="Layer_7">
</g>
<g id="Layer_8">
</g>
<g id="Layer_9">
</g>
<g id="Layer_10">
</g>
</svg>
