<?xml version="1.0" encoding="utf-8"?>
<!-- Generator: Adobe Illustrator 23.0.5, SVG Export Plug-In . SVG Version: 6.00 Build 0)  -->
<svg version="1.1" xmlns="http://www.w3.org/2000/svg" xmlns:xlink="http://www.w3.org/1999/xlink" x="0px" y="0px"
	 viewBox="0 0 2000 2000" style="enable-background:new 0 0 2000 2000;" xml:space="preserve">
<style type="text/css">
	.st0{fill:#F1BAA4;}
	.st1{fill:#C35656;}
	.st2{fill:#362E38;}
	.st3{fill:#EFE5DC;}
</style>
<g id="Layer_1">
</g>
<g id="Layer_2">
</g>
<g id="Layer_3">
</g>
<g id="Layer_4">
</g>
<g id="Layer_5">
</g>
<g id="Layer_6">
</g>
<g id="Layer_7">
</g>
<g id="Layer_8">
	<g>
		<path class="st2" d="M628.5,786.9c0,0-157-60.3-210,107.9s-265.1,279.1-245,401.9s306.3,97.8,306.3,97.8l233.9-233L724,951.7
			C724,951.7,760.8,781.5,628.5,786.9z"/>
		<rect x="925.4" y="189.1" class="st2" width="977" height="618.4"/>
		<rect x="925.4" y="256.5" class="st3" width="977" height="5.2"/>
		<circle class="st3" cx="976.5" cy="223.7" r="16.6"/>
		<circle class="st3" cx="1021.3" cy="223.7" r="16.6"/>
		<circle class="st3" cx="1066.2" cy="223.7" r="16.6"/>
		<g>
			<path class="st3" d="M1128.9,394.8l-6-11.3l52.6-27.7l-52.6-27.7l6-11.3l63.3,33.4c2.1,1.1,3.4,3.3,3.4,5.7
				c0,2.4-1.3,4.6-3.4,5.7L1128.9,394.8z"/>
			<path class="st3" d="M1031.6,394.8l6-11.3L985,355.7l52.6-27.7l-6-11.3l-63.3,33.4c-2.1,1.1-3.4,3.3-3.4,5.7
				c0,2.4,1.3,4.6,3.4,5.7L1031.6,394.8z"/>
			<polygon class="st3" points="1070.2,401.8 1050.7,401.8 1105.3,307.2 1124.8,307.2 			"/>
		</g>
		<circle class="st3" cx="1233.8" cy="391" r="10.8"/>
		<circle class="st3" cx="1263.1" cy="391" r="10.8"/>
		<circle class="st3" cx="1292.3" cy="391" r="10.8"/>
		<path class="st1" d="M786.2,1367.3c-1,16.3,0.1,137.2-1.1,152.2c0,0.4-0.1,0.8-0.1,1.1c-0.9,11.1-1.9,21.7-2.9,31.6
			c-4.9,48.4-10.9,82.2-17.2,85.2c-23.3,11.1-324.2,29.5-369.6,0c-3.5-2.3-6.4-4.2-8.9-5.9c-5.3-3.6-8.4-6.3-10-9.1
			c-3.3-5.9-0.3-12.8,2.1-31.9l0-0.3c1-7.9,2-17.9,2.3-30.8c0-1.7,0.1-3.4,0.1-5.1c0-1.2,0-2.5,0-3.8c0-6.8-0.1-14.4-0.4-22.7
			c-0.5-12.4-1.5-26.5-3.1-42.7c-1.2-0.3-2.4-0.5-3.7-0.8c-33.9-7.3-76-17.9-89.9-23.6c-2.8-1.1-4.4-2.1-4.6-2.8
			c-0.1-0.3-0.2-0.6-0.3-0.9c-2-6.5-2.2-17.8-1.1-32.3c1.1-14.5,3.6-32.2,6.8-51.3c1.7-10,3.6-20.3,5.7-30.9
			c3.2-16.4,34.2-108.3,61.1-138.4c53.9-60.3,176.6-54,186.7-54.4c2.5-0.1,44.6-2.2,135.1,1.7c21.9,0.9,42.4,2.3,59.4,4.3
			C755.6,1158.5,786.2,1367.3,786.2,1367.3z"/>
		<rect x="97.6" y="1596.3" class="st3" width="1782.5" height="214.6"/>
		<path class="st2" d="M380.7,1478.7c-2.2,0-3.9-1.7-3.9-3.9c-0.3-83.9,20.9-252.8,21.1-254.5c0.3-2.1,2.2-3.7,4.4-3.4
			c2.1,0.3,3.7,2.2,3.4,4.4c-0.2,1.7-21.3,170.1-21,253.5C384.6,1477,382.9,1478.7,380.7,1478.7
			C380.7,1478.7,380.7,1478.7,380.7,1478.7z"/>
		<path class="st0" d="M641.9,1587.3c-0.3-1-0.5-1.6-0.5-1.6s-8.8-4.9-20.4-10.9c-15.8-8.3-36.9-18.8-47.9-22.3
			c-19.1-6-75.9,26.6-75.9,26.6l-116-28.4l-13.8-3.4c0.8-2.8,3.8-32.7,6.7-62.8c-33.9-7.3-76-17.9-89.9-23.6
			c-2.8,43.6-2.6,100.1,13.8,129.7c13.7,24.7,51.9,36.1,88.5,41c40.9,5.6,79.9,3.2,80.9,2.9c1.9-0.7,8.8,5.4,23.5,11.3
			c14.8,5.9,42.3-12.2,42.3-12.2s28.1,9.2,51.1,14.4c23,5.2,19.5-9.5,19.5-9.5c23.5,6.6,20-15.5,20-15.5s4.5,5.3,12.3-4.3
			c7.8-9.6-3.6-17.8-3.6-17.8C644.3,1600.2,643,1591,641.9,1587.3z"/>
		<path class="st2" d="M570.5,1577c0.2,0.7,0.7,1.3,1.4,1.6c21.2,10.5,53.3,26.4,55.4,27.6c1.3,0.8,2.9,0.5,3.9-0.7
			c1-1.3,0.7-3.1-0.6-4c-0.3-0.2-1.1-0.8-56.1-28.1c-1.4-0.7-3.2-0.1-3.9,1.3C570.3,1575.5,570.2,1576.3,570.5,1577z"/>
		<path class="st2" d="M567.2,1596.6c0.2,0.6,0.6,1.2,1.3,1.5c19.8,11.1,49.7,27.8,51.3,28.8c1.2,0.8,2.8,0.5,3.7-0.6
			c0.9-1.2,0.7-2.9-0.5-3.9c-0.2-0.2-0.7-0.6-51.8-29.1c-1.3-0.7-3-0.3-3.8,1.1C567,1595.1,567,1595.9,567.2,1596.6z"/>
		<path class="st2" d="M563.1,1619.3c0.2,0.6,0.6,1.1,1.1,1.4c12.7,8,31.9,20.1,32.9,20.7c1.2,0.8,2.9,0.6,3.8-0.7
			c0.9-1.2,0.6-2.9-0.6-3.8c-0.6-0.4-21-13.3-33.2-20.9c-1.3-0.8-3-0.4-3.8,0.9C562.9,1617.6,562.9,1618.5,563.1,1619.3z"/>
		<path class="st0" d="M1270.5,989.9c-0.8-1.9-10-34.3,2.3-49.7s43.5-59.3,46.2-54s7.3,18.9-7.3,38.2l67.8-71.7c0,0,9.6-5.4,15.4,0
			c5.8,5.4,0,12.7-5.4,19.3c-5.4,6.6-28.9,38.5-28.9,38.5s23.1-1.5,16.2,19.3c0,0,21.6,5,7.3,30.1c0,0-28.5,68.2-47.4,72.8
			c-18.9,4.6-39.3-6.2-40.5-6.6S1270.5,989.9,1270.5,989.9z"/>
		<path class="st0" d="M748.2,1163.4c5.9,5.5,172.7-15.9,268.5-24.2c29.7-2.6,66.1-9,88.7-28.5l162.8-130.3l53.4,53.4l-136.3,147.3
			c-49,47.7-98.9,75.1-166.5,85.5l-188.1,23.5L748.2,1163.4z"/>
		<path class="st2" d="M1331.5,953.7c-2.6-1.4-4.4-4.1-5.6-8.8c-0.7-2.6,0.1-7.6,14.3-21.1c6.3-6,15.4-13.6,16.8-14.1
			c1.1-0.4,2.3,0.2,2.6,1.3c0.3,1-0.1,2.1-1.1,2.5c-1.1,0.7-8.7,6.8-16,13.7c-13.1,12.6-12.7,16.3-12.6,16.6c0.8,3.3,2,5.3,3.4,6.1
			c1.4,0.7,3.4,0.5,6.2-0.6c6.6-2.6,31.7-18.9,31.9-19.1c1-0.6,2.2-0.4,2.9,0.6c0.6,1,0.4,2.2-0.6,2.9c-1,0.7-25.7,16.7-32.7,19.5
			c-2.2,0.9-4.1,1.3-5.8,1.3C1333.9,954.6,1332.6,954.3,1331.5,953.7z M1358.3,913.6C1358.3,913.6,1358.3,913.6,1358.3,913.6
			C1358.3,913.6,1358.3,913.6,1358.3,913.6z"/>
		<path class="st2" d="M1341.3,970c-3.7-1.9-4.8-4.6-5.1-6.6c-1.1-7.1,7-15.2,7.9-16.1c0.8-0.8,2.1-0.8,2.9,0c0.8,0.8,0.8,2.1,0,2.9
			c-2.1,2-7.3,8.3-6.7,12.5c0.2,1.5,1.2,2.6,2.9,3.5c7.5,3.9,24.5-6.7,30.9-10.7c2.8-1.8,3.6-2.2,4.3-2.4c1.1-0.2,2.2,0.5,2.4,1.6
			c0.2,1.1-0.4,2.1-1.5,2.4c-0.4,0.2-1.8,1.1-3.1,1.9c-6.7,4.2-19.5,12.2-29.1,12.2C1345,971.3,1343,970.9,1341.3,970z
			 M1379.2,957.2c0,0,0.1,0,0.1,0C1379.3,957.2,1379.3,957.2,1379.2,957.2z"/>
		<path class="st2" d="M1306.4,980.4c0.6,0,1.2-0.3,1.6-0.8c14.2-17.4,2.3-37.4-1.1-42.3l6.7-12c0.6-1,0.2-2.3-0.8-2.8
			c-1-0.6-2.3-0.2-2.8,0.8l-7.3,13.1c-0.4,0.7-0.3,1.6,0.2,2.3c0.7,0.8,16.1,20.9,1.9,38.2c-0.7,0.9-0.6,2.2,0.3,2.9
			C1305.4,980.2,1305.9,980.4,1306.4,980.4z"/>
		<polygon class="st1" points="710.1,1155.6 924.2,1141.8 939.2,1320.1 778,1369.8 		"/>
		<path class="st2" d="M781.8,1422c-0.1,0-0.1,0-0.2,0c-2.2-0.1-3.8-1.9-3.7-4.1c5.2-114.4-40.1-246.9-40.6-248.3
			c-0.7-2,0.4-4.3,2.4-5c2-0.7,4.3,0.4,5,2.4c0.1,0.3,11.7,34,22.5,81.6c10,43.9,21.3,109,18.5,169.6
			C785.6,1420.4,783.9,1422,781.8,1422z"/>
		<path class="st0" d="M577.4,1204.2L577.4,1204.2c21.6,0,39-17.5,39-39v-109.4h-78.1v109.4C538.4,1186.7,555.9,1204.2,577.4,1204.2
			z"/>
		<path class="st0" d="M702.5,951.4c-1.1,2.8,3.7,68-17.4,118.3c-9.7,23.2-24.9,43.2-48.8,52.5c-12.1,4.7-26.5,6.7-43.6,4.8
			c0,0-84,9.3-118.4-87.5c0,0-35.3,0.6-43.9-36.6c-8.6-37.2,18.1-52.5,38.2-33.4c0,0,12.8-113.6,114.8-111.7
			C685.3,859.8,702.5,951.4,702.5,951.4z"/>
		<path class="st2" d="M515.1,969.1c-1.4-1.7-1.2-4.2,0.4-5.6c16.7-14.4,32.7-6.9,37.9-4.5c0.4,0.2,0.7,0.3,0.9,0.4
			c1,0.1,2,0.5,2.7,1.4c1.4,1.7,1.2,4.2-0.4,5.6c-2.2,1.9-4.5,0.8-6.6-0.2c-5-2.3-16.6-7.8-29.4,3.3c-0.7,0.6-1.7,1-2.6,1
			C517,970.5,515.9,970,515.1,969.1z M551.5,960.4L551.5,960.4L551.5,960.4z M551.6,960.4L551.6,960.4L551.6,960.4z M551.6,960.4
			C551.6,960.4,551.6,960.4,551.6,960.4C551.6,960.4,551.6,960.4,551.6,960.4z M551.6,960.4C551.6,960.4,551.6,960.4,551.6,960.4
			L551.6,960.4z M551.6,960.4C551.6,960.4,551.6,960.4,551.6,960.4C551.6,960.4,551.6,960.4,551.6,960.4z M551.6,960.4
			C551.6,960.4,551.6,960.4,551.6,960.4C551.6,960.4,551.6,960.4,551.6,960.4z M551.6,960.4C551.6,960.4,551.6,960.4,551.6,960.4
			C551.6,960.4,551.6,960.4,551.6,960.4z M551.6,960.4L551.6,960.4L551.6,960.4z M551.6,960.4C551.6,960.4,551.6,960.4,551.6,960.4
			S551.6,960.4,551.6,960.4z M551.6,960.3L551.6,960.3L551.6,960.3z M551.6,960.3C551.6,960.3,551.6,960.3,551.6,960.3
			C551.6,960.3,551.6,960.3,551.6,960.3z M551.6,960.3C551.6,960.3,551.6,960.3,551.6,960.3C551.6,960.3,551.6,960.3,551.6,960.3z
			 M551.6,960.3L551.6,960.3L551.6,960.3z"/>
		<path class="st2" d="M680.7,984.6c0.8,0,1.6-0.2,2.3-0.8c1.8-1.3,2.1-3.8,0.9-5.5c-0.6-0.8-14.8-19.8-40.2-12.8
			c-2.1,0.6-3.4,2.8-2.8,4.9c0.6,2.1,2.8,3.3,4.9,2.8c20.2-5.5,31.6,9.7,31.7,9.9C678.3,984.1,679.5,984.6,680.7,984.6z"/>
		<path class="st2" d="M594,1068.3c-2.1-0.3-3.6-2.3-3.3-4.4c0.3-2.1,2.2-3.7,4.4-3.4c0.2,0,6.2,0.5,10.8-8.8
			c3.9-7.8-5-22.1-8.4-27.4c-1.8-2.8-2.4-3.8-2.2-5.4c0.2-2.2,2.2-3.7,4.4-3.5c1.6,0.2,2.9,1.3,3.4,2.8c0.2,0.4,0.7,1.1,1.2,1.9
			c4.4,7,14.6,23.4,8.8,35.2c-6,12-14.5,13.2-17.7,13.2C594.6,1068.4,594.1,1068.3,594,1068.3z M603.3,1019.7
			C603.3,1019.7,603.3,1019.7,603.3,1019.7C603.3,1019.7,603.3,1019.7,603.3,1019.7z M603.3,1019.6
			C603.3,1019.6,603.3,1019.6,603.3,1019.6S603.3,1019.6,603.3,1019.6z"/>
		<path class="st2" d="M587.9,1098.1c-8.7-0.2-20.6-4.1-27.5-21.6c-0.8-2,0.2-4.3,2.2-5.1c2-0.8,4.3,0.2,5.1,2.2
			c3.4,8.7,8.6,14.1,15.2,15.9c9.5,2.6,19.1-2.4,20.8-3.5c1.1-1.2,2.9-1.6,4.5-0.9c2,0.9,2.9,3.2,2,5.2c-1.4,3-11.9,7.8-21.7,7.8
			C588.3,1098.1,588.1,1098.1,587.9,1098.1z M603,1087C603,1087,603,1087,603,1087C603,1087,603,1087,603,1087z M603,1087
			C603,1087,603,1087,603,1087C603,1087,603,1087,603,1087z"/>
		
			<ellipse transform="matrix(0.103 -0.9947 0.9947 0.103 -512.0764 1433.1505)" class="st2" cx="538.6" cy="1000.5" rx="16.6" ry="14.4"/>
		<circle class="st3" cx="535.1" cy="995.7" r="6.6"/>
		
			<ellipse transform="matrix(0.103 -0.9947 0.9947 0.103 -418.7049 1561.0596)" class="st2" cx="656.2" cy="1012.7" rx="16.6" ry="14.4"/>
		<circle class="st3" cx="652.7" cy="1007.9" r="6.6"/>
		<path class="st2" d="M468.6,969.5c0,0,140-29.1,161.9-78.5c0,0,42.8,101.8,95.4,109.4c0,0,8.6-149.6-98.3-166.1
			S475.1,876.1,468.6,969.5z"/>
		<path class="st2" d="M528.5,1122.8c1.4,11.4-38.8,257.7,29.6,303.4c0,0-76,65.5-115.5-34.3c-39.5-99.8,2.1-269.1,7.8-269.1
			C456.1,1122.8,528.5,1122.8,528.5,1122.8z"/>
		<path class="st2" d="M636.9,1135.2c4.2,2.1,44.1,254.6-26.3,282.6c0,0,91.4,49.9,115.5-6.2s-31-283.9-31-283.9L636.9,1135.2z"/>
		<rect x="1171.3" y="1159.3" class="st2" width="616.7" height="408.9"/>
		<polygon class="st2" points="1314.2,1704.5 1417.6,1704.5 1479.9,1533.4 1376.5,1533.4 		"/>
		
			<rect x="1224.2" y="1688.3" transform="matrix(-1 -4.489754e-11 4.489754e-11 -1 2733.5471 3428.873)" class="st2" width="285.1" height="52.3"/>
		<path class="st3" d="M1530.1,1383.6c-7.4,15.6-23.3,26.3-41.7,26.3c-25.5,0-46.2-20.7-46.2-46.2c0-25.5,20.7-46.2,46.2-46.2
			c0.5,0,1,0,1.6,0c-2.9,6-4.5,12.8-4.5,19.9C1485.5,1362.4,1505.3,1382.7,1530.1,1383.6z"/>
		<rect x="532" y="255.2" class="st2" width="360.2" height="435.1"/>
		<rect x="532" y="308.3" class="st3" width="360.2" height="5"/>
		<circle class="st3" cx="577.7" cy="281.3" r="16.1"/>
		<circle class="st3" cx="621.1" cy="281.3" r="16.1"/>
		<circle class="st3" cx="664.6" cy="281.3" r="16.1"/>
		<polygon class="st2" points="1148.6,1714.4 788.4,1714.4 833.7,1589.9 1194,1589.9 		"/>
		<path class="st2" d="M699.4,1706.7L699.4,1706.7c-19-6.8-28.9-27.6-22.2-46.7l13.5-37.9c6.8-19,27.6-28.9,46.7-22.2h0
			c19,6.8,28.9,27.6,22.2,46.7l-13.5,37.9C739.3,1703.5,718.4,1713.4,699.4,1706.7z"/>
		<rect x="994.6" y="528.6" class="st3" width="423.1" height="12.6"/>
		<rect x="1458.4" y="528.6" class="st1" width="397" height="12.6"/>
		<rect x="994.6" y="632.5" class="st3" width="63.4" height="12.6"/>
		<rect x="1098.6" y="632.5" class="st3" width="439.1" height="12.6"/>
		<rect x="1578.3" y="632.5" class="st3" width="277.1" height="12.6"/>
		<rect x="994.6" y="684.5" class="st3" width="303.2" height="12.6"/>
		<rect x="1338.5" y="684.5" class="st3" width="516.9" height="12.6"/>
		<rect x="994.6" y="580.5" class="st3" width="860.8" height="12.7"/>
		<g>
			<path class="st3" d="M622.9,409.7h-6c-14.3,0-25.9,11.6-25.9,25.9v27.9c0,14.3,11.6,25.9,25.9,25.9h6c14.3,0,25.9-11.6,25.9-25.9
				v-27.9C648.8,421.3,637.2,409.7,622.9,409.7z M635.3,463.4c0,6.8-5.6,12.4-12.4,12.4h-6c-6.8,0-12.4-5.6-12.4-12.4v-27.9
				c0-6.8,5.6-12.4,12.4-12.4h6c6.8,0,12.4,5.6,12.4,12.4V463.4z"/>
			<path class="st3" d="M694.6,409.7h-6c-14.3,0-25.9,11.6-25.9,25.9v27.9c0,14.3,11.6,25.9,25.9,25.9h6c14.3,0,25.9-11.6,25.9-25.9
				v-27.9C720.4,421.3,708.8,409.7,694.6,409.7z M707,463.4c0,6.8-5.6,12.4-12.4,12.4h-6c-6.8,0-12.4-5.6-12.4-12.4v-27.9
				c0-6.8,5.6-12.4,12.4-12.4h6c6.8,0,12.4,5.6,12.4,12.4V463.4z"/>
			<polygon class="st3" points="761.6,490.4 748.1,490.4 748.1,426.5 738.1,429.5 734.3,416.5 761.6,408.5 			"/>
			<path class="st3" d="M807.4,409.7h-6c-14.3,0-25.9,11.6-25.9,25.9v27.9c0,14.3,11.6,25.9,25.9,25.9h6c14.3,0,25.9-11.6,25.9-25.9
				v-27.9C833.3,421.3,821.7,409.7,807.4,409.7z M819.8,463.4c0,6.8-5.6,12.4-12.4,12.4h-6c-6.9,0-12.4-5.6-12.4-12.4v-27.9
				c0-6.8,5.6-12.4,12.4-12.4h6c6.8,0,12.4,5.6,12.4,12.4V463.4z"/>
			<path class="st3" d="M622.9,520.4h-6c-14.3,0-25.9,11.6-25.9,25.9v27.9c0,14.3,11.6,25.9,25.9,25.9h6c14.3,0,25.9-11.6,25.9-25.9
				v-27.9C648.8,532,637.2,520.4,622.9,520.4z M635.3,574.1c0,6.8-5.6,12.4-12.4,12.4h-6c-6.8,0-12.4-5.6-12.4-12.4v-27.9
				c0-6.9,5.6-12.4,12.4-12.4h6c6.8,0,12.4,5.6,12.4,12.4V574.1z"/>
			<polygon class="st3" points="689.9,601.1 676.5,601.1 676.5,537.2 666.4,540.2 662.7,527.2 689.9,519.2 			"/>
			<path class="st3" d="M735.7,520.4h-6c-14.3,0-25.9,11.6-25.9,25.9v27.9c0,14.3,11.6,25.9,25.9,25.9h6c14.3,0,25.9-11.6,25.9-25.9
				v-27.9C761.6,532,750,520.4,735.7,520.4z M748.1,574.1c0,6.8-5.6,12.4-12.4,12.4h-6c-6.8,0-12.4-5.6-12.4-12.4v-27.9
				c0-6.9,5.6-12.4,12.4-12.4h6c6.8,0,12.4,5.6,12.4,12.4V574.1z"/>
			<path class="st3" d="M807.4,520.4h-6c-14.3,0-25.9,11.6-25.9,25.9v27.9c0,14.3,11.6,25.9,25.9,25.9h6c14.3,0,25.9-11.6,25.9-25.9
				v-27.9C833.3,532,821.7,520.4,807.4,520.4z M819.8,574.1c0,6.8-5.6,12.4-12.4,12.4h-6c-6.9,0-12.4-5.6-12.4-12.4v-27.9
				c0-6.9,5.6-12.4,12.4-12.4h6c6.8,0,12.4,5.6,12.4,12.4V574.1z"/>
		</g>
	</g>
</g>
<g id="Layer_9">
</g>
<g id="Layer_10">
</g>
</svg>
